<svg id="Layer_1" data-name="Layer 1" xmlns="http://www.w3.org/2000/svg" viewBox="0 0 409 492">
  <defs>
    <style>
      .cls-1 {
        fill: #fff;
      }
    </style>
  </defs>
  <title>up-arrow</title>
  <path class="cls-1" d="M442.6,185.4,265.1,7.8a27.3,27.3,0,0,0-38.2,0L49.3,185.4a27,27,0,0,0,0,38l16.2,16.2a26.8,26.8,0,0,0,19,7.8,27.2,27.2,0,0,0,19.2-7.8L207.6,136V465.1A26.5,26.5,0,0,0,234,492h22.8c14.8,0,27.6-12.1,27.6-26.9V134.8L388.8,239.6a26.8,26.8,0,0,0,37.8,0l16.1-16.2A26.9,26.9,0,0,0,442.6,185.4Z" transform="translate(-41.5)"/>
</svg>
