<svg xmlns="http://www.w3.org/2000/svg" xmlns:xlink="http://www.w3.org/1999/xlink" width="3549px" height="4896px">
<path fill-rule="evenodd"  fill="rgb(121, 6, 4)"
      d="M3199.000,2619.000 C3207.875,2706.987 3290.853,2741.226 3268.000,2861.000 C3264.098,2881.451 3264.413,2898.647 3256.000,2913.000 C3247.039,2913.167 3243.640,2911.270 3238.000,2909.000 C3220.513,2870.694 3190.106,2803.770 3138.000,2803.000 C3129.643,2814.410 3120.155,2824.928 3114.000,2839.000 C3108.994,2850.443 3106.231,2864.725 3098.000,2873.000 C3091.482,2873.077 3088.749,2872.078 3085.000,2870.000 C3081.334,2839.670 3077.666,2809.330 3074.000,2779.000 C3067.427,2748.463 3057.112,2722.719 3048.000,2698.000 C2979.340,2719.331 2910.660,2740.669 2842.000,2762.000 C2803.300,2774.272 2757.790,2782.354 2728.000,2804.000 C2739.528,2823.668 2757.050,2838.605 2750.000,2872.000 C2737.335,2880.999 2724.665,2890.001 2712.000,2899.000 C2664.848,2932.200 2615.689,2959.899 2564.000,2990.000 C2505.290,3024.190 2437.885,3046.812 2367.000,3069.000 C2068.843,3162.329 1601.266,3188.478 1278.000,3099.000 C1133.926,3059.121 1000.462,3022.204 886.000,2955.000 C857.879,2938.489 763.685,2896.875 784.000,2846.000 C789.878,2831.280 802.967,2824.325 812.000,2813.000 C811.667,2812.000 811.333,2811.000 811.000,2810.000 C777.670,2797.335 744.330,2784.665 711.000,2772.000 C666.338,2760.334 621.662,2748.665 577.000,2737.000 C559.751,2731.662 517.893,2706.540 498.000,2715.000 C492.811,2731.550 484.219,2747.718 480.000,2767.000 C474.667,2805.996 469.333,2845.004 464.000,2884.000 C463.333,2884.333 462.667,2884.667 462.000,2885.000 C456.667,2884.333 451.333,2883.667 446.000,2883.000 C436.950,2857.640 430.057,2816.809 397.000,2816.000 C362.443,2832.973 341.292,2863.771 322.000,2896.000 C316.001,2906.332 309.999,2916.668 304.000,2927.000 C294.043,2926.983 292.227,2923.915 286.000,2921.000 C283.334,2905.002 280.666,2888.998 278.000,2873.000 C269.980,2825.259 288.441,2764.506 301.000,2733.000 C314.877,2698.188 342.481,2670.184 349.000,2631.000 C300.816,2601.415 248.695,2552.987 274.000,2472.000 C288.332,2440.003 302.668,2407.997 317.000,2376.000 C329.211,2329.207 295.199,2268.010 340.000,2250.000 C355.626,2243.719 385.911,2242.784 406.000,2246.000 C483.819,2258.458 516.963,2297.143 538.000,2365.000 C542.999,2390.331 548.001,2415.669 553.000,2441.000 C573.331,2448.999 593.669,2457.001 614.000,2465.000 C692.843,2496.425 788.315,2518.459 878.000,2541.000 C923.818,2552.516 994.489,2546.259 1019.000,2579.000 C1047.930,2617.643 1008.339,2671.585 1014.000,2718.000 C1026.665,2724.999 1039.335,2732.001 1052.000,2739.000 C1084.591,2758.146 1117.911,2776.597 1154.000,2791.000 C1250.717,2829.600 1362.294,2850.400 1474.000,2873.000 C1522.329,2878.333 1570.671,2883.667 1619.000,2889.000 C1640.664,2889.667 1662.335,2890.333 1684.000,2891.000 C1720.663,2891.000 1757.337,2891.000 1794.000,2891.000 C1831.425,2884.818 1869.331,2890.877 1904.000,2885.000 C1954.028,2876.519 2001.622,2878.505 2049.000,2869.000 C2158.862,2846.959 2263.412,2828.184 2357.000,2791.000 C2398.910,2774.349 2437.146,2754.566 2473.000,2732.000 C2492.665,2718.668 2512.335,2705.332 2532.000,2692.000 C2525.954,2658.397 2506.251,2596.582 2528.000,2567.000 C2550.572,2536.298 2618.700,2540.744 2661.000,2530.000 C2727.327,2514.002 2793.673,2497.998 2860.000,2482.000 C2905.662,2464.002 2951.338,2445.998 2997.000,2428.000 C2998.582,2353.485 3030.260,2280.630 3079.000,2252.000 C3097.665,2245.334 3116.335,2238.666 3135.000,2232.000 C3170.924,2231.729 3216.631,2231.661 3227.000,2257.000 C3236.882,2281.151 3222.937,2335.483 3231.000,2365.000 C3245.959,2419.764 3309.998,2484.342 3266.000,2557.000 C3248.260,2586.295 3219.469,2595.540 3199.000,2619.000 ZM300.000,2894.000 C300.667,2893.667 301.333,2893.333 302.000,2893.000 C319.701,2852.046 420.113,2730.018 447.000,2837.000 C447.667,2837.000 448.333,2837.000 449.000,2837.000 C448.118,2781.941 470.352,2746.085 480.000,2704.000 C442.004,2684.002 403.996,2663.998 366.000,2644.000 C344.794,2726.066 271.360,2782.447 300.000,2894.000 ZM355.000,2568.000 C359.491,2570.873 364.461,2571.373 368.000,2570.000 C383.998,2548.002 400.002,2525.998 416.000,2504.000 C414.667,2534.997 413.333,2566.003 412.000,2597.000 C435.998,2577.002 460.002,2556.998 484.000,2537.000 C484.000,2538.000 484.000,2539.000 484.000,2540.000 C479.043,2554.154 458.748,2600.873 465.000,2617.000 C467.376,2621.652 471.696,2623.425 477.000,2625.000 C487.999,2583.004 499.001,2540.996 510.000,2499.000 C509.333,2498.333 508.667,2497.667 508.000,2497.000 C506.667,2498.333 505.333,2499.667 504.000,2501.000 C478.336,2522.664 452.664,2544.336 427.000,2566.000 C427.333,2530.337 427.667,2494.663 428.000,2459.000 C402.669,2493.663 377.331,2528.337 352.000,2563.000 C353.005,2566.891 352.388,2566.004 355.000,2568.000 ZM395.000,2264.000 C390.334,2267.000 385.666,2270.000 381.000,2273.000 C374.721,2285.871 400.616,2322.007 405.000,2328.000 C436.516,2371.080 478.452,2404.957 530.000,2428.000 C516.962,2347.747 486.153,2267.244 395.000,2264.000 ZM594.000,2530.000 C560.670,2562.663 527.330,2595.337 494.000,2628.000 C494.667,2629.000 495.333,2630.000 496.000,2631.000 C499.333,2632.666 502.667,2634.334 506.000,2636.000 C514.666,2628.001 523.334,2619.999 532.000,2612.000 C550.332,2618.666 568.668,2625.334 587.000,2632.000 C588.000,2644.665 589.000,2657.335 590.000,2670.000 C595.333,2671.666 600.667,2673.333 606.000,2675.000 C602.000,2626.672 598.000,2578.329 594.000,2530.000 ZM648.000,2554.000 C647.419,2559.131 643.941,2566.039 647.000,2568.000 C655.367,2572.232 663.934,2574.193 671.000,2579.000 C661.668,2604.664 652.332,2630.336 643.000,2656.000 C640.476,2662.834 633.182,2678.933 636.000,2683.000 C640.333,2685.000 644.667,2687.000 649.000,2689.000 C660.999,2653.670 673.001,2618.330 685.000,2583.000 C694.332,2586.000 703.668,2589.000 713.000,2592.000 C715.333,2587.667 717.667,2583.333 720.000,2579.000 C696.002,2570.668 671.998,2562.332 648.000,2554.000 ZM796.000,2738.000 C791.667,2702.670 787.333,2667.330 783.000,2632.000 C781.237,2621.560 784.021,2603.567 778.000,2597.000 C746.003,2632.330 713.997,2667.670 682.000,2703.000 C682.667,2703.000 683.333,2703.000 684.000,2703.000 C688.000,2704.000 692.000,2705.000 696.000,2706.000 C703.999,2698.334 712.001,2690.666 720.000,2683.000 C737.402,2682.959 771.349,2692.052 776.000,2705.000 C780.044,2722.690 777.926,2737.364 796.000,2741.000 C796.000,2740.000 796.000,2739.000 796.000,2738.000 ZM891.000,2897.000 C894.196,2900.613 900.075,2903.880 903.000,2902.000 C910.666,2897.001 918.334,2892.000 926.000,2887.000 C944.276,2879.660 966.639,2897.469 983.000,2902.000 C984.333,2914.999 985.667,2928.001 987.000,2941.000 C991.666,2942.666 996.334,2944.334 1001.000,2946.000 C1001.426,2912.319 1008.584,2819.141 993.000,2801.000 C958.337,2832.997 923.663,2865.003 889.000,2897.000 C889.667,2897.000 890.333,2897.000 891.000,2897.000 ZM972.000,2640.000 C965.887,2646.540 961.223,2650.075 961.000,2663.000 C968.267,2675.273 977.487,2686.033 990.000,2693.000 C990.667,2692.667 991.333,2692.333 992.000,2692.000 C996.894,2676.576 1002.194,2662.331 1005.000,2642.000 C994.001,2641.333 982.999,2640.667 972.000,2640.000 ZM1093.000,2943.000 C1091.667,2942.000 1090.333,2941.000 1089.000,2940.000 C1086.000,2905.003 1083.000,2869.997 1080.000,2835.000 C1058.335,2873.996 1036.664,2913.004 1015.000,2952.000 C1019.528,2953.323 1024.534,2955.653 1029.000,2954.000 C1044.841,2941.662 1055.407,2888.646 1072.000,2882.000 C1074.333,2912.997 1076.667,2944.003 1079.000,2975.000 C1100.998,2952.669 1123.002,2930.331 1145.000,2908.000 C1141.000,2936.330 1137.000,2964.670 1133.000,2993.000 C1138.333,2994.000 1143.667,2995.000 1149.000,2996.000 C1154.333,2953.004 1159.667,2909.996 1165.000,2867.000 C1141.002,2892.331 1116.998,2917.669 1093.000,2943.000 ZM1206.000,2882.000 C1195.001,2922.996 1183.999,2964.004 1173.000,3005.000 C1173.667,3005.000 1174.333,3005.000 1175.000,3005.000 C1180.000,3005.667 1185.000,3006.333 1190.000,3007.000 C1194.333,2990.002 1198.667,2972.998 1203.000,2956.000 C1222.031,2967.584 1224.211,3001.269 1234.000,3022.000 C1239.333,3023.000 1244.667,3024.000 1250.000,3025.000 C1242.001,3003.669 1233.999,2982.331 1226.000,2961.000 C1299.945,2963.267 1261.344,2883.934 1206.000,2882.000 ZM1302.000,2906.000 C1292.334,2947.662 1282.666,2989.338 1273.000,3031.000 C1277.666,3032.333 1282.334,3033.667 1287.000,3035.000 C1287.000,3034.333 1287.000,3033.667 1287.000,3033.000 C1296.166,3015.494 1324.670,2919.454 1302.000,2906.000 ZM1334.000,2915.000 C1334.000,2915.667 1334.000,2916.333 1334.000,2917.000 C1333.333,2921.000 1332.667,2925.000 1332.000,2929.000 C1332.333,2929.333 1332.667,2929.667 1333.000,2930.000 C1342.332,2931.000 1351.668,2932.000 1361.000,2933.000 C1353.667,2970.663 1346.333,3008.337 1339.000,3046.000 C1343.999,3047.000 1349.001,3048.000 1354.000,3049.000 C1354.218,3035.055 1373.788,2943.538 1379.000,2937.000 C1388.332,2939.333 1397.668,2941.667 1407.000,2944.000 C1407.667,2939.334 1408.333,2934.666 1409.000,2930.000 C1384.003,2925.001 1358.998,2919.999 1334.000,2915.000 ZM1516.000,3076.000 C1501.668,3030.005 1487.332,2983.995 1473.000,2938.000 C1447.003,2978.329 1420.997,3018.671 1395.000,3059.000 C1400.666,3059.333 1406.334,3059.667 1412.000,3060.000 C1418.666,3050.334 1425.334,3040.666 1432.000,3031.000 C1451.665,3034.333 1471.335,3037.667 1491.000,3041.000 C1491.597,3055.383 1496.678,3065.458 1503.000,3074.000 C1507.333,3075.000 1511.667,3076.000 1516.000,3077.000 C1516.000,3076.667 1516.000,3076.333 1516.000,3076.000 ZM1646.000,2960.000 C1642.667,2990.664 1639.333,3021.336 1636.000,3052.000 C1632.463,3040.524 1559.603,2956.833 1548.000,2948.000 C1545.000,2991.662 1542.000,3035.338 1539.000,3079.000 C1543.666,3079.667 1548.334,3080.333 1553.000,3081.000 C1555.666,3049.336 1558.334,3017.663 1561.000,2986.000 C1562.333,2987.000 1563.667,2988.000 1565.000,2989.000 C1593.664,3022.997 1622.336,3057.003 1651.000,3091.000 C1654.666,3047.338 1658.334,3003.662 1662.000,2960.000 C1656.667,2960.000 1651.333,2960.000 1646.000,2960.000 ZM1734.000,2960.000 C1714.002,3003.329 1693.998,3046.671 1674.000,3090.000 C1678.333,3089.667 1682.667,3089.333 1687.000,3089.000 C1695.465,3084.892 1701.415,3066.652 1704.000,3057.000 C1724.665,3057.667 1745.335,3058.333 1766.000,3059.000 C1770.000,3069.332 1774.000,3079.668 1778.000,3090.000 C1783.999,3090.000 1790.001,3090.000 1796.000,3090.000 C1790.967,3064.142 1750.519,2972.255 1734.000,2960.000 ZM1924.000,2956.000 C1918.667,2956.667 1913.333,2957.333 1908.000,2958.000 C1909.667,2988.330 1911.333,3018.670 1913.000,3049.000 C1912.000,3048.667 1911.000,3048.333 1910.000,3048.000 C1876.670,3018.003 1843.330,2987.997 1810.000,2958.000 C1812.333,3001.996 1814.667,3046.004 1817.000,3090.000 C1822.666,3090.000 1828.334,3090.000 1834.000,3090.000 C1832.333,3058.337 1830.667,3026.664 1829.000,2995.000 C1831.000,2997.000 1833.000,2999.000 1835.000,3001.000 C1866.997,3028.997 1899.003,3057.003 1931.000,3085.000 C1928.667,3042.004 1926.333,2998.996 1924.000,2956.000 ZM2043.000,2968.000 C2025.909,2946.367 1986.071,2951.030 1951.000,2952.000 C1955.666,2994.329 1960.334,3036.671 1965.000,3079.000 C2032.877,3080.475 2088.559,3025.667 2043.000,2968.000 ZM2198.000,3038.000 C2170.003,3000.337 2141.997,2962.663 2114.000,2925.000 C2102.668,2971.995 2091.332,3019.005 2080.000,3066.000 C2085.333,3065.000 2090.667,3064.000 2096.000,3063.000 C2098.666,3051.001 2101.334,3038.999 2104.000,3027.000 C2124.552,3025.949 2141.072,3015.098 2163.000,3019.000 C2169.666,3027.999 2176.334,3037.001 2183.000,3046.000 C2188.333,3044.333 2193.667,3042.666 2199.000,3041.000 C2198.667,3040.000 2198.333,3039.000 2198.000,3038.000 ZM2291.000,2883.000 C2290.667,2883.000 2290.333,2883.000 2290.000,2883.000 C2284.334,2918.330 2278.666,2953.670 2273.000,2989.000 C2272.333,2988.333 2271.667,2987.667 2271.000,2987.000 C2263.555,2982.738 2260.692,2971.071 2256.000,2964.000 C2242.795,2944.098 2225.017,2918.916 2204.000,2907.000 C2207.000,2950.662 2210.000,2994.338 2213.000,3038.000 C2218.333,3037.667 2223.667,3037.333 2229.000,3037.000 C2226.334,3008.003 2223.666,2978.997 2221.000,2950.000 C2242.452,2958.682 2261.648,3005.398 2281.000,3021.000 C2281.667,3021.000 2282.333,3021.000 2283.000,3021.000 C2283.333,3020.000 2283.667,3019.000 2284.000,3018.000 C2288.666,2988.670 2293.334,2959.330 2298.000,2930.000 C2308.039,2937.055 2329.409,2992.346 2334.000,3007.000 C2339.666,3005.333 2345.334,3003.667 2351.000,3002.000 C2331.002,2962.337 2310.998,2922.663 2291.000,2883.000 ZM2377.000,2855.000 C2372.667,2902.662 2368.333,2950.338 2364.000,2998.000 C2369.333,2996.333 2374.667,2994.667 2380.000,2993.000 C2380.667,2981.001 2381.333,2968.999 2382.000,2957.000 C2401.665,2950.334 2421.335,2943.666 2441.000,2937.000 C2448.999,2945.666 2457.001,2954.334 2465.000,2963.000 C2466.000,2962.667 2467.000,2962.333 2468.000,2962.000 C2471.666,2959.667 2475.334,2957.333 2479.000,2955.000 C2462.335,2939.002 2445.665,2922.998 2429.000,2907.000 C2415.483,2887.669 2400.661,2863.533 2377.000,2855.000 ZM2530.000,2798.000 C2528.667,2797.667 2527.333,2797.333 2526.000,2797.000 C2521.667,2800.333 2517.333,2803.667 2513.000,2807.000 C2510.667,2826.331 2508.333,2845.669 2506.000,2865.000 C2484.255,2852.325 2466.404,2822.949 2440.000,2836.000 C2440.333,2837.000 2440.667,2838.000 2441.000,2839.000 C2463.331,2854.332 2485.669,2869.668 2508.000,2885.000 C2515.666,2901.665 2523.334,2918.335 2531.000,2935.000 C2534.666,2934.000 2538.334,2933.000 2542.000,2932.000 C2535.001,2915.335 2527.999,2898.665 2521.000,2882.000 C2524.000,2854.003 2527.000,2825.997 2530.000,2798.000 ZM2569.000,2624.000 C2564.667,2623.333 2560.333,2622.667 2556.000,2622.000 C2548.584,2625.993 2544.915,2625.367 2541.000,2633.000 C2544.000,2645.665 2547.000,2658.335 2550.000,2671.000 C2551.000,2670.667 2552.000,2670.333 2553.000,2670.000 C2557.879,2664.327 2581.702,2637.599 2569.000,2624.000 ZM2553.000,2783.000 C2550.334,2785.333 2547.666,2787.667 2545.000,2790.000 C2564.665,2827.330 2584.335,2864.670 2604.000,2902.000 C2605.000,2901.667 2606.000,2901.333 2607.000,2901.000 C2609.333,2899.334 2611.667,2897.666 2614.000,2896.000 C2611.699,2874.537 2567.559,2789.841 2553.000,2783.000 ZM2866.000,2689.000 C2842.669,2651.004 2819.331,2612.996 2796.000,2575.000 C2794.000,2610.663 2792.000,2646.337 2790.000,2682.000 C2782.667,2675.001 2775.333,2667.999 2768.000,2661.000 C2750.335,2642.669 2732.665,2624.331 2715.000,2606.000 C2721.666,2649.996 2728.334,2694.004 2735.000,2738.000 C2741.374,2735.665 2748.046,2735.480 2749.000,2727.000 C2745.000,2701.336 2741.000,2675.664 2737.000,2650.000 C2758.665,2671.331 2780.336,2692.669 2802.000,2714.000 C2802.333,2714.000 2802.667,2714.000 2803.000,2714.000 C2805.000,2683.670 2807.000,2653.330 2809.000,2623.000 C2809.333,2623.667 2809.667,2624.333 2810.000,2625.000 C2824.332,2647.664 2838.668,2670.336 2853.000,2693.000 C2857.333,2692.000 2861.667,2691.000 2866.000,2690.000 C2866.000,2689.667 2866.000,2689.333 2866.000,2689.000 ZM2890.000,2540.000 C2887.667,2587.329 2885.333,2634.671 2883.000,2682.000 C2884.333,2682.000 2885.667,2682.000 2887.000,2682.000 C2890.333,2679.667 2893.667,2677.333 2897.000,2675.000 C2898.666,2663.001 2900.334,2650.999 2902.000,2639.000 C2919.998,2632.667 2938.002,2626.333 2956.000,2620.000 C2963.999,2627.666 2972.001,2635.334 2980.000,2643.000 C2984.666,2641.334 2989.334,2639.666 2994.000,2638.000 C2984.884,2622.448 2905.831,2547.655 2890.000,2540.000 ZM3015.000,2503.000 C3013.222,2498.980 3012.953,2497.942 3009.000,2496.000 C3007.667,2495.667 3006.333,2495.333 3005.000,2495.000 C2984.002,2504.666 2962.998,2514.334 2942.000,2524.000 C2942.333,2525.000 2942.667,2526.000 2943.000,2527.000 C2944.333,2529.666 2945.667,2532.334 2947.000,2535.000 C2956.666,2531.667 2966.334,2528.333 2976.000,2525.000 C2980.830,2544.161 3008.076,2617.664 3019.000,2629.000 C3023.333,2627.000 3027.667,2625.000 3032.000,2623.000 C3018.001,2587.337 3003.999,2551.663 2990.000,2516.000 C2998.333,2513.334 3006.667,2510.666 3015.000,2508.000 C3015.000,2506.333 3015.000,2504.667 3015.000,2503.000 ZM3160.000,2255.000 C3154.001,2253.667 3147.999,2252.333 3142.000,2251.000 C3126.002,2256.000 3109.998,2261.001 3094.000,2266.000 C3050.561,2291.972 3027.377,2356.137 3018.000,2415.000 C3069.339,2392.585 3114.736,2353.001 3147.000,2311.000 C3153.298,2302.802 3176.406,2267.498 3160.000,2255.000 ZM3112.000,2449.000 C3109.000,2451.000 3106.000,2453.000 3103.000,2455.000 C3108.999,2471.332 3115.001,2487.668 3121.000,2504.000 C3110.882,2506.749 3067.473,2525.116 3063.000,2522.000 C3056.334,2508.001 3049.666,2493.999 3043.000,2480.000 C3039.000,2481.666 3035.000,2483.334 3031.000,2485.000 C3047.332,2523.663 3063.668,2562.337 3080.000,2601.000 C3084.999,2600.000 3090.001,2599.000 3095.000,2598.000 C3087.001,2578.002 3078.999,2557.998 3071.000,2538.000 C3090.331,2530.334 3109.669,2522.666 3129.000,2515.000 C3137.666,2533.665 3146.334,2552.335 3155.000,2571.000 C3158.666,2569.667 3162.334,2568.333 3166.000,2567.000 C3164.091,2555.801 3116.959,2452.618 3112.000,2449.000 ZM3068.000,2691.000 C3075.999,2716.997 3084.001,2743.003 3092.000,2769.000 C3095.000,2786.332 3098.000,2803.668 3101.000,2821.000 C3101.000,2820.333 3101.000,2819.667 3101.000,2819.000 C3111.651,2808.311 3114.914,2790.254 3130.000,2784.000 C3174.234,2765.662 3237.295,2853.474 3246.000,2883.000 C3246.667,2883.000 3247.333,2883.000 3248.000,2883.000 C3254.771,2798.736 3232.672,2738.190 3205.000,2684.000 C3197.656,2669.619 3189.662,2641.250 3177.000,2632.000 C3155.126,2657.193 3097.611,2671.596 3068.000,2691.000 ZM2903.000,2570.000 C2915.999,2583.665 2929.001,2597.335 2942.000,2611.000 C2928.335,2615.666 2914.665,2620.334 2901.000,2625.000 C2901.667,2606.668 2902.333,2588.332 2903.000,2570.000 ZM2389.000,2886.000 C2397.243,2889.924 2424.969,2919.530 2429.000,2928.000 C2414.001,2932.333 2398.998,2936.667 2384.000,2941.000 C2385.666,2922.669 2387.334,2904.332 2389.000,2886.000 ZM2107.000,3013.000 C2107.000,3012.667 2107.000,3012.333 2107.000,3012.000 C2111.333,2994.002 2115.667,2975.998 2120.000,2958.000 C2130.999,2972.332 2142.001,2986.668 2153.000,3001.000 C2152.667,3002.666 2152.333,3004.334 2152.000,3006.000 C2137.001,3008.333 2121.998,3010.667 2107.000,3013.000 ZM1979.000,3064.000 C1975.334,3030.670 1971.666,2997.330 1968.000,2964.000 C1970.333,2963.667 1972.667,2963.333 1975.000,2963.000 C2015.569,2961.998 2064.012,2998.959 2038.000,3039.000 C2027.448,3055.244 2000.972,3058.382 1981.000,3065.000 C1980.333,3064.667 1979.667,3064.333 1979.000,3064.000 ZM1712.000,3042.000 C1719.333,3025.668 1726.667,3009.332 1734.000,2993.000 C1741.999,3009.998 1750.001,3027.002 1758.000,3044.000 C1742.668,3043.667 1727.332,3043.333 1712.000,3043.000 C1712.000,3042.667 1712.000,3042.333 1712.000,3042.000 ZM1467.000,2971.000 C1476.661,2979.776 1481.486,3010.391 1485.000,3024.000 C1469.668,3022.333 1454.332,3020.666 1439.000,3019.000 C1442.584,2999.854 1459.813,2987.830 1467.000,2971.000 ZM1206.000,2945.000 C1206.000,2944.000 1206.000,2943.000 1206.000,2942.000 C1210.333,2927.335 1214.667,2912.665 1219.000,2898.000 C1235.070,2903.236 1253.649,2911.235 1255.000,2931.000 C1247.131,2951.551 1228.559,2949.133 1206.000,2945.000 ZM945.000,2865.000 C956.666,2854.001 968.335,2842.999 980.000,2832.000 C981.667,2850.332 983.333,2868.669 985.000,2887.000 C970.668,2881.001 956.332,2874.999 942.000,2869.000 C943.000,2867.667 944.000,2866.333 945.000,2865.000 ZM732.000,2669.000 C745.504,2658.847 758.705,2643.274 768.000,2629.000 C770.000,2647.665 772.000,2666.335 774.000,2685.000 C773.667,2685.000 773.333,2685.000 773.000,2685.000 C759.335,2679.667 745.665,2674.333 732.000,2669.000 ZM545.000,2602.000 C556.999,2589.001 569.001,2575.999 581.000,2563.000 C583.333,2581.332 585.667,2599.668 588.000,2618.000 C587.000,2618.000 586.000,2618.000 585.000,2618.000 C571.668,2612.667 558.332,2607.333 545.000,2602.000 ZM3054.000,1603.000 C3028.559,1749.157 2996.199,1882.151 2972.000,2027.000 C2966.618,2059.215 2978.666,2094.352 2978.000,2117.000 C2921.402,2120.810 2887.598,2167.997 2852.000,2195.000 C2756.208,2267.664 2679.119,2357.302 2580.000,2427.000 C2518.135,2470.502 2441.758,2512.728 2360.000,2457.000 C2359.667,2457.000 2359.333,2457.000 2359.000,2457.000 C2368.380,2551.562 2322.071,2579.439 2263.000,2614.000 C2153.665,2677.968 2003.822,2704.856 1882.000,2755.000 C1838.849,2772.762 1779.233,2784.587 1757.000,2823.000 C1752.001,2818.001 1746.999,2812.999 1742.000,2808.000 C1716.809,2801.711 1691.058,2785.345 1670.000,2773.000 C1640.747,2755.851 1606.598,2743.746 1574.000,2731.000 C1461.985,2687.202 1335.995,2668.130 1241.000,2610.000 C1216.099,2594.762 1190.194,2579.814 1173.000,2557.000 C1160.929,2540.984 1153.306,2521.903 1149.000,2498.000 C1149.000,2485.001 1149.000,2471.999 1149.000,2459.000 C1148.333,2459.667 1147.667,2460.333 1147.000,2461.000 C1129.106,2468.490 1113.721,2479.873 1092.000,2485.000 C1016.166,2502.898 941.907,2439.333 902.000,2410.000 C814.311,2345.546 744.214,2264.197 658.000,2198.000 C617.745,2167.092 589.627,2130.748 530.000,2118.000 C547.988,2066.134 535.066,1987.619 523.000,1940.000 C498.904,1844.902 478.434,1747.364 459.000,1648.000 C448.234,1592.955 454.982,1518.914 472.000,1477.000 C480.311,1456.531 492.858,1438.748 511.000,1428.000 C521.999,1422.334 533.001,1416.666 544.000,1411.000 C476.160,1399.502 438.329,1294.584 455.000,1204.000 C471.103,1116.502 489.101,1036.369 510.000,952.000 C527.192,882.595 541.277,790.808 530.000,705.000 C530.333,704.667 530.667,704.333 531.000,704.000 C584.170,702.288 615.839,656.381 649.000,632.000 C751.454,556.672 829.684,459.052 937.000,388.000 C1007.643,341.229 1059.120,316.276 1148.000,364.000 C1141.260,262.864 1197.220,231.479 1263.000,198.000 C1373.576,141.722 1515.033,113.664 1632.000,64.000 C1672.155,46.951 1729.117,36.094 1750.000,0.000 C1761.999,9.332 1774.001,18.668 1786.000,28.000 C1838.328,49.998 1890.672,72.002 1943.000,94.000 C2060.952,139.569 2191.374,159.479 2288.000,224.000 C2330.587,252.437 2368.099,290.767 2357.000,364.000 C2357.333,364.000 2357.667,364.000 2358.000,364.000 C2359.000,363.000 2360.000,362.000 2361.000,361.000 C2378.211,353.756 2392.227,342.213 2413.000,337.000 C2492.314,317.097 2568.393,384.106 2610.000,416.000 C2694.640,480.881 2765.293,558.960 2850.000,624.000 C2890.251,654.906 2916.261,691.102 2977.000,703.000 C2954.165,855.229 3011.041,1012.141 3042.000,1137.000 C3058.611,1203.994 3057.817,1311.662 3028.000,1362.000 C3012.187,1388.695 2987.968,1391.782 2964.000,1410.000 C2964.333,1410.667 2964.667,1411.333 2965.000,1412.000 C3028.349,1416.219 3068.080,1522.111 3054.000,1603.000 ZM2937.000,1396.000 C2936.667,1381.668 2936.333,1367.332 2936.000,1353.000 C2932.000,1316.670 2928.000,1280.330 2924.000,1244.000 C2901.824,1133.589 2877.070,1034.603 2838.000,944.000 C2662.256,536.456 2294.848,224.812 1712.000,225.000 C1675.337,228.000 1638.663,231.000 1602.000,234.000 C1526.048,248.138 1444.379,259.123 1378.000,285.000 C1017.463,425.550 747.254,667.922 627.000,1048.000 C604.578,1118.868 592.746,1199.092 577.000,1277.000 C545.157,1434.551 585.704,1645.959 627.000,1763.000 C746.819,2102.595 939.272,2348.048 1259.000,2487.000 C1346.575,2525.059 1433.267,2560.706 1538.000,2584.000 C1566.664,2587.333 1595.336,2590.667 1624.000,2594.000 C1641.665,2594.000 1659.335,2594.000 1677.000,2594.000 C1710.330,2595.667 1743.670,2597.333 1777.000,2599.000 C1865.446,2582.900 1971.004,2586.315 2052.000,2562.000 C2422.800,2450.686 2690.734,2226.599 2837.000,1891.000 C2881.606,1788.655 2907.908,1674.728 2931.000,1550.000 C2937.759,1513.492 2943.638,1436.182 2937.000,1396.000 ZM2397.000,1609.000 C2552.651,1602.001 2708.349,1594.999 2864.000,1588.000 C2864.000,1595.666 2864.000,1603.334 2864.000,1611.000 C2707.682,1617.666 2551.318,1624.334 2395.000,1631.000 C2394.637,1624.276 2393.693,1612.462 2397.000,1609.000 ZM2371.000,1465.000 C2369.667,1458.334 2368.333,1451.666 2367.000,1445.000 C2513.985,1398.005 2661.015,1350.995 2808.000,1304.000 C2817.088,1305.236 2826.170,1317.794 2820.000,1325.000 C2670.348,1371.662 2520.652,1418.338 2371.000,1465.000 ZM2591.000,1132.000 C2496.009,1191.994 2400.991,1252.006 2306.000,1312.000 C2303.221,1304.071 2299.027,1299.574 2301.000,1289.000 C2430.987,1206.342 2561.013,1123.658 2691.000,1041.000 C2696.720,1043.287 2706.620,1054.842 2703.000,1060.000 C2695.230,1074.039 2610.309,1119.915 2591.000,1132.000 ZM2558.000,734.000 C2567.666,734.000 2577.334,734.000 2587.000,734.000 C2587.000,743.999 2587.000,754.001 2587.000,764.000 C2577.001,764.000 2566.999,764.000 2557.000,764.000 C2557.333,754.001 2557.667,743.999 2558.000,734.000 ZM2561.000,700.000 C2535.669,724.998 2510.331,750.003 2485.000,775.000 C2484.333,774.667 2483.667,774.333 2483.000,774.000 C2480.667,765.001 2478.333,755.999 2476.000,747.000 C2498.664,725.002 2521.336,702.998 2544.000,681.000 C2539.582,675.592 2528.322,668.726 2530.000,661.000 C2533.333,655.334 2536.667,649.666 2540.000,644.000 C2561.240,649.724 2572.799,675.390 2586.000,690.000 C2584.000,699.332 2582.000,708.668 2580.000,718.000 C2573.667,712.001 2567.333,705.999 2561.000,700.000 ZM2438.000,696.000 C2438.317,706.046 2440.630,726.756 2436.000,733.000 C2432.334,731.667 2428.666,730.333 2425.000,729.000 C2426.666,717.335 2428.334,705.666 2430.000,694.000 C2431.754,678.484 2417.476,676.550 2427.000,661.000 C2434.282,658.755 2440.501,659.196 2447.000,662.000 C2446.480,667.833 2445.331,671.464 2448.000,675.000 C2448.000,675.667 2448.000,676.333 2448.000,677.000 C2455.666,677.667 2463.334,678.333 2471.000,679.000 C2467.552,661.385 2467.324,639.622 2471.000,623.000 C2475.333,620.334 2479.667,617.666 2484.000,615.000 C2518.417,613.905 2539.649,647.842 2520.000,678.000 C2505.375,700.447 2469.873,701.842 2438.000,696.000 ZM2501.000,636.000 C2497.000,635.667 2493.000,635.333 2489.000,635.000 C2486.000,638.666 2483.000,642.334 2480.000,646.000 C2480.000,655.666 2480.000,665.334 2480.000,675.000 C2489.889,670.174 2498.260,662.983 2504.000,654.000 C2503.000,648.001 2502.000,641.999 2501.000,636.000 ZM2474.000,613.000 C2465.001,605.001 2455.999,596.999 2447.000,589.000 C2445.264,598.163 2390.578,666.228 2382.000,673.000 C2380.667,672.667 2379.333,672.333 2378.000,672.000 C2374.464,646.422 2379.489,630.855 2395.000,617.000 C2391.667,613.334 2388.333,609.666 2385.000,606.000 C2379.001,603.334 2372.999,600.666 2367.000,598.000 C2364.387,604.421 2359.860,607.782 2352.000,609.000 C2345.322,593.902 2344.539,574.380 2358.000,564.000 C2381.986,572.019 2391.724,585.608 2409.000,599.000 C2415.333,590.668 2421.667,582.333 2428.000,574.000 C2414.741,554.910 2380.735,523.675 2352.000,522.000 C2333.002,550.997 2313.998,580.003 2295.000,609.000 C2294.000,608.667 2293.000,608.333 2292.000,608.000 C2289.000,599.334 2286.000,590.666 2283.000,582.000 C2299.998,555.669 2317.002,529.331 2334.000,503.000 C2323.034,499.242 2308.366,483.602 2298.000,485.000 C2280.529,494.545 2263.915,561.890 2247.000,579.000 C2245.667,578.333 2244.333,577.667 2243.000,577.000 C2239.667,570.001 2236.333,562.999 2233.000,556.000 C2237.000,547.001 2241.000,537.999 2245.000,529.000 C2234.001,523.334 2222.999,517.666 2212.000,512.000 C2209.334,516.000 2206.666,520.000 2204.000,524.000 C2200.334,523.000 2196.666,522.000 2193.000,521.000 C2188.881,506.586 2181.794,494.222 2186.000,476.000 C2190.666,476.667 2195.334,477.333 2200.000,478.000 C2206.333,466.001 2212.667,453.999 2219.000,442.000 C2211.855,434.691 2187.191,421.360 2175.000,427.000 C2162.668,459.330 2150.332,491.670 2138.000,524.000 C2137.000,523.667 2136.000,523.333 2135.000,523.000 C2130.667,516.001 2126.333,508.999 2122.000,502.000 C2123.667,495.334 2125.333,488.666 2127.000,482.000 C2093.777,495.637 2049.417,461.167 2063.000,427.000 C2078.194,388.781 2134.378,407.217 2140.000,442.000 C2141.333,441.667 2142.667,441.333 2144.000,441.000 C2147.000,431.001 2150.000,420.999 2153.000,411.000 C2108.671,396.335 2064.329,381.665 2020.000,367.000 C2007.573,363.214 1990.337,356.021 1974.000,360.000 C1968.667,395.663 1963.333,431.337 1958.000,467.000 C1957.667,467.000 1957.333,467.000 1957.000,467.000 C1947.850,462.903 1940.607,453.661 1935.000,446.000 C1938.000,428.335 1941.000,410.665 1944.000,393.000 C1934.001,392.000 1923.999,391.000 1914.000,390.000 C1884.271,397.707 1902.553,438.595 1910.000,456.000 C1905.092,456.836 1902.468,458.018 1900.000,456.000 C1885.352,436.092 1872.930,395.011 1890.000,370.000 C1909.851,366.800 1929.708,368.822 1948.000,372.000 C1948.667,366.001 1949.333,359.999 1950.000,354.000 C1933.783,353.522 1859.860,340.191 1853.000,346.000 C1851.000,380.663 1849.000,415.337 1847.000,450.000 C1839.334,445.001 1831.666,439.999 1824.000,435.000 C1824.000,424.668 1824.000,414.332 1824.000,404.000 C1813.143,403.760 1794.441,400.423 1788.000,404.000 C1784.837,407.202 1784.853,415.694 1784.000,421.000 C1781.334,421.000 1778.666,421.000 1776.000,421.000 C1769.504,412.772 1748.360,399.265 1750.000,388.000 C1750.667,385.334 1751.333,382.666 1752.000,380.000 C1756.000,380.000 1760.000,380.000 1764.000,380.000 C1764.333,366.001 1764.667,351.999 1765.000,338.000 C1749.335,338.000 1733.665,338.000 1718.000,338.000 C1721.000,373.996 1724.000,410.004 1727.000,446.000 C1718.334,442.000 1709.666,438.000 1701.000,434.000 C1700.333,422.335 1699.667,410.665 1699.000,399.000 C1698.667,399.000 1698.333,399.000 1698.000,399.000 C1686.489,403.458 1674.132,399.054 1665.000,396.000 C1665.000,396.333 1665.000,396.667 1665.000,397.000 C1670.444,411.149 1668.341,434.765 1657.000,441.000 C1623.456,461.104 1582.915,422.289 1577.000,398.000 C1580.000,398.000 1583.000,398.000 1586.000,398.000 C1600.342,406.467 1615.721,438.984 1645.000,419.000 C1648.221,411.538 1654.258,401.453 1649.000,391.000 C1647.645,388.945 1647.880,389.391 1646.000,388.000 C1623.576,396.159 1620.747,404.716 1609.000,379.000 C1620.332,375.000 1631.668,371.000 1643.000,367.000 C1643.000,359.001 1643.000,350.999 1643.000,343.000 C1642.333,343.000 1641.667,343.000 1641.000,343.000 C1623.891,332.235 1607.142,348.837 1598.000,356.000 C1596.667,355.667 1595.333,355.333 1594.000,355.000 C1591.667,351.000 1589.333,347.000 1587.000,343.000 C1589.000,339.000 1591.000,335.000 1593.000,331.000 C1642.983,320.738 1668.033,329.464 1657.000,382.000 C1661.000,382.000 1665.000,382.000 1669.000,382.000 C1679.622,379.444 1688.787,378.699 1695.000,372.000 C1694.000,361.334 1693.000,350.666 1692.000,340.000 C1686.334,340.000 1680.666,340.000 1675.000,340.000 C1671.334,332.667 1667.666,325.333 1664.000,318.000 C1664.000,317.667 1664.000,317.333 1664.000,317.000 C1959.171,313.809 2153.782,368.367 2333.000,478.000 C2384.544,509.531 2463.548,546.513 2493.000,598.000 C2488.001,602.999 2482.999,608.000 2478.000,613.000 C2476.667,613.000 2475.333,613.000 2474.000,613.000 ZM2138.000,454.000 C2130.902,438.120 2117.744,429.500 2094.000,430.000 C2086.299,435.789 2081.921,438.445 2076.000,446.000 C2076.333,447.000 2076.667,448.000 2077.000,449.000 C2092.209,467.937 2112.470,462.837 2138.000,458.000 C2138.000,456.667 2138.000,455.333 2138.000,454.000 ZM1790.000,338.000 C1789.333,352.665 1788.667,367.335 1788.000,382.000 C1800.665,382.333 1813.335,382.667 1826.000,383.000 C1826.667,368.668 1827.333,354.332 1828.000,340.000 C1815.335,339.333 1802.665,338.667 1790.000,338.000 ZM2241.000,453.000 C2234.667,466.332 2228.333,479.668 2222.000,493.000 C2233.666,498.333 2245.334,503.667 2257.000,509.000 C2262.666,495.335 2268.334,481.665 2274.000,468.000 C2263.001,463.001 2251.999,458.000 2241.000,453.000 ZM1855.000,482.000 C1857.154,490.598 1861.161,494.428 1857.000,502.000 C1822.612,517.968 1788.365,498.338 1791.000,457.000 C1796.000,452.667 1801.000,448.333 1806.000,444.000 C1814.666,445.333 1823.334,446.667 1832.000,448.000 C1835.000,453.000 1838.000,458.000 1841.000,463.000 C1822.778,461.130 1811.657,462.556 1805.000,475.000 C1805.838,480.977 1807.551,484.596 1812.000,487.000 C1823.941,497.242 1845.855,482.550 1855.000,482.000 ZM2263.000,1244.000 C2262.000,1243.667 2261.000,1243.333 2260.000,1243.000 C2256.000,1238.001 2252.000,1233.000 2248.000,1228.000 C2251.095,1215.109 2292.552,1187.027 2304.000,1178.000 C2353.662,1136.004 2403.338,1093.996 2453.000,1052.000 C2461.962,1054.145 2464.211,1060.839 2469.000,1067.000 C2468.667,1068.666 2468.333,1070.334 2468.000,1072.000 C2399.674,1129.328 2331.327,1186.672 2263.000,1244.000 ZM2302.000,914.000 C2250.672,985.660 2199.328,1057.341 2148.000,1129.000 C2142.334,1125.334 2136.666,1121.666 2131.000,1118.000 C2139.126,1098.049 2155.145,1082.683 2167.000,1066.000 C2206.996,1009.672 2247.004,953.328 2287.000,897.000 C2297.149,898.310 2300.737,904.047 2307.000,909.000 C2305.334,910.666 2303.667,912.334 2302.000,914.000 ZM2301.000,667.000 C2227.007,805.653 2152.993,944.347 2079.000,1083.000 C2073.001,1079.667 2066.999,1076.333 2061.000,1073.000 C2133.993,934.347 2207.007,795.653 2280.000,657.000 C2287.109,658.302 2296.636,662.493 2301.000,667.000 ZM2111.000,796.000 C2078.003,879.992 2044.997,964.008 2012.000,1048.000 C2005.667,1045.000 1999.333,1042.000 1993.000,1039.000 C2025.330,955.342 2057.670,871.658 2090.000,788.000 C2096.999,790.666 2104.001,793.334 2111.000,796.000 ZM2014.000,482.000 C2001.527,467.691 1989.911,425.371 1999.000,401.000 C2005.333,397.000 2011.667,393.000 2018.000,389.000 C2034.665,392.666 2051.335,396.334 2068.000,400.000 C2068.000,402.000 2068.000,404.000 2068.000,406.000 C2067.000,410.999 2066.000,416.000 2065.000,421.000 C2063.000,421.000 2061.000,421.000 2059.000,421.000 C2049.521,416.566 2036.002,414.862 2024.000,418.000 C2008.430,438.133 2016.218,457.222 2024.000,480.000 C2020.667,480.667 2017.333,481.333 2014.000,482.000 ZM2448.000,767.000 C2448.667,761.667 2449.333,756.333 2450.000,751.000 C2475.351,737.052 2487.751,778.846 2475.000,801.000 C2423.252,819.889 2394.402,774.879 2395.000,719.000 C2398.333,719.333 2401.667,719.667 2405.000,720.000 C2405.321,756.123 2426.342,789.022 2465.000,788.000 C2467.333,785.334 2469.667,782.666 2472.000,780.000 C2470.667,777.334 2469.333,774.666 2468.000,772.000 C2461.334,770.334 2454.666,768.666 2448.000,767.000 ZM2554.000,767.000 C2554.000,776.999 2554.000,787.001 2554.000,797.000 C2544.001,797.000 2533.999,797.000 2524.000,797.000 C2524.333,787.001 2524.667,776.999 2525.000,767.000 C2534.666,767.000 2544.334,767.000 2554.000,767.000 ZM2207.000,1181.000 C2204.667,1178.667 2202.333,1176.333 2200.000,1174.000 C2184.474,1167.480 2198.016,1156.143 2207.000,1150.000 C2306.990,1039.011 2407.010,927.989 2507.000,817.000 C2510.326,819.117 2524.465,828.448 2524.000,833.000 C2500.002,859.331 2475.998,885.669 2452.000,912.000 C2370.341,1001.658 2288.658,1091.342 2207.000,1181.000 ZM2591.000,1273.000 C2508.342,1310.663 2425.658,1348.337 2343.000,1386.000 C2340.667,1380.001 2338.333,1373.999 2336.000,1368.000 C2416.659,1329.671 2497.341,1291.329 2578.000,1253.000 C2586.490,1255.390 2589.799,1263.429 2591.000,1273.000 ZM1685.000,694.000 C1694.018,671.438 1703.449,634.888 1698.000,601.000 C1695.287,584.128 1694.776,555.496 1699.000,540.000 C1706.300,513.221 1722.827,506.336 1741.000,491.000 C1782.072,491.400 1766.253,507.326 1783.000,527.000 C1789.666,531.333 1796.334,535.667 1803.000,540.000 C1820.991,557.752 1827.189,594.776 1832.000,625.000 C1838.621,666.597 1815.442,703.089 1828.000,743.000 C1840.866,783.889 1875.061,807.878 1905.000,832.000 C1950.149,868.377 1984.756,928.475 1981.000,1013.000 C1979.334,1027.665 1977.666,1042.335 1976.000,1057.000 C1976.667,1057.000 1977.333,1057.000 1978.000,1057.000 C1989.332,1060.666 2000.668,1064.334 2012.000,1068.000 C2038.365,1078.435 2064.031,1091.557 2087.000,1106.000 C2259.418,1214.415 2407.721,1442.336 2364.000,1735.000 C2304.339,1735.000 2244.661,1735.000 2185.000,1735.000 C2185.000,1734.667 2185.000,1734.333 2185.000,1734.000 C2196.332,1724.001 2207.668,1713.999 2219.000,1704.000 C2240.403,1676.420 2264.827,1618.954 2246.000,1571.000 C2228.668,1543.003 2211.332,1514.997 2194.000,1487.000 C2185.777,1460.479 2211.033,1445.431 2199.000,1420.000 C2129.247,1406.537 2097.113,1412.395 2041.000,1435.000 C2042.116,1381.571 2004.587,1360.893 1949.000,1373.000 C1893.367,1385.118 1870.489,1406.003 1837.000,1439.000 C1836.000,1438.667 1835.000,1438.333 1834.000,1438.000 C1817.344,1393.164 1778.438,1306.792 1717.000,1359.000 C1697.476,1375.591 1688.109,1415.728 1676.000,1439.000 C1675.333,1438.667 1674.667,1438.333 1674.000,1438.000 C1661.603,1411.582 1608.923,1379.718 1575.000,1373.000 C1536.738,1365.422 1475.902,1378.870 1468.000,1406.000 C1464.858,1416.789 1470.506,1427.286 1472.000,1435.000 C1471.667,1435.000 1471.333,1435.000 1471.000,1435.000 C1442.770,1422.132 1322.562,1381.716 1306.000,1431.000 C1298.298,1453.920 1328.463,1469.424 1313.000,1495.000 C1291.226,1531.014 1244.076,1575.285 1261.000,1637.000 C1272.568,1679.183 1303.339,1703.076 1326.000,1734.000 C1326.000,1734.333 1326.000,1734.667 1326.000,1735.000 C1267.006,1734.333 1207.994,1733.667 1149.000,1733.000 C1145.032,1692.577 1132.508,1638.656 1140.000,1594.000 C1172.744,1398.825 1240.691,1254.449 1369.000,1156.000 C1411.380,1123.483 1460.977,1082.807 1516.000,1065.000 C1493.806,861.816 1631.540,827.749 1685.000,694.000 ZM1733.000,1299.000 C1752.865,1307.291 1769.194,1305.945 1786.000,1295.000 C1786.000,1292.000 1786.000,1289.000 1786.000,1286.000 C1767.002,1286.000 1747.998,1286.000 1729.000,1286.000 C1729.391,1291.942 1730.726,1295.402 1733.000,1299.000 ZM1844.000,1239.000 C1843.667,1238.667 1843.333,1238.333 1843.000,1238.000 C1841.400,1235.302 1842.661,1236.623 1840.000,1235.000 C1814.558,1252.965 1745.428,1250.220 1707.000,1244.000 C1694.668,1243.000 1682.332,1242.000 1670.000,1241.000 C1688.809,1278.892 1839.308,1286.525 1844.000,1239.000 ZM1612.000,1143.000 C1645.824,1162.800 1692.273,1172.417 1737.000,1180.000 C1757.545,1183.483 1781.208,1178.968 1799.000,1182.000 C1799.000,1185.000 1799.000,1188.000 1799.000,1191.000 C1797.000,1193.333 1795.000,1195.667 1793.000,1198.000 C1724.980,1201.954 1678.322,1199.435 1627.000,1179.000 C1626.556,1185.782 1625.056,1192.074 1628.000,1196.000 C1650.491,1243.130 1794.062,1234.862 1843.000,1215.000 C1860.923,1207.726 1873.295,1197.418 1885.000,1184.000 C1884.333,1182.000 1883.667,1180.000 1883.000,1178.000 C1882.333,1177.667 1881.667,1177.333 1881.000,1177.000 C1863.084,1176.824 1829.925,1188.566 1829.000,1173.000 C1830.667,1170.000 1832.333,1167.000 1834.000,1164.000 C1860.003,1160.908 1873.711,1151.473 1887.000,1136.000 C1883.910,1070.541 1804.684,1113.403 1780.000,1080.000 C1780.000,1079.667 1780.000,1079.333 1780.000,1079.000 C1788.927,1069.932 1803.674,1068.858 1815.000,1062.000 C1846.635,1042.844 1876.567,985.410 1832.000,957.000 C1813.380,945.130 1776.489,957.492 1756.000,950.000 C1757.000,945.334 1758.000,940.666 1759.000,936.000 C1776.076,930.058 1794.831,925.720 1805.000,913.000 C1819.897,894.366 1820.423,859.774 1812.000,833.000 C1796.371,783.320 1764.875,742.794 1754.000,691.000 C1745.910,652.470 1765.998,547.889 1750.000,523.000 C1747.667,522.667 1745.333,522.333 1743.000,522.000 C1714.160,557.554 1734.261,672.984 1708.000,719.000 C1660.167,802.816 1587.206,863.208 1550.000,958.000 C1517.097,1041.830 1557.371,1111.021 1612.000,1143.000 ZM1506.000,472.000 C1497.001,470.333 1487.999,468.667 1479.000,467.000 C1482.478,452.713 1484.406,430.251 1475.000,421.000 C1472.667,421.000 1470.333,421.000 1468.000,421.000 C1461.334,428.333 1454.666,435.667 1448.000,443.000 C1453.666,459.665 1459.334,476.335 1465.000,493.000 C1439.973,492.533 1439.659,484.394 1430.000,469.000 C1421.860,475.738 1414.585,488.205 1403.000,491.000 C1382.029,496.059 1361.254,473.788 1354.000,463.000 C1353.318,445.823 1357.856,432.228 1368.000,426.000 C1382.849,417.917 1404.781,426.028 1416.000,431.000 C1412.667,420.334 1409.333,409.666 1406.000,399.000 C1374.642,401.546 1330.882,417.992 1314.000,437.000 C1329.665,468.997 1345.335,501.003 1361.000,533.000 C1351.142,533.279 1338.798,533.246 1332.000,530.000 C1325.667,518.335 1319.333,506.666 1313.000,495.000 C1304.667,500.000 1296.333,505.001 1288.000,510.000 C1289.041,518.203 1291.817,525.686 1289.000,532.000 C1270.998,530.070 1260.272,523.429 1252.000,512.000 C1253.000,507.667 1254.000,503.333 1255.000,499.000 C1271.332,491.334 1287.668,483.666 1304.000,476.000 C1299.001,466.334 1293.999,456.666 1289.000,447.000 C1262.003,461.999 1234.997,477.002 1208.000,492.000 C1227.665,522.330 1247.335,552.670 1267.000,583.000 C1257.001,583.000 1246.999,583.000 1237.000,583.000 C1220.668,556.669 1204.332,530.331 1188.000,504.000 C1179.334,508.666 1170.666,513.334 1162.000,518.000 C1168.057,529.961 1197.220,569.427 1196.000,579.000 C1194.667,582.000 1193.333,585.000 1192.000,588.000 C1173.449,591.428 1140.476,585.219 1147.000,568.000 C1150.666,565.667 1154.334,563.333 1158.000,561.000 C1151.667,552.668 1145.333,544.333 1139.000,536.000 C1127.668,544.999 1116.332,554.001 1105.000,563.000 C1126.331,590.997 1147.669,619.003 1169.000,647.000 C1169.000,647.333 1169.000,647.667 1169.000,648.000 C1156.101,648.226 1143.150,651.040 1136.000,646.000 C1119.002,623.336 1101.998,600.664 1085.000,578.000 C1082.667,580.333 1080.333,582.667 1078.000,585.000 C1069.334,591.333 1060.666,597.667 1052.000,604.000 C1075.998,630.664 1100.002,657.336 1124.000,684.000 C1124.000,684.333 1124.000,684.667 1124.000,685.000 C1114.334,686.666 1104.666,688.334 1095.000,690.000 C1091.460,685.018 1086.801,678.725 1081.000,676.000 C1072.627,719.802 1033.109,712.041 999.000,700.000 C995.737,711.910 983.705,716.593 981.000,728.000 C974.129,756.970 1011.966,762.920 1035.000,764.000 C1035.000,767.000 1035.000,770.000 1035.000,773.000 C1001.802,774.966 942.031,771.748 952.000,730.000 C956.368,711.708 974.133,701.505 984.000,688.000 C987.621,690.117 990.299,692.816 994.000,692.000 C1005.897,688.076 1007.573,669.520 1001.000,659.000 C1000.667,659.000 1000.333,659.000 1000.000,659.000 C968.677,668.489 946.258,718.628 921.000,738.000 C913.334,736.000 905.666,734.000 898.000,732.000 C898.667,731.333 899.333,730.667 900.000,730.000 C913.396,700.233 945.225,678.492 965.000,654.000 C1007.978,600.771 1065.647,551.673 1122.000,512.000 C1139.310,499.814 1164.876,493.170 1181.000,479.000 C1156.481,456.583 1113.494,477.223 1094.000,457.000 C1095.000,456.000 1096.000,455.000 1097.000,454.000 C1098.650,450.345 1099.389,449.690 1103.000,448.000 C1136.940,437.491 1173.785,457.815 1187.000,476.000 C1218.366,459.328 1245.886,430.902 1285.000,423.000 C1285.000,422.667 1285.000,422.333 1285.000,422.000 C1284.667,421.000 1284.333,420.000 1284.000,419.000 C1258.372,419.652 1210.657,432.035 1206.000,407.000 C1212.333,405.000 1218.667,403.000 1225.000,401.000 C1248.160,396.751 1269.752,409.256 1287.000,414.000 C1277.334,406.001 1267.666,397.999 1258.000,390.000 C1246.782,389.591 1241.448,391.938 1236.000,397.000 C1229.296,393.921 1224.702,390.921 1220.000,386.000 C1220.667,383.000 1221.333,380.000 1222.000,377.000 C1259.231,369.779 1282.452,389.149 1300.000,415.000 C1334.330,400.001 1368.670,384.999 1403.000,370.000 C1390.001,361.334 1376.999,352.666 1364.000,344.000 C1352.031,341.027 1345.300,348.567 1335.000,347.000 C1331.334,341.334 1327.666,335.666 1324.000,330.000 C1324.667,330.000 1325.333,330.000 1326.000,330.000 C1364.581,311.078 1394.488,354.393 1411.000,370.000 C1430.834,367.406 1470.706,342.534 1482.000,357.000 C1487.333,361.666 1492.667,366.334 1498.000,371.000 C1474.669,377.999 1451.331,385.001 1428.000,392.000 C1431.333,399.999 1434.667,408.001 1438.000,416.000 C1479.266,384.045 1507.359,417.926 1506.000,472.000 ZM1028.000,624.000 C1020.667,632.332 1013.333,640.667 1006.000,649.000 C1020.220,650.478 1028.872,654.324 1035.000,664.000 C1031.242,676.822 1027.333,686.491 1022.000,697.000 C1028.666,696.333 1035.334,695.667 1042.000,695.000 C1053.533,688.889 1059.850,668.424 1062.000,653.000 C1050.251,643.889 1044.920,627.816 1028.000,624.000 ZM1396.000,438.000 C1391.667,440.333 1387.333,442.667 1383.000,445.000 C1380.121,458.739 1379.058,466.132 1391.000,472.000 C1404.474,465.835 1417.086,457.638 1420.000,441.000 C1412.001,440.000 1403.999,439.000 1396.000,438.000 ZM1248.000,1239.000 C1199.005,1197.338 1149.995,1155.662 1101.000,1114.000 C1081.322,1098.966 1057.179,1089.581 1047.000,1065.000 C1050.333,1060.667 1053.667,1056.333 1057.000,1052.000 C1075.984,1057.889 1102.850,1090.298 1119.000,1103.000 C1167.662,1143.663 1216.338,1184.337 1265.000,1225.000 C1260.334,1230.666 1255.666,1236.334 1251.000,1242.000 C1250.000,1241.000 1249.000,1240.000 1248.000,1239.000 ZM1299.000,1186.000 C1285.425,1181.497 1221.178,1107.088 1209.000,1092.000 C1164.671,1045.338 1120.329,998.662 1076.000,952.000 C1043.003,917.670 1009.997,883.330 977.000,849.000 C977.667,848.333 978.333,847.667 979.000,847.000 C982.666,842.000 986.334,836.999 990.000,832.000 C1098.323,945.322 1206.677,1058.678 1315.000,1172.000 C1310.703,1178.376 1306.178,1182.431 1299.000,1186.000 ZM1318.000,1080.000 C1277.671,1026.339 1237.329,972.661 1197.000,919.000 C1201.000,914.667 1205.000,910.333 1209.000,906.000 C1233.161,911.947 1242.209,944.915 1255.000,963.000 C1294.663,1015.328 1334.337,1067.672 1374.000,1120.000 C1371.334,1123.333 1368.666,1126.667 1366.000,1130.000 C1337.393,1128.905 1330.429,1097.792 1318.000,1080.000 ZM1381.000,804.000 C1408.331,863.994 1435.669,924.006 1463.000,984.000 C1469.644,997.922 1494.418,1039.867 1493.000,1053.000 C1486.667,1055.666 1480.333,1058.334 1474.000,1061.000 C1452.586,1031.751 1441.691,988.214 1427.000,954.000 C1406.335,906.338 1385.665,858.662 1365.000,811.000 C1370.333,808.667 1375.667,806.333 1381.000,804.000 ZM1411.000,1093.000 C1333.008,959.013 1254.992,824.987 1177.000,691.000 C1177.333,689.333 1177.667,687.667 1178.000,686.000 C1182.666,683.000 1187.334,680.000 1192.000,677.000 C1200.181,683.147 1203.622,695.998 1209.000,705.000 C1223.999,730.664 1239.002,756.336 1254.000,782.000 C1295.663,853.326 1337.338,924.674 1379.000,996.000 C1393.618,1020.471 1424.220,1058.424 1431.000,1086.000 C1423.355,1088.654 1419.322,1093.840 1411.000,1093.000 ZM1204.000,1312.000 C1072.347,1227.675 940.654,1143.325 809.000,1059.000 C812.666,1053.334 816.334,1047.666 820.000,1042.000 C951.653,1125.992 1083.346,1210.008 1215.000,1294.000 C1211.334,1299.999 1207.666,1306.001 1204.000,1312.000 ZM1175.000,1366.000 C1172.667,1372.333 1170.333,1378.667 1168.000,1385.000 C1167.333,1385.333 1166.667,1385.667 1166.000,1386.000 C1085.341,1348.670 1004.659,1311.330 924.000,1274.000 C926.666,1267.001 929.334,1259.999 932.000,1253.000 C1012.992,1290.663 1094.008,1328.337 1175.000,1366.000 ZM1137.000,1465.000 C989.681,1418.338 842.319,1371.662 695.000,1325.000 C696.000,1318.001 697.000,1310.999 698.000,1304.000 C846.985,1351.329 996.015,1398.671 1145.000,1446.000 C1142.334,1452.333 1139.666,1458.667 1137.000,1465.000 ZM1118.000,1631.000 C962.016,1624.334 805.984,1617.666 650.000,1611.000 C650.667,1603.334 651.333,1595.666 652.000,1588.000 C807.318,1594.999 962.682,1602.001 1118.000,1609.000 C1118.000,1616.333 1118.000,1623.667 1118.000,1631.000 ZM857.000,1738.000 C856.333,1730.667 855.667,1723.333 855.000,1716.000 C855.667,1716.000 856.333,1716.000 857.000,1716.000 C945.324,1708.667 1033.675,1701.333 1122.000,1694.000 C1122.333,1700.666 1122.667,1707.334 1123.000,1714.000 C1034.342,1721.999 945.658,1730.001 857.000,1738.000 ZM866.000,1480.000 C952.991,1495.332 1040.009,1510.668 1127.000,1526.000 C1127.000,1526.333 1127.000,1526.667 1127.000,1527.000 C1125.667,1533.999 1124.333,1541.001 1123.000,1548.000 C1122.667,1548.000 1122.333,1548.000 1122.000,1548.000 C1035.009,1532.668 947.991,1517.332 861.000,1502.000 C859.439,1492.147 861.656,1486.153 866.000,1480.000 ZM1455.000,1792.000 C1455.000,1792.667 1455.000,1793.333 1455.000,1794.000 C1433.312,1797.754 1409.452,1802.088 1385.000,1806.000 C1319.257,1816.517 1231.661,1805.999 1162.000,1806.000 C1022.014,1806.000 881.986,1806.000 742.000,1806.000 C736.001,1788.002 729.999,1769.998 724.000,1752.000 C935.645,1752.000 1147.354,1752.000 1359.000,1752.000 C1392.436,1759.800 1424.511,1779.872 1455.000,1792.000 ZM1448.000,1880.000 C1477.635,1889.000 1513.039,1885.700 1546.000,1892.000 C1561.332,1896.333 1576.668,1900.667 1592.000,1905.000 C1592.000,1905.333 1592.000,1905.667 1592.000,1906.000 C1324.027,1906.000 1055.973,1906.000 788.000,1906.000 C780.334,1888.002 772.666,1869.998 765.000,1852.000 C969.646,1852.000 1174.354,1852.000 1379.000,1852.000 C1401.998,1861.332 1425.002,1870.668 1448.000,1880.000 ZM1961.000,1956.000 C1940.510,1962.155 1923.303,1978.229 1930.000,2006.000 C1653.028,2006.000 1375.972,2006.000 1099.000,2006.000 C1041.006,2006.000 982.994,2006.000 925.000,2006.000 C901.064,2006.003 869.706,2013.453 850.000,2005.000 C843.125,2002.051 818.591,1960.794 815.000,1952.000 C1197.295,1952.667 1579.705,1953.333 1962.000,1954.000 C1961.667,1954.667 1961.333,1955.333 1961.000,1956.000 ZM1825.000,2105.000 C1740.181,2105.247 1652.181,2110.579 1575.000,2098.000 C1536.246,2091.684 1471.221,2078.028 1427.000,2085.000 C1381.217,2092.218 1338.035,2097.345 1297.000,2105.000 C1254.004,2105.000 1210.996,2105.000 1168.000,2105.000 C1111.339,2105.000 1054.661,2105.000 998.000,2105.000 C975.528,2105.007 945.001,2112.638 925.000,2105.000 C914.841,2101.120 887.686,2063.366 881.000,2053.000 C1199.302,2053.000 1517.699,2053.000 1836.000,2053.000 C1828.512,2066.287 1818.168,2082.902 1825.000,2105.000 ZM1179.000,2205.000 C1124.006,2205.000 1068.995,2205.000 1014.000,2205.000 C997.335,2187.668 980.665,2170.332 964.000,2153.000 C1039.659,2153.333 1115.341,2153.667 1191.000,2154.000 C1183.891,2166.885 1171.972,2184.374 1179.000,2205.000 ZM1208.000,2251.000 C1231.331,2262.332 1254.669,2273.668 1278.000,2285.000 C1309.475,2297.440 1353.119,2300.633 1390.000,2306.000 C1390.000,2306.333 1390.000,2306.667 1390.000,2307.000 C1276.499,2308.026 1117.022,2327.964 1073.000,2252.000 C1096.998,2251.667 1121.002,2251.333 1145.000,2251.000 C1165.998,2251.000 1187.002,2251.000 1208.000,2251.000 ZM2032.000,2406.000 C1846.019,2406.000 1659.981,2406.000 1474.000,2406.000 C1373.804,2406.010 1262.034,2409.215 1219.000,2352.000 C1574.631,2352.667 1930.369,2353.333 2286.000,2354.000 C2241.820,2405.137 2129.018,2405.999 2032.000,2406.000 ZM2022.000,2454.000 C2031.332,2454.333 2040.668,2454.667 2050.000,2455.000 C1994.006,2466.665 1937.994,2478.334 1882.000,2490.000 C1782.428,2508.741 1638.146,2496.416 1553.000,2475.000 C1522.035,2467.212 1478.186,2469.260 1456.000,2452.000 C1593.986,2452.333 1732.014,2452.667 1870.000,2453.000 C1920.662,2453.333 1971.338,2453.667 2022.000,2454.000 ZM1570.000,2259.000 C1567.667,2263.666 1565.333,2268.334 1563.000,2273.000 C1468.063,2297.811 1334.764,2287.199 1258.000,2254.000 C1233.099,2243.231 1186.510,2225.010 1198.000,2183.000 C1209.902,2139.482 1264.282,2132.399 1310.000,2122.000 C1432.519,2094.131 1646.956,2100.982 1705.000,2179.000 C1706.871,2282.781 1570.496,2208.079 1515.000,2207.000 C1515.000,2209.333 1515.000,2211.667 1515.000,2214.000 C1525.543,2220.844 1569.010,2247.043 1570.000,2259.000 ZM2216.000,2307.000 C1985.690,2306.000 1755.310,2305.000 1525.000,2304.000 C1561.219,2303.902 1596.234,2287.131 1590.000,2247.000 C1634.061,2252.811 1685.264,2253.013 1734.000,2253.000 C1757.664,2252.667 1781.336,2252.333 1805.000,2252.000 C1886.658,2252.000 1968.341,2252.000 2050.000,2252.000 C2101.662,2252.333 2153.338,2252.667 2205.000,2253.000 C2280.659,2253.667 2356.341,2254.333 2432.000,2255.000 C2430.333,2256.666 2428.667,2258.334 2427.000,2260.000 C2402.197,2310.829 2295.422,2308.278 2216.000,2307.000 ZM1712.000,2153.000 C1766.328,2153.000 1820.672,2153.000 1875.000,2153.000 C1901.664,2161.666 1928.336,2170.334 1955.000,2179.000 C1980.313,2186.451 2007.641,2188.670 2036.000,2193.000 C2058.761,2196.475 2087.689,2195.254 2109.000,2192.000 C2143.494,2186.733 2173.541,2186.752 2205.000,2180.000 C2243.663,2171.001 2282.337,2161.999 2321.000,2153.000 C2376.328,2152.333 2431.672,2151.667 2487.000,2151.000 C2501.808,2150.347 2535.536,2146.962 2543.000,2155.000 C2525.668,2171.665 2508.332,2188.335 2491.000,2205.000 C2235.692,2205.000 1980.308,2205.000 1725.000,2205.000 C1727.312,2180.231 1721.322,2169.461 1712.000,2153.000 ZM2441.000,2102.000 C2462.198,2094.604 2466.905,2076.171 2473.000,2053.000 C2523.995,2053.333 2575.005,2053.667 2626.000,2054.000 C2625.000,2055.000 2624.000,2056.000 2623.000,2057.000 C2611.001,2072.998 2598.999,2089.002 2587.000,2105.000 C2538.005,2104.667 2488.995,2104.333 2440.000,2104.000 C2440.333,2103.333 2440.667,2102.667 2441.000,2102.000 ZM2335.000,1969.000 C2307.003,1963.334 2278.997,1957.666 2251.000,1952.000 C2352.990,1952.333 2455.010,1952.667 2557.000,1953.000 C2587.397,1953.000 2669.904,1946.391 2692.000,1955.000 C2691.333,1955.667 2690.667,1956.333 2690.000,1957.000 C2679.668,1973.332 2669.332,1989.668 2659.000,2006.000 C2582.674,2006.000 2506.326,2006.000 2430.000,2006.000 C2398.336,1993.668 2366.664,1981.332 2335.000,1969.000 ZM1948.000,1988.000 C1961.110,1978.238 1970.058,1971.374 1991.000,1968.000 C2022.293,1962.958 2059.832,1974.177 2082.000,1961.000 C2203.447,1959.187 2402.740,1984.298 2451.000,2049.000 C2441.393,2099.807 2394.215,2107.510 2350.000,2123.000 C2256.480,2155.763 2123.498,2188.729 1999.000,2164.000 C1953.270,2154.917 1829.844,2142.187 1842.000,2085.000 C1853.198,2032.322 1942.743,2043.950 1995.000,2053.000 C2015.949,2056.628 2055.923,2059.283 2064.000,2044.000 C2064.333,2041.334 2064.667,2038.666 2065.000,2036.000 C2053.538,2034.019 2042.271,2029.141 2029.000,2027.000 C1988.727,2020.502 1951.819,2030.483 1948.000,1988.000 ZM1987.000,1884.000 C2001.665,1884.333 2016.335,1884.667 2031.000,1885.000 C2067.872,1878.439 2110.343,1873.212 2133.000,1852.000 C2336.646,1852.333 2540.354,1852.667 2744.000,1853.000 C2735.001,1870.665 2725.999,1888.335 2717.000,1906.000 C2453.026,1905.000 2188.974,1904.000 1925.000,1903.000 C1950.389,1902.519 1966.192,1888.697 1987.000,1884.000 ZM1782.000,1893.000 C1773.001,1904.999 1763.999,1917.001 1755.000,1929.000 C1754.667,1929.000 1754.333,1929.000 1754.000,1929.000 C1743.273,1880.796 1681.670,1885.816 1658.000,1855.000 C1644.479,1837.396 1651.687,1804.233 1667.000,1793.000 C1680.505,1783.093 1705.940,1786.646 1721.000,1778.000 C1773.267,1777.179 1872.758,1773.303 1862.000,1830.000 C1853.372,1875.469 1811.949,1869.844 1782.000,1893.000 ZM1982.000,1786.000 C2032.862,1785.541 2048.329,1831.264 2115.000,1832.000 C2114.667,1833.000 2114.333,1834.000 2114.000,1835.000 C2082.100,1848.363 2045.251,1857.826 2002.000,1858.000 C1995.422,1814.547 1948.787,1817.494 1941.000,1789.000 C1954.665,1788.000 1968.335,1787.000 1982.000,1786.000 ZM1862.000,1871.000 C1876.225,1832.127 1880.573,1829.108 1864.000,1788.000 C1908.039,1786.809 1939.436,1810.477 1964.000,1830.000 C1973.980,1837.932 1987.370,1849.225 1979.000,1861.000 C1954.143,1871.130 1889.583,1903.685 1862.000,1871.000 ZM1719.000,1405.000 C1726.841,1392.483 1738.166,1383.249 1747.000,1372.000 C1754.666,1373.333 1762.334,1374.667 1770.000,1376.000 C1801.858,1394.669 1809.425,1454.400 1832.000,1483.000 C1863.987,1523.523 1913.146,1548.169 1935.000,1599.000 C1979.496,1702.492 1863.008,1747.873 1785.000,1761.000 C1693.909,1776.329 1541.195,1712.357 1570.000,1617.000 C1587.201,1560.058 1635.025,1537.360 1667.000,1496.000 C1687.950,1468.902 1700.423,1434.654 1719.000,1405.000 ZM1506.000,1859.000 C1486.984,1868.391 1405.937,1840.965 1397.000,1832.000 C1445.587,1833.044 1487.542,1813.646 1508.000,1786.000 C1528.998,1787.000 1550.002,1788.000 1571.000,1789.000 C1563.650,1811.775 1527.246,1814.354 1516.000,1834.000 C1511.429,1841.985 1513.347,1853.940 1506.000,1859.000 ZM1646.000,1876.000 C1602.332,1892.728 1548.858,1876.894 1527.000,1853.000 C1527.000,1852.667 1527.000,1852.333 1527.000,1852.000 C1540.888,1836.419 1553.389,1823.000 1572.000,1812.000 C1588.998,1804.001 1606.002,1795.999 1623.000,1788.000 C1630.999,1788.333 1639.001,1788.667 1647.000,1789.000 C1622.340,1829.875 1651.654,1841.852 1646.000,1876.000 ZM1359.000,1435.000 C1406.897,1433.905 1451.987,1444.708 1472.000,1472.000 C1450.336,1504.663 1428.665,1537.337 1407.000,1570.000 C1362.006,1656.875 1451.696,1732.380 1508.000,1754.000 C1532.331,1759.666 1556.669,1765.334 1581.000,1771.000 C1554.655,1774.490 1518.838,1769.688 1495.000,1765.000 C1401.079,1746.531 1301.688,1724.628 1285.000,1630.000 C1273.581,1565.249 1332.593,1535.618 1342.000,1484.000 C1345.388,1465.408 1336.760,1451.341 1333.000,1439.000 C1341.666,1437.667 1350.334,1436.333 1359.000,1435.000 ZM1553.000,1398.000 C1598.471,1412.489 1640.510,1416.657 1656.000,1461.000 C1658.084,1466.966 1661.503,1474.917 1659.000,1480.000 C1641.926,1488.178 1624.633,1509.580 1613.000,1524.000 C1580.290,1564.545 1521.950,1619.338 1566.000,1694.000 C1575.743,1710.514 1589.604,1727.071 1605.000,1738.000 C1613.188,1743.812 1633.129,1748.255 1638.000,1757.000 C1535.891,1758.661 1383.986,1705.886 1418.000,1592.000 C1438.287,1524.076 1501.646,1501.861 1494.000,1411.000 C1511.353,1408.677 1539.622,1406.348 1553.000,1398.000 ZM2024.000,1484.000 C2051.187,1530.119 2087.444,1553.425 2097.000,1620.000 C2108.672,1701.317 2012.161,1731.212 1952.000,1746.000 C1934.744,1750.241 1892.589,1766.582 1873.000,1754.000 C1889.027,1751.802 1907.372,1734.700 1919.000,1726.000 C1931.323,1716.780 1938.612,1707.285 1946.000,1693.000 C2000.486,1587.653 1887.977,1537.956 1852.000,1477.000 C1858.745,1423.968 1898.574,1422.730 1935.000,1400.000 C1960.477,1399.234 2000.909,1396.970 2009.000,1414.000 C2013.787,1423.037 2009.850,1436.514 2012.000,1449.000 C2014.167,1461.583 2018.305,1474.339 2024.000,1484.000 ZM2226.000,1616.000 C2208.746,1718.812 2129.378,1740.413 2032.000,1763.000 C2011.268,1767.809 1949.992,1783.483 1929.000,1769.000 C2019.824,1770.061 2137.594,1694.781 2111.000,1591.000 C2098.453,1542.038 2061.831,1515.614 2041.000,1475.000 C2050.134,1440.744 2100.268,1448.314 2131.000,1435.000 C2146.332,1437.333 2161.668,1439.667 2177.000,1442.000 C2143.135,1523.882 2238.455,1541.780 2226.000,1616.000 ZM2387.000,1545.000 C2387.000,1538.334 2387.000,1531.666 2387.000,1525.000 C2475.991,1510.002 2565.009,1494.999 2654.000,1480.000 C2654.000,1487.333 2654.000,1494.667 2654.000,1502.000 C2566.009,1516.999 2477.991,1532.001 2390.000,1547.000 C2389.000,1546.333 2388.000,1545.667 2387.000,1545.000 ZM2660.000,1738.000 C2570.009,1730.001 2479.991,1721.999 2390.000,1714.000 C2390.333,1707.334 2390.667,1700.666 2391.000,1694.000 C2480.991,1701.333 2571.009,1708.667 2661.000,1716.000 C2660.667,1723.333 2660.333,1730.667 2660.000,1738.000 ZM2054.000,1790.000 C2054.000,1789.667 2054.000,1789.333 2054.000,1789.000 C2088.577,1787.291 2131.754,1770.474 2152.000,1752.000 C2362.312,1752.000 2572.688,1752.000 2783.000,1752.000 C2777.001,1769.998 2770.999,1788.002 2765.000,1806.000 C2591.017,1806.333 2416.983,1806.667 2243.000,1807.000 C2194.937,1814.356 2075.196,1812.727 2054.000,1790.000 ZM1488.000,3611.000 C1486.333,3611.333 1484.667,3611.667 1483.000,3612.000 C1468.467,3592.627 1431.996,3548.312 1409.000,3540.000 C1396.392,3535.443 1381.500,3546.800 1370.000,3542.000 C1366.667,3535.001 1363.333,3527.999 1360.000,3521.000 C1365.666,3517.667 1371.334,3514.333 1377.000,3511.000 C1415.162,3510.987 1496.450,3575.761 1488.000,3611.000 ZM444.000,3309.000 C433.802,3303.775 424.427,3284.083 419.000,3274.000 C419.000,3273.667 419.000,3273.333 419.000,3273.000 C760.299,3273.000 1101.701,3273.000 1443.000,3273.000 C1448.999,3285.332 1455.001,3297.668 1461.000,3310.000 C1447.668,3310.667 1434.332,3311.333 1421.000,3312.000 C1420.667,3375.327 1420.333,3438.673 1420.000,3502.000 C1406.335,3494.334 1392.665,3486.666 1379.000,3479.000 C1379.000,3454.669 1379.000,3430.331 1379.000,3406.000 C1358.177,3405.779 1340.433,3405.863 1323.000,3409.000 C1321.023,3420.794 1319.855,3434.216 1315.000,3443.000 C1314.667,3443.000 1314.333,3443.000 1314.000,3443.000 C1282.999,3439.784 1267.751,3408.756 1274.000,3374.000 C1303.948,3366.154 1342.478,3368.327 1379.000,3369.000 C1379.000,3349.335 1379.000,3329.665 1379.000,3310.000 C1327.005,3310.667 1274.995,3311.333 1223.000,3312.000 C1222.333,3374.660 1221.667,3437.340 1221.000,3500.000 C1208.001,3491.668 1194.999,3483.333 1182.000,3475.000 C1182.000,3420.006 1182.000,3364.995 1182.000,3310.000 C1158.669,3310.000 1135.331,3310.000 1112.000,3310.000 C1112.000,3373.994 1112.000,3438.006 1112.000,3502.000 C1098.335,3493.334 1084.665,3484.666 1071.000,3476.000 C1071.000,3464.001 1071.000,3451.999 1071.000,3440.000 C1056.611,3449.704 1044.543,3461.162 1024.000,3465.000 C984.616,3472.358 924.804,3417.283 933.000,3376.000 C936.265,3359.554 945.308,3352.009 957.000,3344.000 C1005.889,3310.513 1036.044,3348.181 1071.000,3368.000 C1071.000,3348.669 1071.000,3329.331 1071.000,3310.000 C1008.340,3310.667 945.660,3311.333 883.000,3312.000 C883.000,3375.327 883.000,3438.673 883.000,3502.000 C869.335,3493.334 855.665,3484.666 842.000,3476.000 C842.000,3420.672 842.000,3365.328 842.000,3310.000 C820.669,3310.000 799.331,3310.000 778.000,3310.000 C778.000,3332.664 778.000,3355.336 778.000,3378.000 C736.072,3376.943 684.616,3371.858 668.000,3399.000 C641.858,3441.705 686.331,3480.586 729.000,3469.000 C729.000,3467.667 729.000,3466.333 729.000,3465.000 C720.812,3445.520 731.097,3414.991 760.000,3424.000 C788.294,3432.820 799.360,3474.990 769.000,3493.000 C779.999,3511.332 791.001,3529.669 802.000,3548.000 C801.667,3549.000 801.333,3550.000 801.000,3551.000 C792.668,3554.333 784.332,3557.667 776.000,3561.000 C770.334,3549.335 764.666,3537.665 759.000,3526.000 C758.667,3526.667 758.333,3527.333 758.000,3528.000 C744.902,3541.112 739.841,3559.341 721.000,3567.000 C679.773,3583.759 632.291,3556.532 628.000,3521.000 C582.974,3516.745 508.381,3488.266 547.000,3437.000 C566.539,3411.062 626.841,3421.289 622.000,3462.000 C619.855,3480.045 608.942,3487.113 600.000,3498.000 C609.925,3500.184 617.720,3503.018 632.000,3503.000 C640.933,3474.931 678.353,3494.432 691.000,3508.000 C690.333,3508.000 689.667,3508.000 689.000,3508.000 C680.813,3514.842 672.544,3519.822 665.000,3527.000 C665.000,3531.000 665.000,3535.000 665.000,3539.000 C669.000,3543.000 673.000,3547.000 677.000,3551.000 C710.036,3550.974 728.562,3521.456 733.000,3493.000 C685.184,3509.941 616.390,3436.187 629.000,3387.000 C640.023,3344.004 681.820,3340.069 737.000,3341.000 C736.333,3330.668 735.667,3320.332 735.000,3310.000 C654.008,3310.000 572.992,3310.000 492.000,3310.000 C492.000,3373.994 492.000,3438.006 492.000,3502.000 C478.335,3494.001 464.665,3485.999 451.000,3478.000 C450.333,3461.668 449.667,3445.332 449.000,3429.000 C425.002,3444.332 400.998,3459.668 377.000,3475.000 C367.269,3481.124 358.447,3490.960 346.000,3494.000 C340.276,3486.731 321.766,3475.728 324.000,3468.000 C357.997,3446.335 392.003,3424.665 426.000,3403.000 C425.667,3402.333 425.333,3401.667 425.000,3401.000 C414.001,3396.001 402.999,3391.000 392.000,3386.000 C375.668,3396.666 359.332,3407.334 343.000,3418.000 C331.668,3423.666 320.332,3429.334 309.000,3435.000 C299.572,3432.811 278.409,3416.239 276.000,3407.000 C300.331,3394.668 324.669,3382.332 349.000,3370.000 C348.333,3369.000 347.667,3368.000 347.000,3367.000 C301.626,3355.307 276.502,3277.356 337.000,3264.000 C381.058,3254.273 413.460,3297.677 420.000,3330.000 C424.260,3351.055 410.230,3359.257 409.000,3377.000 C422.999,3382.000 437.001,3387.001 451.000,3392.000 C451.000,3364.669 451.000,3337.331 451.000,3310.000 C448.667,3309.667 446.333,3309.333 444.000,3309.000 ZM1066.000,3386.000 C1058.790,3370.802 1033.028,3365.590 1010.000,3366.000 C991.008,3379.374 965.030,3377.271 965.000,3410.000 C988.144,3458.095 1050.456,3409.288 1073.000,3393.000 C1070.667,3390.667 1068.333,3388.333 1066.000,3386.000 ZM601.000,3475.000 C602.000,3469.667 603.000,3464.333 604.000,3459.000 C600.334,3454.334 596.666,3449.666 593.000,3445.000 C587.334,3444.333 581.666,3443.667 576.000,3443.000 C572.000,3447.333 568.000,3451.667 564.000,3456.000 C564.303,3466.412 566.782,3472.937 571.000,3479.000 C584.660,3483.506 590.633,3481.889 601.000,3475.000 ZM378.000,3304.000 C374.201,3300.380 366.909,3299.448 360.000,3299.000 C354.001,3303.333 347.999,3307.667 342.000,3312.000 C340.751,3337.842 345.176,3347.132 362.000,3359.000 C378.462,3354.492 400.358,3316.259 378.000,3304.000 ZM2197.000,3204.000 C2184.001,3203.667 2170.999,3203.333 2158.000,3203.000 C2152.667,3190.668 2147.333,3178.332 2142.000,3166.000 C2150.094,3165.099 2157.461,3160.827 2168.000,3163.000 C2205.507,3170.732 2262.908,3228.262 2263.000,3273.000 C2276.999,3273.000 2291.001,3273.000 2305.000,3273.000 C2311.666,3285.332 2318.334,3297.668 2325.000,3310.000 C2311.668,3310.000 2298.332,3310.000 2285.000,3310.000 C2285.000,3373.660 2285.000,3437.340 2285.000,3501.000 C2271.335,3493.001 2257.665,3484.999 2244.000,3477.000 C2243.333,3444.003 2242.667,3410.997 2242.000,3378.000 C2230.668,3378.667 2219.332,3379.333 2208.000,3380.000 C2123.593,3395.498 2190.678,3456.214 2201.000,3495.000 C2196.667,3497.333 2192.333,3499.667 2188.000,3502.000 C2168.767,3484.410 2108.072,3403.154 2136.000,3365.000 C2153.903,3340.542 2201.290,3340.492 2244.000,3341.000 C2243.333,3330.668 2242.667,3320.332 2242.000,3310.000 C2187.339,3310.000 2132.661,3310.000 2078.000,3310.000 C2078.000,3373.994 2078.000,3438.006 2078.000,3502.000 C2063.668,3494.334 2049.332,3486.666 2035.000,3479.000 C2035.000,3461.002 2035.000,3442.998 2035.000,3425.000 C2014.002,3425.333 1992.998,3425.667 1972.000,3426.000 C1972.460,3440.073 1970.386,3448.466 1965.000,3456.000 C1938.393,3455.508 1886.888,3419.224 1907.000,3391.000 C1907.000,3390.333 1907.000,3389.667 1907.000,3389.000 C1914.999,3388.333 1923.001,3387.667 1931.000,3387.000 C1930.667,3378.667 1930.333,3370.333 1930.000,3362.000 C1884.702,3357.992 1886.108,3334.193 1864.000,3310.000 C1845.335,3310.667 1826.665,3311.333 1808.000,3312.000 C1808.000,3321.666 1808.000,3331.334 1808.000,3341.000 C1865.800,3368.181 1836.814,3461.674 1797.000,3487.000 C1796.333,3486.333 1795.667,3485.667 1795.000,3485.000 C1783.611,3480.453 1766.988,3465.835 1764.000,3453.000 C1792.317,3445.183 1827.275,3405.471 1810.000,3371.000 C1772.066,3364.680 1744.293,3397.011 1742.000,3437.000 C1729.668,3432.334 1717.332,3427.666 1705.000,3423.000 C1709.666,3410.668 1714.334,3398.332 1719.000,3386.000 C1710.763,3370.923 1697.618,3369.666 1678.000,3373.000 C1669.666,3393.050 1658.490,3415.961 1673.000,3440.000 C1679.169,3450.220 1708.887,3476.098 1706.000,3487.000 C1703.667,3490.000 1701.333,3493.000 1699.000,3496.000 C1666.092,3484.807 1603.540,3416.611 1625.000,3368.000 C1635.176,3344.950 1671.202,3324.687 1701.000,3343.000 C1710.666,3351.333 1720.334,3359.667 1730.000,3368.000 C1734.447,3354.493 1753.517,3344.143 1767.000,3339.000 C1767.000,3329.334 1767.000,3319.666 1767.000,3310.000 C1711.006,3310.000 1654.994,3310.000 1599.000,3310.000 C1593.001,3297.668 1586.999,3285.332 1581.000,3273.000 C1669.658,3273.000 1758.342,3273.000 1847.000,3273.000 C1852.333,3283.999 1857.667,3295.001 1863.000,3306.000 C1863.667,3306.000 1864.333,3306.000 1865.000,3306.000 C1864.248,3261.238 1909.940,3245.833 1943.000,3269.000 C1972.830,3289.903 1973.957,3335.048 1973.000,3387.000 C1993.665,3387.000 2014.335,3387.000 2035.000,3387.000 C2035.000,3361.336 2035.000,3335.664 2035.000,3310.000 C2018.895,3311.104 1999.029,3312.357 1988.000,3306.000 C1981.334,3295.334 1974.666,3284.666 1968.000,3274.000 C1968.000,3273.667 1968.000,3273.333 1968.000,3273.000 C2063.657,3273.000 2159.343,3273.000 2255.000,3273.000 C2247.898,3256.375 2213.626,3210.237 2197.000,3204.000 ZM1928.000,3286.000 C1925.000,3285.000 1922.000,3284.000 1919.000,3283.000 C1916.334,3284.667 1913.666,3286.333 1911.000,3288.000 C1906.030,3314.462 1905.405,3339.088 1932.000,3345.000 C1932.282,3323.799 1931.855,3301.867 1928.000,3286.000 ZM3262.000,3611.000 C3261.333,3611.333 3260.667,3611.667 3260.000,3612.000 C3233.112,3600.469 3220.244,3563.493 3195.000,3548.000 C3189.184,3544.431 3175.646,3536.701 3166.000,3539.000 C3157.891,3540.933 3155.105,3547.019 3146.000,3542.000 C3142.000,3535.001 3138.000,3527.999 3134.000,3521.000 C3139.666,3517.667 3145.334,3514.333 3151.000,3511.000 C3189.582,3510.962 3270.732,3575.176 3262.000,3611.000 ZM2463.000,3310.000 C2457.001,3297.668 2450.999,3285.332 2445.000,3273.000 C2615.316,3273.000 2785.684,3273.000 2956.000,3273.000 C3043.731,3272.999 3139.765,3261.877 3219.000,3276.000 C3224.333,3287.332 3229.667,3298.668 3235.000,3310.000 C3221.668,3310.667 3208.332,3311.333 3195.000,3312.000 C3195.000,3375.327 3195.000,3438.673 3195.000,3502.000 C3181.335,3493.334 3167.665,3484.666 3154.000,3476.000 C3154.000,3459.002 3154.000,3441.998 3154.000,3425.000 C3131.336,3425.000 3108.664,3425.000 3086.000,3425.000 C3086.649,3439.411 3085.653,3449.976 3078.000,3456.000 C3061.243,3452.591 3006.505,3412.018 3021.000,3394.000 C3025.910,3388.249 3035.370,3388.001 3045.000,3387.000 C3044.333,3361.336 3043.667,3335.664 3043.000,3310.000 C3019.336,3310.000 2995.664,3310.000 2972.000,3310.000 C2971.667,3373.994 2971.333,3438.006 2971.000,3502.000 C2957.335,3493.667 2943.665,3485.332 2930.000,3477.000 C2929.667,3453.336 2929.333,3429.664 2929.000,3406.000 C2907.713,3405.653 2887.015,3406.359 2872.000,3411.000 C2872.439,3424.639 2870.639,3434.745 2866.000,3443.000 C2865.667,3443.000 2865.333,3443.000 2865.000,3443.000 C2844.740,3441.262 2810.773,3407.773 2821.000,3383.000 C2822.958,3377.844 2826.083,3374.219 2831.000,3372.000 C2848.068,3364.108 2906.767,3368.855 2930.000,3369.000 C2929.667,3349.335 2929.333,3329.665 2929.000,3310.000 C2877.338,3310.000 2825.662,3310.000 2774.000,3310.000 C2774.000,3373.994 2774.000,3438.006 2774.000,3502.000 C2760.335,3493.334 2746.665,3484.666 2733.000,3476.000 C2732.333,3420.672 2731.667,3365.328 2731.000,3310.000 C2708.336,3310.000 2685.664,3310.000 2663.000,3310.000 C2663.000,3373.994 2663.000,3438.006 2663.000,3502.000 C2648.668,3494.667 2634.332,3487.333 2620.000,3480.000 C2620.000,3446.003 2620.000,3411.997 2620.000,3378.000 C2597.002,3378.000 2573.998,3378.000 2551.000,3378.000 C2563.089,3396.220 2601.653,3437.379 2577.000,3468.000 C2568.503,3478.554 2553.433,3477.976 2540.000,3484.000 C2540.667,3484.667 2541.333,3485.333 2542.000,3486.000 C2548.844,3502.865 2574.218,3521.079 2575.000,3538.000 C2567.458,3540.163 2559.815,3545.645 2553.000,3545.000 C2543.668,3525.002 2534.332,3504.998 2525.000,3485.000 C2490.325,3486.260 2469.822,3458.375 2488.000,3431.000 C2493.666,3430.000 2499.334,3429.000 2505.000,3428.000 C2511.666,3433.333 2518.334,3438.667 2525.000,3444.000 C2535.538,3440.879 2546.104,3433.964 2552.000,3426.000 C2552.233,3379.088 2516.062,3373.029 2489.000,3354.000 C2489.333,3353.000 2489.667,3352.000 2490.000,3351.000 C2492.000,3347.667 2494.000,3344.333 2496.000,3341.000 C2537.329,3341.000 2578.671,3341.000 2620.000,3341.000 C2620.000,3330.668 2620.000,3320.332 2620.000,3310.000 C2567.672,3310.000 2515.328,3310.000 2463.000,3310.000 ZM3086.000,3387.000 C3108.664,3387.000 3131.336,3387.000 3154.000,3387.000 C3154.000,3361.336 3154.000,3335.664 3154.000,3310.000 C3131.336,3310.000 3108.664,3310.000 3086.000,3310.000 C3086.000,3335.664 3086.000,3361.336 3086.000,3387.000 Z"/>
<path fill-rule="evenodd"  fill="rgb(121, 6, 4)"
      d="M3476.930,4389.249 C3457.892,4385.263 3442.986,4378.717 3432.187,4369.611 C3421.388,4360.505 3413.709,4352.679 3409.162,4346.133 C3404.616,4339.587 3399.217,4329.761 3392.977,4316.669 L3323.503,4164.841 L3112.094,4164.841 L3043.126,4316.375 C3036.953,4330.094 3032.180,4339.947 3028.820,4345.946 C3025.447,4351.946 3019.834,4359.665 3011.982,4369.091 C3004.116,4378.517 2994.676,4385.223 2983.651,4389.223 C2972.612,4393.222 2959.426,4395.222 2944.067,4395.222 C2960.559,4369.064 2974.785,4342.893 2986.730,4316.722 L3246.109,3746.742 L3505.488,4316.722 C3510.607,4328.108 3516.714,4340.333 3523.833,4353.412 C3530.939,4366.505 3536.765,4376.744 3541.325,4384.130 L3548.151,4395.222 C3519.700,4395.222 3495.969,4393.222 3476.930,4389.249 ZM3217.511,3933.153 L3135.385,4113.645 L3300.078,4113.645 L3217.511,3933.153 ZM2966.660,3828.655 C2959.541,3837.761 2949.728,3842.308 2937.223,3842.308 C2924.130,3842.308 2902.665,3841.748 2872.801,3840.601 C2842.937,3839.468 2816.339,3838.894 2793.021,3838.894 L2749.505,3838.894 L2749.505,4386.690 L2638.580,4386.690 L2638.580,3838.894 L2595.064,3838.894 C2571.733,3838.894 2545.148,3839.468 2515.284,3840.601 C2485.420,3841.748 2463.941,3842.308 2450.862,3842.308 C2438.343,3842.308 2428.531,3837.761 2421.425,3828.655 C2414.305,3819.563 2410.332,3811.883 2409.479,3805.617 C2408.626,3799.364 2408.199,3793.965 2408.199,3789.405 L2979.886,3789.405 C2979.886,3793.965 2979.459,3799.364 2978.606,3805.617 C2977.753,3811.883 2973.766,3819.563 2966.660,3828.655 ZM2314.343,4386.690 L2211.952,4386.690 L2211.952,3874.732 C2211.952,3859.946 2212.658,3848.707 2214.085,3841.028 C2215.498,3833.348 2219.338,3823.962 2225.604,3812.870 C2231.857,3801.778 2243.096,3793.672 2259.308,3788.552 C2275.520,3783.432 2296.705,3780.873 2322.876,3780.873 C2317.183,3815.003 2314.343,3846.294 2314.343,3874.732 L2314.343,4386.690 ZM2031.276,4383.703 C2007.891,4376.024 1991.919,4368.211 1983.360,4360.252 C1974.800,4352.293 1964.814,4340.920 1953.402,4326.121 L1771.670,4076.955 L1837.371,4076.955 C1871.502,4076.955 1899.793,4063.876 1922.271,4037.705 C1944.736,4011.547 1955.975,3981.390 1955.975,3947.259 C1955.975,3913.702 1944.883,3886.251 1922.698,3864.919 C1900.513,3843.587 1873.488,3832.922 1841.638,3832.922 C1833.105,3832.922 1818.026,3833.215 1796.415,3833.775 C1774.790,3834.348 1755.738,3834.628 1739.246,3834.628 L1739.246,4301.363 C1739.246,4316.162 1738.526,4327.388 1737.113,4335.067 C1735.686,4342.747 1731.847,4352.133 1725.594,4363.225 C1719.328,4374.317 1708.102,4382.423 1691.890,4387.543 C1675.678,4392.663 1654.480,4395.222 1628.322,4395.222 C1634.001,4361.092 1636.855,4329.814 1636.855,4301.363 L1636.855,3874.732 C1636.855,3862.226 1636.135,3848.854 1634.721,3834.628 C1633.295,3820.416 1631.735,3809.324 1630.028,3801.351 L1628.322,3789.405 C1652.213,3789.405 1689.757,3788.845 1740.953,3787.699 C1792.148,3786.565 1831.399,3785.992 1858.703,3785.992 C1915.018,3785.992 1962.375,3800.498 2000.771,3829.509 C2039.168,3858.520 2058.367,3897.210 2058.367,3945.552 C2058.367,3984.283 2042.981,4017.320 2012.224,4044.651 C1981.453,4071.995 1941.003,4089.941 1890.874,4098.473 L2057.820,4325.881 C2066.913,4337.867 2076.445,4349.573 2086.404,4360.985 C2096.350,4372.398 2104.176,4380.957 2109.869,4386.663 L2118.402,4395.222 C2083.698,4395.222 2054.660,4391.383 2031.276,4383.703 ZM1484.636,4388.810 C1466.864,4384.530 1453.185,4377.677 1443.599,4368.265 C1434.000,4358.852 1427.374,4350.719 1423.708,4343.867 C1420.041,4337.027 1415.668,4326.761 1410.602,4313.056 L1282.892,3950.859 L1067.483,4429.673 L837.955,3949.139 L710.033,4312.656 C706.180,4325.268 702.473,4335.454 698.900,4343.187 C695.327,4350.933 690.248,4359.385 683.661,4368.558 C677.062,4377.730 668.609,4384.477 658.290,4388.770 C647.971,4393.063 635.692,4395.222 621.480,4395.222 C635.132,4367.918 646.784,4340.613 656.464,4313.309 L854.421,3746.742 L1092.481,4249.301 L1318.596,3746.742 L1518.713,4312.002 C1523.073,4324.348 1527.726,4337.480 1532.659,4351.413 C1537.592,4365.358 1542.058,4375.997 1546.044,4383.343 L1551.164,4395.222 C1524.579,4395.222 1502.408,4393.076 1484.636,4388.810 ZM533.187,4389.249 C514.148,4385.263 499.243,4378.717 488.444,4369.611 C477.645,4360.505 469.965,4352.679 465.419,4346.133 C460.873,4339.587 455.473,4329.761 449.234,4316.669 L379.759,4164.841 L168.350,4164.841 L99.382,4316.375 C93.209,4330.094 88.436,4339.947 85.077,4345.946 C81.704,4351.946 76.091,4359.665 68.238,4369.091 C60.372,4378.517 50.933,4385.223 39.907,4389.223 C28.868,4393.222 15.682,4395.222 0.324,4395.222 C16.816,4369.064 31.041,4342.893 42.987,4316.722 L302.366,3746.742 L561.744,4316.722 C566.864,4328.108 572.970,4340.333 580.090,4353.412 C587.196,4366.505 593.022,4376.744 597.581,4384.130 L604.408,4395.222 C575.957,4395.222 552.225,4393.222 533.187,4389.249 ZM273.768,3933.153 L191.641,4113.645 L356.335,4113.645 L273.768,3933.153 Z"/>
<path fill-rule="evenodd"  fill="rgb(121, 6, 4)"
      d="M3510.959,4872.723 C3500.979,4870.320 3493.297,4866.471 3487.914,4861.186 C3482.523,4855.900 3478.802,4851.333 3476.743,4847.484 C3474.684,4843.644 3472.229,4837.879 3469.384,4830.182 L3397.666,4626.783 L3276.699,4895.671 L3147.803,4625.817 L3075.965,4829.957 C3073.802,4837.040 3071.720,4842.760 3069.714,4847.103 C3067.707,4851.453 3064.855,4856.199 3061.156,4861.350 C3057.450,4866.501 3052.703,4870.290 3046.908,4872.701 C3041.114,4875.111 3034.218,4876.324 3026.237,4876.324 C3033.903,4860.991 3040.447,4845.658 3045.883,4830.324 L3157.049,4512.158 L3290.737,4794.379 L3417.716,4512.158 L3530.096,4829.591 C3532.544,4836.524 3535.157,4843.898 3537.927,4851.722 C3540.697,4859.553 3543.205,4865.528 3545.444,4869.653 L3548.319,4876.324 C3533.390,4876.324 3520.939,4875.119 3510.959,4872.723 ZM2940.238,4872.970 C2929.546,4870.732 2921.176,4867.055 2915.111,4861.942 C2909.047,4856.828 2904.735,4852.433 2902.181,4848.757 C2899.628,4845.081 2896.596,4839.563 2893.092,4832.211 L2854.078,4746.949 L2735.357,4746.949 L2696.626,4832.046 C2693.160,4839.750 2690.480,4845.283 2688.593,4848.652 C2686.699,4852.022 2683.547,4856.357 2679.137,4861.650 C2674.720,4866.943 2669.419,4870.709 2663.227,4872.955 C2657.028,4875.201 2649.623,4876.324 2640.998,4876.324 C2650.260,4861.635 2658.248,4846.938 2664.957,4832.241 L2810.616,4512.158 L2956.275,4832.241 C2959.150,4838.635 2962.579,4845.500 2966.577,4852.845 C2970.568,4860.197 2973.839,4865.947 2976.400,4870.095 L2980.233,4876.324 C2964.256,4876.324 2950.929,4875.201 2940.238,4872.970 ZM2794.556,4616.841 L2748.436,4718.199 L2840.923,4718.199 L2794.556,4616.841 ZM2507.263,4680.435 C2498.982,4691.965 2494.842,4710.046 2494.842,4734.693 L2494.842,4871.533 L2437.342,4871.533 L2437.342,4734.970 C2437.342,4715.489 2433.030,4699.991 2424.405,4688.491 L2346.300,4584.991 C2342.145,4579.563 2335.916,4572.375 2327.613,4563.428 C2319.302,4554.489 2312.115,4546.980 2306.050,4540.908 L2296.467,4531.324 C2321.062,4531.324 2341.269,4533.638 2357.097,4538.265 C2372.924,4542.892 2383.473,4547.601 2388.752,4552.385 C2394.022,4557.169 2400.184,4564.185 2407.222,4573.439 L2479.299,4668.164 L2551.519,4571.672 C2557.785,4562.710 2563.191,4555.986 2567.735,4551.502 C2572.280,4547.017 2579.789,4542.532 2590.264,4538.048 C2600.730,4533.570 2613.316,4531.324 2628.013,4531.324 C2608.846,4549.383 2594.629,4564.581 2585.367,4576.935 L2507.263,4680.435 ZM2239.215,4872.970 C2228.523,4870.732 2220.153,4867.055 2214.088,4861.942 C2208.024,4856.828 2203.711,4852.433 2201.158,4848.757 C2198.605,4845.081 2195.573,4839.563 2192.069,4832.211 L2153.054,4746.949 L2034.333,4746.949 L1995.603,4832.046 C1992.137,4839.750 1989.456,4845.283 1987.570,4848.652 C1985.676,4852.022 1982.524,4856.357 1978.114,4861.650 C1973.696,4866.943 1968.396,4870.709 1962.204,4872.955 C1956.005,4875.201 1948.600,4876.324 1939.975,4876.324 C1949.236,4861.635 1957.225,4846.938 1963.933,4832.241 L2109.593,4512.158 L2255.252,4832.241 C2258.127,4838.635 2261.556,4845.500 2265.554,4852.845 C2269.544,4860.197 2272.816,4865.947 2275.377,4870.095 L2279.210,4876.324 C2263.233,4876.324 2249.906,4875.201 2239.215,4872.970 ZM2093.533,4616.841 L2047.413,4718.199 L2139.900,4718.199 L2093.533,4616.841 ZM1683.137,4823.616 L1683.137,4584.033 C1683.137,4577.010 1682.733,4569.104 1681.939,4560.314 C1681.138,4551.532 1680.262,4544.427 1679.304,4538.991 L1678.346,4531.324 C1693.035,4531.324 1704.939,4532.762 1714.043,4535.637 C1723.148,4538.512 1729.452,4543.064 1732.971,4549.293 C1736.482,4555.522 1738.638,4560.793 1739.439,4565.106 C1740.233,4569.418 1740.637,4575.730 1740.637,4584.033 L1740.637,4842.783 L1870.012,4842.783 C1876.399,4842.783 1881.827,4843.741 1886.304,4845.658 C1890.774,4847.574 1894.128,4849.731 1896.366,4852.126 C1898.598,4854.522 1900.275,4857.397 1901.398,4860.751 C1902.513,4864.106 1903.150,4866.427 1903.314,4867.699 C1903.472,4868.980 1903.554,4870.260 1903.554,4871.533 L1678.346,4871.533 C1681.535,4855.563 1683.137,4839.593 1683.137,4823.616 ZM1568.388,4872.970 C1557.697,4870.732 1549.326,4867.055 1543.262,4861.942 C1537.197,4856.828 1532.885,4852.433 1530.332,4848.757 C1527.779,4845.081 1524.746,4839.563 1521.242,4832.211 L1482.228,4746.949 L1363.507,4746.949 L1324.777,4832.046 C1321.310,4839.750 1318.630,4845.283 1316.743,4848.652 C1314.849,4852.022 1311.697,4856.357 1307.287,4861.650 C1302.870,4866.943 1297.569,4870.709 1291.377,4872.955 C1285.178,4875.201 1277.773,4876.324 1269.148,4876.324 C1278.410,4861.635 1286.398,4846.938 1293.107,4832.241 L1438.766,4512.158 L1584.425,4832.241 C1587.300,4838.635 1590.729,4845.500 1594.727,4852.845 C1598.718,4860.197 1601.989,4865.947 1604.550,4870.095 L1608.383,4876.324 C1592.406,4876.324 1579.079,4875.201 1568.388,4872.970 ZM1422.706,4616.841 L1376.587,4718.199 L1469.073,4718.199 L1422.706,4616.841 ZM1135.413,4680.435 C1127.133,4691.965 1122.992,4710.046 1122.992,4734.693 L1122.992,4871.533 L1065.492,4871.533 L1065.492,4734.970 C1065.492,4715.489 1061.180,4699.991 1052.555,4688.491 L974.451,4584.991 C970.295,4579.563 964.066,4572.375 955.763,4563.428 C947.453,4554.489 940.265,4546.980 934.201,4540.908 L924.617,4531.324 C949.212,4531.324 969.420,4533.638 985.247,4538.265 C1001.074,4542.892 1011.624,4547.601 1016.902,4552.385 C1022.173,4557.169 1028.335,4564.185 1035.372,4573.439 L1107.449,4668.164 L1179.669,4571.672 C1185.935,4562.710 1191.341,4555.986 1195.886,4551.502 C1200.430,4547.017 1207.940,4542.532 1218.414,4538.048 C1228.881,4533.570 1241.466,4531.324 1256.163,4531.324 C1236.997,4549.383 1222.779,4564.581 1213.518,4576.935 L1135.413,4680.435 ZM727.680,4873.928 C712.025,4873.928 691.181,4873.524 665.149,4872.731 C639.109,4871.929 620.347,4871.533 608.847,4871.533 C612.036,4854.283 613.638,4838.313 613.638,4823.616 L613.638,4584.033 C613.638,4577.010 613.234,4569.500 612.440,4561.512 C611.639,4553.531 610.763,4547.302 609.805,4542.824 L608.847,4536.116 C619.388,4536.116 638.151,4535.719 665.149,4534.918 C692.139,4534.124 712.983,4533.720 727.680,4533.720 C776.555,4533.720 816.401,4549.937 847.232,4582.356 C878.056,4614.782 893.472,4655.271 893.472,4703.824 C893.472,4752.385 878.056,4792.874 847.232,4825.293 C816.401,4857.719 776.555,4873.928 727.680,4873.928 ZM805.545,4600.324 C786.857,4573.177 761.057,4559.595 728.159,4559.595 C721.129,4559.595 711.306,4559.835 698.690,4560.314 C686.067,4560.793 676.888,4561.033 671.138,4561.033 L671.138,4846.616 C674.013,4846.616 682.474,4846.856 696.534,4847.335 C710.587,4847.814 721.129,4848.053 728.159,4848.053 C763.296,4848.053 789.650,4834.876 807.222,4808.522 C824.786,4782.168 833.576,4747.271 833.576,4703.824 C833.576,4661.980 824.232,4627.480 805.545,4600.324 ZM486.182,4871.533 L428.682,4871.533 L428.682,4584.033 C428.682,4575.730 429.079,4569.418 429.880,4565.106 C430.673,4560.793 432.829,4555.522 436.348,4549.293 C439.860,4543.064 446.171,4538.512 455.275,4535.637 C464.380,4532.762 476.276,4531.324 490.973,4531.324 C487.776,4550.491 486.182,4568.063 486.182,4584.033 L486.182,4871.533 ZM169.786,4895.184 L24.269,4575.408 C21.394,4569.021 17.957,4562.156 13.967,4554.803 C9.968,4547.459 6.697,4541.709 4.144,4537.553 L0.310,4531.324 C16.280,4531.324 29.644,4532.440 40.411,4534.663 C51.177,4536.895 59.607,4540.548 65.717,4545.639 C71.826,4550.731 76.161,4555.110 78.736,4558.772 C81.304,4562.433 84.359,4567.921 87.893,4575.235 L186.107,4789.910 L283.685,4575.490 C287.144,4567.808 289.824,4562.290 291.718,4558.929 C293.605,4555.575 296.757,4551.255 301.175,4545.969 C305.584,4540.691 310.885,4536.932 317.084,4534.686 C323.276,4532.447 330.688,4531.324 339.313,4531.324 C330.044,4545.984 322.063,4560.636 315.355,4575.295 L169.786,4895.184 Z"/>
</svg>
