<svg id="Layer_1" data-name="Layer 1" xmlns="http://www.w3.org/2000/svg" viewBox="0 0 497 481">
  <defs>
    <style>
      .cls-1, .cls-2 {
        fill: #231f20;
      }

      .cls-1 {
        fill-rule: evenodd;
      }
    </style>
  </defs>
  <title>anna-university</title>
  <g>
    <path class="cls-1" d="M118.1,211.4l-3.2,24.2,1.2,29H386.3l-.6-41.1-14.2-36.7-33.3,25.3V182.3l-33.5,28.4-.3-56.8h43.9l-41.6-29.3-15.1-2.4v89.2h-6.2V181.3l-46.9,30.1H227.7V181.7l-46.8,29.7h-5.7V179.3l-41.9,32.1Zm182.3-76.7,18.4,11.1H300.4Zm52,91.9a4.5,4.5,0,1,1,4.5,4.5A4.5,4.5,0,0,1,352.4,226.6Zm-17.4,0a4.5,4.5,0,1,1,4.5,4.5A4.5,4.5,0,0,1,335,226.6Zm-17.4,0a4.5,4.5,0,1,1,4.4,4.5A4.4,4.4,0,0,1,317.6,226.6Zm-17.4,0a4.5,4.5,0,1,1,4.4,4.5A4.4,4.4,0,0,1,300.2,226.6Zm-17.4,0a4.5,4.5,0,1,1,4.4,4.5A4.4,4.4,0,0,1,282.8,226.6Zm-17.4,0a4.5,4.5,0,1,1,4.4,4.5A4.4,4.4,0,0,1,265.4,226.6Zm-17.5,0a4.5,4.5,0,0,1,4.5-4.4,4.5,4.5,0,0,1,0,8.9A4.5,4.5,0,0,1,247.9,226.6Zm-17.4,0a4.5,4.5,0,1,1,4.5,4.5A4.5,4.5,0,0,1,230.5,226.6Zm-17.4,0a4.5,4.5,0,1,1,4.5,4.5A4.5,4.5,0,0,1,213.1,226.6Zm-17.4,0a4.5,4.5,0,1,1,4.5,4.5A4.5,4.5,0,0,1,195.7,226.6Zm-17.4,0a4.5,4.5,0,1,1,4.5,4.5A4.5,4.5,0,0,1,178.3,226.6Zm-17.4,0a4.5,4.5,0,1,1,4.4,4.5A4.4,4.4,0,0,1,160.9,226.6Zm-17.4,0a4.5,4.5,0,1,1,4.4,4.5A4.4,4.4,0,0,1,143.5,226.6Zm-17.4,0a4.5,4.5,0,1,1,4.4,4.5A4.4,4.4,0,0,1,126.1,226.6Z" transform="translate(-1.5 -1.5)"/>
    <path class="cls-2" d="M250.6,116.6a133,133,0,1,0,132.9,133A133,133,0,0,0,250.6,116.6Zm0-9.6A142.6,142.6,0,1,1,108,249.6,142.5,142.5,0,0,1,250.6,107Z" transform="translate(-1.5 -1.5)"/>
    <path class="cls-2" d="M264.9,291.6h11.8a1.4,1.4,0,1,1,0,2.8H264.9A1.4,1.4,0,1,1,264.9,291.6Z" transform="translate(-1.5 -1.5)"/>
    <path class="cls-2" d="M289.8,291.6h3a1.4,1.4,0,1,1,0,2.8h-3A1.4,1.4,0,1,1,289.8,291.6Z" transform="translate(-1.5 -1.5)"/>
    <path class="cls-2" d="M301.2,291.6h.6a1.4,1.4,0,1,1,0,2.8h-.6A1.4,1.4,0,1,1,301.2,291.6Z" transform="translate(-1.5 -1.5)"/>
    <path class="cls-2" d="M316.6,291.6h7.9a1.4,1.4,0,1,1,0,2.8h-7.9A1.4,1.4,0,1,1,316.6,291.6Z" transform="translate(-1.5 -1.5)"/>
    <path class="cls-2" d="M264.9,302.5h11.8a1.5,1.5,0,0,1,0,2.9H264.9A1.5,1.5,0,0,1,264.9,302.5Z" transform="translate(-1.5 -1.5)"/>
    <path class="cls-2" d="M289.8,302.5h3a1.5,1.5,0,0,1,0,2.9h-3A1.5,1.5,0,0,1,289.8,302.5Z" transform="translate(-1.5 -1.5)"/>
    <path class="cls-2" d="M301.2,302.5h.6a1.5,1.5,0,0,1,0,2.9h-.6A1.5,1.5,0,0,1,301.2,302.5Z" transform="translate(-1.5 -1.5)"/>
    <path class="cls-2" d="M316.6,302.5h7.9a1.5,1.5,0,0,1,0,2.9h-7.9A1.5,1.5,0,0,1,316.6,302.5Z" transform="translate(-1.5 -1.5)"/>
    <path class="cls-2" d="M282.1,298.1h11.7a1.4,1.4,0,1,1,0,2.8H282.1A1.4,1.4,0,1,1,282.1,298.1Z" transform="translate(-1.5 -1.5)"/>
    <path class="cls-2" d="M265.9,298.1H269a1.4,1.4,0,1,1,0,2.8h-3.1A1.4,1.4,0,0,1,265.9,298.1Z" transform="translate(-1.5 -1.5)"/>
    <path class="cls-2" d="M318.5,298.1h.7a1.4,1.4,0,1,1,0,2.8h-.7A1.4,1.4,0,1,1,318.5,298.1Z" transform="translate(-1.5 -1.5)"/>
    <path class="cls-2" d="M307.8,298.1h.6a1.4,1.4,0,1,1,0,2.8h-.6A1.4,1.4,0,1,1,307.8,298.1Z" transform="translate(-1.5 -1.5)"/>
    <path class="cls-2" d="M264.9,313.1h11.8a1.4,1.4,0,1,1,0,2.8H264.9A1.4,1.4,0,1,1,264.9,313.1Z" transform="translate(-1.5 -1.5)"/>
    <path class="cls-2" d="M289.8,313.1h3a1.4,1.4,0,1,1,0,2.8h-3A1.4,1.4,0,1,1,289.8,313.1Z" transform="translate(-1.5 -1.5)"/>
    <path class="cls-2" d="M301.2,313.1h.6a1.4,1.4,0,1,1,0,2.8h-.6A1.4,1.4,0,1,1,301.2,313.1Z" transform="translate(-1.5 -1.5)"/>
    <path class="cls-2" d="M316.6,313.1h2.3a1.4,1.4,0,1,1,0,2.8h-2.3A1.4,1.4,0,1,1,316.6,313.1Z" transform="translate(-1.5 -1.5)"/>
    <path class="cls-2" d="M282.1,308.6h11.7a1.4,1.4,0,1,1,0,2.8H282.1A1.4,1.4,0,1,1,282.1,308.6Z" transform="translate(-1.5 -1.5)"/>
    <path class="cls-2" d="M265.9,308.6H269a1.4,1.4,0,1,1,0,2.8h-3.1A1.4,1.4,0,0,1,265.9,308.6Z" transform="translate(-1.5 -1.5)"/>
    <path class="cls-2" d="M318.5,308.6h.7a1.4,1.4,0,1,1,0,2.8h-.7A1.4,1.4,0,1,1,318.5,308.6Z" transform="translate(-1.5 -1.5)"/>
    <path class="cls-2" d="M307.8,308.6h.6a1.4,1.4,0,1,1,0,2.8h-.6A1.4,1.4,0,1,1,307.8,308.6Z" transform="translate(-1.5 -1.5)"/>
    <path class="cls-2" d="M264.9,324h11.8a1.4,1.4,0,1,1,0,2.8H264.9A1.4,1.4,0,1,1,264.9,324Z" transform="translate(-1.5 -1.5)"/>
    <path class="cls-2" d="M289.8,324h3a1.4,1.4,0,1,1,0,2.8h-3A1.4,1.4,0,1,1,289.8,324Z" transform="translate(-1.5 -1.5)"/>
    <path class="cls-2" d="M301.2,324h.6a1.4,1.4,0,1,1,0,2.8h-.6A1.4,1.4,0,1,1,301.2,324Z" transform="translate(-1.5 -1.5)"/>
    <path class="cls-2" d="M282.1,319.5h11.7a1.5,1.5,0,0,1,0,2.9H282.1A1.5,1.5,0,0,1,282.1,319.5Z" transform="translate(-1.5 -1.5)"/>
    <path class="cls-2" d="M265.9,319.5H269a1.5,1.5,0,0,1,0,2.9h-3.1A1.5,1.5,0,0,1,265.9,319.5Z" transform="translate(-1.5 -1.5)"/>
    <path class="cls-2" d="M307.8,319.5h.6a1.5,1.5,0,0,1,0,2.9h-.6A1.5,1.5,0,0,1,307.8,319.5Z" transform="translate(-1.5 -1.5)"/>
    <path class="cls-2" d="M282.1,330.5h11.7a1.4,1.4,0,1,1,0,2.8H282.1A1.4,1.4,0,1,1,282.1,330.5Z" transform="translate(-1.5 -1.5)"/>
    <path class="cls-2" d="M265.9,330.5H269a1.4,1.4,0,1,1,0,2.8h-3.1A1.4,1.4,0,0,1,265.9,330.5Z" transform="translate(-1.5 -1.5)"/>
    <path class="cls-2" d="M307.8,330.5h.6a1.4,1.4,0,1,1,0,2.8h-.6A1.4,1.4,0,1,1,307.8,330.5Z" transform="translate(-1.5 -1.5)"/>
    <path class="cls-2" d="M228.9,291.6h11.8a1.4,1.4,0,1,1,0,2.8H228.9A1.4,1.4,0,1,1,228.9,291.6Z" transform="translate(-1.5 -1.5)"/>
    <path class="cls-2" d="M228.9,302.5h11.8a1.5,1.5,0,0,1,0,2.9H228.9A1.5,1.5,0,0,1,228.9,302.5Z" transform="translate(-1.5 -1.5)"/>
    <path class="cls-2" d="M228.9,313.1h11.8a1.4,1.4,0,1,1,0,2.8H228.9A1.4,1.4,0,1,1,228.9,313.1Z" transform="translate(-1.5 -1.5)"/>
    <path class="cls-2" d="M228.9,324h11.8a1.4,1.4,0,1,1,0,2.8H228.9A1.4,1.4,0,1,1,228.9,324Z" transform="translate(-1.5 -1.5)"/>
    <path class="cls-2" d="M211.8,298.1h11.7a1.4,1.4,0,1,1,0,2.8H211.8A1.4,1.4,0,1,1,211.8,298.1Z" transform="translate(-1.5 -1.5)"/>
    <path class="cls-2" d="M211.8,308.6h11.7a1.4,1.4,0,1,1,0,2.8H211.8A1.4,1.4,0,1,1,211.8,308.6Z" transform="translate(-1.5 -1.5)"/>
    <path class="cls-2" d="M211.8,319.5h11.7a1.5,1.5,0,0,1,0,2.9H211.8A1.5,1.5,0,0,1,211.8,319.5Z" transform="translate(-1.5 -1.5)"/>
    <path class="cls-2" d="M211.8,330.5h11.7a1.4,1.4,0,1,1,0,2.8H211.8A1.4,1.4,0,1,1,211.8,330.5Z" transform="translate(-1.5 -1.5)"/>
    <path class="cls-2" d="M213.2,291.6h.7a1.4,1.4,0,1,1,0,2.8h-.7A1.4,1.4,0,1,1,213.2,291.6Z" transform="translate(-1.5 -1.5)"/>
    <path class="cls-2" d="M213.2,302.5h.7a1.5,1.5,0,0,1,0,2.9h-.7A1.5,1.5,0,0,1,213.2,302.5Z" transform="translate(-1.5 -1.5)"/>
    <path class="cls-2" d="M213.2,313.1h.7a1.4,1.4,0,1,1,0,2.8h-.7A1.4,1.4,0,1,1,213.2,313.1Z" transform="translate(-1.5 -1.5)"/>
    <path class="cls-2" d="M213.2,324h.7a1.4,1.4,0,1,1,0,2.8h-.7A1.4,1.4,0,1,1,213.2,324Z" transform="translate(-1.5 -1.5)"/>
    <path class="cls-2" d="M237.6,298.1h.7a1.4,1.4,0,1,1,0,2.8h-.7A1.4,1.4,0,1,1,237.6,298.1Z" transform="translate(-1.5 -1.5)"/>
    <path class="cls-2" d="M237.6,308.6h.7a1.4,1.4,0,1,1,0,2.8h-.7A1.4,1.4,0,1,1,237.6,308.6Z" transform="translate(-1.5 -1.5)"/>
    <path class="cls-2" d="M237.6,319.5h.7a1.5,1.5,0,0,1,0,2.9h-.7A1.5,1.5,0,0,1,237.6,319.5Z" transform="translate(-1.5 -1.5)"/>
    <path class="cls-2" d="M237.6,330.5h.7a1.4,1.4,0,1,1,0,2.8h-.7A1.4,1.4,0,1,1,237.6,330.5Z" transform="translate(-1.5 -1.5)"/>
    <path class="cls-2" d="M202.5,291.6h3a1.4,1.4,0,1,1,0,2.8h-3A1.4,1.4,0,1,1,202.5,291.6Z" transform="translate(-1.5 -1.5)"/>
    <path class="cls-2" d="M202.5,302.5h3a1.5,1.5,0,0,1,0,2.9h-3A1.5,1.5,0,0,1,202.5,302.5Z" transform="translate(-1.5 -1.5)"/>
    <path class="cls-2" d="M202.5,313.1h3a1.4,1.4,0,1,1,0,2.8h-3A1.4,1.4,0,1,1,202.5,313.1Z" transform="translate(-1.5 -1.5)"/>
    <path class="cls-2" d="M202.5,324h3a1.4,1.4,0,1,1,0,2.8h-3A1.4,1.4,0,1,1,202.5,324Z" transform="translate(-1.5 -1.5)"/>
    <path class="cls-2" d="M195.7,298.1h3a1.4,1.4,0,1,1,0,2.8h-3A1.4,1.4,0,1,1,195.7,298.1Z" transform="translate(-1.5 -1.5)"/>
    <path class="cls-2" d="M195.7,308.6h3a1.4,1.4,0,1,1,0,2.8h-3A1.4,1.4,0,1,1,195.7,308.6Z" transform="translate(-1.5 -1.5)"/>
    <path class="cls-2" d="M195.7,319.5h3a1.5,1.5,0,0,1,0,2.9h-3A1.5,1.5,0,0,1,195.7,319.5Z" transform="translate(-1.5 -1.5)"/>
    <path class="cls-2" d="M195.7,330.5h3a1.4,1.4,0,1,1,0,2.8h-3A1.4,1.4,0,1,1,195.7,330.5Z" transform="translate(-1.5 -1.5)"/>
    <path class="cls-2" d="M180.9,291.6h7.9a1.4,1.4,0,1,1,0,2.8h-7.9A1.4,1.4,0,1,1,180.9,291.6Z" transform="translate(-1.5 -1.5)"/>
    <path class="cls-2" d="M180.9,302.5h7.9a1.5,1.5,0,0,1,0,2.9h-7.9A1.5,1.5,0,0,1,180.9,302.5Z" transform="translate(-1.5 -1.5)"/>
    <path class="cls-2" d="M187.2,298.1h.6a1.4,1.4,0,1,1,0,2.8h-.6A1.4,1.4,0,1,1,187.2,298.1Z" transform="translate(-1.5 -1.5)"/>
    <path class="cls-2" d="M187.2,308.6h.6a1.4,1.4,0,1,1,0,2.8h-.6A1.4,1.4,0,1,1,187.2,308.6Z" transform="translate(-1.5 -1.5)"/>
    <path class="cls-1" d="M262.2,360.1a105.2,105.2,0,0,1,5.7-10.1,13.1,13.1,0,0,1,3.7-2.4,12.2,12.2,0,0,1,5.9-1.1h38.6L341,277.4H267.8a31.3,31.3,0,0,0-5.1,1.9,32.9,32.9,0,0,0-6,3.6h-8.1a31.6,31.6,0,0,0-6.6-4.4c-2.5-1.4-3.3-2.2-6.7-2.8H166.5l20.1,70.8h41.2a11.8,11.8,0,0,1,5.9,1.1,13.6,13.6,0,0,1,3.8,2.4c2.6,4,5.6,10.1,5.6,10.1Zm-2-74.9h67.2l-18.3,53.5H260.2Zm-15.1,0H178l18.2,53.5h48.9Zm8,.1h3.2v53.9h-3.2Z" transform="translate(-1.5 -1.5)"/>
    <path class="cls-2" d="M103.6,370.4a191.7,191.7,0,0,0,35.7,33.4H361a191.4,191.4,0,0,0,36.4-34.4c5-6.2,27.3,8.4,31,10.1,25.5,9.7,44.4-23,23.3-40.2-38.2-29.2-21.9-11.9-14.3-59.1,1.2-7.8,27.6-6.4,31.7-6.8,13.2-2.2,19.8-10.2,19.8-23.3s-6.6-21.1-19.8-23.2c-48.2-6.5-24.5.4-41.5-44.5-2.8-7.4,20.8-19.5,24-21.8,21.1-17.2,2.3-50-23.2-40.2-44.3,18.4-21.3,13-58.3-17.3-6.1-5,8.5-27.7,10-31.1,9.7-25.4-23-44.4-40.2-23.2-29.2,38.2-11.8,21.8-58.8,14.2C273.3,61.6,274,34,273.7,31c-2.1-13.3-10.1-19.9-23.3-19.9S229.3,17.7,227.2,31c-6.2,47.6.5,24.7-44.1,41.6-7.4,2.8-19.9-21.3-22-24.2-17.2-21.1-50.1-2.2-40.2,23.4,18.5,44.5,12.8,20.9-17.8,58.4-5,6.2-27.4-8.4-31-10-25.4-9.7-44.4,23-23.2,40.2,38.7,29.6,21.4,11.7,13.8,59.3-1.3,7.8-27.7,6.4-31.8,6.9-13.2,2.1-19.8,10.1-19.8,23.2S17.7,270.9,31,273c47.7,6.2,24.6-.7,42,44.6,2.8,7.3-20.7,19.3-24.1,21.7-21.1,17.2-2.2,50,23.3,40.3C74.3,378.7,98.6,364.3,103.6,370.4Zm-5.1,8.9-22.7,9.2c-35.9,13.8-62.6-32.7-32.7-56.8l19.6-14.2A186.4,186.4,0,0,1,54,285.7l-24.4-3.1c-18.1-2.9-28.1-15-28.1-32.8s10.1-30,28.2-32.8l24.1-2.5A185.6,185.6,0,0,1,62.5,183L43,168.1c-30-24.2-3-70.6,32.8-56.8l22.2,10A205.1,205.1,0,0,1,121.3,98l-9.4-22.7C98,39.4,144.6,12.7,168.7,42.6l14.4,19.7a204.3,204.3,0,0,1,31.4-8.4l3.1-24.3c2.9-18.1,15-28.1,32.8-28.1s30,10,32.8,28.1l3.1,24.3a202.4,202.4,0,0,1,31,8.4l14.9-19.5c24.2-30,70.6-3,56.8,32.8l-9.9,22.3a207.2,207.2,0,0,1,23,22.9l22.6-9.5c35.9-13.8,62.7,32.7,32.8,56.9l-19.7,14.1a198.1,198.1,0,0,1,8.2,31.6l24.4,3.3c18.1,2.9,28.1,15,28.1,32.8s-10.1,30-28.2,32.8l-24,2.5a202.8,202.8,0,0,1-8.3,31.3l19.6,15c29.9,24.1,3,70.5-32.9,56.7l-22.2-10c-4.4,5.2-32.4,35.1-39.9,35.1H137.7C130.4,413.5,102.8,384.3,98.5,379.3Z" transform="translate(-1.5 -1.5)"/>
    <path class="cls-1" d="M88.7,169.8l3.1-5.7,28.7,4.3-2.9,5.4-5.8-1.1-4.8,8.9,4.1,4.3-2.8,5.3Zm14.9,8.3,3.3-6.2-11.1-2Z" transform="translate(-1.5 -1.5)"/>
    <polygon class="cls-1" points="100.4 145.6 104.1 140.9 125.8 144.5 111 132.5 114.3 128.3 135.6 145.5 132 150 109.9 146.4 125 158.6 121.6 162.8 100.4 145.6"/>
    <polygon class="cls-1" points="122.5 119.6 127.1 115.7 147.7 123.3 135.5 108.7 139.5 105.3 157.1 126.2 152.7 129.9 131.7 122.2 144.2 137.1 140.1 140.5 122.5 119.6"/>
    <path class="cls-1" d="M156.5,96.3l5.6-3.3,22.4,18.5-5.4,3.2-4.4-3.9-8.6,5.1,1.3,5.8-5.1,3.1Zm8.5,14.8,5.9-3.6-8.4-7.4Z" transform="translate(-1.5 -1.5)"/>
    <path class="cls-1" d="M191.3,79.8l5.6-1.5,4.4,16.3a9,9,0,0,0,1.7,3.8c1.1,1.3,2.7,1.6,5,1s3.4-1.7,3.7-3.4a9.1,9.1,0,0,0-.4-4.1l-4.4-16.3,5.7-1.5,4.3,16.3a14.2,14.2,0,0,1,.5,6.9c-.9,3.3-3.6,5.6-8.2,6.8s-8.1.6-10.5-1.8a13.8,13.8,0,0,1-3-6.2Z" transform="translate(-1.5 -1.5)"/>
    <polygon class="cls-1" points="222.4 70.7 228.3 70.2 240.9 88.3 239.2 69.2 244.5 68.8 246.9 96 241.2 96.5 228.4 78.1 230.1 97.5 224.8 98 222.4 70.7"/>
    <rect class="cls-2" x="243.9" y="81.6" width="27.3" height="5.68" transform="translate(162.6 337.4) rotate(-88)"/>
    <polygon class="cls-1" points="284.7 72.7 290.6 73.6 277.1 99.1 271.8 98.3 266.9 69.8 273 70.8 275.6 92.2 284.7 72.7"/>
    <polygon class="cls-1" points="317.3 87.7 303.6 83 301.7 88.5 314.3 92.8 312.7 97.3 300.1 93 297.9 99.6 312.2 104.5 310.6 109.2 291 102.4 299.9 76.6 318.8 83.1 317.3 87.7"/>
    <path class="cls-1" d="M346.6,100a8.1,8.1,0,0,1,1.3,3,12.2,12.2,0,0,1,0,2.7,7.7,7.7,0,0,1-1.1,2.7,8.3,8.3,0,0,1-2.8,2.8,5.7,5.7,0,0,1-4.1.6A4.8,4.8,0,0,1,341,115a8.6,8.6,0,0,1-1.5,4.1l-.9,1.6a8.3,8.3,0,0,0-1.2,2.2,2.5,2.5,0,0,0,.1,1.9l-.4.6-5.4-3.3c.2-.6.4-1,.5-1.4a8.1,8.1,0,0,1,1-2.1l1.3-2.2c.8-1.6,1.2-2.7.9-3.5a4.5,4.5,0,0,0-2.5-2.5l-5-3.1-5.5,9.2-4.8-2.9,14.1-23.4,11.5,6.9A13,13,0,0,1,346.6,100ZM334,97.1l-3.8,6.3,5.6,3.4a9,9,0,0,0,2.7,1.1,3.1,3.1,0,0,0,3-1.8c.9-1.4,1-2.6.3-3.7a4.9,4.9,0,0,0-2.1-1.8Z" transform="translate(-1.5 -1.5)"/>
    <path class="cls-1" d="M350.7,125.3a6.7,6.7,0,0,0-1.1,2.8c0,1.5.8,2.9,2.4,4.5a9.3,9.3,0,0,0,2.8,1.8,3.1,3.1,0,0,0,3.9-.7,2.3,2.3,0,0,0,.5-2.4,13.5,13.5,0,0,0-1.9-3.4l-1.7-2.5a17,17,0,0,1-3-5.5,6.7,6.7,0,0,1,1.9-6.2,8.3,8.3,0,0,1,6.1-2.8c2.4,0,4.9,1.2,7.4,3.5a11.6,11.6,0,0,1,4,6.6,8.1,8.1,0,0,1-2.1,7.1l-4.1-3.7a4,4,0,0,0,.8-4,8.2,8.2,0,0,0-2-2.7,5.9,5.9,0,0,0-3.3-1.7,2.6,2.6,0,0,0-2.6.9,2.3,2.3,0,0,0-.5,2.5,13.8,13.8,0,0,0,1.9,3.2l2.7,4a12.5,12.5,0,0,1,2.2,4.6,6.9,6.9,0,0,1-1.9,5.8,7.7,7.7,0,0,1-6.3,2.7c-2.6,0-5.1-1.2-7.7-3.5s-4.2-4.9-4.6-7.5a8.2,8.2,0,0,1,2.2-7Z" transform="translate(-1.5 -1.5)"/>
    <rect class="cls-2" x="359.2" y="136.5" width="27.3" height="5.68" transform="translate(1.1 283.8) rotate(-42)"/>
    <polygon class="cls-1" points="401.2 154.3 397.2 157.1 392.5 150.4 374.1 163.3 370.8 158.6 389.2 145.7 384.5 139 388.5 136.2 401.2 154.3"/>
    <polygon class="cls-1" points="412.5 176.7 415.3 182.5 395.9 181.5 386.6 185.8 384.2 180.6 393.5 176.3 405 160.5 407.8 166.6 399.4 176.8 412.5 176.7"/>
    <path class="cls-1" d="M41,445.1a5,5,0,0,1-4.6,2.6H32.5v13H28.8v-36h7.8a4.9,4.9,0,0,1,4.4,2.8c1.1,1.8,1.6,4.7,1.6,8.6S42.1,443.3,41,445.1Zm-2.9-13a2.4,2.4,0,0,0-2.1-1.2H32.5v10.6H36a2.3,2.3,0,0,0,2.1-1.3,8.2,8.2,0,0,0,.8-4.1A8,8,0,0,0,38.1,432.1Z" transform="translate(-1.5 -1.5)"/>
    <path class="cls-1" d="M57.3,425.6a5.8,5.8,0,0,1,1.7,2.5,21.1,21.1,0,0,1,1,3,21.7,21.7,0,0,1,.3,3.8,22.2,22.2,0,0,1-.6,5.1,6.4,6.4,0,0,1-2.2,3.5,5.7,5.7,0,0,1,1.8,2.8,25.8,25.8,0,0,1,.5,5.7v2.4a26.5,26.5,0,0,0,.1,3.3,3.7,3.7,0,0,0,.7,2.1v.9H56.4c-.1-.8-.2-1.5-.2-1.9s-.2-2.1-.2-3.2v-3.3a11.6,11.6,0,0,0-.6-4.6,2.3,2.3,0,0,0-2.3-1.1H49.2v14.1H45.5v-36h8.9A4.4,4.4,0,0,1,57.3,425.6Zm-8.1,5.3v9.7h4.3a2.7,2.7,0,0,0,1.9-.6c.7-.7,1.1-2,1.1-4s-.3-3.7-1.1-4.4a2.1,2.1,0,0,0-1.8-.7Z" transform="translate(-1.5 -1.5)"/>
    <path class="cls-1" d="M77.5,457.5q-2.1,4.2-6,4.2c-2.5,0-4.5-1.4-5.9-4.2s-2.7-8.4-2.7-14.9.9-11.5,2.7-14.8,3.4-4.2,5.9-4.2,4.6,1.4,6,4.2,2.7,8.2,2.7,14.8S79.3,454,77.5,457.5ZM75.1,452c.9-2.2,1.3-5.3,1.3-9.4s-.4-7.1-1.3-9.3-2.1-3.4-3.6-3.4-2.6,1.1-3.5,3.3a25.8,25.8,0,0,0-1.4,9.4A25.5,25.5,0,0,0,68,452c.9,2.2,2.1,3.3,3.5,3.3S74.2,454.2,75.1,452Z" transform="translate(-1.5 -1.5)"/>
    <path class="cls-1" d="M95.2,435.9c-.2-2.5-.9-4.2-2.1-5.2a3.2,3.2,0,0,0-2-.8q-2.2,0-3.6,3.3c-1,2.2-1.4,5.5-1.4,9.9s.5,7.6,1.5,9.4,2.2,2.8,3.5,2.8a3.6,3.6,0,0,0,3.1-2.2,14.8,14.8,0,0,0,1.5-5.7H91.5v-6H99v19.3H96.5l-.4-4.5a18.5,18.5,0,0,1-1.9,3.6,4.7,4.7,0,0,1-3.7,1.8c-2.4,0-4.4-1.6-5.9-4.9s-2.4-7.9-2.4-13.7.8-10.5,2.4-14,3.8-5.3,6.4-5.3a6.2,6.2,0,0,1,5.5,3.5,19.8,19.8,0,0,1,2.5,8.7Z" transform="translate(-1.5 -1.5)"/>
    <path class="cls-1" d="M114.5,425.6a5.8,5.8,0,0,1,1.7,2.5,21.1,21.1,0,0,1,1,3,21.7,21.7,0,0,1,.3,3.8,22.2,22.2,0,0,1-.6,5.1,6.4,6.4,0,0,1-2.2,3.5,5.7,5.7,0,0,1,1.8,2.8,25.8,25.8,0,0,1,.5,5.7v2.4a26.5,26.5,0,0,0,.1,3.3,3.7,3.7,0,0,0,.7,2.1v.9h-4.2c-.1-.8-.2-1.5-.2-1.9s-.2-2.1-.2-3.2v-3.3a11.6,11.6,0,0,0-.6-4.6,2.3,2.3,0,0,0-2.3-1.1h-3.9v14.1h-3.7v-36h8.9A4.4,4.4,0,0,1,114.5,425.6Zm-8.1,5.3v9.7h4.3a2.7,2.7,0,0,0,1.9-.6c.7-.7,1.1-2,1.1-4s-.4-3.7-1.1-4.4a2.1,2.1,0,0,0-1.8-.7Z" transform="translate(-1.5 -1.5)"/>
    <polygon class="cls-1" points="132.6 429.6 123.1 429.6 123.1 437.2 131.8 437.2 131.8 443.5 123.1 443.5 123.1 452.8 133.1 452.8 133.1 459.2 119.4 459.2 119.4 423.2 132.6 423.2 132.6 429.6"/>
    <path class="cls-1" d="M140.2,449.6a14.3,14.3,0,0,0,.7,3.7,3.3,3.3,0,0,0,3.2,2.2,3.5,3.5,0,0,0,2.1-.6c1.1-.8,1.6-2.2,1.6-4.2a4.1,4.1,0,0,0-.8-2.7,5.7,5.7,0,0,0-2.4-1.7l-2-.9a10.3,10.3,0,0,1-3.9-2.8c-1.2-1.6-1.8-4.2-1.8-7.7a16.2,16.2,0,0,1,1.8-8.1,5.7,5.7,0,0,1,5.2-3.2q2.8,0,4.8,3c1.4,2,2.1,5,2.2,8.8h-3.7c0-2.2-.5-3.7-1.4-4.6a2.9,2.9,0,0,0-2.2-.9,2.8,2.8,0,0,0-2.3,1.1,5.4,5.4,0,0,0-.9,3.3,4,4,0,0,0,.9,2.9,7.4,7.4,0,0,0,2.3,1.5l3.1,1.5a6.7,6.7,0,0,1,3.1,2.6c1.1,1.7,1.6,4.1,1.6,7.3a16.2,16.2,0,0,1-1.9,8.3,5.8,5.8,0,0,1-5.3,3.2,6.3,6.3,0,0,1-5.5-3.2c-1.4-2.1-2.1-5.1-2.1-8.8Z" transform="translate(-1.5 -1.5)"/>
    <path class="cls-1" d="M157,449.6a11,11,0,0,0,.7,3.7,3.2,3.2,0,0,0,3.1,2.2,3.8,3.8,0,0,0,2.2-.6,5.1,5.1,0,0,0,1.6-4.2,4.1,4.1,0,0,0-.8-2.7,6.9,6.9,0,0,0-2.5-1.7l-1.9-.9a8.9,8.9,0,0,1-3.9-2.8c-1.2-1.6-1.8-4.2-1.8-7.7a17.4,17.4,0,0,1,1.7-8.1,5.7,5.7,0,0,1,5.2-3.2c1.9,0,3.5,1,4.9,3s2,5,2.1,8.8H164a7.4,7.4,0,0,0-1.4-4.6,3.1,3.1,0,0,0-2.2-.9A3,3,0,0,0,158,431a6.2,6.2,0,0,0-.8,3.3,4,4,0,0,0,.8,2.9,10.1,10.1,0,0,0,2.4,1.5l3.1,1.5a6.7,6.7,0,0,1,3.1,2.6c1.1,1.7,1.6,4.1,1.6,7.3a16.2,16.2,0,0,1-1.9,8.3,6,6,0,0,1-5.3,3.2,6.3,6.3,0,0,1-5.6-3.2c-1.4-2.1-2-5.1-2-8.8Z" transform="translate(-1.5 -1.5)"/>
    <polygon class="cls-1" points="189.6 423.2 189.6 429.6 184.2 429.6 184.2 459.2 180.4 459.2 180.4 429.6 175 429.6 175 423.2 189.6 423.2"/>
    <polygon class="cls-1" points="191.8 459.2 191.8 423.2 195.5 423.2 195.5 436.9 202.6 436.9 202.6 423.2 206.3 423.2 206.3 459.2 202.6 459.2 202.6 443.2 195.5 443.2 195.5 459.2 191.8 459.2"/>
    <path class="cls-1" d="M223.3,425.6a5.8,5.8,0,0,1,1.7,2.5,13.2,13.2,0,0,1,1,3,21.7,21.7,0,0,1,.3,3.8,22.2,22.2,0,0,1-.6,5.1,6.4,6.4,0,0,1-2.2,3.5,4.6,4.6,0,0,1,1.8,2.8,25.8,25.8,0,0,1,.5,5.7v2.4c0,1.6.1,2.7.1,3.3a3.7,3.7,0,0,0,.7,2.1v.9h-4.2c-.1-.8-.1-1.5-.2-1.9s-.1-2.1-.2-3.2v-3.3a11.6,11.6,0,0,0-.6-4.6,2.3,2.3,0,0,0-2.3-1.1h-3.9v14.1h-3.7v-36h8.9A4.2,4.2,0,0,1,223.3,425.6Zm-8.1,5.3v9.7h4.3a2.7,2.7,0,0,0,1.9-.6c.8-.7,1.1-2,1.1-4s-.3-3.7-1.1-4.4a2.1,2.1,0,0,0-1.8-.7Z" transform="translate(-1.5 -1.5)"/>
    <path class="cls-1" d="M243.5,457.5c-1.4,2.8-3.4,4.2-5.9,4.2s-4.6-1.4-6-4.2-2.7-8.4-2.7-14.9.9-11.5,2.7-14.8,3.4-4.2,6-4.2,4.5,1.4,5.9,4.2,2.7,8.2,2.7,14.8S245.3,454,243.5,457.5Zm-2.4-5.5c.9-2.2,1.3-5.3,1.3-9.4s-.4-7.1-1.3-9.3-2-3.4-3.5-3.4-2.7,1.1-3.6,3.3a25.8,25.8,0,0,0-1.4,9.4A25.5,25.5,0,0,0,234,452q1.4,3.3,3.6,3.3C239.1,455.3,240.2,454.2,241.1,452Z" transform="translate(-1.5 -1.5)"/>
    <path class="cls-1" d="M249.1,424.7h3.8v22.1a22.2,22.2,0,0,0,.5,5.4c.4,2,1.4,3.1,3,3.1s2.5-1.1,3-3.1a31.1,31.1,0,0,0,.4-5.4V424.7h3.8v22.1a34.2,34.2,0,0,1-.9,8.9c-1.1,4-3.2,5.9-6.3,5.9s-5.3-1.9-6.4-5.9a34.2,34.2,0,0,1-.9-8.9Z" transform="translate(-1.5 -1.5)"/>
    <path class="cls-1" d="M279.4,435.9c-.3-2.5-1-4.2-2.1-5.2a3.2,3.2,0,0,0-2.1-.8q-2.1,0-3.6,3.3c-.9,2.2-1.4,5.5-1.4,9.9s.5,7.6,1.5,9.4,2.2,2.8,3.5,2.8a3.4,3.4,0,0,0,3.1-2.2,14.8,14.8,0,0,0,1.5-5.7h-4.2v-6h7.6v19.3h-2.5l-.4-4.5a13.9,13.9,0,0,1-2,3.6,4.6,4.6,0,0,1-3.7,1.8c-2.4,0-4.3-1.6-5.8-4.9s-2.4-7.9-2.4-13.7.8-10.5,2.4-14,3.7-5.3,6.4-5.3,4.1,1.2,5.5,3.5a18.6,18.6,0,0,1,2.4,8.7Z" transform="translate(-1.5 -1.5)"/>
    <polygon class="cls-1" points="285.2 459.2 285.2 423.2 289 423.2 289 436.9 296 436.9 296 423.2 299.8 423.2 299.8 459.2 296 459.2 296 443.2 289 443.2 289 459.2 285.2 459.2"/>
    <polygon class="cls-1" points="310.4 423.2 314.2 423.2 314.2 438 321.1 423.2 326 423.2 318.6 438 326.4 459.2 321.5 459.2 316 443.5 314.2 447.2 314.2 459.2 310.4 459.2 310.4 423.2"/>
    <polygon class="cls-1" points="328.4 423.2 332.4 423.2 339.6 448.4 339.6 423.2 343.1 423.2 343.1 459.2 339.3 459.2 332 433.6 332 459.2 328.4 459.2 328.4 423.2"/>
    <path class="cls-1" d="M362.1,457.5q-2.1,4.2-6,4.2c-2.5,0-4.5-1.4-5.9-4.2s-2.7-8.4-2.7-14.9.9-11.5,2.7-14.8,3.4-4.2,5.9-4.2,4.6,1.4,6,4.2,2.7,8.2,2.7,14.8S363.9,454,362.1,457.5Zm-2.4-5.5c.9-2.2,1.3-5.3,1.3-9.4s-.4-7.1-1.3-9.3-2.1-3.4-3.6-3.4-2.7,1.1-3.5,3.3a25.8,25.8,0,0,0-1.4,9.4,25.5,25.5,0,0,0,1.4,9.4c.8,2.2,2,3.3,3.5,3.3S358.8,454.2,359.7,452Z" transform="translate(-1.5 -1.5)"/>
    <polygon class="cls-1" points="368.6 423.2 371 443.8 371.5 449.6 372.1 444 374.1 423.2 378.1 423.2 380.2 443.8 380.8 449.6 381.3 444.1 383.8 423.2 387.6 423.2 382.5 459.2 378.9 459.2 376.7 438.2 376.1 431.2 375.4 438.2 373.3 459.2 369.8 459.2 364.6 423.2 368.6 423.2"/>
    <polygon class="cls-1" points="389.9 423.2 393.6 423.2 393.6 452.8 402.6 452.8 402.6 459.2 389.9 459.2 389.9 423.2"/>
    <polygon class="cls-1" points="418.6 429.6 409 429.6 409 437.2 417.8 437.2 417.8 443.5 409 443.5 409 452.8 419 452.8 419 459.2 405.3 459.2 405.3 423.2 418.6 423.2 418.6 429.6"/>
    <path class="cls-1" d="M434,425.4a9.1,9.1,0,0,1,3.1,4.6,25.9,25.9,0,0,1,1.3,5.8q.3,3.1.3,6a43.5,43.5,0,0,1-1.4,12.2c-1.3,4.4-3.3,6.7-6.1,6.7h-7.7v-36h7.7A5.5,5.5,0,0,1,434,425.4Zm-6.9,5.5v23.5h3.5c1.8,0,3-1.7,3.7-5.2a34,34,0,0,0,.6-6.9,29.6,29.6,0,0,0-.9-8.4c-.5-2-1.7-3-3.4-3Z" transform="translate(-1.5 -1.5)"/>
    <path class="cls-1" d="M453.7,435.9c-.2-2.5-.9-4.2-2.1-5.2a3.2,3.2,0,0,0-2-.8q-2.2,0-3.6,3.3c-1,2.2-1.4,5.5-1.4,9.9s.5,7.6,1.5,9.4,2.2,2.8,3.5,2.8a3.6,3.6,0,0,0,3.1-2.2,14.8,14.8,0,0,0,1.5-5.7H450v-6h7.5v19.3H455l-.4-4.5a14.2,14.2,0,0,1-1.9,3.6,4.6,4.6,0,0,1-3.7,1.8c-2.4,0-4.4-1.6-5.9-4.9s-2.4-7.9-2.4-13.7.8-10.5,2.4-14,3.8-5.3,6.4-5.3a6.4,6.4,0,0,1,5.6,3.5,19.8,19.8,0,0,1,2.4,8.7Z" transform="translate(-1.5 -1.5)"/>
    <polygon class="cls-1" points="473 429.6 463.4 429.6 463.4 437.2 472.2 437.2 472.2 443.5 463.4 443.5 463.4 452.8 473.4 452.8 473.4 459.2 459.7 459.2 459.7 423.2 473 423.2 473 429.6"/>
    <path class="cls-2" d="M482.9,413.6H19.9v59.2h463Zm9.6-9.6v78.5H10.2V404Z" transform="translate(-1.5 -1.5)"/>
  </g>
</svg>
