<svg id="Layer_1" data-name="Layer 1" xmlns="http://www.w3.org/2000/svg" xmlns:xlink="http://www.w3.org/1999/xlink" viewBox="0 0 1200 523.86"><defs><style>.cls-1,.cls-10,.cls-11,.cls-12,.cls-13,.cls-14,.cls-15,.cls-16,.cls-17,.cls-18,.cls-19,.cls-2,.cls-20,.cls-21,.cls-22,.cls-23,.cls-24,.cls-25,.cls-26,.cls-27,.cls-28,.cls-3,.cls-5,.cls-6,.cls-63,.cls-64,.cls-65,.cls-66,.cls-67,.cls-68,.cls-7,.cls-8,.cls-9{fill:none;}.cls-2{clip-rule:evenodd;}.cls-29,.cls-3,.cls-30,.cls-4{fill-rule:evenodd;}.cls-4{fill:#fff;}.cls-10,.cls-11,.cls-12,.cls-13,.cls-14,.cls-15,.cls-16,.cls-17,.cls-18,.cls-19,.cls-20,.cls-21,.cls-22,.cls-23,.cls-24,.cls-25,.cls-26,.cls-27,.cls-28,.cls-5,.cls-6,.cls-63,.cls-64,.cls-65,.cls-66,.cls-67,.cls-68,.cls-7,.cls-8,.cls-9{stroke:#0070c0;stroke-linejoin:round;stroke-width:2px;}.cls-6{stroke-dasharray:1.91 1.91;}.cls-7{stroke-dasharray:1.73 1.73;}.cls-8{stroke-dasharray:2.04 2.04;}.cls-9{stroke-dasharray:2.04 2.04;}.cls-10{stroke-dasharray:1.73 1.73;}.cls-11{stroke-dasharray:1.77 1.77;}.cls-12{stroke-dasharray:1.91 1.91;}.cls-13{stroke-dasharray:1.73 1.73;}.cls-14{stroke-dasharray:2.04 2.04;}.cls-15{stroke-dasharray:2.04 2.04;}.cls-16{stroke-dasharray:1.73 1.73;}.cls-17{stroke-dasharray:1.77 1.77;}.cls-18{stroke-dasharray:1.91 1.91;}.cls-19{stroke-dasharray:1.73 1.73;}.cls-20{stroke-dasharray:2.04 2.04;}.cls-21{stroke-dasharray:2.04 2.04;}.cls-22{stroke-dasharray:1.73 1.73;}.cls-23{stroke-dasharray:1.77 1.77;}.cls-24{stroke-dasharray:1.91 1.91;}.cls-25{stroke-dasharray:1.73 1.73;}.cls-26{stroke-dasharray:2.04 2.04;}.cls-27{stroke-dasharray:1.73 1.73;}.cls-28{stroke-dasharray:1.77 1.77;}.cls-29{fill:#0070c0;}.cls-30{fill:#bfbfbf;}.cls-31,.cls-33,.cls-38,.cls-56,.cls-81,.cls-84{font-size:18px;fill:#0d0d0d;font-family:AquilineBookBoldSWFTE, Aquiline Book;}.cls-31,.cls-50{letter-spacing:-0.04em;}.cls-32{letter-spacing:0em;}.cls-33,.cls-39{letter-spacing:0.02em;}.cls-34{letter-spacing:-0.03em;}.cls-35{letter-spacing:-0.02em;}.cls-36,.cls-84{letter-spacing:-0.01em;}.cls-37{letter-spacing:-0.03em;}.cls-40{letter-spacing:0.02em;}.cls-41{letter-spacing:0.03em;}.cls-42{clip-path:url(#clip-path);}.cls-43{letter-spacing:0.02em;}.cls-44{clip-path:url(#clip-path-3);}.cls-45{clip-path:url(#clip-path-5);}.cls-46{letter-spacing:0em;}.cls-47{clip-path:url(#clip-path-6);}.cls-48{letter-spacing:0.02em;}.cls-49{letter-spacing:-0.02em;}.cls-51{letter-spacing:0.02em;}.cls-52,.cls-81{letter-spacing:0.01em;}.cls-53{letter-spacing:-0.03em;}.cls-54{letter-spacing:0.02em;}.cls-55{letter-spacing:-0.02em;}.cls-56,.cls-70{letter-spacing:0.02em;}.cls-57{letter-spacing:-0.02em;}.cls-58{letter-spacing:0em;}.cls-59{letter-spacing:-0.01em;}.cls-60{letter-spacing:0.04em;}.cls-61{letter-spacing:0.06em;}.cls-62{letter-spacing:0em;}.cls-63{stroke-dasharray:1.91 1.91;}.cls-64{stroke-dasharray:1.73 1.73;}.cls-65{stroke-dasharray:2.04 2.04;}.cls-66{stroke-dasharray:2.04 2.04;}.cls-67{stroke-dasharray:1.73 1.73;}.cls-68{stroke-dasharray:1.77 1.77;}.cls-69{clip-path:url(#clip-path-10);}.cls-71{letter-spacing:0.03em;}.cls-72{letter-spacing:-0.01em;}.cls-73{letter-spacing:-0.03em;}.cls-74{clip-path:url(#clip-path-11);}.cls-75{letter-spacing:-0.12em;}.cls-76{letter-spacing:0.02em;}.cls-77{letter-spacing:-0.07em;}.cls-78{letter-spacing:0.01em;}.cls-79{letter-spacing:0.01em;}.cls-80{clip-path:url(#clip-path-16);}.cls-82{letter-spacing:0em;}.cls-83{clip-path:url(#clip-path-17);}.cls-85{letter-spacing:0.07em;}.cls-86{letter-spacing:-0.12em;}.cls-87{letter-spacing:0.01em;}.cls-88{clip-path:url(#clip-path-19);}.cls-89{clip-path:url(#clip-path-20);}.cls-90{letter-spacing:-0.12em;}.cls-91{clip-path:url(#clip-path-24);}.cls-92{letter-spacing:0.01em;}</style><clipPath id="clip-path" transform="translate(0 0)"><rect class="cls-1" x="250.05" width="200.44" height="131.57"/></clipPath><clipPath id="clip-path-3" transform="translate(0 0)"><polygon class="cls-2" points="250.05 131.57 450.49 131.57 450.49 0 250.05 0 250.05 131.57 250.05 131.57"/></clipPath><clipPath id="clip-path-5" transform="translate(0 0)"><rect class="cls-1" x="497.03" width="200.44" height="131.57"/></clipPath><clipPath id="clip-path-6" transform="translate(0 0)"><polygon class="cls-2" points="497.03 131.57 697.47 131.57 697.47 0 497.03 0 497.03 131.57 497.03 131.57"/></clipPath><clipPath id="clip-path-10" transform="translate(0 0)"><rect class="cls-1" x="498.46" y="190.99" width="200.44" height="130.54"/></clipPath><clipPath id="clip-path-11" transform="translate(0 0)"><polygon class="cls-2" points="498.46 321.53 698.9 321.53 698.9 190.99 498.46 190.99 498.46 321.53 498.46 321.53"/></clipPath><clipPath id="clip-path-16" transform="translate(0 0)"><rect class="cls-1" x="748.3" y="190.99" width="200.44" height="130.54"/></clipPath><clipPath id="clip-path-17" transform="translate(0 0)"><polygon class="cls-2" points="748.3 321.53 948.74 321.53 948.74 190.99 748.3 190.99 748.3 321.53 748.3 321.53"/></clipPath><clipPath id="clip-path-19" transform="translate(0 0)"><rect class="cls-1" y="392.29" width="200.44" height="131.57"/></clipPath><clipPath id="clip-path-20" transform="translate(0 0)"><polygon class="cls-2" points="0 523.86 200.44 523.86 200.44 392.29 0 392.29 0 523.86 0 523.86"/></clipPath><clipPath id="clip-path-24" transform="translate(0 0)"><rect class="cls-1" x="498.46" y="392.29" width="200.44" height="131.57"/></clipPath></defs><title>AI-Learning-Approach</title><path class="cls-4" d="M1120.9,143.5v23.07h7.2L1113.71,181l-14.39-14.39h7.19V143.5Z" transform="translate(0 0)"/><polyline class="cls-5" points="1119.9 143.5 1120.9 143.5 1120.9 144.5"/><line class="cls-6" x1="1120.9" y1="146.42" x2="1120.9" y2="164.61"/><polyline class="cls-5" points="1120.9 165.57 1120.9 166.57 1121.9 166.57"/><line class="cls-7" x1="1123.63" y1="166.57" x2="1126.23" y2="166.57"/><polyline class="cls-5" points="1127.1 166.57 1128.1 166.57 1127.39 167.27"/><line class="cls-8" x1="1125.95" y1="168.71" x2="1115.13" y2="179.53"/><polyline class="cls-5" points="1114.41 180.25 1113.71 180.96 1113 180.25"/><line class="cls-9" x1="1111.56" y1="178.81" x2="1100.74" y2="167.99"/><polyline class="cls-5" points="1100.02 167.27 1099.32 166.57 1100.32 166.57"/><line class="cls-10" x1="1102.05" y1="166.57" x2="1104.64" y2="166.57"/><polyline class="cls-5" points="1105.51 166.57 1106.51 166.57 1106.51 165.57"/><line class="cls-6" x1="1106.51" y1="163.65" x2="1106.51" y2="145.46"/><polyline class="cls-5" points="1106.51 144.5 1106.51 143.5 1107.51 143.5"/><line class="cls-11" x1="1109.28" y1="143.5" x2="1119.02" y2="143.5"/><path class="cls-4" d="M243.43,262.42H220.37v7.2L206,255.23l14.39-14.39V248h23.06v14.39Z" transform="translate(0 0)"/><polyline class="cls-5" points="243.43 261.43 243.43 262.43 242.43 262.43"/><line class="cls-12" x1="240.52" y1="262.42" x2="222.33" y2="262.42"/><polyline class="cls-5" points="221.37 262.43 220.37 262.43 220.37 263.43"/><line class="cls-13" x1="220.37" y1="265.16" x2="220.37" y2="267.75"/><polyline class="cls-5" points="220.37 268.62 220.37 269.62 219.66 268.91"/><line class="cls-14" x1="218.22" y1="267.47" x2="207.41" y2="256.66"/><polyline class="cls-5" points="206.69 255.94 205.98 255.23 206.69 254.52"/><line class="cls-15" x1="208.13" y1="253.08" x2="218.94" y2="242.27"/><polyline class="cls-5" points="219.66 241.55 220.37 240.84 220.37 241.84"/><line class="cls-16" x1="220.37" y1="243.57" x2="220.37" y2="246.17"/><polyline class="cls-5" points="220.37 247.03 220.37 248.03 221.37 248.03"/><line class="cls-12" x1="223.29" y1="248.03" x2="241.47" y2="248.03"/><polyline class="cls-5" points="242.43 248.03 243.43 248.03 243.43 249.03"/><line class="cls-17" x1="243.43" y1="250.8" x2="243.43" y2="260.54"/><path class="cls-4" d="M991.43,262.42H968.37v7.2L954,255.23l14.39-14.39V248h23.06v14.39Z" transform="translate(0 0)"/><polyline class="cls-5" points="991.43 261.43 991.43 262.43 990.43 262.43"/><line class="cls-12" x1="988.52" y1="262.42" x2="970.33" y2="262.42"/><polyline class="cls-5" points="969.37 262.43 968.37 262.43 968.37 263.43"/><line class="cls-13" x1="968.37" y1="265.16" x2="968.37" y2="267.75"/><polyline class="cls-5" points="968.37 268.62 968.37 269.62 967.66 268.91"/><line class="cls-14" x1="966.22" y1="267.47" x2="955.41" y2="256.66"/><polyline class="cls-5" points="954.69 255.94 953.98 255.23 954.69 254.52"/><line class="cls-15" x1="956.13" y1="253.08" x2="966.94" y2="242.27"/><polyline class="cls-5" points="967.66 241.55 968.37 240.84 968.37 241.84"/><line class="cls-16" x1="968.37" y1="243.57" x2="968.37" y2="246.17"/><polyline class="cls-5" points="968.37 247.03 968.37 248.03 969.37 248.03"/><line class="cls-12" x1="971.29" y1="248.03" x2="989.47" y2="248.03"/><polyline class="cls-5" points="990.43 248.03 991.43 248.03 991.43 249.03"/><line class="cls-17" x1="991.43" y1="250.8" x2="991.43" y2="260.54"/><path class="cls-4" d="M958,63H981V55.84l14.39,14.39L981,84.62V77.43H958V63Z" transform="translate(0 0)"/><polyline class="cls-5" points="957.98 64.03 957.98 63.03 958.98 63.03"/><line class="cls-18" x1="960.89" y1="63.04" x2="979.08" y2="63.04"/><polyline class="cls-5" points="980.04 63.03 981.04 63.03 981.04 62.03"/><line class="cls-19" x1="981.04" y1="60.3" x2="981.04" y2="57.71"/><polyline class="cls-5" points="981.04 56.84 981.04 55.84 981.75 56.55"/><line class="cls-20" x1="983.19" y1="57.99" x2="994" y2="68.8"/><polyline class="cls-5" points="994.72 69.52 995.43 70.23 994.72 70.94"/><line class="cls-21" x1="993.28" y1="72.38" x2="982.47" y2="83.19"/><polyline class="cls-5" points="981.75 83.91 981.04 84.62 981.04 83.62"/><line class="cls-22" x1="981.04" y1="81.89" x2="981.04" y2="79.29"/><polyline class="cls-5" points="981.04 78.43 981.04 77.43 980.04 77.43"/><line class="cls-18" x1="978.13" y1="77.43" x2="959.94" y2="77.43"/><polyline class="cls-5" points="958.98 77.43 957.98 77.43 957.98 76.43"/><line class="cls-23" x1="957.98" y1="74.66" x2="957.98" y2="64.92"/><path class="cls-4" d="M208,63H231V55.84l14.39,14.39L231,84.62V77.43H208V63Z" transform="translate(0 0)"/><polyline class="cls-5" points="207.98 64.03 207.98 63.03 208.98 63.03"/><line class="cls-18" x1="210.89" y1="63.04" x2="229.08" y2="63.04"/><polyline class="cls-5" points="230.04 63.03 231.04 63.03 231.04 62.03"/><line class="cls-19" x1="231.04" y1="60.3" x2="231.04" y2="57.71"/><polyline class="cls-5" points="231.04 56.84 231.04 55.84 231.75 56.55"/><line class="cls-20" x1="233.19" y1="57.99" x2="244" y2="68.8"/><polyline class="cls-5" points="244.72 69.52 245.43 70.23 244.72 70.94"/><line class="cls-21" x1="243.28" y1="72.38" x2="232.47" y2="83.19"/><polyline class="cls-5" points="231.75 83.91 231.04 84.62 231.04 83.62"/><line class="cls-22" x1="231.04" y1="81.89" x2="231.04" y2="79.29"/><polyline class="cls-5" points="231.04 78.43 231.04 77.43 230.04 77.43"/><line class="cls-18" x1="228.13" y1="77.43" x2="209.94" y2="77.43"/><polyline class="cls-5" points="208.98 77.43 207.98 77.43 207.98 76.43"/><line class="cls-23" x1="207.98" y1="74.66" x2="207.98" y2="64.92"/><path class="cls-4" d="M206,456H229v-7.19l14.39,14.39L229,477.62v-7.2H206V456Z" transform="translate(0 0)"/><polyline class="cls-5" points="205.98 457.03 205.98 456.03 206.98 456.03"/><line class="cls-24" x1="208.89" y1="456.03" x2="227.08" y2="456.03"/><polyline class="cls-5" points="228.04 456.03 229.04 456.03 229.04 455.03"/><line class="cls-25" x1="229.04" y1="453.3" x2="229.04" y2="450.71"/><polyline class="cls-5" points="229.04 449.84 229.04 448.84 229.75 449.55"/><line class="cls-14" x1="231.19" y1="450.99" x2="242" y2="461.8"/><polyline class="cls-5" points="242.72 462.52 243.43 463.23 242.72 463.94"/><line class="cls-26" x1="241.28" y1="465.38" x2="230.47" y2="476.19"/><polyline class="cls-5" points="229.75 476.91 229.04 477.62 229.04 476.62"/><line class="cls-27" x1="229.04" y1="474.89" x2="229.04" y2="472.29"/><polyline class="cls-5" points="229.04 471.43 229.04 470.43 228.04 470.43"/><line class="cls-24" x1="226.13" y1="470.42" x2="207.94" y2="470.42"/><polyline class="cls-5" points="206.98 470.43 205.98 470.43 205.98 469.43"/><line class="cls-28" x1="205.98" y1="467.65" x2="205.98" y2="457.92"/><path class="cls-4" d="M456,456H479v-7.19l14.39,14.39L479,477.62v-7.2H456V456Z" transform="translate(0 0)"/><polyline class="cls-5" points="455.98 457.03 455.98 456.03 456.98 456.03"/><line class="cls-24" x1="458.89" y1="456.03" x2="477.08" y2="456.03"/><polyline class="cls-5" points="478.04 456.03 479.04 456.03 479.04 455.03"/><line class="cls-25" x1="479.04" y1="453.3" x2="479.04" y2="450.71"/><polyline class="cls-5" points="479.04 449.84 479.04 448.84 479.75 449.55"/><line class="cls-14" x1="481.19" y1="450.99" x2="492" y2="461.8"/><polyline class="cls-5" points="492.72 462.52 493.43 463.23 492.72 463.94"/><line class="cls-26" x1="491.28" y1="465.38" x2="480.47" y2="476.19"/><polyline class="cls-5" points="479.75 476.91 479.04 477.62 479.04 476.62"/><line class="cls-27" x1="479.04" y1="474.89" x2="479.04" y2="472.29"/><polyline class="cls-5" points="479.04 471.43 479.04 470.43 478.04 470.43"/><line class="cls-24" x1="476.13" y1="470.42" x2="457.94" y2="470.42"/><polyline class="cls-5" points="456.98 470.43 455.98 470.43 455.98 469.43"/><line class="cls-28" x1="455.98" y1="467.65" x2="455.98" y2="457.92"/><polygon class="cls-29" points="0 0 25.7 0 25.7 131.57 0 131.57 0 0 0 0"/><polygon class="cls-30" points="24.67 0 200.44 0 200.44 131.57 24.67 131.57 24.67 0 24.67 0"/><text class="cls-31" transform="translate(104.65 49.83)">A<tspan class="cls-32" x="11.16" y="0">I</tspan></text><text class="cls-33" transform="translate(59.43 73.46)">Found<tspan class="cls-34" x="55.93" y="0">a</tspan><tspan class="cls-35" x="65.27" y="0">t</tspan><tspan class="cls-36" x="71.17" y="0">i</tspan><tspan x="75.4" y="0">o</tspan><tspan class="cls-37" x="86.6" y="0">n</tspan><tspan class="cls-34" x="97.25" y="0">a</tspan><tspan class="cls-32" x="106.59" y="0">l</tspan></text><text class="cls-38" transform="translate(72.48 96.09)"><tspan class="cls-39">L</tspan><tspan class="cls-40" x="9.4" y="0">ea</tspan><tspan class="cls-41" x="29.86" y="0">r</tspan><tspan class="cls-39" x="37.04" y="0">n</tspan><tspan class="cls-36" x="48.62" y="0">i</tspan><tspan class="cls-37" x="52.85" y="0">ng</tspan><tspan class="cls-36" x="74.16" y="0"> </tspan><tspan x="79" y="0"> </tspan></text><polygon class="cls-29" points="249.32 0 276.04 0 276.04 131.57 249.32 131.57 249.32 0 249.32 0"/><polygon class="cls-30" points="272.44 0 448.21 0 448.21 131.57 272.44 131.57 272.44 0 272.44 0"/><g class="cls-42"><text class="cls-31" transform="translate(352.43 49.83)">A<tspan class="cls-32" x="11.16" y="0">I</tspan></text></g><g class="cls-42"><text class="cls-31" transform="translate(320.04 73.46)">A<tspan class="cls-39" x="11.16" y="0">d</tspan><tspan class="cls-43" x="22.63" y="0">va</tspan><tspan class="cls-39" x="42.59" y="0">n</tspan><tspan class="cls-40" x="54.16" y="0">c</tspan><tspan class="cls-34" x="63.2" y="0">e</tspan><tspan class="cls-32" x="72.49" y="0">d</tspan></text></g><g class="cls-44"><g class="cls-42"><text class="cls-38" transform="translate(320.26 96.09)"><tspan class="cls-39">L</tspan><tspan class="cls-40" x="9.4" y="0">ea</tspan><tspan class="cls-41" x="29.86" y="0">r</tspan><tspan class="cls-39" x="37.04" y="0">n</tspan><tspan class="cls-36" x="48.62" y="0">i</tspan><tspan class="cls-37" x="52.85" y="0">ng</tspan><tspan class="cls-36" x="74.16" y="0"> </tspan><tspan x="79" y="0"> </tspan></text></g></g><polygon class="cls-29" points="497.99 0 524.71 0 524.71 131.57 497.99 131.57 497.99 0 497.99 0"/><polygon class="cls-30" points="523.13 0 698.9 0 698.9 131.57 523.13 131.57 523.13 0 523.13 0"/><g class="cls-45"><text class="cls-31" transform="translate(603.11 49.83)">A<tspan class="cls-46" x="11.16" y="0">I</tspan></text></g><g class="cls-47"><g class="cls-45"><text class="cls-38" transform="translate(576.97 73.46)"><tspan class="cls-36">I</tspan><tspan class="cls-39" x="4.61" y="0">ndu</tspan><tspan class="cls-48" x="39.02" y="0">s</tspan><tspan class="cls-49" x="47.02" y="0">t</tspan><tspan class="cls-41" x="52.92" y="0">r</tspan><tspan x="60.1" y="0">y</tspan></text></g><g class="cls-47"><g class="cls-45"><text class="cls-38" transform="translate(585.19 96.09)"><tspan class="cls-50">N</tspan><tspan class="cls-43" x="13.23" y="0">ee</tspan><tspan class="cls-51" x="33.64" y="0">d</tspan><tspan x="45.11" y="0">s</tspan></text></g></g></g><polygon class="cls-29" points="746.53 0 773.26 0 773.26 131.57 746.53 131.57 746.53 0 746.53 0"/><polygon class="cls-30" points="772.45 0 949.25 0 949.25 131.57 772.45 131.57 772.45 0 772.45 0"/><text class="cls-38" transform="translate(852.95 49.83)"><tspan class="cls-50">A</tspan><tspan x="11.16" y="0">I</tspan></text><text class="cls-38" transform="translate(823.31 73.46)"><tspan class="cls-52">B</tspan><tspan class="cls-51" x="11.47" y="0">u</tspan><tspan class="cls-48" x="22.84" y="0">s</tspan><tspan class="cls-36" x="30.83" y="0">i</tspan><tspan class="cls-51" x="35.06" y="0">n</tspan><tspan class="cls-48" x="46.64" y="0">e</tspan><tspan class="cls-53" x="56.84" y="0">s</tspan><tspan x="63.92" y="0">s</tspan></text><text class="cls-38" transform="translate(815.13 96.09)"><tspan class="cls-50">A</tspan><tspan class="cls-54" x="11.16" y="0">pp</tspan><tspan class="cls-36" x="33.8" y="0">li</tspan><tspan class="cls-48" x="42.26" y="0">ca</tspan><tspan class="cls-55" x="61.56" y="0">t</tspan><tspan class="cls-36" x="67.46" y="0">i</tspan><tspan class="cls-51" x="71.69" y="0">o</tspan><tspan x="82.89" y="0">n</tspan></text><polygon class="cls-29" points="249.83 190.99 275.53 190.99 275.53 321.53 249.83 321.53 249.83 190.99 249.83 190.99"/><polygon class="cls-30" points="272.44 190.99 448.21 190.99 448.21 321.53 272.44 321.53 272.44 190.99 272.44 190.99"/><text class="cls-38" transform="translate(338.7 240.43)"><tspan class="cls-52">D</tspan><tspan class="cls-40" x="13.59" y="0">a</tspan><tspan class="cls-35" x="23.85" y="0">t</tspan><tspan class="cls-40" x="29.75" y="0">a</tspan><tspan x="40.01" y="0"> </tspan></text><text class="cls-56" transform="translate(297.16 264.07)">E<tspan class="cls-39" x="10.91" y="0">ng</tspan><tspan class="cls-36" x="34.06" y="0">i</tspan><tspan class="cls-39" x="38.29" y="0">n</tspan><tspan class="cls-40" x="49.86" y="0">e</tspan><tspan class="cls-34" x="60.06" y="0">e</tspan><tspan class="cls-41" x="69.35" y="0">r</tspan><tspan class="cls-36" x="76.53" y="0">i</tspan><tspan class="cls-37" x="80.76" y="0">ng</tspan><tspan class="cls-36" x="102.08" y="0"> </tspan><tspan class="cls-35" x="106.92" y="0">f</tspan><tspan class="cls-39" x="112.44" y="0">o</tspan><tspan class="cls-57" x="123.64" y="0">r</tspan><tspan class="cls-58" x="129.9" y="0"> </tspan></text><text class="cls-31" transform="translate(352.43 286.68)">A<tspan class="cls-32" x="11.16" y="0">I</tspan></text><polygon class="cls-29" points="0 190.99 26.73 190.99 26.73 321.53 0 321.53 0 190.99 0 190.99"/><polygon class="cls-30" points="24.67 190.99 200.44 190.99 200.44 321.53 24.67 321.53 24.67 190.99 24.67 190.99"/><text class="cls-38" transform="translate(76.53 251.93)"><tspan class="cls-50">A</tspan><tspan class="cls-59" x="11.16" y="0">I</tspan><tspan class="cls-60" x="15.77" y="0"> </tspan><tspan class="cls-61" x="21.53" y="0">M</tspan><tspan class="cls-39" x="38.11" y="0">od</tspan><tspan class="cls-53" x="60.77" y="0">e</tspan><tspan x="70.05" y="0">l</tspan></text><text class="cls-38" transform="translate(48.77 275.58)"><tspan class="cls-36">I</tspan><tspan class="cls-62" x="4.61" y="0">m</tspan><tspan class="cls-39" x="20.48" y="0">p</tspan><tspan class="cls-36" x="31.81" y="0">l</tspan><tspan class="cls-40" x="36.04" y="0">e</tspan><tspan class="cls-62" x="46.24" y="0">m</tspan><tspan class="cls-43" x="62.12" y="0">e</tspan><tspan class="cls-39" x="72.32" y="0">n</tspan><tspan class="cls-35" x="83.9" y="0">t</tspan><tspan class="cls-34" x="89.8" y="0">a</tspan><tspan class="cls-35" x="99.14" y="0">t</tspan><tspan class="cls-36" x="105.05" y="0">i</tspan><tspan class="cls-39" x="109.28" y="0">o</tspan><tspan x="120.47" y="0">n</tspan></text><path class="cls-4" d="M106.9,340.5v23.06h7.2L99.71,378l-14.39-14.4h7.19V340.5Z" transform="translate(0 0)"/><polyline class="cls-5" points="105.9 340.5 106.9 340.5 106.9 341.5"/><line class="cls-63" x1="106.9" y1="343.42" x2="106.9" y2="361.61"/><polyline class="cls-5" points="106.9 362.56 106.9 363.56 107.9 363.56"/><line class="cls-64" x1="109.63" y1="363.56" x2="112.23" y2="363.56"/><polyline class="cls-5" points="113.1 363.56 114.1 363.56 113.39 364.27"/><line class="cls-65" x1="111.95" y1="365.71" x2="101.13" y2="376.53"/><polyline class="cls-5" points="100.41 377.25 99.71 377.95 99 377.25"/><line class="cls-66" x1="97.56" y1="375.81" x2="86.74" y2="364.99"/><polyline class="cls-5" points="86.02 364.27 85.31 363.56 86.31 363.56"/><line class="cls-67" x1="88.05" y1="363.56" x2="90.64" y2="363.56"/><polyline class="cls-5" points="91.51 363.56 92.51 363.56 92.51 362.56"/><line class="cls-63" x1="92.51" y1="360.65" x2="92.51" y2="342.46"/><polyline class="cls-5" points="92.51 341.5 92.51 340.5 93.51 340.5"/><line class="cls-68" x1="95.28" y1="340.5" x2="105.02" y2="340.5"/><polygon class="cls-29" points="497.99 190.99 524.71 190.99 524.71 321.53 497.99 321.53 497.99 190.99 497.99 190.99"/><polygon class="cls-30" points="523.13 190.99 698.9 190.99 698.9 321.53 523.13 321.53 523.13 190.99 523.13 190.99"/><g class="cls-69"><text class="cls-38" transform="translate(567.39 240.43)"><tspan class="cls-70">E</tspan><tspan class="cls-39" x="10.91" y="0">n</tspan><tspan class="cls-35" x="22.48" y="0">t</tspan><tspan class="cls-40" x="28.39" y="0">e</tspan><tspan class="cls-71" x="38.59" y="0">r</tspan><tspan class="cls-51" x="45.77" y="0">p</tspan><tspan class="cls-57" x="57.1" y="0">r</tspan><tspan class="cls-72" x="63.36" y="0">i</tspan><tspan class="cls-43" x="67.59" y="0">s</tspan><tspan class="cls-73" x="75.58" y="0">e</tspan><tspan x="84.87" y="0"> </tspan></text></g><g class="cls-74"><g class="cls-69"><text class="cls-38" transform="translate(545.25 264.07)"><tspan class="cls-70">S</tspan><tspan class="cls-40" x="9.32" y="0">ys</tspan><tspan class="cls-35" x="27" y="0">t</tspan><tspan class="cls-40" x="32.9" y="0">e</tspan><tspan class="cls-62" x="43.11" y="0">m</tspan><tspan class="cls-43" x="58.99" y="0">s</tspan><tspan class="cls-75" x="66.98" y="0"> </tspan><tspan class="cls-55" x="69.93" y="0">f</tspan><tspan class="cls-51" x="75.45" y="0">o</tspan><tspan class="cls-41" x="86.65" y="0">r</tspan><tspan class="cls-75" x="93.83" y="0"> </tspan><tspan class="cls-50" x="96.78" y="0">A</tspan><tspan class="cls-36" x="107.94" y="0">I</tspan><tspan x="112.55" y="0" xml:space="preserve"> - </tspan></text></g><g class="cls-74"><g class="cls-74"><g class="cls-69"><text class="cls-38" transform="translate(558.08 286.68)"><tspan class="cls-70">S</tspan><tspan class="cls-50" x="9.32" y="0">A</tspan><tspan class="cls-76" x="20.48" y="0">P</tspan><tspan class="cls-77" x="30.89" y="0"> </tspan><tspan class="cls-78" x="34.78" y="0">&amp;</tspan><tspan class="cls-36" x="47.77" y="0"> </tspan><tspan class="cls-79" x="52.61" y="0">O</tspan><tspan class="cls-41" x="67.55" y="0">r</tspan><tspan class="cls-43" x="74.73" y="0">ac</tspan><tspan class="cls-72" x="94.03" y="0">l</tspan><tspan x="98.26" y="0">e</tspan></text></g></g></g></g><polygon class="cls-29" points="746.53 190.99 773.26 190.99 773.26 321.53 746.53 321.53 746.53 190.99 746.53 190.99"/><polygon class="cls-30" points="772.97 190.99 948.74 190.99 948.74 321.53 772.97 321.53 772.97 190.99 772.97 190.99"/><g class="cls-80"><text class="cls-81" transform="translate(819.3 251.94)">B<tspan class="cls-36" x="11.47" y="0">i</tspan><tspan class="cls-51" x="15.7" y="0">g</tspan><tspan class="cls-77" x="27.27" y="0"> </tspan><tspan x="31.16" y="0">D</tspan><tspan class="cls-43" x="44.75" y="0">a</tspan><tspan class="cls-49" x="55.01" y="0">t</tspan><tspan class="cls-43" x="60.91" y="0">a</tspan><tspan class="cls-77" x="71.17" y="0"> </tspan><tspan class="cls-82" x="75.06" y="0">&amp;</tspan></text></g><g class="cls-83"><g class="cls-80"><text class="cls-84" transform="translate(822.91 275.57)">II<tspan class="cls-54" x="9.22" y="0">o</tspan><tspan class="cls-85" x="20.41" y="0">T</tspan><tspan class="cls-75" x="31.23" y="0"> </tspan><tspan class="cls-55" x="34.18" y="0">f</tspan><tspan class="cls-51" x="39.71" y="0">o</tspan><tspan class="cls-41" x="50.9" y="0">r</tspan><tspan class="cls-86" x="58.08" y="0"> </tspan><tspan class="cls-50" x="61.04" y="0">A</tspan><tspan class="cls-46" x="72.2" y="0">I</tspan></text></g></g><polygon class="cls-29" points="997.79 190.99 1023.49 190.99 1023.49 322.56 997.79 322.56 997.79 190.99 997.79 190.99"/><polygon class="cls-30" points="1024.23 190.99 1200 190.99 1200 322.56 1024.23 322.56 1024.23 190.99 1024.23 190.99"/><text class="cls-38" transform="translate(1051.83 252.09)"><tspan class="cls-50">R</tspan><tspan class="cls-54" x="10.04" y="0">o</tspan><tspan class="cls-72" x="21.24" y="0">l</tspan><tspan class="cls-48" x="25.47" y="0">e</tspan><tspan class="cls-77" x="35.68" y="0"> </tspan><tspan class="cls-54" x="39.56" y="0">o</tspan><tspan class="cls-49" x="50.76" y="0">f</tspan><tspan class="cls-36" x="56.29" y="0"> </tspan><tspan class="cls-52" x="61.13" y="0">D</tspan><tspan class="cls-43" x="74.72" y="0">a</tspan><tspan class="cls-55" x="84.98" y="0">t</tspan><tspan class="cls-43" x="90.88" y="0">a</tspan><tspan class="cls-77" x="101.14" y="0"> </tspan><tspan class="cls-72" x="105.03" y="0">i</tspan><tspan class="cls-54" x="109.26" y="0">n</tspan><tspan x="120.83" y="0"> </tspan></text><text class="cls-38" transform="translate(1104.21 275.73)"><tspan class="cls-50">A</tspan><tspan x="11.16" y="0">I</tspan></text><polygon class="cls-29" points="999.56 0 1026.29 0 1026.29 130.54 999.56 130.54 999.56 0 999.56 0"/><polygon class="cls-30" points="1024.23 0 1200 0 1200 130.54 1024.23 130.54 1024.23 0 1024.23 0"/><text class="cls-38" transform="translate(1104.21 48.95)"><tspan class="cls-50">A</tspan><tspan x="11.16" y="0">I</tspan></text><text class="cls-38" transform="translate(1076.09 72.59)"><tspan class="cls-36">I</tspan><tspan class="cls-51" x="4.61" y="0">ndu</tspan><tspan class="cls-48" x="39.02" y="0">s</tspan><tspan class="cls-55" x="47.02" y="0">t</tspan><tspan class="cls-41" x="52.92" y="0">r</tspan><tspan class="cls-73" x="60.1" y="0">y</tspan><tspan x="68.87" y="0"> </tspan></text><text class="cls-31" transform="translate(1074.32 95.21)">U<tspan class="cls-48" x="12.53" y="0">se</tspan><tspan class="cls-77" x="30.73" y="0"> </tspan><tspan class="cls-87" x="34.61" y="0">C</tspan><tspan class="cls-43" x="46.35" y="0">as</tspan><tspan class="cls-46" x="64.6" y="0">e</tspan></text><polygon class="cls-29" points="0 392.29 26.73 392.29 26.73 523.86 0 523.86 0 392.29 0 392.29"/><polygon class="cls-30" points="24.67 392.29 200.44 392.29 200.44 523.86 24.67 523.86 24.67 392.29 24.67 392.29"/><g class="cls-88"><text class="cls-31" transform="translate(104.65 442.12)">A<tspan class="cls-32" x="11.16" y="0">I</tspan></text></g><g class="cls-89"><g class="cls-88"><text class="cls-84" transform="translate(78.51 465.77)">I<tspan class="cls-39" x="4.61" y="0">ndu</tspan><tspan class="cls-43" x="39.02" y="0">s</tspan><tspan class="cls-35" x="47.02" y="0">t</tspan><tspan class="cls-71" x="52.92" y="0">r</tspan><tspan class="cls-32" x="60.1" y="0">y</tspan></text></g><g class="cls-89"><g class="cls-88"><text class="cls-38" transform="translate(82.9 488.37)"><tspan class="cls-76">P</tspan><tspan class="cls-71" x="10.4" y="0">r</tspan><tspan class="cls-39" x="17.59" y="0">o</tspan><tspan class="cls-36" x="28.78" y="0">j</tspan><tspan class="cls-40" x="33.64" y="0">ec</tspan><tspan x="52.88" y="0">t</tspan></text></g></g></g><polygon class="cls-29" points="249.32 392.29 276.04 392.29 276.04 523.86 249.32 523.86 249.32 392.29 249.32 392.29"/><polygon class="cls-30" points="271.93 392.29 448.73 392.29 448.73 523.86 271.93 523.86 271.93 392.29 271.93 392.29"/><text class="cls-38" transform="translate(300.77 442.12)"><tspan class="cls-76">P</tspan><tspan class="cls-71" x="10.4" y="0">r</tspan><tspan class="cls-39" x="17.59" y="0">o</tspan><tspan class="cls-36" x="28.78" y="0">j</tspan><tspan class="cls-40" x="33.64" y="0">ec</tspan><tspan class="cls-35" x="52.88" y="0">t</tspan><tspan class="cls-90" x="58.79" y="0"> </tspan><tspan class="cls-50" x="61.74" y="0">R</tspan><tspan class="cls-40" x="71.78" y="0">ev</tspan><tspan class="cls-36" x="91.69" y="0">i</tspan><tspan class="cls-40" x="95.92" y="0">e</tspan><tspan x="106.13" y="0">w</tspan></text><text class="cls-38" transform="translate(354.72 465.77)">&amp;</text><text class="cls-38" transform="translate(316.15 488.37)"><tspan class="cls-39">F</tspan><tspan class="cls-36" x="10.31" y="0">i</tspan><tspan class="cls-39" x="14.54" y="0">n</tspan><tspan class="cls-40" x="26.12" y="0">a</tspan><tspan class="cls-36" x="36.38" y="0">l</tspan><tspan class="cls-90" x="40.61" y="0"> </tspan><tspan class="cls-70" x="43.56" y="0">E</tspan><tspan class="cls-40" x="54.47" y="0">xa</tspan><tspan class="cls-62" x="74.5" y="0">m</tspan><tspan x="90.38" y="0"> </tspan></text><polygon class="cls-29" points="497.99 392.29 524.71 392.29 524.71 523.86 497.99 523.86 497.99 392.29 497.99 392.29"/><polygon class="cls-30" points="523.13 392.29 698.9 392.29 698.9 523.86 523.13 523.86 523.13 392.29 523.13 392.29"/><g class="cls-91"><text class="cls-38" transform="translate(565.54 465.13)"><tspan class="cls-92">G</tspan><tspan class="cls-41" x="13.7" y="0">r</tspan><tspan class="cls-40" x="20.88" y="0">a</tspan><tspan class="cls-39" x="31.14" y="0">du</tspan><tspan class="cls-53" x="53.98" y="0">a</tspan><tspan class="cls-49" x="63.32" y="0">t</tspan><tspan class="cls-36" x="69.23" y="0">i</tspan><tspan class="cls-54" x="73.46" y="0">o</tspan><tspan x="84.65" y="0">n</tspan></text></g></svg>