<svg id="Layer_1" data-name="Layer 1" xmlns="http://www.w3.org/2000/svg" xmlns:xlink="http://www.w3.org/1999/xlink" viewBox="0 0 1201.28 572.92"><defs><style>.cls-1,.cls-2,.cls-3,.cls-79,.cls-80,.cls-81,.cls-82,.cls-83,.cls-84,.cls-85{fill:none;}.cls-12,.cls-2,.cls-25,.cls-4,.cls-50,.cls-78{fill-rule:evenodd;}.cls-3{clip-rule:evenodd;}.cls-4{fill:#0c9;}.cls-5{fill:#0d0d0d;}.cls-36,.cls-6{font-size:30px;}.cls-14,.cls-36,.cls-52,.cls-55,.cls-59,.cls-6,.cls-64,.cls-77{font-family:AquilineBookBoldSWFTE, Aquiline Book;}.cls-7{letter-spacing:0em;}.cls-8{letter-spacing:-0.02em;}.cls-9{letter-spacing:0.01em;}.cls-10{letter-spacing:-0.02em;}.cls-11{letter-spacing:0.01em;}.cls-12{fill:#2f5597;}.cls-13,.cls-25{fill:#00c08e;}.cls-14{font-size:24px;}.cls-14,.cls-50,.cls-78{fill:#fff;}.cls-15{letter-spacing:-0.02em;}.cls-16{letter-spacing:0.02em;}.cls-17{letter-spacing:0em;}.cls-18{letter-spacing:0.02em;}.cls-19{letter-spacing:-0.09em;}.cls-20{letter-spacing:0.02em;}.cls-21{letter-spacing:-0.02em;}.cls-22{letter-spacing:-0.09em;}.cls-23{letter-spacing:0em;}.cls-24{letter-spacing:-0.05em;}.cls-26,.cls-36{letter-spacing:-0.03em;}.cls-27{letter-spacing:0.01em;}.cls-28{letter-spacing:0.01em;}.cls-29{letter-spacing:0.02em;}.cls-30{letter-spacing:-0.09em;}.cls-31{letter-spacing:-0.04em;}.cls-32{letter-spacing:-0.02em;}.cls-33{letter-spacing:0em;}.cls-34{letter-spacing:0.02em;}.cls-35{letter-spacing:-0.09em;}.cls-37{letter-spacing:-0.01em;}.cls-38{letter-spacing:0.03em;}.cls-39{letter-spacing:0.01em;}.cls-40{letter-spacing:0em;}.cls-41{letter-spacing:-0.06em;}.cls-42{letter-spacing:-0.02em;}.cls-43{letter-spacing:0.07em;}.cls-44{letter-spacing:-0.04em;}.cls-45{letter-spacing:0.04em;}.cls-46{letter-spacing:0.02em;}.cls-47{letter-spacing:-0.02em;}.cls-48{letter-spacing:0.02em;}.cls-49{letter-spacing:-0.13em;}.cls-50,.cls-79,.cls-80,.cls-81,.cls-82,.cls-83,.cls-84,.cls-85{stroke:#ccc;stroke-miterlimit:10;}.cls-50{stroke-dasharray:3 3;}.cls-51{clip-path:url(#clip-path);}.cls-52,.cls-55,.cls-59,.cls-64,.cls-77{font-size:18px;}.cls-52{letter-spacing:-0.04em;}.cls-53{letter-spacing:0.02em;}.cls-54{letter-spacing:0em;}.cls-56{letter-spacing:0.01em;}.cls-57{letter-spacing:-0.03em;}.cls-58{clip-path:url(#clip-path-3);}.cls-59,.cls-67{letter-spacing:0.02em;}.cls-60{letter-spacing:-0.01em;}.cls-61{letter-spacing:-0.03em;}.cls-62{letter-spacing:0em;}.cls-63{letter-spacing:0.04em;}.cls-64{letter-spacing:0.02em;}.cls-65{letter-spacing:-0.03em;}.cls-66{letter-spacing:-0.03em;}.cls-68{letter-spacing:-0.02em;}.cls-69{letter-spacing:0.02em;}.cls-70{letter-spacing:0.03em;}.cls-71{letter-spacing:-0.01em;}.cls-72{letter-spacing:-0.03em;}.cls-73{letter-spacing:-0.04em;}.cls-74{letter-spacing:0.02em;}.cls-75{letter-spacing:-0.03em;}.cls-76{letter-spacing:-0.01em;}.cls-77{letter-spacing:-0.04em;}.cls-80{stroke-dasharray:2.99 2.99;}.cls-81{stroke-dasharray:3.22 3.22;}.cls-82{stroke-dasharray:3.01 3.01;}.cls-83{stroke-dasharray:3.01 3.01;}.cls-84{stroke-dasharray:3.22 3.22;}.cls-85{stroke-dasharray:3.2 3.2;}</style><clipPath id="clip-path" transform="translate(1.21 0)"><rect class="cls-1" x="98.17" y="289.59" width="1101.83" height="90.04"/></clipPath><clipPath id="clip-path-3" transform="translate(1.21 0)"><polygon class="cls-3" points="98.17 379.64 1200 379.64 1200 289.59 98.17 289.59 98.17 379.64 98.17 379.64"/></clipPath></defs><title>AI-Learning-Roadmap</title><polygon class="cls-4" points="99.86 0 408.72 0 408.72 84.23 99.86 84.23 99.86 0 99.86 0"/><path class="cls-5" d="M133.19,47a6.73,6.73,0,0,1-2.09,5,7.15,7.15,0,0,1-10,0,7,7,0,0,1,0-9.92,7.15,7.15,0,0,1,10,0A6.74,6.74,0,0,1,133.19,47Zm-1.29,0a5.51,5.51,0,0,0-1.7-4.07,5.89,5.89,0,0,0-8.25,0A5.69,5.69,0,0,0,122,51a5.87,5.87,0,0,0,8.25,0A5.54,5.54,0,0,0,131.9,47Z" transform="translate(1.21 0)"/><text class="cls-6" transform="translate(152.84 56.19)"><tspan class="cls-7">C</tspan><tspan class="cls-8" x="19.05" y="0">on</tspan><tspan class="cls-9" x="54.78" y="0">ce</tspan><tspan class="cls-10" x="85.89" y="0">p</tspan><tspan class="cls-11" x="103.65" y="0">t</tspan><tspan x="114.3" y="0">s</tspan></text><polygon class="cls-12" points="408.29 0 1201.21 0 1201.21 84.23 408.29 84.23 408.29 0 408.29 0"/><path class="cls-13" d="M440.73,46.26A5.67,5.67,0,0,1,439,50.45a6,6,0,0,1-8.48,0,5.88,5.88,0,0,1,0-8.37,6,6,0,0,1,8.48,0A5.69,5.69,0,0,1,440.73,46.26Zm-1.08,0a4.63,4.63,0,0,0-1.44-3.43,4.95,4.95,0,0,0-6.95,0,4.78,4.78,0,0,0,0,6.84,4.95,4.95,0,0,0,6.95,0A4.65,4.65,0,0,0,439.65,46.26Z" transform="translate(1.21 0)"/><text class="cls-14" transform="translate(462.95 54.45)"><tspan class="cls-15">A</tspan><tspan class="cls-16" x="15.34" y="0">r</tspan><tspan class="cls-17" x="24.6" y="0">t</tspan><tspan class="cls-18" x="32.88" y="0">i</tspan><tspan x="39.29" y="0">f</tspan><tspan class="cls-18" x="47.06" y="0">i</tspan><tspan x="53.47" y="0">c</tspan><tspan class="cls-18" x="64.99" y="0">i</tspan><tspan x="71.4" y="0">a</tspan><tspan class="cls-15" x="84.55" y="0">l</tspan><tspan class="cls-19" x="90.09" y="0"> </tspan><tspan class="cls-20" x="94.68" y="0">In</tspan><tspan x="116.97" y="0">te</tspan><tspan class="cls-20" x="138.33" y="0">ll</tspan><tspan class="cls-21" x="151.15" y="0">ig</tspan><tspan x="171.21" y="0">e</tspan><tspan class="cls-21" x="184.29" y="0">n</tspan><tspan x="198.81" y="0">ce</tspan><tspan class="cls-22" x="223.41" y="0"> </tspan><tspan x="228" y="0">a</tspan><tspan class="cls-20" x="241.15" y="0">nd</tspan><tspan class="cls-22" x="271.77" y="0"> </tspan><tspan class="cls-18" x="276.35" y="0">D</tspan><tspan class="cls-23" x="294.57" y="0">ata</tspan><tspan class="cls-24" x="329.15" y="0"> </tspan><tspan class="cls-18" x="334.63" y="0">Con</tspan><tspan x="380.63" y="0">ce</tspan><tspan class="cls-18" x="405.23" y="0">p</tspan><tspan x="420.28" y="0">ts </tspan></text><polygon class="cls-25" points="99.86 97.5 408.72 97.5 408.72 181.74 99.86 181.74 99.86 97.5 99.86 97.5"/><path class="cls-5" d="M133.19,144.42a6.73,6.73,0,0,1-2.09,5,7.17,7.17,0,0,1-10,0,7,7,0,0,1,0-9.92,7.15,7.15,0,0,1,10,0A6.74,6.74,0,0,1,133.19,144.42Zm-1.29,0a5.5,5.5,0,0,0-1.7-4.07,5.9,5.9,0,0,0-8.25,0,5.7,5.7,0,0,0,0,8.12,5.89,5.89,0,0,0,8.25,0A5.54,5.54,0,0,0,131.9,144.42Z" transform="translate(1.21 0)"/><text class="cls-6" transform="translate(152.84 150.94)"><tspan class="cls-26">I</tspan><tspan class="cls-8" x="7.29" y="0">ndu</tspan><tspan class="cls-27" x="61.32" y="0">s</tspan><tspan class="cls-28" x="74.16" y="0">t</tspan><tspan class="cls-29" x="84.81" y="0">r</tspan><tspan x="96.36" y="0">y</tspan></text><polygon class="cls-12" points="408.29 97.5 1201.21 97.5 1201.21 181.74 408.29 181.74 408.29 97.5 408.29 97.5"/><path class="cls-13" d="M440.73,143.69a5.69,5.69,0,0,1-1.75,4.19,6,6,0,0,1-8.48,0,5.88,5.88,0,0,1,0-8.37,6,6,0,0,1,8.48,0A5.69,5.69,0,0,1,440.73,143.69Zm-1.08,0a4.65,4.65,0,0,0-1.44-3.44,5,5,0,0,0-6.95,0,4.79,4.79,0,0,0,0,6.85,4.95,4.95,0,0,0,6.95,0A4.65,4.65,0,0,0,439.65,143.69Z" transform="translate(1.21 0)"/><text class="cls-14" transform="translate(462.95 149.19)"><tspan class="cls-18">Indu</tspan><tspan x="52.66" y="0">st</tspan><tspan class="cls-15" x="71.06" y="0">r</tspan><tspan x="79.46" y="0">y</tspan><tspan class="cls-30" x="91.85" y="0"> </tspan><tspan class="cls-16" x="96.43" y="0">Ch</tspan><tspan x="127.56" y="0">a</tspan><tspan class="cls-18" x="140.71" y="0">ll</tspan><tspan class="cls-31" x="153.52" y="0">e</tspan><tspan class="cls-18" x="165.72" y="0">n</tspan><tspan class="cls-32" x="181.1" y="0">g</tspan><tspan class="cls-33" x="195.62" y="0">es</tspan><tspan class="cls-22" x="218.83" y="0"> </tspan><tspan class="cls-23" x="223.41" y="0">a</tspan><tspan class="cls-34" x="236.56" y="0">nd</tspan><tspan class="cls-22" x="267.19" y="0"> </tspan><tspan class="cls-20" x="271.77" y="0">Bu</tspan><tspan x="302.27" y="0">s</tspan><tspan class="cls-20" x="312.4" y="0">in</tspan><tspan x="334.19" y="0">ess</tspan><tspan class="cls-35" x="367.53" y="0"> </tspan><tspan class="cls-20" x="372.11" y="0">N</tspan><tspan x="391.07" y="0">ee</tspan><tspan class="cls-18" x="417.23" y="0">d</tspan><tspan class="cls-23" x="432.47" y="0">s </tspan></text><polygon class="cls-25" points="99.86 194.51 408.72 194.51 408.72 279.72 99.86 279.72 99.86 194.51 99.86 194.51"/><path class="cls-5" d="M133.19,242.32a6.73,6.73,0,0,1-2.09,5,7.15,7.15,0,0,1-10,0,7,7,0,0,1,0-9.92,7.15,7.15,0,0,1,10,0A6.74,6.74,0,0,1,133.19,242.32Zm-1.29,0a5.51,5.51,0,0,0-1.7-4.07,5.9,5.9,0,0,0-8.25,0,5.7,5.7,0,0,0,0,8.12,5.87,5.87,0,0,0,8.25,0A5.54,5.54,0,0,0,131.9,242.32Z" transform="translate(1.21 0)"/><text class="cls-36" transform="translate(152.84 248.84)">I<tspan class="cls-37" x="7.29" y="0">m</tspan><tspan class="cls-10" x="33.18" y="0">p</tspan><tspan class="cls-38" x="50.94" y="0">l</tspan><tspan class="cls-27" x="59.43" y="0">e</tspan><tspan class="cls-37" x="75.96" y="0">m</tspan><tspan class="cls-27" x="101.85" y="0">e</tspan><tspan class="cls-8" x="118.38" y="0">n</tspan><tspan class="cls-11" x="136.56" y="0">t</tspan><tspan class="cls-39" x="147.21" y="0">a</tspan><tspan class="cls-11" x="163.83" y="0">t</tspan><tspan class="cls-38" x="174.48" y="0">i</tspan><tspan class="cls-8" x="182.97" y="0">on</tspan><tspan class="cls-40" x="218.7" y="0"> </tspan></text><polygon class="cls-12" points="408.29 194.51 1201.21 194.51 1201.21 279.72 408.29 279.72 408.29 194.51 408.29 194.51"/><path class="cls-13" d="M440.73,241.59a5.67,5.67,0,0,1-1.75,4.19,6,6,0,0,1-8.48,0,5.88,5.88,0,0,1,0-8.37,6,6,0,0,1,8.48,0A5.69,5.69,0,0,1,440.73,241.59Zm-1.08,0a4.63,4.63,0,0,0-1.44-3.43,4.95,4.95,0,0,0-6.95,0,4.78,4.78,0,0,0,0,6.84,4.95,4.95,0,0,0,6.95,0A4.65,4.65,0,0,0,439.65,241.59Z" transform="translate(1.21 0)"/><text class="cls-14" transform="translate(462.95 247.09)"><tspan class="cls-15">A</tspan><tspan class="cls-16" x="15.34" y="0">I</tspan><tspan class="cls-15" x="22.25" y="0"> </tspan><tspan x="28.61" y="0">f</tspan><tspan class="cls-16" x="36.38" y="0">or</tspan><tspan class="cls-41" x="60.53" y="0"> </tspan><tspan x="66" y="0">E</tspan><tspan class="cls-16" x="80.13" y="0">n</tspan><tspan x="95.52" y="0">te</tspan><tspan class="cls-16" x="116.88" y="0">rpr</tspan><tspan class="cls-21" x="150.45" y="0">i</tspan><tspan x="156" y="0">se</tspan><tspan class="cls-22" x="179.2" y="0"> </tspan><tspan class="cls-18" x="183.79" y="0">U</tspan><tspan x="201.81" y="0">se</tspan><tspan class="cls-22" x="225.02" y="0"> </tspan><tspan class="cls-20" x="229.6" y="0">C</tspan><tspan x="245.35" y="0">ases</tspan><tspan class="cls-41" x="291.84" y="0"> </tspan><tspan class="cls-18" x="297.31" y="0">&amp;</tspan><tspan class="cls-42" x="314.73" y="0"> </tspan><tspan class="cls-20" x="321.09" y="0">I</tspan><tspan class="cls-43" x="328" y="0">m</tspan><tspan class="cls-42" x="350.8" y="0">p</tspan><tspan class="cls-20" x="364.99" y="0">l</tspan><tspan class="cls-44" x="371.39" y="0">e</tspan><tspan class="cls-23" x="383.59" y="0">me</tspan><tspan class="cls-32" x="417.71" y="0">n</tspan><tspan x="432.23" y="0">tat</tspan><tspan class="cls-21" x="461.94" y="0">io</tspan><tspan class="cls-20" x="481.5" y="0">n</tspan><tspan class="cls-35" x="496.89" y="0"> </tspan><tspan class="cls-20" x="501.47" y="0">Fr</tspan><tspan class="cls-31" x="524.44" y="0">a</tspan><tspan class="cls-45" x="536.7" y="0">m</tspan><tspan x="558.61" y="0">ew</tspan><tspan class="cls-42" x="592.19" y="0">or</tspan><tspan x="614.61" y="0">k</tspan></text><polygon class="cls-12" points="408.29 390 1201.21 390 1201.21 474.23 408.29 474.23 408.29 390 408.29 390"/><path class="cls-13" d="M438.05,436.41a5.7,5.7,0,0,1-1.76,4.19,6,6,0,0,1-8.48,0,5.88,5.88,0,0,1,0-8.37,6,6,0,0,1,8.48,0A5.7,5.7,0,0,1,438.05,436.41Zm-1.09,0a4.66,4.66,0,0,0-1.43-3.43,5,5,0,0,0-7,0,4.79,4.79,0,0,0,0,6.85,5,5,0,0,0,7,0A4.68,4.68,0,0,0,437,436.41Z" transform="translate(1.21 0)"/><text class="cls-14" transform="translate(460.28 441.91)"><tspan class="cls-16">D</tspan><tspan x="18.22" y="0">ata</tspan><tspan class="cls-24" x="52.8" y="0"> </tspan><tspan class="cls-16" x="58.27" y="0">Coll</tspan><tspan x="101.71" y="0">ect</tspan><tspan class="cls-21" x="134.59" y="0">i</tspan><tspan class="cls-20" x="140.13" y="0">o</tspan><tspan class="cls-21" x="155.01" y="0">n,</tspan><tspan class="cls-22" x="176.4" y="0"> </tspan><tspan class="cls-18" x="180.98" y="0">D</tspan><tspan class="cls-23" x="199.2" y="0">ata</tspan><tspan class="cls-41" x="233.78" y="0"> </tspan><tspan x="239.25" y="0">P</tspan><tspan class="cls-20" x="252.71" y="0">r</tspan><tspan class="cls-33" x="261.98" y="0">e</tspan><tspan class="cls-18" x="275.06" y="0">p</tspan><tspan class="cls-23" x="290.11" y="0">a</tspan><tspan class="cls-18" x="303.26" y="0">r</tspan><tspan x="312.52" y="0">at</tspan><tspan class="cls-21" x="333.95" y="0">i</tspan><tspan class="cls-34" x="339.5" y="0">o</tspan><tspan class="cls-32" x="354.38" y="0">n</tspan><tspan class="cls-35" x="368.9" y="0"> </tspan><tspan class="cls-23" x="373.48" y="0">a</tspan><tspan class="cls-20" x="386.63" y="0">nd</tspan><tspan class="cls-22" x="417.26" y="0"> </tspan><tspan class="cls-18" x="421.84" y="0">D</tspan><tspan x="440.06" y="0">ata</tspan><tspan class="cls-41" x="474.64" y="0"> </tspan><tspan x="480.11" y="0">P</tspan><tspan class="cls-18" x="493.57" y="0">ro</tspan><tspan x="517.72" y="0">v</tspan><tspan class="cls-20" x="530.13" y="0">i</tspan><tspan class="cls-33" x="536.53" y="0">s</tspan><tspan class="cls-20" x="546.66" y="0">i</tspan><tspan class="cls-42" x="553.07" y="0">o</tspan><tspan class="cls-20" x="567.08" y="0">n</tspan><tspan class="cls-21" x="582.47" y="0">in</tspan><tspan class="cls-20" x="602.53" y="0">g</tspan><tspan x="617.92" y="0"> </tspan></text><polygon class="cls-25" points="99.86 390 409.69 390 409.69 474.23 99.86 474.23 99.86 390 99.86 390"/><path class="cls-5" d="M126.65,436.41a5.69,5.69,0,0,1-1.75,4.19,6,6,0,0,1-8.48,0,5.88,5.88,0,0,1,0-8.37,6,6,0,0,1,8.48,0A5.69,5.69,0,0,1,126.65,436.41Zm-1.08,0a4.63,4.63,0,0,0-1.44-3.43,5,5,0,0,0-7,0,4.82,4.82,0,0,0,0,6.85,5,5,0,0,0,7,0A4.65,4.65,0,0,0,125.57,436.41Z" transform="translate(1.21 0)"/><text class="cls-6" transform="translate(148.88 441.91)">E<tspan class="cls-46" x="17.67" y="0">ngin</tspan><tspan x="83.37" y="0">ee</tspan><tspan class="cls-47" x="116.07" y="0">ri</tspan><tspan class="cls-46" x="133.5" y="0">n</tspan><tspan x="152.73" y="0">g</tspan></text><polygon class="cls-25" points="99.86 487.01 408.72 487.01 408.72 572.22 99.86 572.22 99.86 487.01 99.86 487.01"/><path class="cls-5" d="M126.73,533.5a5.68,5.68,0,0,1-1.76,4.19,6,6,0,0,1-8.48,0,5.88,5.88,0,0,1,0-8.37,6,6,0,0,1,8.48,0A5.7,5.7,0,0,1,126.73,533.5Zm-1.09,0a4.66,4.66,0,0,0-1.43-3.43,5,5,0,0,0-7,0,4.78,4.78,0,0,0,0,6.84,5,5,0,0,0,7,0A4.68,4.68,0,0,0,125.64,533.5Z" transform="translate(1.21 0)"/><text class="cls-6" transform="translate(148.95 539)"><tspan class="cls-47">T</tspan><tspan x="15.3" y="0">ec</tspan><tspan class="cls-48" x="46.05" y="0">hn</tspan><tspan class="cls-21" x="84.51" y="0">ol</tspan><tspan class="cls-48" x="108.96" y="0">o</tspan><tspan class="cls-47" x="127.56" y="0">g</tspan><tspan x="145.71" y="0">y</tspan></text><polygon class="cls-12" points="408.29 487.01 1201.21 487.01 1201.21 572.22 408.29 572.22 408.29 487.01 408.29 487.01"/><path class="cls-13" d="M436.86,533.5a5.68,5.68,0,0,1-1.76,4.19,6,6,0,0,1-8.48,0,5.88,5.88,0,0,1,0-8.37,6,6,0,0,1,8.48,0A5.7,5.7,0,0,1,436.86,533.5Zm-1.09,0a4.62,4.62,0,0,0-1.43-3.43,5,5,0,0,0-7,0,4.8,4.8,0,0,0,0,6.84,5,5,0,0,0,7,0A4.64,4.64,0,0,0,435.77,533.5Z" transform="translate(1.21 0)"/><text class="cls-14" transform="translate(459.09 539)">E<tspan class="cls-16" x="14.14" y="0">n</tspan><tspan class="cls-17" x="29.52" y="0">te</tspan><tspan class="cls-16" x="50.88" y="0">rpr</tspan><tspan class="cls-21" x="84.45" y="0">i</tspan><tspan x="90" y="0">se</tspan><tspan class="cls-19" x="113.21" y="0"> </tspan><tspan x="117.79" y="0">Syste</tspan><tspan class="cls-45" x="173.69" y="0">m</tspan><tspan x="195.6" y="0">s</tspan><tspan class="cls-42" x="205.73" y="0">,</tspan><tspan class="cls-22" x="212.59" y="0"> </tspan><tspan class="cls-18" x="217.17" y="0">D</tspan><tspan class="cls-23" x="235.39" y="0">ata</tspan><tspan class="cls-20" x="269.97" y="0">,</tspan><tspan class="cls-49" x="277.7" y="0"> </tspan><tspan class="cls-21" x="281.4" y="0">A</tspan><tspan class="cls-20" x="296.73" y="0">I</tspan><tspan class="cls-42" x="303.64" y="0"> </tspan><tspan class="cls-18" x="310" y="0">&amp;</tspan><tspan class="cls-42" x="327.43" y="0"> </tspan><tspan class="cls-23" x="333.79" y="0">O</tspan><tspan class="cls-18" x="353.44" y="0">p</tspan><tspan x="368.49" y="0">e</tspan><tspan class="cls-18" x="381.57" y="0">n</tspan><tspan class="cls-35" x="396.95" y="0"> </tspan><tspan class="cls-23" x="401.54" y="0">S</tspan><tspan class="cls-18" x="413.56" y="0">our</tspan><tspan x="452.82" y="0">ce</tspan><tspan class="cls-22" x="477.42" y="0"> </tspan><tspan class="cls-42" x="482.01" y="0">T</tspan><tspan x="494.25" y="0">ec</tspan><tspan class="cls-18" x="518.85" y="0">hn</tspan><tspan class="cls-32" x="549.61" y="0">ol</tspan><tspan class="cls-18" x="569.17" y="0">o</tspan><tspan class="cls-21" x="584.05" y="0">gi</tspan><tspan x="604.12" y="0">es</tspan></text><polygon class="cls-50" points="413.56 291.05 562.67 291.05 562.67 379.15 413.56 379.15 413.56 291.05 413.56 291.05"/><g class="cls-51"><text class="cls-52" transform="translate(470.44 340.48)">N<tspan class="cls-53" x="13.23" y="0">L</tspan><tspan class="cls-54" x="22.66" y="0">P</tspan></text></g><polygon class="cls-50" points="573.32 291.05 721.46 291.05 721.46 379.15 573.32 379.15 573.32 291.05 573.32 291.05"/><g class="cls-51"><text class="cls-55" transform="translate(634.1 342.48)"><tspan class="cls-56">R</tspan><tspan class="cls-57" x="10.96" y="0">P</tspan><tspan x="20.43" y="0">A</tspan></text></g><polygon class="cls-50" points="732.11 291.05 881.21 291.05 881.21 379.15 732.11 379.15 732.11 291.05 732.11 291.05"/><g class="cls-58"><g class="cls-51"><text class="cls-59" transform="translate(794.75 331.44)">B<tspan class="cls-60" x="11.52" y="0">i</tspan><tspan class="cls-53" x="15.8" y="0">g</tspan><tspan class="cls-56"><tspan x="-8.22" y="21.6">D</tspan><tspan class="cls-61" x="5.37" y="21.6">a</tspan><tspan class="cls-37" x="14.71" y="21.6">t</tspan><tspan class="cls-62" x="20.67" y="21.6">a </tspan></tspan></text></g><g class="cls-58"><g class="cls-58"><polygon class="cls-50" points="891.86 291.05 1040.97 291.05 1040.97 379.15 891.86 379.15 891.86 291.05 891.86 291.05"/><g class="cls-58"><g class="cls-51"><text class="cls-55" transform="translate(955.03 340.48)"><tspan class="cls-63">II</tspan><tspan class="cls-53" x="11.05" y="0">o</tspan><tspan x="22.28" y="0">T</tspan></text></g><g class="cls-58"><polygon class="cls-50" points="1051.67 291.05 1200.78 291.05 1200.78 379.15 1051.67 379.15 1051.67 291.05 1051.67 291.05"/><g class="cls-58"><g class="cls-51"><text class="cls-64" transform="translate(1088.38 319.48)">P<tspan class="cls-65" x="10.4" y="0">y</tspan><tspan class="cls-37" x="19.22" y="0">t</tspan><tspan class="cls-61" x="25.18" y="0">h</tspan><tspan class="cls-53" x="35.87" y="0">o</tspan><tspan class="cls-66" x="47.1" y="0">n</tspan><tspan class="cls-37" x="57.8" y="0"> </tspan><tspan class="cls-67" x="62.64" y="0">&amp;</tspan><tspan class="cls-67"><tspan x="-2.71" y="21.6">P</tspan><tspan class="cls-68" x="7.69" y="21.6">r</tspan><tspan class="cls-69" x="14.01" y="21.6">ed</tspan><tspan class="cls-60" x="35.72" y="21.6">i</tspan><tspan class="cls-70" x="40" y="21.6">c</tspan><tspan class="cls-37" x="49.11" y="21.6">t</tspan><tspan class="cls-71" x="55.07" y="21.6">i</tspan><tspan class="cls-72" x="59.35" y="21.6">v</tspan><tspan class="cls-53" x="68.19" y="21.6">e</tspan></tspan><tspan class="cls-73"><tspan x="11.88" y="43.2">M</tspan><tspan class="cls-53" x="26.58" y="43.2">ode</tspan><tspan class="cls-71" x="59.52" y="43.2">l</tspan></tspan></text></g><g class="cls-58"><g class="cls-58"><g class="cls-58"><polygon class="cls-50" points="256.71 290.08 405.81 290.08 405.81 379.15 256.71 379.15 256.71 290.08 256.71 290.08"/><g class="cls-58"><g class="cls-51"><text class="cls-55" transform="translate(311.48 329.44)"><tspan class="cls-56">D</tspan><tspan class="cls-74" x="13.59" y="0">ee</tspan><tspan x="34" y="0">p</tspan><tspan class="cls-74"><tspan x="-13.81" y="21.6">Le</tspan><tspan class="cls-75" x="5.83" y="21.6">a</tspan><tspan class="cls-10" x="15.17" y="21.6">r</tspan><tspan class="cls-61" x="21.49" y="21.6">n</tspan><tspan class="cls-76" x="32.18" y="21.6">i</tspan><tspan class="cls-61" x="36.47" y="21.6">n</tspan><tspan x="47.16" y="21.6">g</tspan></tspan></text></g><g class="cls-58"><g class="cls-58"><polygon class="cls-50" points="99.86 290.08 248 290.08 248 379.15 99.86 379.15 99.86 290.08 99.86 290.08"/><g class="cls-58"><g class="cls-51"><text class="cls-77" transform="translate(141.72 329.44)">M<tspan class="cls-75" x="14.71" y="0">a</tspan><tspan class="cls-70" x="24.05" y="0">c</tspan><tspan class="cls-75" x="33.16" y="0">h</tspan><tspan class="cls-71" x="43.85" y="0">i</tspan><tspan class="cls-75" x="48.13" y="0">n</tspan><tspan class="cls-74" x="58.82" y="0">e</tspan><tspan class="cls-74"><tspan x="-1.77" y="21.6">Le</tspan><tspan class="cls-75" x="17.86" y="21.6">a</tspan><tspan class="cls-10" x="27.21" y="21.6">r</tspan><tspan class="cls-61" x="33.52" y="21.6">n</tspan><tspan class="cls-76" x="44.22" y="21.6">i</tspan><tspan class="cls-61" x="48.5" y="21.6">n</tspan><tspan x="59.19" y="21.6">g</tspan></tspan></text></g></g></g></g></g></g></g></g></g></g></g></g></g></g><path class="cls-78" d="M57.37,2V534H76.49L38.24,572.22,0,534H19.12V2Z" transform="translate(1.21 0)"/><polyline class="cls-79" points="57.07 1.95 58.57 1.95 58.57 3.45"/><line class="cls-80" x1="58.57" y1="6.44" x2="58.57" y2="530.98"/><polyline class="cls-79" points="58.57 532.47 58.57 533.97 60.07 533.97"/><line class="cls-81" x1="63.3" y1="533.97" x2="74.58" y2="533.97"/><polyline class="cls-79" points="76.2 533.97 77.7 533.97 76.64 535.03"/><line class="cls-82" x1="74.51" y1="537.16" x2="41.57" y2="570.09"/><polyline class="cls-79" points="40.51 571.16 39.45 572.22 38.39 571.16"/><line class="cls-83" x1="36.27" y1="569.03" x2="3.33" y2="536.1"/><polyline class="cls-79" points="2.27 535.03 1.21 533.97 2.71 533.97"/><line class="cls-84" x1="5.93" y1="533.97" x2="17.22" y2="533.97"/><polyline class="cls-79" points="18.83 533.97 20.33 533.97 20.33 532.47"/><line class="cls-80" x1="20.33" y1="529.48" x2="20.33" y2="4.95"/><polyline class="cls-79" points="20.33 3.45 20.33 1.95 21.83 1.95"/><line class="cls-85" x1="25.03" y1="1.95" x2="55.47" y2="1.95"/><text class="cls-55" transform="translate(31.5 149.48) rotate(90)">On Job Learning Experience</text></svg>