<svg xmlns="http://www.w3.org/2000/svg" xmlns:xlink="http://www.w3.org/1999/xlink" viewBox="0 0 910.65 1035.01"><defs><style>.cls-1{isolation:isolate;}.cls-2{fill:#575d5e;}.cls-3{fill:url(#linear-gradient);}.cls-4{mix-blend-mode:multiply;}.cls-222,.cls-223,.cls-5{fill:#fff;}.cls-5{opacity:0;}.cls-138,.cls-6{fill:#fefefe;}.cls-6{opacity:0.01;}.cls-139,.cls-7{fill:#fdfdfd;}.cls-7{opacity:0.02;}.cls-140,.cls-8{fill:#fcfcfc;}.cls-8{opacity:0.02;}.cls-141,.cls-9{fill:#fbfbfb;}.cls-9{opacity:0.03;}.cls-10,.cls-142{fill:#fafafa;}.cls-10{opacity:0.04;}.cls-11,.cls-143{fill:#f9f9f9;}.cls-11{opacity:0.05;}.cls-12,.cls-144{fill:#f8f8f8;}.cls-12{opacity:0.05;}.cls-13,.cls-145{fill:#f7f7f7;}.cls-13{opacity:0.06;}.cls-14,.cls-146{fill:#f6f6f6;}.cls-14{opacity:0.07;}.cls-147,.cls-15{fill:#f5f5f5;}.cls-15{opacity:0.08;}.cls-148,.cls-16{fill:#f4f4f4;}.cls-16{opacity:0.09;}.cls-149,.cls-17{fill:#f3f3f3;}.cls-17{opacity:0.09;}.cls-150,.cls-18{fill:#f2f2f2;}.cls-18{opacity:0.1;}.cls-151,.cls-19{fill:#f1f1f1;}.cls-19{opacity:0.11;}.cls-152,.cls-20{fill:#f0f0f0;}.cls-20{opacity:0.12;}.cls-153,.cls-21{fill:#efefef;}.cls-21{opacity:0.13;}.cls-154,.cls-22{fill:#eee;}.cls-22{opacity:0.13;}.cls-155,.cls-23{fill:#ededed;}.cls-23{opacity:0.14;}.cls-156,.cls-24{fill:#ececec;}.cls-24{opacity:0.15;}.cls-157,.cls-25{fill:#ebebeb;}.cls-25{opacity:0.16;}.cls-158,.cls-26{fill:#eaeaea;}.cls-26{opacity:0.16;}.cls-159,.cls-27{fill:#e9e9e9;}.cls-27{opacity:0.17;}.cls-160,.cls-28{fill:#e8e8e8;}.cls-28{opacity:0.18;}.cls-161,.cls-29{fill:#e7e7e7;}.cls-29{opacity:0.19;}.cls-162,.cls-30{fill:#e6e6e6;}.cls-30{opacity:0.2;}.cls-163,.cls-31{fill:#e5e5e5;}.cls-31{opacity:0.2;}.cls-164,.cls-32{fill:#e4e4e4;}.cls-32{opacity:0.21;}.cls-165,.cls-33{fill:#e3e3e3;}.cls-33{opacity:0.22;}.cls-166,.cls-34{fill:#e2e2e2;}.cls-34{opacity:0.23;}.cls-167,.cls-35{fill:#e1e1e1;}.cls-35{opacity:0.23;}.cls-168,.cls-36{fill:#e0e0e0;}.cls-36{opacity:0.24;}.cls-169,.cls-37{fill:#dfdfdf;}.cls-37{opacity:0.25;}.cls-170,.cls-38{fill:#dedede;}.cls-38{opacity:0.26;}.cls-171,.cls-39{fill:#ddd;}.cls-39{opacity:0.27;}.cls-172,.cls-40{fill:#dcdcdc;}.cls-40{opacity:0.27;}.cls-173,.cls-41{fill:#dbdbdb;}.cls-41{opacity:0.28;}.cls-174,.cls-42{fill:#dadada;}.cls-42{opacity:0.29;}.cls-175,.cls-176,.cls-43{fill:#d9d9d9;}.cls-43{opacity:0.3;}.cls-177,.cls-44{fill:#d8d8d8;}.cls-44{opacity:0.3;}.cls-178,.cls-45{fill:#d7d7d7;}.cls-45{opacity:0.31;}.cls-179,.cls-46{fill:#d6d6d6;}.cls-46{opacity:0.32;}.cls-180,.cls-47{fill:#d5d5d5;}.cls-47{opacity:0.33;}.cls-181,.cls-48{fill:#d4d4d4;}.cls-48{opacity:0.34;}.cls-182,.cls-49{fill:#d3d3d3;}.cls-49{opacity:0.34;}.cls-183,.cls-50{fill:#d2d2d2;}.cls-50{opacity:0.35;}.cls-184,.cls-51{fill:#d1d1d1;}.cls-51{opacity:0.36;}.cls-185,.cls-52{fill:#d0d0d0;}.cls-52{opacity:0.37;}.cls-186,.cls-53{fill:#cfcfcf;}.cls-53{opacity:0.38;}.cls-187,.cls-54{fill:#cecece;}.cls-54{opacity:0.38;}.cls-188,.cls-55{fill:#cdcdcd;}.cls-55{opacity:0.39;}.cls-189,.cls-56{fill:#ccc;}.cls-56{opacity:0.4;}.cls-190,.cls-57{fill:#cbcbcb;}.cls-57{opacity:0.41;}.cls-191,.cls-58{fill:#cacaca;}.cls-58{opacity:0.41;}.cls-192,.cls-59{fill:#c9c9c9;}.cls-59{opacity:0.42;}.cls-193,.cls-60{fill:#c8c8c8;}.cls-60{opacity:0.43;}.cls-194,.cls-61{fill:#c7c7c7;}.cls-61{opacity:0.44;}.cls-195,.cls-62{fill:#c6c6c6;}.cls-62{opacity:0.45;}.cls-196,.cls-63{fill:#c5c5c5;}.cls-63{opacity:0.45;}.cls-197,.cls-64{fill:#c4c4c4;}.cls-64{opacity:0.46;}.cls-198,.cls-65{fill:#c3c3c3;}.cls-65{opacity:0.47;}.cls-199,.cls-66{fill:#c2c2c2;}.cls-66{opacity:0.48;}.cls-200,.cls-67{fill:#c1c1c1;}.cls-67{opacity:0.48;}.cls-201,.cls-68,.cls-69{fill:silver;}.cls-68{opacity:0.49;}.cls-69{opacity:0.5;}.cls-202,.cls-70{fill:#bfbfbf;}.cls-70{opacity:0.51;}.cls-203,.cls-71{fill:#bebebe;}.cls-71{opacity:0.52;}.cls-204,.cls-72{fill:#bdbdbd;}.cls-72{opacity:0.52;}.cls-205,.cls-73{fill:#bcbcbc;}.cls-73{opacity:0.53;}.cls-206,.cls-74{fill:#bbb;}.cls-74{opacity:0.54;}.cls-207,.cls-75{fill:#bababa;}.cls-75{opacity:0.55;}.cls-208,.cls-76{fill:#b9b9b9;}.cls-76{opacity:0.55;}.cls-209,.cls-77{fill:#b8b8b8;}.cls-77{opacity:0.56;}.cls-210,.cls-78{fill:#b7b7b7;}.cls-78{opacity:0.57;}.cls-211,.cls-79{fill:#b6b6b6;}.cls-79{opacity:0.58;}.cls-212,.cls-80{fill:#b5b5b5;}.cls-80{opacity:0.59;}.cls-213,.cls-81{fill:#b4b4b4;}.cls-81{opacity:0.59;}.cls-214,.cls-82{fill:#b3b3b3;}.cls-82{opacity:0.6;}.cls-83{fill:#b2b2b2;opacity:0.61;}.cls-84{fill:#b1b1b1;opacity:0.62;}.cls-85{fill:#b0b0b0;opacity:0.63;}.cls-86{fill:#afafaf;opacity:0.63;}.cls-87{fill:#aeaeae;opacity:0.64;}.cls-88{fill:#adadad;opacity:0.65;}.cls-89{fill:#acacac;opacity:0.66;}.cls-90{fill:#ababab;opacity:0.66;}.cls-91{fill:#aaa;opacity:0.67;}.cls-92{fill:#a9a9a9;opacity:0.68;}.cls-93{fill:#a8a8a8;opacity:0.69;}.cls-94{fill:#a7a7a7;opacity:0.7;}.cls-95{fill:#a6a6a6;opacity:0.7;}.cls-96{fill:#a5a5a5;opacity:0.71;}.cls-97{fill:#a4a4a4;opacity:0.72;}.cls-98{fill:#a3a3a3;opacity:0.73;}.cls-99{fill:#a2a2a2;opacity:0.73;}.cls-100{fill:#a1a1a1;opacity:0.74;}.cls-101{fill:#a0a0a0;opacity:0.75;}.cls-102{fill:#9f9f9f;opacity:0.76;}.cls-103{fill:#9e9e9e;opacity:0.77;}.cls-104{fill:#9d9d9d;opacity:0.77;}.cls-105{fill:#9c9c9c;opacity:0.78;}.cls-106{fill:#9b9b9b;opacity:0.79;}.cls-107{fill:#9a9a9a;opacity:0.8;}.cls-108{fill:#999;opacity:0.8;}.cls-109{fill:#989898;opacity:0.81;}.cls-110{fill:#979797;opacity:0.82;}.cls-111{fill:#969696;opacity:0.83;}.cls-112{fill:#959595;opacity:0.84;}.cls-113{fill:#949494;opacity:0.84;}.cls-114{fill:#939393;opacity:0.85;}.cls-115{fill:#929292;opacity:0.86;}.cls-116{fill:#919191;opacity:0.87;}.cls-117{fill:#909090;opacity:0.88;}.cls-118{fill:#8f8f8f;opacity:0.88;}.cls-119{fill:#8e8e8e;opacity:0.89;}.cls-120{fill:#8d8d8d;opacity:0.9;}.cls-121{fill:#8c8c8c;opacity:0.91;}.cls-122{fill:#8b8b8b;opacity:0.91;}.cls-123{fill:#8a8a8a;opacity:0.92;}.cls-124{fill:#898989;opacity:0.93;}.cls-125{fill:#888;opacity:0.94;}.cls-126{fill:#878787;opacity:0.95;}.cls-127{fill:#868686;opacity:0.95;}.cls-128{fill:#858585;opacity:0.96;}.cls-129{fill:#848484;opacity:0.97;}.cls-130{fill:#838383;opacity:0.98;}.cls-131{fill:#828282;opacity:0.98;}.cls-132{fill:#818181;opacity:0.99;}.cls-133{fill:gray;}.cls-134{fill:url(#New_Gradient_Swatch_30);}.cls-135{fill:url(#New_Gradient_Swatch_29);}.cls-136{fill:url(#New_Gradient_Swatch_30-2);}.cls-137{fill:url(#New_Gradient_Swatch_29-2);}.cls-138{opacity:0.01;}.cls-139{opacity:0.03;}.cls-140{opacity:0.04;}.cls-141{opacity:0.05;}.cls-142{opacity:0.06;}.cls-143{opacity:0.08;}.cls-144{opacity:0.09;}.cls-145{opacity:0.1;}.cls-146{opacity:0.12;}.cls-147{opacity:0.13;}.cls-148{opacity:0.14;}.cls-149{opacity:0.16;}.cls-150{opacity:0.17;}.cls-151{opacity:0.18;}.cls-152{opacity:0.19;}.cls-153{opacity:0.21;}.cls-154{opacity:0.22;}.cls-155{opacity:0.23;}.cls-156{opacity:0.25;}.cls-157{opacity:0.26;}.cls-158{opacity:0.27;}.cls-159{opacity:0.29;}.cls-160{opacity:0.3;}.cls-161{opacity:0.31;}.cls-162{opacity:0.32;}.cls-163{opacity:0.34;}.cls-164{opacity:0.35;}.cls-165{opacity:0.36;}.cls-166{opacity:0.38;}.cls-167{opacity:0.39;}.cls-168{opacity:0.4;}.cls-169{opacity:0.42;}.cls-170{opacity:0.43;}.cls-171{opacity:0.44;}.cls-172{opacity:0.45;}.cls-173{opacity:0.47;}.cls-174{opacity:0.48;}.cls-175{opacity:0.49;}.cls-176{opacity:0.51;}.cls-177{opacity:0.52;}.cls-178{opacity:0.53;}.cls-179{opacity:0.55;}.cls-180{opacity:0.56;}.cls-181{opacity:0.57;}.cls-182{opacity:0.58;}.cls-183{opacity:0.6;}.cls-184{opacity:0.61;}.cls-185{opacity:0.62;}.cls-186{opacity:0.64;}.cls-187{opacity:0.65;}.cls-188{opacity:0.66;}.cls-189{opacity:0.68;}.cls-190{opacity:0.69;}.cls-191{opacity:0.7;}.cls-192{opacity:0.71;}.cls-193{opacity:0.73;}.cls-194{opacity:0.74;}.cls-195{opacity:0.75;}.cls-196{opacity:0.77;}.cls-197{opacity:0.78;}.cls-198{opacity:0.79;}.cls-199{opacity:0.81;}.cls-200{opacity:0.82;}.cls-201{opacity:0.83;}.cls-202{opacity:0.84;}.cls-203{opacity:0.86;}.cls-204{opacity:0.87;}.cls-205{opacity:0.88;}.cls-206{opacity:0.9;}.cls-207{opacity:0.91;}.cls-208{opacity:0.92;}.cls-209{opacity:0.94;}.cls-210{opacity:0.95;}.cls-211{opacity:0.96;}.cls-212{opacity:0.97;}.cls-213{opacity:0.99;}.cls-215{fill:url(#linear-gradient-2);}.cls-216{fill:url(#radial-gradient);}.cls-217{fill:url(#linear-gradient-3);}.cls-218{font-size:35px;}.cls-218,.cls-219{font-family:AquilineBookBoldSWFTE, Aquiline Book;}.cls-219{font-size:44px;}.cls-220{fill:#02b68b;}.cls-221{fill:#0068cb;}.cls-222{font-size:36px;font-family:AquilineBookRegularSWFTE, Aquiline Book;}</style><linearGradient id="linear-gradient" x1="184.1" y1="538.1" x2="934.22" y2="538.1" gradientUnits="userSpaceOnUse"><stop offset="0" stop-color="#0c9"/><stop offset="1" stop-color="#06c"/></linearGradient><linearGradient id="New_Gradient_Swatch_30" x1="181.23" y1="633.16" x2="381.35" y2="433.04" gradientUnits="userSpaceOnUse"><stop offset="0" stop-color="#ccc"/><stop offset="1" stop-color="#fff"/></linearGradient><radialGradient id="New_Gradient_Swatch_29" cx="291.41" cy="540.96" r="166.21" gradientTransform="translate(-141.55 -115.28) scale(1.3 1.3)" gradientUnits="userSpaceOnUse"><stop offset="0" stop-color="#fff"/><stop offset="0.4" stop-color="#fafafa"/><stop offset="0.9" stop-color="#eaeaea"/><stop offset="1" stop-color="#e6e6e6"/></radialGradient><linearGradient id="New_Gradient_Swatch_30-2" x1="525.49" y1="633.16" x2="725.61" y2="433.04" xlink:href="#New_Gradient_Swatch_30"/><radialGradient id="New_Gradient_Swatch_29-2" cx="555.58" cy="540.96" r="166.21" xlink:href="#New_Gradient_Swatch_29"/><linearGradient id="linear-gradient-2" x1="498.01" y1="312.52" x2="610.68" y2="-107.97" gradientUnits="userSpaceOnUse"><stop offset="0" stop-color="#ccc"/><stop offset="0.28" stop-color="#cecece"/><stop offset="0.38" stop-color="#d5d5d5"/><stop offset="0.45" stop-color="#e0e0e0"/><stop offset="0.51" stop-color="#f1f1f1"/><stop offset="0.53" stop-color="#fafafa"/><stop offset="0.62" stop-color="#fdfdfd"/><stop offset="1" stop-color="#fff"/></linearGradient><radialGradient id="radial-gradient" cx="491.73" cy="394.83" r="809.47" gradientTransform="translate(51.03 15.52) scale(0.91)" gradientUnits="userSpaceOnUse"><stop offset="0" stop-color="#fff"/><stop offset="0.41" stop-color="#fbfbfb"/><stop offset="0.78" stop-color="#f0f0f0"/><stop offset="1" stop-color="#e6e6e6"/></radialGradient><linearGradient id="linear-gradient-3" x1="238.93" y1="155.33" x2="673.09" y2="155.33" xlink:href="#linear-gradient"/></defs><title>connect-diagram</title><g class="cls-1"><g id="Layer_1" data-name="Layer 1"><path class="cls-2" d="M390.49,794.51a2,2,0,0,1-1.44-.59,2,2,0,0,1-.58-1.42,2.06,2.06,0,0,1,.58-1.43,2,2,0,0,1,.32-.25,2.21,2.21,0,0,1,.34-.18,1.27,1.27,0,0,1,.38-.11,1.47,1.47,0,0,1,.78,0,1.43,1.43,0,0,1,.39.11,2.91,2.91,0,0,1,.35.18,2.34,2.34,0,0,1,.3.25,2.08,2.08,0,0,1,.6,1.43,2.06,2.06,0,0,1-.6,1.42A2,2,0,0,1,390.49,794.51Z" transform="translate(-103.94 -5)"/><path class="cls-2" d="M388.47,784.41a2,2,0,0,1,2-2h0a2,2,0,0,1,2,2h0a2,2,0,0,1-2,2h0A2,2,0,0,1,388.47,784.41Zm0-8.09a2,2,0,0,1,2-2h0a2,2,0,0,1,2,2h0a2,2,0,0,1-2,2h0A2,2,0,0,1,388.47,776.32Zm0-8.08a2,2,0,0,1,2-2h0a2,2,0,0,1,2,2h0a2,2,0,0,1-2,2h0A2,2,0,0,1,388.47,768.24Zm0-8.09a2,2,0,0,1,2-2h0a2,2,0,0,1,2,2h0a2,2,0,0,1-2,2h0A2,2,0,0,1,388.47,760.15Zm0-8.07a2,2,0,0,1,2-2h0a2,2,0,0,1,2,2h0a2,2,0,0,1-2,2h0A2,2,0,0,1,388.47,752.08Zm0-8.1a2,2,0,0,1,2-2h0a2,2,0,0,1,2,2h0a2,2,0,0,1-2,2h0A2,2,0,0,1,388.47,744Zm0-8.07a2,2,0,0,1,2-2h0a2,2,0,0,1,2,2h0a2,2,0,0,1-2,2h0A2,2,0,0,1,388.47,735.91Zm0-8.11a2,2,0,0,1,2-2h0a2,2,0,0,1,2,2h0a2,2,0,0,1-2,2h0A2,2,0,0,1,388.47,727.8Zm0-8.07a2,2,0,0,1,2-2h0a2,2,0,0,1,2,2h0a2,2,0,0,1-2,2h0A2,2,0,0,1,388.47,719.73Zm0-88.15a2,2,0,0,1,2-2h0a2,2,0,0,1,2,2h0a2,2,0,0,1-2,2h0A2,2,0,0,1,388.47,631.58Zm0-8.08a2,2,0,0,1,2-2h0a2,2,0,0,1,2,2h0a2,2,0,0,1-2,2h0A2,2,0,0,1,388.47,623.5Zm0-8.09a2,2,0,0,1,2-2h0a2,2,0,0,1,2,2h0a2,2,0,0,1-2,2h0A2,2,0,0,1,388.47,615.41Zm0-8.08a2,2,0,0,1,2-2h0a2,2,0,0,1,2,2h0a2,2,0,0,1-2,2h0A2,2,0,0,1,388.47,607.33Zm0,56.31a2,2,0,0,1,2-2h0a2,2,0,0,1,2,2h0a2,2,0,0,1-2,2h0A2,2,0,0,1,388.47,663.64Zm0-8.08a2,2,0,0,1,2-2h0a2,2,0,0,1,2,2h0a2,2,0,0,1-2,2h0A2,2,0,0,1,388.47,655.56Zm0-8.09a2,2,0,0,1,2-2h0a2,2,0,0,1,2,2h0a2,2,0,0,1-2,2h0A2,2,0,0,1,388.47,647.47Zm0-8.09a2,2,0,0,1,2-2h0a2,2,0,0,1,2,2h0a2,2,0,0,1-2,2h0A2,2,0,0,1,388.47,639.38Zm0,32.82a2,2,0,0,1,2-2h0a2,2,0,0,1,2,2h0a2,2,0,0,1-2,2h0A2,2,0,0,1,388.47,672.2Zm0,32.06a2,2,0,0,1,2-2h0a2,2,0,0,1,2,2h0a2,2,0,0,1-2,2h0A2,2,0,0,1,388.47,704.26Zm0,7.28a2,2,0,0,1,2-2h0a2,2,0,0,1,2,2h0a2,2,0,0,1-2,2h0A2,2,0,0,1,388.47,711.54Zm0-15.37a2,2,0,0,1,2-2h0a2,2,0,0,1,2,2h0a2,2,0,0,1-2,2h0A2,2,0,0,1,388.47,696.17Zm0-8.08a2,2,0,0,1,2-2h0a2,2,0,0,1,2,2h0a2,2,0,0,1-2,2h0A2,2,0,0,1,388.47,688.09Zm0-8.09a2,2,0,0,1,2-2h0a2,2,0,0,1,2,2h0a2,2,0,0,1-2,2h0A2,2,0,0,1,388.47,680Zm0-80.76a2,2,0,0,1,2-2h0a2,2,0,0,1,2,2h0a2,2,0,0,1-2,2h0A2,2,0,0,1,388.47,599.24Zm0-8.09a2,2,0,0,1,2-2h0a2,2,0,0,1,2,2h0a2,2,0,0,1-2,2h0A2,2,0,0,1,388.47,591.15Zm0-8.08a2,2,0,0,1,2-2h0a2,2,0,0,1,2,2h0a2,2,0,0,1-2,2h0A2,2,0,0,1,388.47,583.07Zm0-8.09a2,2,0,0,1,2-2h0a2,2,0,0,1,2,2h0a2,2,0,0,1-2,2h0A2,2,0,0,1,388.47,575Zm0-8.09a2,2,0,0,1,2-2h0a2,2,0,0,1,2,2h0a2,2,0,0,1-2,2h0A2,2,0,0,1,388.47,566.89Zm0-8.08a2,2,0,0,1,2-2h0a2,2,0,0,1,2,2h0a2,2,0,0,1-2,2h0A2,2,0,0,1,388.47,558.81Zm0-8.09a2,2,0,0,1,2-2h0a2,2,0,0,1,2,2h0a2,2,0,0,1-2,2h0A2,2,0,0,1,388.47,550.72Zm0-8.09a2,2,0,0,1,2-2h0a2,2,0,0,1,2,2h0a2,2,0,0,1-2,2h0A2,2,0,0,1,388.47,542.63Zm0-8.08a2,2,0,0,1,2-2h0a2,2,0,0,1,2,2h0a2,2,0,0,1-2,2h0A2,2,0,0,1,388.47,534.55Zm0-8.09a2,2,0,0,1,2-2h0a2,2,0,0,1,2,2h0a2,2,0,0,1-2,2h0A2,2,0,0,1,388.47,526.46Zm0-8.09a2,2,0,0,1,2-2h0a2,2,0,0,1,2,2h0a2,2,0,0,1-2,2h0A2,2,0,0,1,388.47,518.37Zm0-8.08a2,2,0,0,1,2-2h0a2,2,0,0,1,2,2h0a2,2,0,0,1-2,2h0A2,2,0,0,1,388.47,510.29Zm0-8.09a2,2,0,0,1,2-2h0a2,2,0,0,1,2,2h0a2,2,0,0,1-2,2h0A2,2,0,0,1,388.47,502.2Zm0-8.07a2,2,0,0,1,2-2h0a2,2,0,0,1,2,2h0a2,2,0,0,1-2,2h0A2,2,0,0,1,388.47,494.13Zm0-8.1a2,2,0,0,1,2-2h0a2,2,0,0,1,2,2h0a2,2,0,0,1-2,2h0A2,2,0,0,1,388.47,486Zm0-8.09a2,2,0,0,1,2-2h0a2,2,0,0,1,2,2h0a2,2,0,0,1-2,2h0A2,2,0,0,1,388.47,477.94Zm0-8.07a2,2,0,0,1,2-2h0a2,2,0,0,1,2,2h0a2,2,0,0,1-2,2h0A2,2,0,0,1,388.47,469.87Zm0-8.08a2,2,0,0,1,2-2h0a2,2,0,0,1,2,2h0a2,2,0,0,1-2,2h0A2,2,0,0,1,388.47,461.79Zm0-8.09a2,2,0,0,1,2-2h0a2,2,0,0,1,2,2h0a2,2,0,0,1-2,2h0A2,2,0,0,1,388.47,453.7Zm0-8.09a2,2,0,0,1,2-2h0a2,2,0,0,1,2,2h0a2,2,0,0,1-2,2h0A2,2,0,0,1,388.47,445.61Zm0-8.08a2,2,0,0,1,2-2h0a2,2,0,0,1,2,2h0a2,2,0,0,1-2,2h0A2,2,0,0,1,388.47,437.53Zm0-8.09a2,2,0,0,1,2-2h0a2,2,0,0,1,2,2h0a2,2,0,0,1-2,2h0A2,2,0,0,1,388.47,429.44Zm0-8.09a2,2,0,0,1,2-2h0a2,2,0,0,1,2,2h0a2,2,0,0,1-2,2h0A2,2,0,0,1,388.47,421.35Zm0-8.08a2,2,0,0,1,2-2h0a2,2,0,0,1,2,2h0a2,2,0,0,1-2,2h0A2,2,0,0,1,388.47,413.27Zm0-8.09a2,2,0,0,1,2-2h0a2,2,0,0,1,2,2h0a2,2,0,0,1-2,2h0A2,2,0,0,1,388.47,405.18Zm0-8.09a2,2,0,0,1,2-2h0a2,2,0,0,1,2,2h0a2,2,0,0,1-2,2h0A2,2,0,0,1,388.47,397.09Zm0-8.08a2,2,0,0,1,2-2h0a2,2,0,0,1,2,2h0a2,2,0,0,1-2,2h0A2,2,0,0,1,388.47,389Zm0-8.09a2,2,0,0,1,2-2h0a2,2,0,0,1,2,2h0a2,2,0,0,1-2,2h0A2,2,0,0,1,388.47,380.92Zm0-8.08a2,2,0,0,1,2-2h0a2,2,0,0,1,2,2h0a2,2,0,0,1-2,2h0A2,2,0,0,1,388.47,372.84Zm0-8.09a2,2,0,0,1,2-2h0a2,2,0,0,1,2,2h0a2,2,0,0,1-2,2h0A2,2,0,0,1,388.47,364.75Zm0-8.09a2,2,0,0,1,2-2h0a2,2,0,0,1,2,2h0a2,2,0,0,1-2,2h0A2,2,0,0,1,388.47,356.66Zm0-8.08a2,2,0,0,1,2-2h0a2,2,0,0,1,2,2h0a2,2,0,0,1-2,2h0A2,2,0,0,1,388.47,348.58Zm0-8.09a2,2,0,0,1,2-2h0a2,2,0,0,1,2,2h0a2,2,0,0,1-2,2h0A2,2,0,0,1,388.47,340.49Zm0-8.09a2,2,0,0,1,2-2h0a2,2,0,0,1,2,2h0a2,2,0,0,1-2,2h0A2,2,0,0,1,388.47,332.4Zm0-8.08a2,2,0,0,1,2-2h0a2,2,0,0,1,2,2h0a2,2,0,0,1-2,2h0A2,2,0,0,1,388.47,324.32Zm2-6.06a2,2,0,0,1-2-2.05h0a2,2,0,0,1,2-2h0a2,2,0,0,1,2,2h0a2,2,0,0,1-2,2h0Zm.45-8.07a2,2,0,0,1-1.6-2.37h0a2,2,0,0,1,2.35-1.6h0a2,2,0,0,1,1.6,2.36h0a2,2,0,0,1-2,1.65h0A2.33,2.33,0,0,1,390.91,310.19Zm1.87-7.86a2,2,0,0,1-1.15-2.61h0a2,2,0,0,1,2.59-1.15h0a2,2,0,0,1,1.17,2.61h0a2,2,0,0,1-1.89,1.28h0A1.83,1.83,0,0,1,392.78,302.33Zm3.25-7.4a2,2,0,0,1-.67-2.78h0a2,2,0,0,1,2.77-.67h0a2,2,0,0,1,.67,2.77h0a2,2,0,0,1-1.73,1h0A2,2,0,0,1,396,294.93Zm4.52-6.71a2,2,0,0,1-.18-2.85h0a2,2,0,0,1,2.83-.16h0a2,2,0,0,1,.18,2.85h0a2,2,0,0,1-1.51.68h0A2,2,0,0,1,400.55,288.22Zm5.63-5.79a2,2,0,0,1,.34-2.84h0a2,2,0,0,1,2.83.34h0a2.05,2.05,0,0,1-.33,2.85h0a2.07,2.07,0,0,1-1.25.42h0A2,2,0,0,1,406.18,282.43Zm6.57-4.69a2,2,0,0,1,.83-2.74h0a2,2,0,0,1,2.74.85h0a2,2,0,0,1-.85,2.72h0a2,2,0,0,1-1,.22h0A2,2,0,0,1,412.75,277.74Zm7.3-3.46a2,2,0,0,1,1.31-2.55h0a2,2,0,0,1,2.53,1.31h0a2,2,0,0,1-1.31,2.53h0a1.77,1.77,0,0,1-.61.1h0A2,2,0,0,1,420.05,274.28Zm7.81-2.1a2,2,0,0,1,1.73-2.26h0a2,2,0,0,1,2.26,1.75h0a2,2,0,0,1-1.74,2.25h0l-.26,0h0A2,2,0,0,1,427.86,272.18Zm55-.63a2,2,0,0,1,2-2h0a2,2,0,0,1,2,2h0a2,2,0,0,1-2,2h0A2,2,0,0,1,482.9,271.55Zm-6.57,0a2,2,0,0,1,2-2h0a2,2,0,0,1,2,2h0a2,2,0,0,1-2,2h0A2,2,0,0,1,476.33,271.55Zm-8.08,0a2,2,0,0,1,2-2h0a2,2,0,0,1,2,2h0a2,2,0,0,1-2,2h0A2,2,0,0,1,468.25,271.55Zm-8.09,0a2,2,0,0,1,2-2h0a2,2,0,0,1,2,2h0a2,2,0,0,1-2,2h0A2,2,0,0,1,460.16,271.55Zm-8.09,0a2,2,0,0,1,2-2h0a2,2,0,0,1,2,2h0a2,2,0,0,1-2,2h0A2,2,0,0,1,452.07,271.55Zm-8.08,0a2,2,0,0,1,2-2h0a2,2,0,0,1,2,2h0a2,2,0,0,1-2,2h0A2,2,0,0,1,444,271.55Zm-8.09,0a2,2,0,0,1,2-2h0a2,2,0,0,1,2,2h0a2,2,0,0,1-2,2h0A2,2,0,0,1,435.9,271.55Zm55.07-.36a2,2,0,0,1,1.62-2.36h0a2,2,0,0,1,2.35,1.64h0a2,2,0,0,1-1.63,2.33h0a2.2,2.2,0,0,1-.36,0h0A2,2,0,0,1,491,271.19Zm7.88-1.81a2,2,0,0,1,1.17-2.6h0a2,2,0,0,1,2.59,1.17h0a2,2,0,0,1-1.17,2.6h0a2,2,0,0,1-.7.12h0A2,2,0,0,1,498.85,269.38Zm7.43-3.19a2,2,0,0,1,.69-2.77h0a2,2,0,0,1,2.77.69h0a2,2,0,0,1-.71,2.77h0a2,2,0,0,1-1,.29h0A2,2,0,0,1,506.28,266.19Zm6.72-4.47a2,2,0,0,1,.2-2.85h0a2,2,0,0,1,2.84.2h0a2,2,0,0,1-.19,2.85h0a2,2,0,0,1-1.33.49h0A2,2,0,0,1,513,261.72Zm5.85-5.59a2,2,0,0,1-.32-2.83h0a2,2,0,0,1,2.83-.32h0a2,2,0,0,1,.32,2.83h0a2,2,0,0,1-1.58.77h0A1.92,1.92,0,0,1,518.85,256.13Zm4.75-6.53a2,2,0,0,1-.81-2.74h0a2,2,0,0,1,2.73-.8h0a2,2,0,0,1,.82,2.73h0a2,2,0,0,1-1.79,1.05h0A2.06,2.06,0,0,1,523.6,249.6Zm3.53-7.27a2,2,0,0,1-1.3-2.54h0a2,2,0,0,1,2.55-1.28h0a2,2,0,0,1,1.28,2.52h0a2,2,0,0,1-1.91,1.4h0A1.87,1.87,0,0,1,527.13,242.33Zm2.14-7.78a2,2,0,0,1-1.73-2.27h0a2,2,0,0,1,2.26-1.73h0a2,2,0,0,1,1.73,2.27h0a2,2,0,0,1-2,1.75h0Zm-1.33-10.07a2,2,0,0,1,2-2h0a2,2,0,0,1,2,2h0a2,2,0,0,1-2,2h0A2,2,0,0,1,527.94,224.48Zm0-8.09a2,2,0,0,1,2-2h0a2,2,0,0,1,2,2h0a2,2,0,0,1-2,2h0A2,2,0,0,1,527.94,216.39Zm0-8.09a2,2,0,0,1,2-2h0a2,2,0,0,1,2,2h0a2,2,0,0,1-2,2h0A2,2,0,0,1,527.94,208.3Zm0-8.08a2,2,0,0,1,2-2h0a2,2,0,0,1,2,2h0a2,2,0,0,1-2,2h0A2,2,0,0,1,527.94,200.22Zm0-8.09a2,2,0,0,1,2-2h0a2,2,0,0,1,2,2h0a2,2,0,0,1-2,2h0A2,2,0,0,1,527.94,192.13Zm0-8.08a2,2,0,0,1,2-2h0a2,2,0,0,1,2,2h0a2,2,0,0,1-2,2h0A2,2,0,0,1,527.94,184.05Zm0-8.09a2,2,0,0,1,2-2h0a2,2,0,0,1,2,2h0a2,2,0,0,1-2,2h0A2,2,0,0,1,527.94,176Zm0-8.09a2,2,0,0,1,2-2h0a2,2,0,0,1,2,2h0a2,2,0,0,1-2,2h0A2,2,0,0,1,527.94,167.87Z" transform="translate(-103.94 -5)"/><path class="cls-2" d="M530,161.72a2.09,2.09,0,0,1-1.43-.59,2.72,2.72,0,0,1-.25-.32,1.74,1.74,0,0,1-.18-.33,1.9,1.9,0,0,1-.11-.39,1.73,1.73,0,0,1,0-.38,2.1,2.1,0,0,1,.59-1.44,2.34,2.34,0,0,1,.31-.24,1.51,1.51,0,0,1,.35-.2,2.85,2.85,0,0,1,.39-.11,2,2,0,0,1,.78,0,2,2,0,0,1,.37.11,1.51,1.51,0,0,1,.35.2,2.34,2.34,0,0,1,.31.24,2,2,0,0,1,.59,1.44c0,.12,0,.25,0,.38s-.07.26-.12.39a2.59,2.59,0,0,1-.19.33,2.72,2.72,0,0,1-.25.32,2.34,2.34,0,0,1-.31.24,1.19,1.19,0,0,1-.35.19,3.22,3.22,0,0,1-.37.12A1.81,1.81,0,0,1,530,161.72Z" transform="translate(-103.94 -5)"/><path class="cls-2" d="M728,794.51a2,2,0,0,0,1.44-.59,2,2,0,0,0,.58-1.42,2.06,2.06,0,0,0-.58-1.43,2,2,0,0,0-.32-.25,2.21,2.21,0,0,0-.34-.18,1.27,1.27,0,0,0-.38-.11,1.47,1.47,0,0,0-.78,0,1.43,1.43,0,0,0-.39.11,2.91,2.91,0,0,0-.35.18,3.4,3.4,0,0,0-.31.25,2.12,2.12,0,0,0-.59,1.43,2.09,2.09,0,0,0,.59,1.42A2,2,0,0,0,728,794.51Z" transform="translate(-103.94 -5)"/><path class="cls-2" d="M728,786.43h0a2,2,0,0,1-2-2h0a2,2,0,0,1,2-2h0a2,2,0,0,1,0,4Zm0-8.09h0a2,2,0,0,1-2-2h0a2,2,0,0,1,2-2h0a2,2,0,1,1,0,4Zm0-8.08h0a2,2,0,0,1-2-2h0a2,2,0,0,1,2-2h0a2,2,0,0,1,0,4Zm0-8.09h0a2,2,0,0,1-2-2h0a2,2,0,0,1,2-2h0a2,2,0,0,1,0,4Zm0-8.09h0a2,2,0,0,1-2-2h0a2,2,0,0,1,2-2h0a2,2,0,1,1,0,4Zm0-8.08h0a2,2,0,0,1-2-2h0a2,2,0,0,1,2-2h0a2,2,0,0,1,0,4Zm0-8.09h0a2,2,0,0,1-2-2h0a2,2,0,0,1,2-2h0a2,2,0,1,1,0,4Zm0-8.09h0a2,2,0,0,1-2-2h0a2,2,0,0,1,2-2h0a2,2,0,1,1,0,4Zm0-8.07h0a2,2,0,0,1-2-2h0a2,2,0,0,1,2-2h0a2,2,0,1,1,0,4Zm0-88.15h0a2,2,0,0,1-2-2h0a2,2,0,0,1,2-2h0a2,2,0,1,1,0,4Zm0-8.08h0a2,2,0,0,1-2-2h0a2,2,0,0,1,2-2h0a2,2,0,0,1,0,4Zm0-8.09h0a2,2,0,0,1-2-2h0a2,2,0,0,1,2-2h0a2,2,0,0,1,0,4Zm0-8.09h0a2,2,0,0,1-2-2h0a2,2,0,0,1,2-2h0a2,2,0,1,1,0,4Zm0,56.32h0a2,2,0,0,1-2-2h0a2,2,0,0,1,2-2h0a2,2,0,0,1,0,4Zm0-8.09h0a2,2,0,0,1-2-2h0a2,2,0,0,1,2-2h0a2,2,0,1,1,0,4Zm0-8.08h0a2,2,0,0,1-2-2h0a2,2,0,0,1,2-2h0a2,2,0,0,1,0,4Zm0-8.09h0a2,2,0,0,1-2-2h0a2,2,0,0,1,2-2h0a2,2,0,0,1,0,4Zm0,32.82h0a2,2,0,0,1-2-2h0a2,2,0,0,1,2-2h0a2,2,0,0,1,0,4Zm0,32.06h0a2,2,0,0,1-2-2h0a2,2,0,0,1,2-2h0a2,2,0,0,1,0,4Zm0,7.28h0a2,2,0,0,1-2-2h0a2,2,0,0,1,2-2h0a2,2,0,0,1,0,4Zm0-15.37h0a2,2,0,0,1-2-2h0a2,2,0,0,1,2-2h0a2,2,0,1,1,0,4Zm0-8.08h0a2,2,0,0,1-2-2h0a2,2,0,0,1,2-2h0a2,2,0,0,1,0,4Zm0-8.09h0a2,2,0,0,1-2-2h0a2,2,0,0,1,2-2h0a2,2,0,0,1,0,4Zm0-80.76h0a2,2,0,0,1-2-2h0a2,2,0,0,1,2-2h0a2,2,0,0,1,0,4Zm0-8.09h0a2,2,0,0,1-2-2h0a2,2,0,0,1,2-2h0a2,2,0,0,1,0,4Zm0-8.09h0a2,2,0,0,1-2-2h0a2,2,0,0,1,2-2h0a2,2,0,1,1,0,4Zm0-8.08h0a2,2,0,0,1-2-2h0a2,2,0,0,1,2-2h0a2,2,0,0,1,0,4Zm0-8.09h0a2,2,0,0,1-2-2h0a2,2,0,0,1,2-2h0a2,2,0,0,1,0,4Zm0-8.09h0a2,2,0,0,1-2-2h0a2,2,0,0,1,2-2h0a2,2,0,1,1,0,4Zm0-8.08h0a2,2,0,0,1-2-2h0a2,2,0,0,1,2-2h0a2,2,0,0,1,0,4Zm0-8.09h0a2,2,0,0,1-2-2h0a2,2,0,0,1,2-2h0a2,2,0,1,1,0,4Zm0-8.09h0a2,2,0,0,1-2-2h0a2,2,0,0,1,2-2h0a2,2,0,1,1,0,4Zm0-8.08h0a2,2,0,0,1-2-2h0a2,2,0,0,1,2-2h0a2,2,0,0,1,0,4Zm0-8.09h0a2,2,0,0,1-2-2h0a2,2,0,0,1,2-2h0a2,2,0,1,1,0,4Zm0-8.08h0a2,2,0,0,1-2-2h0a2,2,0,0,1,2-2h0a2,2,0,0,1,0,4Zm0-8.09h0a2,2,0,0,1-2-2h0a2,2,0,0,1,2-2h0a2,2,0,1,1,0,4Zm0-8.09h0a2,2,0,0,1-2-2h0a2,2,0,0,1,2-2h0a2,2,0,1,1,0,4Zm0-8.08h0a2,2,0,0,1-2-2h0a2,2,0,0,1,2-2h0a2,2,0,1,1,0,4Zm0-8.09h0a2,2,0,0,1-2-2h0a2,2,0,0,1,2-2h0a2,2,0,0,1,0,4Zm0-8.09h0a2,2,0,0,1-2-2h0a2,2,0,0,1,2-2h0a2,2,0,1,1,0,4Zm0-8.08h0a2,2,0,0,1-2-2h0a2,2,0,0,1,2-2h0a2,2,0,1,1,0,4Zm0-8.07h0a2,2,0,0,1-2-2h0a2,2,0,0,1,2-2h0a2,2,0,0,1,0,4Zm0-8.09h0a2,2,0,0,1-2-2h0a2,2,0,0,1,2-2h0a2,2,0,1,1,0,4Zm0-8.09h0a2,2,0,0,1-2-2h0a2,2,0,0,1,2-2h0a2,2,0,1,1,0,4Zm0-8.08h0a2,2,0,0,1-2-2h0a2,2,0,0,1,2-2h0a2,2,0,0,1,0,4Zm0-8.09h0a2,2,0,0,1-2-2h0a2,2,0,0,1,2-2h0a2,2,0,1,1,0,4Zm0-8.09h0a2,2,0,0,1-2-2h0a2,2,0,0,1,2-2h0a2,2,0,1,1,0,4Zm0-8.08h0a2,2,0,0,1-2-2h0a2,2,0,0,1,2-2h0a2,2,0,0,1,0,4Zm0-8.09h0a2,2,0,0,1-2-2h0a2,2,0,0,1,2-2h0a2,2,0,1,1,0,4Zm0-8.08h0a2,2,0,0,1-2-2h0a2,2,0,0,1,2-2h0a2,2,0,0,1,0,4Zm0-8.09h0a2,2,0,0,1-2-2h0a2,2,0,0,1,2-2h0a2,2,0,0,1,0,4Zm0-8.09h0a2,2,0,0,1-2-2h0a2,2,0,0,1,2-2h0a2,2,0,1,1,0,4Zm0-8.08h0a2,2,0,0,1-2-2h0a2,2,0,0,1,2-2h0a2,2,0,0,1,0,4Zm0-8.09h0a2,2,0,0,1-2-2h0a2,2,0,0,1,2-2h0a2,2,0,0,1,0,4Zm0-8.09h0a2,2,0,0,1-2-2h0a2,2,0,0,1,2-2h0a2,2,0,1,1,0,4Zm0-8.08h0a2,2,0,0,1-2-2h0a2,2,0,0,1,2-2h0a2,2,0,0,1,0,4Zm0-8.09h0a2,2,0,0,1-2-2h0a2,2,0,0,1,2-2h0a2,2,0,1,1,0,4Zm0-8.09h0a2,2,0,0,1-2-2h0a2,2,0,0,1,2-2h0a2,2,0,1,1,0,4Zm0-8.07h0a2,2,0,0,1-2-2h0a2,2,0,0,1,2-2h0a2,2,0,0,1,2,2h0a2,2,0,0,1-2,2.05Zm-.8-8h0a2,2,0,0,1-2-1.65h0a2,2,0,0,1,1.6-2.36h0a2,2,0,0,1,2.35,1.6h0a2,2,0,0,1-1.6,2.37A2.33,2.33,0,0,1,727.23,310.23ZM725,302.46h0a2,2,0,0,1-1.89-1.28h0a2,2,0,0,1,1.17-2.61h0a2,2,0,0,1,2.59,1.15h0a2,2,0,0,1-1.15,2.61A1.83,1.83,0,0,1,725,302.46Zm-3.57-7.24h0a2,2,0,0,1-1.73-1h0a2,2,0,0,1,.67-2.77h0a2,2,0,0,1,2.77.67h0a2,2,0,0,1-.67,2.78A2,2,0,0,1,721.45,295.22Zm-4.82-6.48h0a2,2,0,0,1-1.51-.68h0a2,2,0,0,1,.18-2.85h0a2,2,0,0,1,2.83.16h0a2,2,0,0,1-1.52,3.37Zm-5.88-5.54h0a2.07,2.07,0,0,1-1.25-.42h0a2.05,2.05,0,0,1-.33-2.85h0a2,2,0,0,1,2.83-.34h0a2,2,0,0,1,.34,2.84A2,2,0,0,1,710.75,283.2ZM704,278.79h0a2,2,0,0,1-.94-.22h0a2,2,0,0,1-.85-2.72h0a2,2,0,0,1,2.74-.85h0a2,2,0,0,1-1,3.79Zm-7.44-3.12h0a1.77,1.77,0,0,1-.61-.1h0a2,2,0,0,1-1.31-2.53h0a2,2,0,0,1,2.53-1.31h0a2,2,0,0,1,1.31,2.55A2,2,0,0,1,696.55,275.67Zm-7.88-1.73h0l-.26,0h0a2,2,0,0,1-1.74-2.25h0a2,2,0,0,1,2.26-1.75h0a2,2,0,0,1-.26,4Zm-55.07-.37h0a2,2,0,0,1-2-2h0a2,2,0,0,1,2-2h0a2,2,0,0,1,0,4Zm6.57,0h0a2,2,0,0,1-2-2h0a2,2,0,0,1,2-2h0a2,2,0,1,1,0,4Zm8.08,0h0a2,2,0,0,1-2-2h0a2,2,0,0,1,2-2h0a2,2,0,1,1,0,4Zm8.09,0h0a2,2,0,0,1-2-2h0a2,2,0,0,1,2-2h0a2,2,0,1,1,0,4Zm8.09,0h0a2,2,0,0,1-2-2h0a2,2,0,0,1,2-2h0a2,2,0,1,1,0,4Zm8.08,0h0a2,2,0,0,1-2-2h0a2,2,0,0,1,2-2h0a2,2,0,1,1,0,4Zm8.09,0h0a2,2,0,0,1-2-2h0a2,2,0,0,1,2-2h0a2,2,0,1,1,0,4Zm-55-.73h0a2.2,2.2,0,0,1-.36,0h0a2,2,0,0,1-1.63-2.33h0a2,2,0,0,1,2.35-1.64h0a2,2,0,0,1-.36,4Zm-7.79-2.17h0a2,2,0,0,1-.7-.12h0a2,2,0,0,1-1.17-2.6h0a2,2,0,0,1,2.59-1.17h0a2,2,0,0,1-.72,3.89Zm-7.27-3.5h0a2,2,0,0,1-1-.29h0a2,2,0,0,1-.71-2.77h0a2,2,0,0,1,2.77-.69h0a2,2,0,0,1-1,3.75ZM604,262.41h0a2,2,0,0,1-1.33-.49h0a2,2,0,0,1-.2-2.85h0a2,2,0,0,1,2.85-.2h0a2,2,0,0,1-1.32,3.54Zm-5.58-5.83h0a2,2,0,0,1-1.58-.77h0a2,2,0,0,1,.32-2.83h0a2,2,0,0,1,2.83.32h0a2,2,0,0,1-.32,2.83A1.92,1.92,0,0,1,598.42,256.58ZM594,249.84h0a2,2,0,0,1-1.79-1.05h0a2,2,0,0,1,.82-2.73h0a2,2,0,0,1,2.73.8h0a2,2,0,0,1-.81,2.74A2.06,2.06,0,0,1,594,249.84Zm-3.2-7.41h0a2,2,0,0,1-1.91-1.4h0a2,2,0,0,1,1.28-2.52h0a2,2,0,0,1,2.55,1.28h0a2,2,0,0,1-1.3,2.54A1.87,1.87,0,0,1,590.77,242.43ZM589,234.57h0a2,2,0,0,1-2-1.75h0a2,2,0,0,1,1.73-2.27h0a2,2,0,0,1,2.26,1.73h0a2,2,0,0,1-1.73,2.27Zm-.42-8.07h0a2,2,0,0,1-2-2h0a2,2,0,0,1,2-2h0a2,2,0,1,1,0,4Zm0-8.09h0a2,2,0,0,1-2-2h0a2,2,0,0,1,2-2h0a2,2,0,1,1,0,4Zm0-8.09h0a2,2,0,0,1-2-2h0a2,2,0,0,1,2-2h0a2,2,0,1,1,0,4Zm0-8.08h0a2,2,0,0,1-2-2h0a2,2,0,0,1,2-2h0a2,2,0,1,1,0,4Zm0-8.09h0a2,2,0,0,1-2-2h0a2,2,0,0,1,2-2h0a2,2,0,1,1,0,4Zm0-8.09h0a2,2,0,0,1-2-2h0a2,2,0,0,1,2-2h0a2,2,0,1,1,0,4Zm0-8.08h0a2,2,0,0,1-2-2h0a2,2,0,0,1,2-2h0a2,2,0,1,1,0,4Zm0-8.09h0a2,2,0,0,1-2-2h0a2,2,0,0,1,2-2h0a2,2,0,1,1,0,4Z" transform="translate(-103.94 -5)"/><path class="cls-2" d="M588.56,161.72a2.09,2.09,0,0,0,1.43-.59,2.72,2.72,0,0,0,.25-.32,1.74,1.74,0,0,0,.18-.33,1.9,1.9,0,0,0,.11-.39,1.73,1.73,0,0,0,.05-.38,2.1,2.1,0,0,0-.59-1.44,2.34,2.34,0,0,0-.31-.24,1.51,1.51,0,0,0-.35-.2,2.85,2.85,0,0,0-.39-.11,2,2,0,0,0-.78,0,2,2,0,0,0-.37.11,1.51,1.51,0,0,0-.35.2,2.34,2.34,0,0,0-.31.24,2,2,0,0,0-.59,1.44c0,.12,0,.25,0,.38s.07.26.12.39a2.59,2.59,0,0,0,.19.33,2.72,2.72,0,0,0,.25.32,2.34,2.34,0,0,0,.31.24,1.19,1.19,0,0,0,.35.19,3.22,3.22,0,0,0,.37.12A1.81,1.81,0,0,0,588.56,161.72Z" transform="translate(-103.94 -5)"/><path class="cls-3" d="M903.56,430.87l-.06.1a202.66,202.66,0,0,0-158.4-95.16l-.56,0c-2-.13-3.94-.22-5.92-.29l-.28,0q-3.54-.12-7.1-.12l-1.35,0c-1.15,0-2.3,0-3.44.06a202.6,202.6,0,0,0-167.29,95.41,202.59,202.59,0,0,0-167.23-95.41c-1.28,0-2.57-.06-3.86-.07h-1c-2.41,0-4.81,0-7.19.13h-.28q-2.89.11-5.78.28l-.22,0h-.07l-.37,0A202.66,202.66,0,0,0,214.82,431l-.06-.1a202.84,202.84,0,0,0,0,214.46l.06-.09a202.69,202.69,0,0,0,158.41,95.15l.55,0q3,.18,5.92.29H380c2.36.08,4.74.13,7.12.13.46,0,.91,0,1.37,0,1.14,0,2.27,0,3.41-.05a202.61,202.61,0,0,0,167.29-95.42,202.62,202.62,0,0,0,167.23,95.42c1.29,0,2.57.05,3.86.06l1,0q3.6,0,7.19-.14h.27c1.93-.06,3.86-.16,5.78-.28h.3l.37,0A202.69,202.69,0,0,0,903.5,645.24l.06.09a202.84,202.84,0,0,0,0-214.46Z" transform="translate(-103.94 -5)"/><g class="cls-4"><circle class="cls-5" cx="297.32" cy="649.4" r="139.04" transform="translate(-476.05 395.44) rotate(-45)"/><circle class="cls-6" cx="298.01" cy="648.53" r="139.04" transform="translate(-475.23 395.67) rotate(-45)"/><circle class="cls-7" cx="298.69" cy="647.66" r="139.04" transform="translate(-474.42 395.9) rotate(-45)"/><circle class="cls-8" cx="299.38" cy="646.79" r="139.04" transform="translate(-473.6 396.14) rotate(-45)"/><circle class="cls-9" cx="300.07" cy="645.92" r="139.04" transform="translate(-472.78 396.37) rotate(-45)"/><circle class="cls-10" cx="300.75" cy="645.05" r="139.04" transform="translate(-471.97 396.6) rotate(-45)"/><circle class="cls-11" cx="301.44" cy="644.18" r="139.04" transform="translate(-471.15 396.83) rotate(-45)"/><circle class="cls-12" cx="302.13" cy="643.31" r="139.04" transform="translate(-470.34 397.06) rotate(-45)"/><circle class="cls-13" cx="302.81" cy="642.45" r="139.04" transform="translate(-469.52 397.29) rotate(-45)"/><circle class="cls-14" cx="303.5" cy="641.58" r="139.04" transform="translate(-468.7 397.52) rotate(-45)"/><circle class="cls-15" cx="304.19" cy="640.71" r="139.04" transform="translate(-467.89 397.75) rotate(-45)"/><circle class="cls-16" cx="304.88" cy="639.84" r="139.04" transform="translate(-467.07 397.98) rotate(-45)"/><circle class="cls-17" cx="305.56" cy="638.97" r="139.04" transform="translate(-466.26 398.21) rotate(-45)"/><circle class="cls-18" cx="306.25" cy="638.1" r="139.04" transform="translate(-465.44 398.44) rotate(-45)"/><circle class="cls-19" cx="306.94" cy="637.23" r="139.04" transform="translate(-464.62 398.68) rotate(-45)"/><circle class="cls-20" cx="307.62" cy="636.36" r="139.04" transform="translate(-463.81 398.91) rotate(-45)"/><circle class="cls-21" cx="308.31" cy="635.49" r="139.04" transform="translate(-462.99 399.14) rotate(-45)"/><circle class="cls-22" cx="309" cy="634.62" r="139.04" transform="translate(-462.18 399.37) rotate(-45)"/><circle class="cls-23" cx="309.68" cy="633.75" r="139.04" transform="translate(-461.36 399.6) rotate(-45)"/><circle class="cls-24" cx="310.37" cy="632.88" r="139.04" transform="translate(-460.54 399.83) rotate(-45)"/><circle class="cls-25" cx="311.06" cy="632.01" r="139.04" transform="translate(-459.73 400.06) rotate(-45)"/><circle class="cls-26" cx="311.74" cy="631.14" r="139.04" transform="translate(-458.91 400.29) rotate(-45)"/><circle class="cls-27" cx="312.43" cy="630.27" r="139.04" transform="translate(-458.1 400.52) rotate(-45)"/><circle class="cls-28" cx="313.12" cy="629.4" r="139.04" transform="translate(-457.28 400.75) rotate(-45)"/><circle class="cls-29" cx="313.8" cy="628.53" r="139.04" transform="translate(-456.46 400.99) rotate(-45)"/><circle class="cls-30" cx="314.49" cy="627.66" r="139.04" transform="translate(-455.65 401.22) rotate(-45)"/><circle class="cls-31" cx="315.18" cy="626.79" r="139.04" transform="translate(-454.83 401.45) rotate(-45)"/><circle class="cls-32" cx="315.86" cy="625.92" r="139.04" transform="translate(-454.02 401.68) rotate(-45)"/><circle class="cls-33" cx="316.55" cy="625.05" r="139.04" transform="translate(-453.2 401.91) rotate(-45)"/><circle class="cls-34" cx="317.24" cy="624.19" r="139.04" transform="translate(-452.38 402.14) rotate(-45)"/><circle class="cls-35" cx="317.92" cy="623.32" r="139.04" transform="translate(-451.57 402.37) rotate(-45)"/><circle class="cls-36" cx="318.61" cy="622.45" r="139.04" transform="translate(-450.75 402.6) rotate(-45)"/><circle class="cls-37" cx="319.3" cy="621.58" r="139.04" transform="translate(-449.94 402.83) rotate(-45)"/><circle class="cls-38" cx="319.98" cy="620.71" r="139.04" transform="translate(-449.12 403.06) rotate(-45)"/><circle class="cls-39" cx="320.67" cy="619.84" r="139.04" transform="translate(-448.3 403.29) rotate(-45)"/><circle class="cls-40" cx="321.36" cy="618.97" r="139.04" transform="translate(-447.49 403.53) rotate(-45)"/><circle class="cls-41" cx="322.04" cy="618.1" r="139.04" transform="translate(-446.67 403.76) rotate(-45)"/><circle class="cls-42" cx="322.73" cy="617.23" r="139.04" transform="translate(-445.86 403.99) rotate(-45)"/><circle class="cls-43" cx="323.42" cy="616.36" r="139.04" transform="translate(-445.04 404.22) rotate(-45)"/><circle class="cls-44" cx="324.1" cy="615.49" r="139.04" transform="translate(-444.22 404.45) rotate(-45)"/><circle class="cls-45" cx="324.79" cy="614.62" r="139.04" transform="translate(-443.41 404.68) rotate(-45)"/><circle class="cls-46" cx="325.48" cy="613.75" r="139.04" transform="translate(-442.59 404.91) rotate(-45)"/><circle class="cls-47" cx="326.16" cy="612.88" r="139.04" transform="translate(-441.78 405.14) rotate(-45)"/><circle class="cls-48" cx="326.85" cy="612.01" r="139.04" transform="translate(-440.96 405.37) rotate(-45)"/><circle class="cls-49" cx="327.54" cy="611.14" r="139.04" transform="translate(-440.14 405.6) rotate(-45)"/><circle class="cls-50" cx="328.23" cy="610.27" r="139.04" transform="translate(-439.33 405.83) rotate(-45)"/><circle class="cls-51" cx="328.91" cy="609.4" r="139.04" transform="translate(-438.51 406.07) rotate(-45)"/><circle class="cls-52" cx="329.6" cy="608.53" r="139.04" transform="translate(-437.7 406.3) rotate(-45)"/><circle class="cls-53" cx="330.29" cy="607.66" r="139.04" transform="translate(-436.88 406.53) rotate(-45)"/><circle class="cls-54" cx="330.97" cy="606.79" r="139.04" transform="translate(-436.06 406.76) rotate(-45)"/><circle class="cls-55" cx="331.66" cy="605.93" r="139.04" transform="translate(-435.25 406.99) rotate(-45)"/><circle class="cls-56" cx="332.35" cy="605.06" r="139.04" transform="translate(-434.43 407.22) rotate(-45)"/><circle class="cls-57" cx="333.03" cy="604.19" r="139.04" transform="translate(-433.62 407.45) rotate(-45)"/><circle class="cls-58" cx="333.72" cy="603.32" r="139.04" transform="translate(-432.8 407.68) rotate(-45)"/><circle class="cls-59" cx="334.41" cy="602.45" r="139.04" transform="translate(-431.98 407.91) rotate(-45)"/><circle class="cls-60" cx="335.09" cy="601.58" r="139.04" transform="translate(-431.17 408.14) rotate(-45)"/><circle class="cls-61" cx="335.78" cy="600.71" r="139.04" transform="translate(-430.35 408.38) rotate(-45)"/><circle class="cls-62" cx="336.47" cy="599.84" r="139.04" transform="translate(-429.54 408.61) rotate(-45)"/><circle class="cls-63" cx="337.15" cy="598.97" r="139.04" transform="translate(-428.72 408.84) rotate(-45)"/><circle class="cls-64" cx="337.84" cy="598.1" r="139.04" transform="translate(-427.9 409.07) rotate(-45)"/><circle class="cls-65" cx="338.53" cy="597.23" r="139.04" transform="translate(-427.09 409.3) rotate(-45)"/><circle class="cls-66" cx="339.21" cy="596.36" r="139.04" transform="translate(-426.27 409.53) rotate(-45)"/><circle class="cls-67" cx="339.9" cy="595.49" r="139.04" transform="translate(-425.46 409.76) rotate(-45)"/><circle class="cls-68" cx="340.59" cy="594.62" r="139.04" transform="translate(-424.64 409.99) rotate(-45)"/><circle class="cls-69" cx="341.27" cy="593.75" r="139.04" transform="translate(-423.82 410.22) rotate(-45)"/><circle class="cls-70" cx="341.96" cy="592.88" r="139.04" transform="translate(-423.01 410.45) rotate(-45)"/><circle class="cls-71" cx="342.65" cy="592.01" r="139.04" transform="translate(-422.19 410.68) rotate(-45)"/><circle class="cls-72" cx="343.33" cy="591.14" r="139.04" transform="translate(-421.38 410.92) rotate(-45)"/><circle class="cls-73" cx="344.02" cy="590.27" r="139.04" transform="translate(-420.56 411.15) rotate(-45)"/><circle class="cls-74" cx="344.71" cy="589.4" r="139.04" transform="translate(-419.74 411.38) rotate(-45)"/><circle class="cls-75" cx="345.39" cy="588.53" r="139.04" transform="translate(-418.93 411.61) rotate(-45)"/><circle class="cls-76" cx="346.08" cy="587.67" r="139.04" transform="translate(-418.11 411.84) rotate(-45)"/><circle class="cls-77" cx="346.77" cy="586.8" r="139.04" transform="translate(-417.3 412.07) rotate(-45)"/><circle class="cls-78" cx="347.45" cy="585.93" r="139.04" transform="translate(-416.48 412.3) rotate(-45)"/><circle class="cls-79" cx="348.14" cy="585.06" r="139.04" transform="translate(-415.66 412.53) rotate(-45)"/><circle class="cls-80" cx="348.83" cy="584.19" r="139.04" transform="translate(-414.85 412.76) rotate(-45)"/><circle class="cls-81" cx="349.51" cy="583.32" r="139.04" transform="translate(-414.03 412.99) rotate(-45)"/><circle class="cls-82" cx="350.2" cy="582.45" r="139.04" transform="translate(-413.22 413.22) rotate(-45)"/><circle class="cls-83" cx="350.89" cy="581.58" r="139.04" transform="translate(-412.4 413.46) rotate(-45)"/><circle class="cls-84" cx="351.58" cy="580.71" r="139.04" transform="translate(-411.58 413.69) rotate(-45)"/><circle class="cls-85" cx="352.26" cy="579.84" r="139.04" transform="translate(-410.77 413.92) rotate(-45)"/><circle class="cls-86" cx="352.95" cy="578.97" r="139.04" transform="translate(-409.95 414.15) rotate(-45)"/><circle class="cls-87" cx="353.64" cy="578.1" r="139.04" transform="translate(-409.14 414.38) rotate(-45)"/><circle class="cls-88" cx="354.32" cy="577.23" r="139.04" transform="translate(-408.32 414.61) rotate(-45)"/><circle class="cls-89" cx="355.01" cy="576.36" r="139.04" transform="translate(-407.5 414.84) rotate(-45)"/><circle class="cls-90" cx="355.7" cy="575.49" r="139.04" transform="translate(-406.69 415.07) rotate(-45)"/><circle class="cls-91" cx="356.38" cy="574.62" r="139.04" transform="translate(-405.87 415.3) rotate(-45)"/><circle class="cls-92" cx="357.07" cy="573.75" r="139.04" transform="translate(-405.06 415.53) rotate(-45)"/><circle class="cls-93" cx="357.76" cy="572.88" r="139.04" transform="translate(-404.24 415.77) rotate(-45)"/><circle class="cls-94" cx="358.44" cy="572.01" r="139.04" transform="translate(-403.42 416) rotate(-45)"/><circle class="cls-95" cx="359.13" cy="571.14" r="139.04" transform="translate(-402.61 416.23) rotate(-45)"/><circle class="cls-96" cx="359.82" cy="570.27" r="139.04" transform="translate(-401.79 416.46) rotate(-45)"/><circle class="cls-97" cx="360.5" cy="569.4" r="139.04" transform="translate(-400.98 416.69) rotate(-45)"/><circle class="cls-98" cx="361.19" cy="568.54" r="139.04" transform="translate(-400.16 416.92) rotate(-45)"/><circle class="cls-99" cx="257.94" cy="562.67" r="139.04"/><circle class="cls-100" cx="258.63" cy="561.8" r="139.04"/><circle class="cls-101" cx="259.31" cy="560.93" r="139.04"/><circle class="cls-102" cx="260" cy="560.06" r="139.04"/><circle class="cls-103" cx="260.69" cy="559.19" r="139.04"/><circle class="cls-104" cx="261.38" cy="558.32" r="139.04"/><circle class="cls-105" cx="262.06" cy="557.45" r="139.04"/><circle class="cls-106" cx="262.75" cy="556.58" r="139.04"/><circle class="cls-107" cx="263.44" cy="555.71" r="139.04"/><circle class="cls-108" cx="264.12" cy="554.84" r="139.04"/><circle class="cls-109" cx="264.81" cy="553.97" r="139.04"/><circle class="cls-110" cx="265.5" cy="553.1" r="139.04"/><circle class="cls-111" cx="266.18" cy="552.23" r="139.04"/><circle class="cls-112" cx="266.87" cy="551.36" r="139.04"/><circle class="cls-113" cx="267.56" cy="550.49" r="139.04"/><circle class="cls-114" cx="268.24" cy="549.62" r="139.04"/><circle class="cls-115" cx="268.93" cy="548.75" r="139.04"/><circle class="cls-116" cx="269.62" cy="547.88" r="139.04"/><circle class="cls-117" cx="270.3" cy="547.01" r="139.04"/><circle class="cls-118" cx="270.99" cy="546.14" r="139.04"/><circle class="cls-119" cx="271.68" cy="545.28" r="139.04"/><circle class="cls-120" cx="272.36" cy="544.41" r="139.04"/><circle class="cls-121" cx="273.05" cy="543.54" r="139.04"/><circle class="cls-122" cx="273.74" cy="542.67" r="139.04"/><circle class="cls-123" cx="274.42" cy="541.8" r="139.04"/><circle class="cls-124" cx="275.11" cy="540.93" r="139.04"/><circle class="cls-125" cx="275.8" cy="540.06" r="139.04"/><circle class="cls-126" cx="276.48" cy="539.19" r="139.04"/><circle class="cls-127" cx="277.17" cy="538.32" r="139.04"/><circle class="cls-128" cx="277.86" cy="537.45" r="139.04"/><circle class="cls-129" cx="278.54" cy="536.58" r="139.04"/><circle class="cls-130" cx="279.23" cy="535.71" r="139.04"/><circle class="cls-131" cx="279.92" cy="534.84" r="139.04"/><circle class="cls-132" cx="280.6" cy="533.97" r="139.04"/><circle class="cls-133" cx="281.29" cy="533.1" r="139.04"/></g><circle class="cls-134" cx="281.29" cy="533.1" r="141.51"/><circle class="cls-135" cx="281.29" cy="533.1" r="139.04"/><g class="cls-4"><circle class="cls-5" cx="641.58" cy="649.4" r="139.04" transform="translate(-375.22 638.87) rotate(-45)"/><circle class="cls-6" cx="642.27" cy="648.53" r="139.04" transform="translate(-374.4 639.1) rotate(-45)"/><circle class="cls-7" cx="642.95" cy="647.66" r="139.04" transform="translate(-373.58 639.33) rotate(-45)"/><circle class="cls-8" cx="643.64" cy="646.79" r="139.04" transform="translate(-372.77 639.56) rotate(-45)"/><circle class="cls-9" cx="644.33" cy="645.92" r="139.04" transform="translate(-371.95 639.8) rotate(-45)"/><circle class="cls-10" cx="645.02" cy="645.05" r="139.04" transform="translate(-371.14 640.03) rotate(-45)"/><circle class="cls-11" cx="645.7" cy="644.18" r="139.04" transform="translate(-370.32 640.26) rotate(-45)"/><circle class="cls-12" cx="646.39" cy="643.31" r="139.04" transform="translate(-369.5 640.49) rotate(-45)"/><circle class="cls-13" cx="647.08" cy="642.45" r="139.04" transform="translate(-368.69 640.72) rotate(-45)"/><circle class="cls-14" cx="647.76" cy="641.58" r="139.04" transform="translate(-367.87 640.95) rotate(-45)"/><circle class="cls-15" cx="648.45" cy="640.71" r="139.04" transform="translate(-367.06 641.18) rotate(-45)"/><circle class="cls-16" cx="649.14" cy="639.84" r="139.04" transform="translate(-366.24 641.41) rotate(-45)"/><circle class="cls-17" cx="649.82" cy="638.97" r="139.04" transform="translate(-365.42 641.64) rotate(-45)"/><circle class="cls-18" cx="650.51" cy="638.1" r="139.04" transform="translate(-364.61 641.87) rotate(-45)"/><circle class="cls-19" cx="651.2" cy="637.23" r="139.04" transform="translate(-363.79 642.1) rotate(-45)"/><circle class="cls-20" cx="651.88" cy="636.36" r="139.04" transform="translate(-362.98 642.34) rotate(-45)"/><circle class="cls-21" cx="652.57" cy="635.49" r="139.04" transform="translate(-362.16 642.57) rotate(-45)"/><circle class="cls-22" cx="653.26" cy="634.62" r="139.04" transform="translate(-361.34 642.8) rotate(-45)"/><circle class="cls-23" cx="653.94" cy="633.75" r="139.04" transform="translate(-360.53 643.03) rotate(-45)"/><circle class="cls-24" cx="654.63" cy="632.88" r="139.04" transform="translate(-359.71 643.26) rotate(-45)"/><circle class="cls-25" cx="655.32" cy="632.01" r="139.04" transform="translate(-358.9 643.49) rotate(-45)"/><circle class="cls-26" cx="656" cy="631.14" r="139.04" transform="translate(-358.08 643.72) rotate(-45)"/><circle class="cls-27" cx="656.69" cy="630.27" r="139.04" transform="translate(-357.26 643.95) rotate(-45)"/><circle class="cls-28" cx="657.38" cy="629.4" r="139.04" transform="translate(-356.45 644.18) rotate(-45)"/><circle class="cls-29" cx="658.06" cy="628.53" r="139.04" transform="translate(-355.63 644.41) rotate(-45)"/><circle class="cls-30" cx="658.75" cy="627.66" r="139.04" transform="translate(-354.82 644.65) rotate(-45)"/><circle class="cls-31" cx="659.44" cy="626.79" r="139.04" transform="translate(-354 644.88) rotate(-45)"/><circle class="cls-32" cx="660.12" cy="625.92" r="139.04" transform="translate(-353.18 645.11) rotate(-45)"/><circle class="cls-33" cx="660.81" cy="625.05" r="139.04" transform="translate(-352.37 645.34) rotate(-45)"/><circle class="cls-34" cx="661.5" cy="624.19" r="139.04" transform="translate(-351.55 645.57) rotate(-45)"/><circle class="cls-35" cx="662.18" cy="623.32" r="139.04" transform="translate(-350.74 645.8) rotate(-45)"/><circle class="cls-36" cx="662.87" cy="622.45" r="139.04" transform="translate(-349.92 646.03) rotate(-45)"/><circle class="cls-37" cx="663.56" cy="621.58" r="139.04" transform="translate(-349.1 646.26) rotate(-45)"/><circle class="cls-38" cx="664.24" cy="620.71" r="139.04" transform="translate(-348.29 646.49) rotate(-45)"/><circle class="cls-39" cx="664.93" cy="619.84" r="139.04" transform="translate(-347.47 646.72) rotate(-45)"/><circle class="cls-40" cx="665.62" cy="618.97" r="139.04" transform="translate(-346.66 646.95) rotate(-45)"/><circle class="cls-41" cx="666.3" cy="618.1" r="139.04" transform="translate(-345.84 647.19) rotate(-45)"/><circle class="cls-42" cx="666.99" cy="617.23" r="139.04" transform="translate(-345.02 647.42) rotate(-45)"/><circle class="cls-43" cx="667.68" cy="616.36" r="139.04" transform="translate(-344.21 647.65) rotate(-45)"/><circle class="cls-44" cx="668.37" cy="615.49" r="139.04" transform="translate(-343.39 647.88) rotate(-45)"/><circle class="cls-45" cx="669.05" cy="614.62" r="139.04" transform="translate(-342.58 648.11) rotate(-45)"/><circle class="cls-46" cx="669.74" cy="613.75" r="139.04" transform="translate(-341.76 648.34) rotate(-45)"/><circle class="cls-47" cx="670.43" cy="612.88" r="139.04" transform="translate(-340.94 648.57) rotate(-45)"/><circle class="cls-48" cx="671.11" cy="612.01" r="139.04" transform="translate(-340.13 648.8) rotate(-45)"/><circle class="cls-49" cx="671.8" cy="611.14" r="139.04" transform="translate(-339.31 649.03) rotate(-45)"/><circle class="cls-50" cx="672.49" cy="610.27" r="139.04" transform="translate(-338.5 649.26) rotate(-45)"/><circle class="cls-51" cx="673.17" cy="609.4" r="139.04" transform="translate(-337.68 649.49) rotate(-45)"/><circle class="cls-52" cx="673.86" cy="608.53" r="139.04" transform="translate(-336.86 649.73) rotate(-45)"/><circle class="cls-53" cx="674.55" cy="607.66" r="139.04" transform="translate(-336.05 649.96) rotate(-45)"/><circle class="cls-54" cx="675.23" cy="606.79" r="139.04" transform="translate(-335.23 650.19) rotate(-45)"/><circle class="cls-55" cx="675.92" cy="605.93" r="139.04" transform="translate(-334.42 650.42) rotate(-45)"/><circle class="cls-56" cx="676.61" cy="605.06" r="139.04" transform="translate(-333.6 650.65) rotate(-45)"/><circle class="cls-57" cx="677.29" cy="604.19" r="139.04" transform="translate(-332.78 650.88) rotate(-45)"/><circle class="cls-58" cx="677.98" cy="603.32" r="139.04" transform="translate(-331.97 651.11) rotate(-45)"/><circle class="cls-59" cx="678.67" cy="602.45" r="139.04" transform="translate(-331.15 651.34) rotate(-45)"/><circle class="cls-60" cx="679.35" cy="601.58" r="139.04" transform="translate(-330.34 651.57) rotate(-45)"/><circle class="cls-61" cx="680.04" cy="600.71" r="139.04" transform="translate(-329.52 651.8) rotate(-45)"/><circle class="cls-62" cx="680.73" cy="599.84" r="139.04" transform="translate(-328.7 652.04) rotate(-45)"/><circle class="cls-63" cx="681.41" cy="598.97" r="139.04" transform="translate(-327.89 652.27) rotate(-45)"/><circle class="cls-64" cx="682.1" cy="598.1" r="139.04" transform="translate(-327.07 652.5) rotate(-45)"/><circle class="cls-65" cx="682.79" cy="597.23" r="139.04" transform="translate(-326.26 652.73) rotate(-45)"/><circle class="cls-66" cx="683.47" cy="596.36" r="139.04" transform="translate(-325.44 652.96) rotate(-45)"/><circle class="cls-67" cx="684.16" cy="595.49" r="139.04" transform="translate(-324.62 653.19) rotate(-45)"/><circle class="cls-68" cx="684.85" cy="594.62" r="139.04" transform="translate(-323.81 653.42) rotate(-45)"/><circle class="cls-69" cx="685.53" cy="593.75" r="139.04" transform="translate(-322.99 653.65) rotate(-45)"/><circle class="cls-70" cx="686.22" cy="592.88" r="139.04" transform="translate(-322.18 653.88) rotate(-45)"/><circle class="cls-71" cx="686.91" cy="592.01" r="139.04" transform="translate(-321.36 654.11) rotate(-45)"/><circle class="cls-72" cx="687.59" cy="591.14" r="139.04" transform="translate(-320.54 654.34) rotate(-45)"/><circle class="cls-73" cx="688.28" cy="590.27" r="139.04" transform="translate(-319.73 654.58) rotate(-45)"/><circle class="cls-74" cx="688.97" cy="589.4" r="139.04" transform="translate(-318.91 654.81) rotate(-45)"/><circle class="cls-75" cx="689.65" cy="588.53" r="139.04" transform="translate(-318.1 655.04) rotate(-45)"/><circle class="cls-76" cx="690.34" cy="587.67" r="139.05" transform="translate(-317.28 655.27) rotate(-45)"/><circle class="cls-77" cx="691.03" cy="586.8" r="139.05" transform="translate(-316.46 655.5) rotate(-45)"/><circle class="cls-78" cx="691.72" cy="585.93" r="139.05" transform="translate(-315.65 655.73) rotate(-45)"/><circle class="cls-79" cx="692.4" cy="585.06" r="139.05" transform="translate(-314.83 655.96) rotate(-45)"/><circle class="cls-80" cx="693.09" cy="584.19" r="139.05" transform="translate(-314.02 656.19) rotate(-45)"/><circle class="cls-81" cx="693.78" cy="583.32" r="139.05" transform="translate(-313.2 656.42) rotate(-45)"/><circle class="cls-82" cx="694.46" cy="582.45" r="139.05" transform="translate(-312.38 656.65) rotate(-45)"/><circle class="cls-83" cx="695.15" cy="581.58" r="139.05" transform="translate(-311.57 656.88) rotate(-45)"/><circle class="cls-84" cx="695.84" cy="580.71" r="139.05" transform="translate(-310.75 657.12) rotate(-45)"/><circle class="cls-85" cx="696.52" cy="579.84" r="139.05" transform="translate(-309.94 657.35) rotate(-45)"/><circle class="cls-86" cx="697.21" cy="578.97" r="139.05" transform="translate(-309.12 657.58) rotate(-45)"/><circle class="cls-87" cx="697.9" cy="578.1" r="139.05" transform="translate(-308.3 657.81) rotate(-45)"/><circle class="cls-88" cx="698.58" cy="577.23" r="139.05" transform="translate(-307.49 658.04) rotate(-45)"/><circle class="cls-89" cx="699.27" cy="576.36" r="139.05" transform="translate(-306.67 658.27) rotate(-45)"/><circle class="cls-90" cx="699.96" cy="575.49" r="139.05" transform="translate(-305.86 658.5) rotate(-45)"/><circle class="cls-91" cx="700.64" cy="574.62" r="139.05" transform="translate(-305.04 658.73) rotate(-45)"/><circle class="cls-92" cx="701.33" cy="573.75" r="139.05" transform="translate(-304.22 658.96) rotate(-45)"/><circle class="cls-93" cx="702.02" cy="572.88" r="139.05" transform="translate(-303.41 659.19) rotate(-45)"/><circle class="cls-94" cx="702.7" cy="572.01" r="139.05" transform="translate(-302.59 659.43) rotate(-45)"/><circle class="cls-95" cx="703.39" cy="571.14" r="139.05" transform="translate(-301.78 659.66) rotate(-45)"/><circle class="cls-96" cx="704.08" cy="570.27" r="139.05" transform="translate(-300.96 659.89) rotate(-45)"/><circle class="cls-97" cx="704.76" cy="569.4" r="139.05" transform="translate(-300.14 660.12) rotate(-45)"/><circle class="cls-98" cx="705.45" cy="568.54" r="139.05" transform="translate(-299.33 660.35) rotate(-45)"/><circle class="cls-99" cx="602.2" cy="562.67" r="139.05"/><circle class="cls-100" cx="602.89" cy="561.8" r="139.05"/><circle class="cls-101" cx="603.58" cy="560.93" r="139.05"/><circle class="cls-102" cx="604.26" cy="560.06" r="139.05"/><circle class="cls-103" cx="604.95" cy="559.19" r="139.05"/><circle class="cls-104" cx="605.64" cy="558.32" r="139.05"/><circle class="cls-105" cx="606.32" cy="557.45" r="139.05"/><circle class="cls-106" cx="607.01" cy="556.58" r="139.05"/><circle class="cls-107" cx="607.7" cy="555.71" r="139.05"/><circle class="cls-108" cx="608.38" cy="554.84" r="139.05"/><circle class="cls-109" cx="609.07" cy="553.97" r="139.05"/><circle class="cls-110" cx="609.76" cy="553.1" r="139.05"/><circle class="cls-111" cx="610.44" cy="552.23" r="139.05"/><circle class="cls-112" cx="611.13" cy="551.36" r="139.05"/><circle class="cls-113" cx="611.82" cy="550.49" r="139.05"/><circle class="cls-114" cx="612.5" cy="549.62" r="139.05"/><circle class="cls-115" cx="613.19" cy="548.75" r="139.05"/><circle class="cls-116" cx="613.88" cy="547.88" r="139.05"/><circle class="cls-117" cx="614.56" cy="547.01" r="139.05"/><circle class="cls-118" cx="615.25" cy="546.14" r="139.05"/><circle class="cls-119" cx="615.94" cy="545.28" r="139.05"/><circle class="cls-120" cx="616.62" cy="544.41" r="139.05"/><circle class="cls-121" cx="617.31" cy="543.54" r="139.05"/><circle class="cls-122" cx="618" cy="542.67" r="139.05"/><circle class="cls-123" cx="618.68" cy="541.8" r="139.05"/><circle class="cls-124" cx="619.37" cy="540.93" r="139.05"/><circle class="cls-125" cx="620.06" cy="540.06" r="139.05"/><circle class="cls-126" cx="620.74" cy="539.19" r="139.05"/><circle class="cls-127" cx="621.43" cy="538.32" r="139.05"/><circle class="cls-128" cx="622.12" cy="537.45" r="139.05"/><circle class="cls-129" cx="622.8" cy="536.58" r="139.05"/><circle class="cls-130" cx="623.49" cy="535.71" r="139.05"/><circle class="cls-131" cx="624.18" cy="534.84" r="139.05"/><circle class="cls-132" cx="624.87" cy="533.97" r="139.05"/><circle class="cls-133" cx="625.55" cy="533.1" r="139.05"/></g><circle class="cls-136" cx="625.55" cy="533.1" r="141.51"/><circle class="cls-137" cx="625.55" cy="533.1" r="139.05"/><g class="cls-4"><path class="cls-5" d="M764.48,49.19H251.74a95.33,95.33,0,1,0,0,190.65H764.48a95.33,95.33,0,1,0,0-190.65Z" transform="translate(-103.94 -5)"/><path class="cls-138" d="M252.34,239.23a95.26,95.26,0,0,1,0-190.52H765.08a95.26,95.26,0,1,1,0,190.52Z" transform="translate(-103.94 -5)"/><path class="cls-139" d="M252.94,238.62a95.2,95.2,0,0,1,0-190.4H765.68a95.2,95.2,0,1,1,0,190.4Z" transform="translate(-103.94 -5)"/><path class="cls-140" d="M253.54,238a95.13,95.13,0,0,1,0-190.26H766.28a95.13,95.13,0,1,1,0,190.26Z" transform="translate(-103.94 -5)"/><path class="cls-141" d="M254.14,237.39a95.07,95.07,0,0,1,0-190.13H766.88a95.07,95.07,0,1,1,0,190.13Z" transform="translate(-103.94 -5)"/><path class="cls-142" d="M254.74,236.78a95,95,0,0,1,0-190H767.48a95,95,0,0,1,0,190Z" transform="translate(-103.94 -5)"/><path class="cls-143" d="M255.34,236.16a94.93,94.93,0,0,1,0-189.86H768.08a94.93,94.93,0,0,1,0,189.86Z" transform="translate(-103.94 -5)"/><path class="cls-144" d="M255.94,235.55a94.87,94.87,0,0,1,0-189.73H768.68a94.87,94.87,0,1,1,0,189.73Z" transform="translate(-103.94 -5)"/><path class="cls-145" d="M256.54,234.93a94.8,94.8,0,1,1,0-189.59H769.28a94.8,94.8,0,1,1,0,189.59Z" transform="translate(-103.94 -5)"/><path class="cls-146" d="M257.14,234.32a94.73,94.73,0,0,1,0-189.46H769.88a94.73,94.73,0,1,1,0,189.46Z" transform="translate(-103.94 -5)"/><path class="cls-147" d="M257.74,233.71a94.67,94.67,0,0,1,0-189.34H770.48a94.67,94.67,0,0,1,0,189.34Z" transform="translate(-103.94 -5)"/><path class="cls-148" d="M258.34,233.09a94.6,94.6,0,1,1,0-189.2H771.08a94.6,94.6,0,0,1,0,189.2Z" transform="translate(-103.94 -5)"/><path class="cls-149" d="M258.94,232.48a94.54,94.54,0,0,1,0-189.07H771.68a94.54,94.54,0,1,1,0,189.07Z" transform="translate(-103.94 -5)"/><path class="cls-150" d="M259.54,231.87a94.47,94.47,0,0,1,0-188.94H772.28a94.47,94.47,0,1,1,0,188.94Z" transform="translate(-103.94 -5)"/><path class="cls-151" d="M260.14,231.25a94.4,94.4,0,0,1,0-188.8H772.88a94.4,94.4,0,1,1,0,188.8Z" transform="translate(-103.94 -5)"/><path class="cls-152" d="M260.74,230.64a94.34,94.34,0,0,1,0-188.67H773.48a94.34,94.34,0,1,1,0,188.67Z" transform="translate(-103.94 -5)"/><path class="cls-153" d="M261.34,230a94.27,94.27,0,1,1,0-188.54H774.08a94.27,94.27,0,0,1,0,188.54Z" transform="translate(-103.94 -5)"/><path class="cls-154" d="M261.94,229.41a94.2,94.2,0,1,1,0-188.4H774.68a94.2,94.2,0,1,1,0,188.4Z" transform="translate(-103.94 -5)"/><path class="cls-155" d="M262.54,228.8a94.14,94.14,0,0,1,0-188.28H775.28a94.14,94.14,0,0,1,0,188.28Z" transform="translate(-103.94 -5)"/><path class="cls-156" d="M263.14,228.19a94.08,94.08,0,0,1,0-188.15H775.88a94.08,94.08,0,1,1,0,188.15Z" transform="translate(-103.94 -5)"/><path class="cls-157" d="M263.74,227.57a94,94,0,0,1,0-188H776.48a94,94,0,1,1,0,188Z" transform="translate(-103.94 -5)"/><path class="cls-158" d="M264.34,227a93.94,93.94,0,1,1,0-187.88H777.08a93.94,93.94,0,0,1,0,187.88Z" transform="translate(-103.94 -5)"/><path class="cls-159" d="M264.94,226.35a93.88,93.88,0,0,1,0-187.75H777.68a93.88,93.88,0,1,1,0,187.75Z" transform="translate(-103.94 -5)"/><path class="cls-160" d="M265.54,225.73a93.81,93.81,0,0,1,0-187.61H778.28a93.81,93.81,0,1,1,0,187.61Z" transform="translate(-103.94 -5)"/><path class="cls-161" d="M266.14,225.12a93.74,93.74,0,1,1,0-187.48H778.88a93.74,93.74,0,1,1,0,187.48Z" transform="translate(-103.94 -5)"/><path class="cls-162" d="M266.74,224.5a93.67,93.67,0,0,1,0-187.34H779.48a93.67,93.67,0,1,1,0,187.34Z" transform="translate(-103.94 -5)"/><path class="cls-163" d="M267.34,223.89a93.61,93.61,0,1,1,0-187.22H780.08a93.61,93.61,0,1,1,0,187.22Z" transform="translate(-103.94 -5)"/><path class="cls-164" d="M267.94,223.28a93.55,93.55,0,0,1,0-187.09H780.68a93.55,93.55,0,1,1,0,187.09Z" transform="translate(-103.94 -5)"/><path class="cls-165" d="M268.54,222.66a93.48,93.48,0,0,1,0-186.95H781.28a93.48,93.48,0,1,1,0,187Z" transform="translate(-103.94 -5)"/><path class="cls-166" d="M269.14,222.05a93.41,93.41,0,0,1,0-186.82H781.88a93.41,93.41,0,0,1,0,186.82Z" transform="translate(-103.94 -5)"/><path class="cls-167" d="M269.74,221.44a93.35,93.35,0,0,1,0-186.69H782.48a93.35,93.35,0,1,1,0,186.69Z" transform="translate(-103.94 -5)"/><path class="cls-168" d="M270.34,220.82a93.28,93.28,0,0,1,0-186.55H783.08a93.28,93.28,0,1,1,0,186.55Z" transform="translate(-103.94 -5)"/><path class="cls-169" d="M270.94,220.21a93.21,93.21,0,0,1,0-186.42H783.68a93.21,93.21,0,1,1,0,186.42Z" transform="translate(-103.94 -5)"/><path class="cls-170" d="M271.54,219.6a93.15,93.15,0,0,1,0-186.29H784.28a93.15,93.15,0,1,1,0,186.29Z" transform="translate(-103.94 -5)"/><path class="cls-171" d="M272.14,219a93.08,93.08,0,1,1,0-186.16H784.88a93.08,93.08,0,1,1,0,186.16Z" transform="translate(-103.94 -5)"/><path class="cls-172" d="M272.74,218.37a93,93,0,0,1,0-186H785.48a93,93,0,1,1,0,186Z" transform="translate(-103.94 -5)"/><path class="cls-173" d="M273.34,217.76a93,93,0,0,1,0-185.9H786.08a92.95,92.95,0,0,1,0,185.9Z" transform="translate(-103.94 -5)"/><path class="cls-174" d="M273.94,217.14a92.88,92.88,0,0,1,0-185.76H786.68a92.88,92.88,0,1,1,0,185.76Z" transform="translate(-103.94 -5)"/><path class="cls-175" d="M274.54,216.53a92.82,92.82,0,0,1,0-185.63H787.28a92.82,92.82,0,1,1,0,185.63Z" transform="translate(-103.94 -5)"/><path class="cls-176" d="M275.14,215.91a92.75,92.75,0,1,1,0-185.49H787.89a92.75,92.75,0,0,1,0,185.49Z" transform="translate(-103.94 -5)"/><path class="cls-177" d="M275.74,215.3a92.68,92.68,0,0,1,0-185.36H788.49a92.68,92.68,0,0,1,0,185.36Z" transform="translate(-103.94 -5)"/><path class="cls-178" d="M276.34,214.69a92.62,92.62,0,0,1,0-185.23H789.09a92.62,92.62,0,0,1,0,185.23Z" transform="translate(-103.94 -5)"/><path class="cls-179" d="M276.94,214.07a92.55,92.55,0,0,1,0-185.1H789.69a92.55,92.55,0,0,1,0,185.1Z" transform="translate(-103.94 -5)"/><path class="cls-180" d="M277.54,213.46a92.49,92.49,0,0,1,0-185H790.29a92.49,92.49,0,0,1,0,185Z" transform="translate(-103.94 -5)"/><path class="cls-181" d="M278.14,212.85a92.42,92.42,0,0,1,0-184.84H790.89a92.42,92.42,0,0,1,0,184.84Z" transform="translate(-103.94 -5)"/><path class="cls-182" d="M278.74,212.23a92.35,92.35,0,0,1,0-184.7H791.49a92.35,92.35,0,1,1,0,184.7Z" transform="translate(-103.94 -5)"/><path class="cls-183" d="M279.34,211.62a92.29,92.29,0,0,1,0-184.57H792.09a92.29,92.29,0,0,1,0,184.57Z" transform="translate(-103.94 -5)"/><path class="cls-184" d="M279.94,211a92.22,92.22,0,0,1,0-184.44H792.69a92.22,92.22,0,0,1,0,184.44Z" transform="translate(-103.94 -5)"/><path class="cls-185" d="M280.54,210.39a92.15,92.15,0,0,1,0-184.3H793.29a92.15,92.15,0,1,1,0,184.3Z" transform="translate(-103.94 -5)"/><path class="cls-186" d="M281.14,209.78a92.09,92.09,0,0,1,0-184.17H793.89a92.09,92.09,0,0,1,0,184.17Z" transform="translate(-103.94 -5)"/><path class="cls-187" d="M281.74,209.17a92,92,0,0,1,0-184H794.49a92,92,0,0,1,0,184Z" transform="translate(-103.94 -5)"/><path class="cls-188" d="M282.34,208.55a92,92,0,0,1,0-183.91H795.09a92,92,0,0,1,0,183.91Z" transform="translate(-103.94 -5)"/><path class="cls-189" d="M282.94,207.94a91.89,91.89,0,0,1,0-183.78H795.69a91.89,91.89,0,0,1,0,183.78Z" transform="translate(-103.94 -5)"/><path class="cls-190" d="M283.54,207.33a91.83,91.83,0,0,1,0-183.65H796.29a91.83,91.83,0,0,1,0,183.65Z" transform="translate(-103.94 -5)"/><path class="cls-191" d="M284.14,206.71a91.76,91.76,0,0,1,0-183.51H796.89a91.76,91.76,0,0,1,0,183.51Z" transform="translate(-103.94 -5)"/><path class="cls-192" d="M284.74,206.1a91.69,91.69,0,0,1,0-183.38H797.49a91.69,91.69,0,0,1,0,183.38Z" transform="translate(-103.94 -5)"/><path class="cls-193" d="M285.34,205.48a91.62,91.62,0,1,1,0-183.24H798.09a91.62,91.62,0,1,1,0,183.24Z" transform="translate(-103.94 -5)"/><path class="cls-194" d="M285.94,204.87a91.56,91.56,0,0,1,0-183.11H798.69a91.56,91.56,0,0,1,0,183.11Z" transform="translate(-103.94 -5)"/><path class="cls-195" d="M286.54,204.26a91.5,91.5,0,0,1,0-183H799.29a91.5,91.5,0,0,1,0,183Z" transform="translate(-103.94 -5)"/><path class="cls-196" d="M287.14,203.64a91.43,91.43,0,0,1,0-182.85H799.89a91.43,91.43,0,0,1,0,182.85Z" transform="translate(-103.94 -5)"/><path class="cls-197" d="M287.74,203a91.36,91.36,0,0,1,0-182.72H800.49a91.36,91.36,0,1,1,0,182.72Z" transform="translate(-103.94 -5)"/><path class="cls-198" d="M288.34,202.42a91.3,91.3,0,0,1,0-182.59H801.09a91.3,91.3,0,0,1,0,182.59Z" transform="translate(-103.94 -5)"/><path class="cls-199" d="M288.94,201.8a91.23,91.23,0,0,1,0-182.45H801.69a91.23,91.23,0,0,1,0,182.45Z" transform="translate(-103.94 -5)"/><path class="cls-200" d="M289.54,201.19a91.16,91.16,0,0,1,0-182.32H802.29a91.16,91.16,0,1,1,0,182.32Z" transform="translate(-103.94 -5)"/><path class="cls-201" d="M290.14,200.58a91.1,91.1,0,0,1,0-182.19H802.89a91.1,91.1,0,0,1,0,182.19Z" transform="translate(-103.94 -5)"/><path class="cls-202" d="M290.74,200a91,91,0,0,1,0-182H803.49a91,91,0,0,1,0,182.05Z" transform="translate(-103.94 -5)"/><path class="cls-203" d="M291.34,199.35a91,91,0,0,1,0-181.93H804.09a91,91,0,0,1,0,181.93Z" transform="translate(-103.94 -5)"/><path class="cls-204" d="M291.94,198.74a90.9,90.9,0,0,1,0-181.8H804.69a90.9,90.9,0,0,1,0,181.8Z" transform="translate(-103.94 -5)"/><path class="cls-205" d="M292.54,198.12a90.83,90.83,0,0,1,0-181.66H805.29a90.83,90.83,0,1,1,0,181.66Z" transform="translate(-103.94 -5)"/><path class="cls-206" d="M293.14,197.51a90.77,90.77,0,0,1,0-181.53H805.89a90.77,90.77,0,0,1,0,181.53Z" transform="translate(-103.94 -5)"/><path class="cls-207" d="M293.75,196.9a90.7,90.7,0,0,1,0-181.4H806.49a90.7,90.7,0,0,1,0,181.4Z" transform="translate(-103.94 -5)"/><path class="cls-208" d="M294.35,196.28a90.63,90.63,0,1,1,0-181.26H807.09a90.63,90.63,0,0,1,0,181.26Z" transform="translate(-103.94 -5)"/><path class="cls-209" d="M295,195.67a90.57,90.57,0,1,1,0-181.13H807.69a90.57,90.57,0,0,1,0,181.13Z" transform="translate(-103.94 -5)"/><path class="cls-210" d="M295.55,195.05a90.5,90.5,0,1,1,0-181H808.29a90.5,90.5,0,1,1,0,181Z" transform="translate(-103.94 -5)"/><path class="cls-211" d="M296.15,194.44a90.44,90.44,0,1,1,0-180.87H808.89a90.44,90.44,0,0,1,0,180.87Z" transform="translate(-103.94 -5)"/><path class="cls-212" d="M296.75,193.83a90.37,90.37,0,0,1,0-180.74H809.49a90.37,90.37,0,0,1,0,180.74Z" transform="translate(-103.94 -5)"/><path class="cls-213" d="M297.35,193.21a90.3,90.3,0,1,1,0-180.6H810.09a90.3,90.3,0,0,1,0,180.6Z" transform="translate(-103.94 -5)"/><path class="cls-214" d="M298,192.6a90.24,90.24,0,1,1,0-180.47H810.69a90.24,90.24,0,0,1,0,180.47Z" transform="translate(-103.94 -5)"/></g><path class="cls-215" d="M298,199.73A97.37,97.37,0,1,1,298,5H810.69a97.37,97.37,0,0,1,0,194.73Z" transform="translate(-103.94 -5)"/><path class="cls-216" d="M810.69,7H298a95.33,95.33,0,1,0,0,190.65H810.69A95.33,95.33,0,0,0,810.69,7Z" transform="translate(-103.94 -5)"/><rect class="cls-217" x="236.76" y="152.86" width="437.13" height="4.95"/><text class="cls-218" transform="translate(239.09 531.23)">Anna<tspan x="-37.03" y="42">University</tspan></text><text class="cls-219" transform="translate(166.95 71.5)">We Bring Academy, Industry <tspan x="58.04" y="52.8">&amp; Technology Together</tspan></text><text class="cls-218" transform="translate(505.12 531.23)">DeepSphere.AI,<tspan x="96.06" y="42">Inc.</tspan></text><rect class="cls-220" y="785.38" width="430" height="248.04"/><rect class="cls-221" x="480.65" y="785.38" width="430" height="248.04"/><text class="cls-222" transform="translate(97.1 876.48)">Academy<tspan x="0" y="50">Research</tspan><tspan x="0" y="100">Innovation</tspan></text><text class="cls-222" transform="translate(578.45 877.48)">Industry<tspan x="0" y="50">Technology</tspan><tspan x="0" y="100">Implementation</tspan></text><path class="cls-223" d="M187.24,855.92l.62.88a47.83,47.83,0,0,0-8.37,8.72,59.34,59.34,0,0,0-7,11l-1.3.88a22.8,22.8,0,0,0-2.2,1.67c-.15-.55-.49-1.45-1-2.71l-.5-1.14a17.3,17.3,0,0,0-2-3.64,4.42,4.42,0,0,0-2-1.56q1.91-2,3.48-2,1.37,0,3,3.68l.55,1.23a51.15,51.15,0,0,1,7.62-9.74A43.16,43.16,0,0,1,187.24,855.92Z" transform="translate(-103.94 -5)"/><path class="cls-223" d="M187.24,907.92l.62.88a47.83,47.83,0,0,0-8.37,8.72,59.34,59.34,0,0,0-7,11l-1.3.88a22.8,22.8,0,0,0-2.2,1.67c-.15-.55-.49-1.45-1-2.71l-.5-1.14a17.3,17.3,0,0,0-2-3.64,4.42,4.42,0,0,0-2-1.56q1.91-2,3.48-2,1.37,0,3,3.68l.55,1.23a51.15,51.15,0,0,1,7.62-9.74A43.16,43.16,0,0,1,187.24,907.92Z" transform="translate(-103.94 -5)"/><path class="cls-223" d="M187.24,959.92l.62.88a47.83,47.83,0,0,0-8.37,8.72,59.34,59.34,0,0,0-7,11l-1.3.88a22.8,22.8,0,0,0-2.2,1.67c-.15-.55-.49-1.45-1-2.71l-.5-1.14a17.3,17.3,0,0,0-2-3.64,4.42,4.42,0,0,0-2-1.56q1.91-2,3.48-2,1.37,0,3,3.68l.55,1.23a51.15,51.15,0,0,1,7.62-9.74A43.16,43.16,0,0,1,187.24,959.92Z" transform="translate(-103.94 -5)"/><path class="cls-223" d="M665.71,855.92l.62.88a47.83,47.83,0,0,0-8.37,8.72,59.87,59.87,0,0,0-7,11l-1.3.88a22.8,22.8,0,0,0-2.2,1.67,26.3,26.3,0,0,0-1-2.71l-.49-1.14a17.77,17.77,0,0,0-2-3.64,4.42,4.42,0,0,0-2-1.56q1.89-2,3.48-2,1.35,0,3,3.68l.55,1.23a50.82,50.82,0,0,1,7.63-9.74A42.87,42.87,0,0,1,665.71,855.92Z" transform="translate(-103.94 -5)"/><path class="cls-223" d="M665.71,907.92l.62.88a47.83,47.83,0,0,0-8.37,8.72,59.87,59.87,0,0,0-7,11l-1.3.88a22.8,22.8,0,0,0-2.2,1.67,26.3,26.3,0,0,0-1-2.71l-.49-1.14a17.77,17.77,0,0,0-2-3.64,4.42,4.42,0,0,0-2-1.56q1.89-2,3.48-2,1.35,0,3,3.68l.55,1.23a50.82,50.82,0,0,1,7.63-9.74A42.87,42.87,0,0,1,665.71,907.92Z" transform="translate(-103.94 -5)"/><path class="cls-223" d="M665.71,959.92l.62.88a47.83,47.83,0,0,0-8.37,8.72,59.87,59.87,0,0,0-7,11l-1.3.88a22.8,22.8,0,0,0-2.2,1.67,26.3,26.3,0,0,0-1-2.71l-.49-1.14a17.77,17.77,0,0,0-2-3.64,4.42,4.42,0,0,0-2-1.56q1.89-2,3.48-2,1.35,0,3,3.68l.55,1.23a50.82,50.82,0,0,1,7.63-9.74A42.87,42.87,0,0,1,665.71,959.92Z" transform="translate(-103.94 -5)"/></g></g></svg>