<svg id="Layer_1" data-name="Layer 1" xmlns="http://www.w3.org/2000/svg" viewBox="0 0 335.79 177.29"><defs><style>.cls-1{fill:#2e75b6;}.cls-1,.cls-3,.cls-5{fill-rule:evenodd;}.cls-2,.cls-4{fill:#fff;}.cls-3{fill:#0c9;}.cls-4{font-size:26.3px;font-family:AquilineBookBoldSWFTE, Aquiline Book;}.cls-5{fill:#00ac7f;}</style></defs><title>DeepSphere-AI-Inc</title><polygon class="cls-1" points="80.82 34.09 335.79 34.09 335.79 76.96 80.82 76.96 80.82 34.09 80.82 34.09"/><path class="cls-2" d="M108,58.08a5.68,5.68,0,0,1-1.77,4.21,6,6,0,1,1,0-8.43A5.7,5.7,0,0,1,108,58.08Zm-1.09,0a4.65,4.65,0,0,0-1.45-3.45,5,5,0,0,0-7,0,4.84,4.84,0,0,0,0,6.89,5,5,0,0,0,7,0A4.65,4.65,0,0,0,106.94,58.08Z" transform="translate(-1 -1)"/><polygon class="cls-1" points="81.79 84.75 335.79 84.75 335.79 127.61 81.79 127.61 81.79 84.75 81.79 84.75"/><path class="cls-2" d="M108.4,108.3a5.7,5.7,0,0,1-1.77,4.21,5.79,5.79,0,0,1-4.25,1.75,5.86,5.86,0,0,1-4.28-1.75,5.93,5.93,0,0,1,0-8.43,6.07,6.07,0,0,1,8.53,0A5.7,5.7,0,0,1,108.4,108.3Zm-1.09,0a4.65,4.65,0,0,0-1.45-3.45,5,5,0,0,0-7,0,4.84,4.84,0,0,0,0,6.89,5,5,0,0,0,7,0A4.68,4.68,0,0,0,107.31,108.3Z" transform="translate(-1 -1)"/><polygon class="cls-1" points="81.79 134.43 335.79 134.43 335.79 177.29 81.79 177.29 81.79 134.43 81.79 134.43"/><path class="cls-2" d="M108.71,158.67a5.71,5.71,0,0,1-1.77,4.21,6.06,6.06,0,0,1-8.53,0,5.92,5.92,0,0,1,0-8.42,6.06,6.06,0,0,1,8.53,0A5.72,5.72,0,0,1,108.71,158.67Zm-1.1,0a4.68,4.68,0,0,0-1.44-3.46,5,5,0,0,0-7,0,4.84,4.84,0,0,0,0,6.89,5,5,0,0,0,7,0A4.67,4.67,0,0,0,107.61,158.67Z" transform="translate(-1 -1)"/><polygon class="cls-3" points="21.18 134.43 84.5 134.43 84.5 177.29 21.18 177.29 21.18 134.43 21.18 134.43"/><polygon class="cls-3" points="21.18 84.75 83.53 84.75 83.53 127.61 21.18 127.61 21.18 84.75 21.18 84.75"/><polygon class="cls-3" points="21.18 34.09 83.53 34.09 83.53 76.96 21.18 76.96 21.18 34.09 21.18 34.09"/><text class="cls-4" transform="translate(122.33 65.32)">Industry</text><text class="cls-4" transform="translate(122.7 115.54)">Technology</text><text class="cls-4" transform="translate(123.01 165.91)">Implementation</text><path class="cls-5" d="M8.06,178.29v-.88H22.19v.88Zm0-1.76v-1.77H22.19v1.77Zm0-2.65V15.13H1L15.13,1,29.25,15.13H22.19V173.88Z" transform="translate(-1 -1)"/></svg>