<svg id="Layer_1" data-name="Layer 1" xmlns="http://www.w3.org/2000/svg" viewBox="0 0 920 377.84"><defs><style>.cls-1{fill:#333f50;}.cls-1,.cls-2,.cls-30,.cls-34,.cls-8{fill-rule:evenodd;}.cls-2{fill:#c7c5c5;}.cls-10,.cls-25,.cls-3,.cls-32{font-size:18px;font-family:AquilineBookBoldSWFTE, Aquiline Book;}.cls-4{letter-spacing:-0.02em;}.cls-5{letter-spacing:0.01em;}.cls-6{letter-spacing:0.01em;}.cls-7{letter-spacing:-0.04em;}.cls-8{fill:#d9d9d9;}.cls-9{fill:#0c9;}.cls-10,.cls-25{fill:#0d0d0d;}.cls-10,.cls-24{letter-spacing:-0.01em;}.cls-11{letter-spacing:0.01em;}.cls-12{letter-spacing:0.02em;}.cls-13{letter-spacing:0.01em;}.cls-14{letter-spacing:-0.06em;}.cls-15{letter-spacing:0.06em;}.cls-16{letter-spacing:-0.01em;}.cls-17{letter-spacing:0.02em;}.cls-18{letter-spacing:0em;}.cls-19{letter-spacing:-0.05em;}.cls-20{letter-spacing:-0.01em;}.cls-21{letter-spacing:0em;}.cls-22{letter-spacing:0.01em;}.cls-23{letter-spacing:-0.04em;}.cls-26{letter-spacing:0em;}.cls-27{letter-spacing:0.01em;}.cls-28{letter-spacing:-0.01em;}.cls-29{letter-spacing:-0.09em;}.cls-30{fill:#0070c0;}.cls-31,.cls-32{fill:#fff;}.cls-33{letter-spacing:0.1em;}.cls-34{fill:#2f5597;}.cls-35{letter-spacing:-0.03em;}.cls-36{letter-spacing:-0.02em;}</style></defs><title>Delivery-Model</title><polygon class="cls-1" points="172.05 187 748.58 187 748.58 192.81 172.05 192.81 172.05 187 172.05 187"/><polygon class="cls-1" points="457.09 149.48 462.91 149.48 462.91 187.27 457.09 187.27 457.09 149.48 457.09 149.48"/><polygon class="cls-1" points="172.09 192.09 177.91 192.09 177.91 244.41 172.09 244.41 172.09 192.09 172.09 192.09"/><polygon class="cls-2" points="0 225.44 350 225.44 350 300.44 0 300.44 0 225.44 0 225.44"/><text class="cls-3" transform="translate(148.25 271.48)"><tspan class="cls-4">O</tspan><tspan class="cls-5" x="14.47" y="0">n</tspan><tspan class="cls-6" x="25.83" y="0">s</tspan><tspan class="cls-7" x="33.7" y="0">i</tspan><tspan x="37.48" y="0">te</tspan></text><polygon class="cls-8" points="0 302.84 350 302.84 350 377.84 0 377.84 0 302.84 0 302.84"/><path class="cls-9" d="M113.88,333.13l.43.61a33.42,33.42,0,0,0-5.81,6.05,41.64,41.64,0,0,0-4.88,7.65l-.91.61a13.79,13.79,0,0,0-1.52,1.16,19.29,19.29,0,0,0-.7-1.88l-.34-.8A12,12,0,0,0,98.79,344a3,3,0,0,0-1.41-1.09,3.58,3.58,0,0,1,2.42-1.39c.62,0,1.32.85,2.08,2.55l.38.85a35.53,35.53,0,0,1,5.3-6.76A29.64,29.64,0,0,1,113.88,333.13Z"/><text class="cls-10" transform="translate(126.96 347.2)">A<tspan class="cls-11" x="11.7" y="0">nn</tspan><tspan class="cls-12" x="34.42" y="0">a</tspan><tspan class="cls-13" x="44.55" y="0"> </tspan><tspan class="cls-14" x="49.77" y="0">U</tspan><tspan class="cls-5" x="61.97" y="0">n</tspan><tspan class="cls-7" x="73.33" y="0">i</tspan><tspan class="cls-15" x="77.11" y="0">v</tspan><tspan class="cls-12" x="87.53" y="0">e</tspan><tspan class="cls-16" x="97.61" y="0">r</tspan><tspan class="cls-17" x="104.09" y="0">s</tspan><tspan class="cls-7" x="111.96" y="0">i</tspan><tspan class="cls-18" x="115.74" y="0">ty</tspan></text><polygon class="cls-1" points="741.37 189.18 748.63 189.18 748.63 241.5 741.37 241.5 741.37 189.18 741.37 189.18"/><polygon class="cls-2" points="570 225.44 920 225.44 920 300.44 570 300.44 570 225.44 570 225.44"/><text class="cls-3" transform="translate(680.35 271.48)"><tspan class="cls-19">V</tspan><tspan class="cls-7" x="11.2" y="0">i</tspan><tspan class="cls-20" x="14.98" y="0">r</tspan><tspan class="cls-21" x="21.46" y="0">t</tspan><tspan class="cls-22" x="27.67" y="0">u</tspan><tspan class="cls-6" x="38.83" y="0">a</tspan><tspan class="cls-23" x="48.96" y="0">l</tspan><tspan class="cls-13" x="52.74" y="0">/</tspan><tspan class="cls-24" x="60.21" y="0">R</tspan><tspan class="cls-17" x="70.79" y="0">em</tspan><tspan class="cls-11" x="96.93" y="0">o</tspan><tspan x="107.91" y="0">t</tspan><tspan class="cls-17" x="114.12" y="0">e</tspan><tspan x="124.2" y="0"> </tspan></text><polygon class="cls-8" points="570 302.84 920 302.84 920 377.84 570 377.84 570 302.84 570 302.84"/><path class="cls-9" d="M626.28,332.13l.42.61a33.76,33.76,0,0,0-5.81,6.05,41.64,41.64,0,0,0-4.88,7.65l-.9.61a14.2,14.2,0,0,0-1.53,1.16,18.52,18.52,0,0,0-.69-1.88l-.35-.8a11.57,11.57,0,0,0-1.36-2.52,3,3,0,0,0-1.41-1.09,3.6,3.6,0,0,1,2.42-1.39c.63,0,1.32.85,2.09,2.55l.38.85a35.46,35.46,0,0,1,5.29-6.76A29.67,29.67,0,0,1,626.28,332.13Z"/><text class="cls-25" transform="translate(639.59 347.2)"><tspan class="cls-24">D</tspan><tspan class="cls-17" x="13.21" y="0">ee</tspan><tspan class="cls-11" x="33.37" y="0">p</tspan><tspan class="cls-26" x="44.48" y="0">S</tspan><tspan class="cls-11" x="53.5" y="0">ph</tspan><tspan class="cls-17" x="75.96" y="0">e</tspan><tspan class="cls-20" x="86.04" y="0">r</tspan><tspan class="cls-6" x="92.52" y="0">e</tspan><tspan class="cls-27" x="102.6" y="0">.</tspan><tspan class="cls-28" x="108.2" y="0">A</tspan><tspan class="cls-23" x="119.9" y="0">I</tspan><tspan x="124.05" y="0"> </tspan><tspan class="cls-24" x="129.15" y="0">R</tspan><tspan class="cls-17" x="139.73" y="0">em</tspan><tspan class="cls-11" x="165.87" y="0">o</tspan><tspan x="176.85" y="0">t</tspan><tspan class="cls-17" x="183.06" y="0">e</tspan><tspan class="cls-13" x="193.14" y="0"> </tspan><tspan class="cls-29" x="198.36" y="0">T</tspan><tspan class="cls-11" x="206.3" y="0">oo</tspan><tspan class="cls-23" x="228.25" y="0">l</tspan><tspan x="232.04" y="0">s </tspan></text><polygon class="cls-30" points="285 74.79 635 74.79 635 149.79 285 149.79 285 74.79 285 74.79"/><path class="cls-31" d="M403.87,104.48l.43.61a33.19,33.19,0,0,0-5.81,6.06,41.36,41.36,0,0,0-4.89,7.64l-.9.61a15.69,15.69,0,0,0-1.53,1.16,17,17,0,0,0-.69-1.88l-.34-.8a12.28,12.28,0,0,0-1.36-2.52,3,3,0,0,0-1.41-1.09,3.58,3.58,0,0,1,2.41-1.39c.63,0,1.33.85,2.09,2.55l.38.86a35.18,35.18,0,0,1,5.3-6.77A29.39,29.39,0,0,1,403.87,104.48Z"/><text class="cls-32" transform="translate(418.57 120.62)"><tspan class="cls-7">I</tspan><tspan class="cls-5" x="4.16" y="0">n</tspan><tspan class="cls-6" x="15.52" y="0">s</tspan><tspan x="23.38" y="0">t</tspan><tspan class="cls-16" x="29.59" y="0">r</tspan><tspan class="cls-11" x="36.07" y="0">u</tspan><tspan class="cls-12" x="47.23" y="0">c</tspan><tspan x="56.14" y="0">t</tspan><tspan class="cls-11" x="62.35" y="0">o</tspan><tspan class="cls-16" x="73.33" y="0">r</tspan><tspan class="cls-33" x="79.81" y="0"> </tspan><tspan class="cls-5" x="86.76" y="0">L</tspan><tspan class="cls-12" x="95.94" y="0">e</tspan><tspan class="cls-18" x="106.02" y="0">d</tspan></text><polygon class="cls-34" points="285 0 635 0 635 75 285 75 285 0 285 0"/><text class="cls-32" transform="translate(397.32 42.82)"><tspan class="cls-24">D</tspan><tspan class="cls-12" x="13.21" y="0">e</tspan><tspan class="cls-7" x="23.29" y="0">li</tspan><tspan class="cls-15" x="30.85" y="0">v</tspan><tspan class="cls-12" x="41.27" y="0">e</tspan><tspan class="cls-16" x="51.35" y="0">r</tspan><tspan class="cls-35" x="57.83" y="0">y</tspan><tspan class="cls-33" x="66.55" y="0"> </tspan><tspan class="cls-36" x="73.49" y="0">M</tspan><tspan class="cls-11" x="88.56" y="0">od</tspan><tspan class="cls-12" x="110.79" y="0">e</tspan><tspan x="120.87" y="0">l</tspan></text></svg>