<svg id="Layer_1" data-name="Layer 1" xmlns="http://www.w3.org/2000/svg" xmlns:xlink="http://www.w3.org/1999/xlink" viewBox="0 0 1200.32 822.88"><defs><style>.cls-1{fill:none;clip-rule:evenodd;}.cls-2{clip-path:url(#clip-path);}.cls-3{clip-path:url(#clip-path-2);}.cls-4{clip-path:url(#clip-path-3);}.cls-11,.cls-12,.cls-5{fill:#00a279;}.cls-10,.cls-11,.cls-12,.cls-13,.cls-14,.cls-15,.cls-16,.cls-5,.cls-6,.cls-7,.cls-8,.cls-9{fill-rule:evenodd;}.cls-15,.cls-16,.cls-6{fill:#087824;}.cls-13,.cls-14,.cls-7{fill:#305697;}.cls-8{fill:#02845f;}.cls-9{fill:#234b84;}.cls-10{fill:#065917;}.cls-11,.cls-13,.cls-15{opacity:0.8;}.cls-12,.cls-14,.cls-16{opacity:0.95;}.cls-17{font-size:18px;}.cls-17,.cls-18{fill:#e2e2e2;}.cls-17,.cls-19,.cls-42,.cls-43,.cls-44{font-family:AquilineBookBoldSWFTE, Aquiline Book;}.cls-19,.cls-43{font-size:30px;}.cls-19,.cls-42,.cls-44{fill:#fff;}.cls-20{letter-spacing:-0.01em;}.cls-21{letter-spacing:0.01em;}.cls-22{letter-spacing:-0.02em;}.cls-23{letter-spacing:0.03em;}.cls-24{letter-spacing:0em;}.cls-25{letter-spacing:-0.02em;}.cls-26{letter-spacing:0.01em;}.cls-27{letter-spacing:0em;}.cls-28{letter-spacing:0.02em;}.cls-29{letter-spacing:0.01em;}.cls-30{letter-spacing:0.03em;}.cls-31{letter-spacing:-0.02em;}.cls-32{letter-spacing:0.01em;}.cls-33{letter-spacing:-0.09em;}.cls-34{letter-spacing:-0.03em;}.cls-35{letter-spacing:0.01em;}.cls-36{letter-spacing:-0.03em;}.cls-37{letter-spacing:0em;}.cls-38{letter-spacing:0.01em;}.cls-39{letter-spacing:0.01em;}.cls-40{letter-spacing:0.03em;}.cls-41{letter-spacing:-0.01em;}.cls-42{font-size:12px;}.cls-44{font-size:40px;}</style><clipPath id="clip-path" transform="translate(0 -50.67)"><polygon class="cls-1" points="0.33 528.38 369.42 528.38 369.42 873.55 0.33 873.55 0.33 528.38 0.33 528.38"/></clipPath><clipPath id="clip-path-2" transform="translate(0 -50.67)"><polygon class="cls-1" points="415.77 528.38 784.88 528.38 784.88 873.55 415.77 873.55 415.77 528.38 415.77 528.38"/></clipPath><clipPath id="clip-path-3" transform="translate(0 -50.67)"><polygon class="cls-1" points="831.23 528.38 1200.33 528.38 1200.33 873.55 831.23 873.55 831.23 528.38 831.23 528.38"/></clipPath></defs><title>Our-Industrial-Education-Offering</title><g class="cls-2"><image width="369" height="345" transform="translate(0.32 476.97)" xlink:href="images/School%20of%20Artificial%20Intelligence.jpg"/></g><g class="cls-3"><image width="369" height="345" transform="translate(415.78 477.48)" xlink:href="images/School%20of%20Data%20Engineering.jpg"/></g><g class="cls-4"><image width="369" height="345" transform="translate(831.23 477.22)" xlink:href="images/School%20of%20Industrial%20Internet%20of%20Things%20(IIoT).jpg"/></g><path class="cls-5" d="M192,497.41v.86H177.72v-.86Zm0,1.72v1.73H177.72v-1.73Zm0,2.59v9.49h7.16L184.87,525l-14.31-13.8h7.16v-9.49Z" transform="translate(0 -50.67)"/><path class="cls-6" d="M1022.93,495.36v.86h-14.31v-.86Zm0,1.73v1.72h-14.31v-1.72Zm0,2.58v9.49h7.16L1015.78,523l-14.32-13.81h7.16v-9.49Z" transform="translate(0 -50.67)"/><path class="cls-7" d="M607.74,497.41v.86H593.42v-.86Zm0,1.72v1.73H593.42v-1.73Zm0,2.59v9.49h7.15L600.58,525l-14.31-13.8h7.15v-9.49Z" transform="translate(0 -50.67)"/><polygon class="cls-8" points="0.33 79.66 371.47 79.66 371.47 194.25 0.33 194.25 0.33 79.66 0.33 79.66"/><polygon class="cls-9" points="412.45 79.66 781.55 79.66 781.55 194.25 412.45 194.25 412.45 79.66 412.45 79.66"/><polygon class="cls-10" points="831.23 79.66 1200.33 79.66 1200.33 194.25 831.23 194.25 831.23 79.66 831.23 79.66"/><polygon class="cls-11" points="0.33 477.71 369.42 477.71 369.42 712.59 0.33 712.59 0.33 477.71 0.33 477.71"/><polygon class="cls-12" points="0.33 712.61 369.42 712.61 369.42 822.88 0.33 822.88 0.33 712.61 0.33 712.61"/><polygon class="cls-13" points="416.03 477.71 785.13 477.71 785.13 712.59 416.03 712.59 416.03 477.71 416.03 477.71"/><polygon class="cls-14" points="416.03 712.61 785.13 712.61 785.13 822.88 416.03 822.88 416.03 712.61 416.03 712.61"/><polygon class="cls-15" points="831.23 477.71 1200.33 477.71 1200.33 712.59 831.23 712.59 831.23 477.71 831.23 477.71"/><polygon class="cls-16" points="831.23 712.61 1200.33 712.61 1200.33 822.88 831.23 822.88 831.23 712.61 831.23 712.61"/><text class="cls-17" transform="translate(45.33 509.73)">AI Implementation Framework<tspan x="0" y="26">Machine Learning</tspan><tspan x="0" y="52">Deep Learning</tspan><tspan x="0" y="78">Natural Language Processing (NLP)</tspan><tspan x="0" y="104">Computer Vision</tspan><tspan x="0" y="130">Cloud Computing</tspan><tspan x="0" y="156">AI Application</tspan><tspan x="0" y="182">AI Analytics </tspan></text><path class="cls-18" d="M31.84,546.3l.31.44A24.25,24.25,0,0,0,28,551.1a30.37,30.37,0,0,0-3.51,5.51l-.65.43a11.39,11.39,0,0,0-1.1.84,13.1,13.1,0,0,0-.5-1.35L22,556a8.63,8.63,0,0,0-1-1.81,2.18,2.18,0,0,0-1-.79,2.61,2.61,0,0,1,1.74-1c.45,0,.95.61,1.5,1.84l.27.61a25.4,25.4,0,0,1,3.82-4.87A21.76,21.76,0,0,1,31.84,546.3Z" transform="translate(0 -50.67)"/><path class="cls-18" d="M31.84,572.3l.31.44A24.25,24.25,0,0,0,28,577.1a30.67,30.67,0,0,0-3.51,5.5l-.65.44a11.39,11.39,0,0,0-1.1.84,13.94,13.94,0,0,0-.5-1.36L22,582a9,9,0,0,0-1-1.82,2.22,2.22,0,0,0-1-.78,2.57,2.57,0,0,1,1.74-1c.45,0,.95.61,1.5,1.84l.27.61a25.4,25.4,0,0,1,3.82-4.87A21.76,21.76,0,0,1,31.84,572.3Z" transform="translate(0 -50.67)"/><path class="cls-18" d="M31.84,598.3l.31.44A24.25,24.25,0,0,0,28,603.1a30.67,30.67,0,0,0-3.51,5.5l-.65.44a11.39,11.39,0,0,0-1.1.84,13.94,13.94,0,0,0-.5-1.36L22,608a9,9,0,0,0-1-1.82,2.22,2.22,0,0,0-1-.78,2.57,2.57,0,0,1,1.74-1c.45,0,.95.61,1.5,1.84l.27.61a25.4,25.4,0,0,1,3.82-4.87A21.76,21.76,0,0,1,31.84,598.3Z" transform="translate(0 -50.67)"/><path class="cls-18" d="M31.84,624.3l.31.44A24.25,24.25,0,0,0,28,629.1a30.67,30.67,0,0,0-3.51,5.5l-.65.44a11.39,11.39,0,0,0-1.1.84,13.94,13.94,0,0,0-.5-1.36L22,634a9,9,0,0,0-1-1.82,2.22,2.22,0,0,0-1-.78,2.57,2.57,0,0,1,1.74-1c.45,0,.95.61,1.5,1.84l.27.61a25.4,25.4,0,0,1,3.82-4.87A21.76,21.76,0,0,1,31.84,624.3Z" transform="translate(0 -50.67)"/><path class="cls-18" d="M31.84,650.3l.31.44A24.25,24.25,0,0,0,28,655.1a30.67,30.67,0,0,0-3.51,5.5l-.65.44a11.39,11.39,0,0,0-1.1.84,13.94,13.94,0,0,0-.5-1.36L22,660a9,9,0,0,0-1-1.82,2.22,2.22,0,0,0-1-.78,2.57,2.57,0,0,1,1.74-1c.45,0,.95.61,1.5,1.84l.27.61a25.4,25.4,0,0,1,3.82-4.87A21.76,21.76,0,0,1,31.84,650.3Z" transform="translate(0 -50.67)"/><path class="cls-18" d="M31.84,676.3l.31.44A24.25,24.25,0,0,0,28,681.1a30.67,30.67,0,0,0-3.51,5.5l-.65.44a11.39,11.39,0,0,0-1.1.84,13.94,13.94,0,0,0-.5-1.36L22,686a9,9,0,0,0-1-1.82,2.22,2.22,0,0,0-1-.78,2.57,2.57,0,0,1,1.74-1c.45,0,.95.61,1.5,1.84l.27.61a25.4,25.4,0,0,1,3.82-4.87A21.76,21.76,0,0,1,31.84,676.3Z" transform="translate(0 -50.67)"/><path class="cls-18" d="M31.84,702.3l.31.44A24.25,24.25,0,0,0,28,707.1a30.67,30.67,0,0,0-3.51,5.5l-.65.44a11.39,11.39,0,0,0-1.1.84,13.94,13.94,0,0,0-.5-1.36L22,712a9,9,0,0,0-1-1.82,2.22,2.22,0,0,0-1-.78,2.57,2.57,0,0,1,1.74-1c.45,0,.95.61,1.5,1.84l.27.61a25.4,25.4,0,0,1,3.82-4.87A21.76,21.76,0,0,1,31.84,702.3Z" transform="translate(0 -50.67)"/><path class="cls-18" d="M31.84,728.3l.31.44A24.25,24.25,0,0,0,28,733.1a30.67,30.67,0,0,0-3.51,5.5l-.65.44a11.39,11.39,0,0,0-1.1.84,13.94,13.94,0,0,0-.5-1.36L22,738a9,9,0,0,0-1-1.82,2.22,2.22,0,0,0-1-.78,2.57,2.57,0,0,1,1.74-1c.45,0,.95.61,1.5,1.84l.27.61a25.4,25.4,0,0,1,3.82-4.87A21.76,21.76,0,0,1,31.84,728.3Z" transform="translate(0 -50.67)"/><path class="cls-18" d="M447.52,546.3l.3.44a24.6,24.6,0,0,0-4.18,4.36,30.47,30.47,0,0,0-3.52,5.51l-.65.43a12.28,12.28,0,0,0-1.09.84,13.84,13.84,0,0,0-.51-1.35l-.24-.58a8.63,8.63,0,0,0-1-1.81,2.16,2.16,0,0,0-1-.79,2.65,2.65,0,0,1,1.74-1c.45,0,1,.61,1.51,1.84l.27.61a25.73,25.73,0,0,1,3.81-4.87A21.79,21.79,0,0,1,447.52,546.3Z" transform="translate(0 -50.67)"/><path class="cls-18" d="M447.52,572.31l.3.43a24.6,24.6,0,0,0-4.18,4.36,30.47,30.47,0,0,0-3.52,5.51l-.65.44a10.92,10.92,0,0,0-1.09.83c-.08-.27-.25-.73-.51-1.35l-.24-.57a8.75,8.75,0,0,0-1-1.82,2.16,2.16,0,0,0-1-.79,2.65,2.65,0,0,1,1.74-1c.45,0,1,.61,1.51,1.84l.27.61a25.37,25.37,0,0,1,3.81-4.86A21.16,21.16,0,0,1,447.52,572.31Z" transform="translate(0 -50.67)"/><path class="cls-18" d="M447.52,598.31l.3.43a24.6,24.6,0,0,0-4.18,4.36,30.47,30.47,0,0,0-3.52,5.51l-.65.44a10.92,10.92,0,0,0-1.09.83c-.08-.27-.25-.73-.51-1.35l-.24-.57a8.75,8.75,0,0,0-1-1.82,2.16,2.16,0,0,0-1-.79,2.65,2.65,0,0,1,1.74-1c.45,0,1,.61,1.51,1.84l.27.61a25.37,25.37,0,0,1,3.81-4.86A21.16,21.16,0,0,1,447.52,598.31Z" transform="translate(0 -50.67)"/><path class="cls-18" d="M447.52,624.31l.3.43a24.6,24.6,0,0,0-4.18,4.36,30.47,30.47,0,0,0-3.52,5.51l-.65.44a10.92,10.92,0,0,0-1.09.83c-.08-.27-.25-.73-.51-1.35l-.24-.57a8.75,8.75,0,0,0-1-1.82,2.16,2.16,0,0,0-1-.79,2.65,2.65,0,0,1,1.74-1c.45,0,1,.61,1.51,1.84l.27.61a25.37,25.37,0,0,1,3.81-4.86A21.16,21.16,0,0,1,447.52,624.31Z" transform="translate(0 -50.67)"/><path class="cls-18" d="M447.52,650.31l.3.43a24.6,24.6,0,0,0-4.18,4.36,30.47,30.47,0,0,0-3.52,5.51l-.65.44a10.92,10.92,0,0,0-1.09.83c-.08-.27-.25-.73-.51-1.35l-.24-.57a8.75,8.75,0,0,0-1-1.82,2.16,2.16,0,0,0-1-.79,2.65,2.65,0,0,1,1.74-1c.45,0,1,.61,1.51,1.84l.27.61a25.37,25.37,0,0,1,3.81-4.86A21.16,21.16,0,0,1,447.52,650.31Z" transform="translate(0 -50.67)"/><path class="cls-18" d="M447.52,676.31l.3.43a24.6,24.6,0,0,0-4.18,4.36,30.47,30.47,0,0,0-3.52,5.51l-.65.44a10.92,10.92,0,0,0-1.09.83c-.08-.27-.25-.73-.51-1.35l-.24-.57a8.75,8.75,0,0,0-1-1.82,2.16,2.16,0,0,0-1-.79,2.65,2.65,0,0,1,1.74-1c.45,0,1,.61,1.51,1.84l.27.61a25.37,25.37,0,0,1,3.81-4.86A21.16,21.16,0,0,1,447.52,676.31Z" transform="translate(0 -50.67)"/><path class="cls-18" d="M447.52,702.31l.3.43a24.6,24.6,0,0,0-4.18,4.36,30.47,30.47,0,0,0-3.52,5.51l-.65.44a10.92,10.92,0,0,0-1.09.83c-.08-.27-.25-.73-.51-1.35l-.24-.57a8.75,8.75,0,0,0-1-1.82,2.16,2.16,0,0,0-1-.79,2.65,2.65,0,0,1,1.74-1c.45,0,1,.61,1.51,1.84l.27.61a25.37,25.37,0,0,1,3.81-4.86A21.16,21.16,0,0,1,447.52,702.31Z" transform="translate(0 -50.67)"/><path class="cls-18" d="M447.52,728.31l.3.43a24.6,24.6,0,0,0-4.18,4.36,30.47,30.47,0,0,0-3.52,5.51l-.65.44a10.92,10.92,0,0,0-1.09.83c-.08-.27-.25-.73-.51-1.35l-.24-.57a8.75,8.75,0,0,0-1-1.82,2.16,2.16,0,0,0-1-.79,2.65,2.65,0,0,1,1.74-1c.45,0,1,.61,1.51,1.84l.27.61a25.37,25.37,0,0,1,3.81-4.86A21.16,21.16,0,0,1,447.52,728.31Z" transform="translate(0 -50.67)"/><text class="cls-17" transform="translate(461 509.54)">IIoT Architecture<tspan x="0" y="26">IoT Enabling Technologies</tspan><tspan x="0" y="52">IIoT Sensors</tspan><tspan x="0" y="78">IIoT Communication &amp; Data Collection</tspan><tspan x="0" y="104">IIoT Device &amp; Data Management</tspan><tspan x="0" y="130">IIoT Security</tspan><tspan x="0" y="156">Cloud Computing</tspan><tspan x="0" y="182">Connected Analytics </tspan></text><path class="cls-18" d="M861.72,546.3l.31.44a24.25,24.25,0,0,0-4.18,4.36,29.93,29.93,0,0,0-3.52,5.51l-.65.43a12.88,12.88,0,0,0-1.1.84,11,11,0,0,0-.5-1.35l-.24-.58a8.63,8.63,0,0,0-1-1.81,2.2,2.2,0,0,0-1-.79,2.61,2.61,0,0,1,1.74-1c.45,0,.95.61,1.5,1.84l.28.61a25.73,25.73,0,0,1,3.81-4.87A21.76,21.76,0,0,1,861.72,546.3Z" transform="translate(0 -50.67)"/><path class="cls-18" d="M861.72,572.3l.31.44a24.25,24.25,0,0,0-4.18,4.36,29.93,29.93,0,0,0-3.52,5.51l-.65.43a12.88,12.88,0,0,0-1.1.84,11,11,0,0,0-.5-1.35l-.24-.58a8.63,8.63,0,0,0-1-1.81,2.2,2.2,0,0,0-1-.79,2.61,2.61,0,0,1,1.74-1c.45,0,.95.61,1.5,1.84l.28.61a25.73,25.73,0,0,1,3.81-4.87A21.76,21.76,0,0,1,861.72,572.3Z" transform="translate(0 -50.67)"/><path class="cls-18" d="M861.72,598.3l.31.44a24.25,24.25,0,0,0-4.18,4.36,29.93,29.93,0,0,0-3.52,5.51l-.65.43a12.88,12.88,0,0,0-1.1.84,11,11,0,0,0-.5-1.35l-.24-.58a8.63,8.63,0,0,0-1-1.81,2.2,2.2,0,0,0-1-.79,2.61,2.61,0,0,1,1.74-1c.45,0,.95.61,1.5,1.84l.28.61a25.73,25.73,0,0,1,3.81-4.87A21.76,21.76,0,0,1,861.72,598.3Z" transform="translate(0 -50.67)"/><path class="cls-18" d="M861.72,624.3l.31.44a24.25,24.25,0,0,0-4.18,4.36,29.93,29.93,0,0,0-3.52,5.51l-.65.43a12.88,12.88,0,0,0-1.1.84,11,11,0,0,0-.5-1.35l-.24-.58a8.63,8.63,0,0,0-1-1.81,2.2,2.2,0,0,0-1-.79,2.61,2.61,0,0,1,1.74-1c.45,0,.95.61,1.5,1.84l.28.61a25.73,25.73,0,0,1,3.81-4.87A21.76,21.76,0,0,1,861.72,624.3Z" transform="translate(0 -50.67)"/><path class="cls-18" d="M861.72,650.3l.31.44a24.25,24.25,0,0,0-4.18,4.36,29.93,29.93,0,0,0-3.52,5.51l-.65.43a12.88,12.88,0,0,0-1.1.84,11,11,0,0,0-.5-1.35l-.24-.58a8.63,8.63,0,0,0-1-1.81,2.2,2.2,0,0,0-1-.79,2.61,2.61,0,0,1,1.74-1c.45,0,.95.61,1.5,1.84l.28.61a25.73,25.73,0,0,1,3.81-4.87A21.76,21.76,0,0,1,861.72,650.3Z" transform="translate(0 -50.67)"/><path class="cls-18" d="M861.72,676.3l.31.44a24.25,24.25,0,0,0-4.18,4.36,29.93,29.93,0,0,0-3.52,5.51l-.65.43a12.88,12.88,0,0,0-1.1.84,11,11,0,0,0-.5-1.35l-.24-.58a8.63,8.63,0,0,0-1-1.81,2.2,2.2,0,0,0-1-.79,2.61,2.61,0,0,1,1.74-1c.45,0,.95.61,1.5,1.84l.28.61a25.73,25.73,0,0,1,3.81-4.87A21.76,21.76,0,0,1,861.72,676.3Z" transform="translate(0 -50.67)"/><path class="cls-18" d="M861.72,702.3l.31.44a24.25,24.25,0,0,0-4.18,4.36,29.93,29.93,0,0,0-3.52,5.51l-.65.43a12.88,12.88,0,0,0-1.1.84,11,11,0,0,0-.5-1.35l-.24-.58a8.63,8.63,0,0,0-1-1.81,2.2,2.2,0,0,0-1-.79,2.61,2.61,0,0,1,1.74-1c.45,0,.95.61,1.5,1.84l.28.61a25.73,25.73,0,0,1,3.81-4.87A21.76,21.76,0,0,1,861.72,702.3Z" transform="translate(0 -50.67)"/><path class="cls-18" d="M861.72,728.3l.31.44a24.25,24.25,0,0,0-4.18,4.36,29.93,29.93,0,0,0-3.52,5.51l-.65.43a12.88,12.88,0,0,0-1.1.84,11,11,0,0,0-.5-1.35l-.24-.58a8.63,8.63,0,0,0-1-1.81,2.2,2.2,0,0,0-1-.79,2.61,2.61,0,0,1,1.74-1c.45,0,.95.61,1.5,1.84l.28.61a25.73,25.73,0,0,1,3.81-4.87A21.76,21.76,0,0,1,861.72,728.3Z" transform="translate(0 -50.67)"/><path class="cls-18" d="M861.72,785l.31.44a23.81,23.81,0,0,0-4.18,4.35,29.93,29.93,0,0,0-3.52,5.51l-.65.44a11.4,11.4,0,0,0-1.1.83,11.7,11.7,0,0,0-.5-1.35l-.24-.57a8.75,8.75,0,0,0-1-1.82,2.2,2.2,0,0,0-1-.79,2.61,2.61,0,0,1,1.74-1c.45,0,.95.62,1.5,1.84l.28.61a25.68,25.68,0,0,1,3.81-4.86A21.12,21.12,0,0,1,861.72,785Z" transform="translate(0 -50.67)"/><path class="cls-18" d="M861.72,811l.31.44a23.81,23.81,0,0,0-4.18,4.35,29.93,29.93,0,0,0-3.52,5.51l-.65.44a11.4,11.4,0,0,0-1.1.83,11.7,11.7,0,0,0-.5-1.35l-.24-.57a8.75,8.75,0,0,0-1-1.82,2.2,2.2,0,0,0-1-.79,2.61,2.61,0,0,1,1.74-1c.45,0,.95.62,1.5,1.84l.28.61a25.68,25.68,0,0,1,3.81-4.86A21.12,21.12,0,0,1,861.72,811Z" transform="translate(0 -50.67)"/><path class="cls-18" d="M861.72,837l.31.44a23.81,23.81,0,0,0-4.18,4.35,29.93,29.93,0,0,0-3.52,5.51l-.65.44a11.4,11.4,0,0,0-1.1.83,11.7,11.7,0,0,0-.5-1.35l-.24-.57a8.75,8.75,0,0,0-1-1.82,2.2,2.2,0,0,0-1-.79,2.61,2.61,0,0,1,1.74-1c.45,0,.95.62,1.5,1.84l.28.61a25.68,25.68,0,0,1,3.81-4.86A21.12,21.12,0,0,1,861.72,837Z" transform="translate(0 -50.67)"/><text class="cls-17" transform="translate(875.21 509.97)">Big Data Platform<tspan x="0" y="26">Real - time Data Collection</tspan><tspan x="0" y="52">In- memory Data Integration</tspan><tspan x="0" y="78">Distributed Data Processing</tspan><tspan x="0" y="104">Data Provisioning for AI</tspan><tspan x="0" y="130">Cloud Computing</tspan><tspan x="0" y="156">Big Data Application</tspan><tspan x="0" y="182">Big Data Analytics </tspan></text><text class="cls-17" transform="translate(875.21 748.97)">Oil &amp; Gas<tspan x="0" y="26">Energy</tspan><tspan x="0" y="52">Health </tspan></text><path class="cls-18" d="M447.52,785l.3.44a24.14,24.14,0,0,0-4.18,4.35,29.83,29.83,0,0,0-3.51,5.51l-.66.44a10.92,10.92,0,0,0-1.09.83c-.08-.27-.25-.73-.5-1.35l-.25-.57a8.75,8.75,0,0,0-1-1.82,2.16,2.16,0,0,0-1-.79,2.65,2.65,0,0,1,1.74-1c.46,0,1,.62,1.51,1.84l.27.61a25.68,25.68,0,0,1,3.81-4.86A21.16,21.16,0,0,1,447.52,785Z" transform="translate(0 -50.67)"/><path class="cls-18" d="M447.52,811l.3.44a24.14,24.14,0,0,0-4.18,4.35,29.83,29.83,0,0,0-3.51,5.51l-.66.44a10.92,10.92,0,0,0-1.09.83c-.08-.27-.25-.73-.5-1.35l-.25-.57a8.75,8.75,0,0,0-1-1.82,2.16,2.16,0,0,0-1-.79,2.65,2.65,0,0,1,1.74-1c.46,0,1,.62,1.51,1.84l.27.61a25.68,25.68,0,0,1,3.81-4.86A21.16,21.16,0,0,1,447.52,811Z" transform="translate(0 -50.67)"/><path class="cls-18" d="M447.52,837l.3.44a24.14,24.14,0,0,0-4.18,4.35,29.83,29.83,0,0,0-3.51,5.51l-.66.44a10.92,10.92,0,0,0-1.09.83c-.08-.27-.25-.73-.5-1.35l-.25-.57a8.75,8.75,0,0,0-1-1.82,2.16,2.16,0,0,0-1-.79,2.65,2.65,0,0,1,1.74-1c.46,0,1,.62,1.51,1.84l.27.61a25.68,25.68,0,0,1,3.81-4.86A21.16,21.16,0,0,1,447.52,837Z" transform="translate(0 -50.67)"/><text class="cls-17" transform="translate(461 748.97)">Oil &amp; Gas<tspan x="0" y="26">Energy</tspan><tspan x="0" y="52">Health </tspan></text><path class="cls-18" d="M31.84,785l.31.44A23.81,23.81,0,0,0,28,789.82a30.37,30.37,0,0,0-3.51,5.51l-.65.44a10.22,10.22,0,0,0-1.1.83,14,14,0,0,0-.5-1.35l-.25-.57a8.75,8.75,0,0,0-1-1.82,2.18,2.18,0,0,0-1-.79,2.61,2.61,0,0,1,1.74-1c.45,0,.95.62,1.5,1.84l.27.61a25.35,25.35,0,0,1,3.82-4.86A21.12,21.12,0,0,1,31.84,785Z" transform="translate(0 -50.67)"/><path class="cls-18" d="M31.84,811l.31.44A23.81,23.81,0,0,0,28,815.82a30.37,30.37,0,0,0-3.51,5.51l-.65.44a10.22,10.22,0,0,0-1.1.83,14,14,0,0,0-.5-1.35l-.25-.57a8.75,8.75,0,0,0-1-1.82,2.18,2.18,0,0,0-1-.79,2.61,2.61,0,0,1,1.74-1c.45,0,.95.62,1.5,1.84l.27.61a25.35,25.35,0,0,1,3.82-4.86A21.12,21.12,0,0,1,31.84,811Z" transform="translate(0 -50.67)"/><path class="cls-18" d="M31.84,837l.31.44A23.81,23.81,0,0,0,28,841.82a30.37,30.37,0,0,0-3.51,5.51l-.65.44a10.22,10.22,0,0,0-1.1.83,14,14,0,0,0-.5-1.35l-.25-.57a8.75,8.75,0,0,0-1-1.82,2.18,2.18,0,0,0-1-.79,2.61,2.61,0,0,1,1.74-1c.45,0,.95.62,1.5,1.84l.27.61a25.35,25.35,0,0,1,3.82-4.86A21.12,21.12,0,0,1,31.84,837Z" transform="translate(0 -50.67)"/><text class="cls-17" transform="translate(45.33 748.97)">Oil &amp; Gas<tspan x="0" y="26">Energy</tspan><tspan x="0" y="52">Health </tspan></text><polygon class="cls-5" points="28.95 194.26 371.47 194.26 371.47 408.97 28.95 408.97 28.95 194.26 28.95 194.26"/><text class="cls-19" transform="translate(143.59 294.21)"><tspan class="cls-20">S<tspan class="cls-21" x="14.73" y="0">c</tspan><tspan class="cls-22" x="29.31" y="0">hoo</tspan><tspan class="cls-23" x="82.59" y="0">l</tspan><tspan class="cls-24" x="91.08" y="0"> </tspan><tspan class="cls-25" x="99.66" y="0">o</tspan><tspan class="cls-26" x="117.21" y="0">f</tspan></tspan><tspan class="cls-27" x="-85.95" y="36">A</tspan><tspan class="cls-28" x="-66.33" y="36">r</tspan><tspan class="cls-29" x="-54.78" y="36">t</tspan><tspan class="cls-30" x="-44.13" y="36">i</tspan><tspan class="cls-26" x="-35.64" y="36">f</tspan><tspan class="cls-30" x="-25.62" y="36">i</tspan><tspan class="cls-31" x="-17.13" y="36">c</tspan><tspan class="cls-24" x="-3.45" y="36">i</tspan><tspan class="cls-32" x="4.11" y="36">a</tspan><tspan class="cls-24" x="20.73" y="36">l</tspan><tspan class="cls-33" x="28.29" y="36"> </tspan><tspan class="cls-34" x="34.08" y="36">I</tspan><tspan class="cls-25" x="41.37" y="36">n</tspan><tspan class="cls-26" x="59.55" y="36">t</tspan><tspan class="cls-21" x="70.2" y="36">e</tspan><tspan class="cls-30" x="86.73" y="36">lli</tspan><tspan class="cls-22" x="112.2" y="36">g</tspan><tspan class="cls-21" x="130.38" y="36">e</tspan><tspan class="cls-22" x="146.91" y="36">n</tspan><tspan class="cls-35" x="165.09" y="36">ce</tspan><tspan x="196.2" y="36" xml:space="preserve">  </tspan></text><polygon class="cls-11" points="28.95 408.97 28.95 79.63 0 79.63 0 408.97 0 437.6 371.47 437.6 371.47 408.97 28.95 408.97"/><polygon class="cls-7" points="439.55 194.26 781.04 194.26 781.04 408.97 439.55 408.97 439.55 194.26 439.55 194.26"/><text class="cls-19" transform="translate(552.14 274.58)"><tspan class="cls-20">S<tspan class="cls-21" x="14.73" y="0">c</tspan><tspan class="cls-22" x="29.31" y="0">hoo</tspan><tspan class="cls-23" x="82.59" y="0">l</tspan><tspan class="cls-24" x="91.08" y="0"> </tspan><tspan class="cls-25" x="99.66" y="0">o</tspan><tspan class="cls-26" x="117.21" y="0">f</tspan></tspan><tspan class="cls-36" x="-86.55" y="36">I</tspan><tspan class="cls-22" x="-79.26" y="36">ndu</tspan><tspan class="cls-21" x="-25.23" y="36">s</tspan><tspan class="cls-26" x="-12.39" y="36">t</tspan><tspan class="cls-28" x="-1.74" y="36">r</tspan><tspan class="cls-30" x="9.81" y="36">i</tspan><tspan class="cls-35" x="18.3" y="36">a</tspan><tspan class="cls-30" x="34.92" y="36">l</tspan><tspan class="cls-36" x="43.41" y="36" xml:space="preserve"> I</tspan><tspan class="cls-22" x="58.38" y="36">n</tspan><tspan class="cls-29" x="76.56" y="36">t</tspan><tspan class="cls-35" x="87.21" y="36">e</tspan><tspan class="cls-28" x="103.74" y="36">r</tspan><tspan class="cls-25" x="115.29" y="36">n</tspan><tspan class="cls-32" x="133.47" y="36">e</tspan><tspan class="cls-29" x="150" y="36">t</tspan><tspan class="cls-37" x="160.65" y="36"> </tspan><tspan class="cls-22" x="169.23" y="36">o</tspan><tspan class="cls-29" x="186.78" y="36">f</tspan><tspan x="196.8" y="36" xml:space="preserve">  </tspan><tspan class="cls-38" x="-20.47" y="72">T</tspan><tspan class="cls-22" x="-4.21" y="72">h</tspan><tspan class="cls-30" x="13.96" y="72">i</tspan><tspan class="cls-22" x="22.45" y="72">ng</tspan><tspan class="cls-35" x="58.81" y="72">s</tspan><tspan class="cls-36" x="71.65" y="72"> </tspan><tspan class="cls-29" x="79.33" y="72">(</tspan><tspan class="cls-36" x="89.47" y="72">II</tspan><tspan class="cls-22" x="104.05" y="72">o</tspan><tspan class="cls-39" x="121.6" y="72">T</tspan><tspan x="137.86" y="72">)</tspan></text><polygon class="cls-13" points="440.06 408.97 440.06 79.33 412.45 79.33 412.45 436.59 440.06 436.59 440.06 436.57 781.55 436.57 781.55 408.97 440.06 408.97"/><polygon class="cls-6" points="857.81 194.26 1200.33 194.26 1200.33 408.97 857.81 408.97 857.81 194.26 857.81 194.26"/><text class="cls-19" transform="translate(970.93 295.23)"><tspan class="cls-20">S<tspan class="cls-32" x="14.73" y="0">c</tspan><tspan class="cls-22" x="29.31" y="0">hoo</tspan><tspan class="cls-40" x="82.59" y="0">l</tspan><tspan class="cls-37" x="91.08" y="0"> </tspan><tspan class="cls-22" x="99.66" y="0">o</tspan><tspan class="cls-29" x="117.21" y="0">f</tspan></tspan><tspan class="cls-27" x="-62.41" y="36">D</tspan><tspan class="cls-32" x="-40.27" y="36">a</tspan><tspan class="cls-29" x="-23.65" y="36">t</tspan><tspan class="cls-32" x="-13" y="36">a</tspan><tspan class="cls-34" x="3.62" y="36"> </tspan><tspan class="cls-41" x="11.29" y="36">E</tspan><tspan class="cls-22" x="28.66" y="36">ng</tspan><tspan class="cls-40" x="65.02" y="36">i</tspan><tspan class="cls-22" x="73.51" y="36">n</tspan><tspan class="cls-32" x="91.69" y="36">ee</tspan><tspan class="cls-28" x="124.75" y="36">r</tspan><tspan class="cls-40" x="136.3" y="36">i</tspan><tspan class="cls-22" x="144.79" y="36">ng</tspan><tspan x="181.15" y="36"> </tspan></text><polygon class="cls-15" points="857.81 408.97 857.81 79.33 831.23 79.33 831.23 408.97 831.23 437.6 1200.33 437.6 1200.33 408.97 857.81 408.97"/><text class="cls-42" transform="translate(10.55 262.97) rotate(90)">Business Processes</text><text class="cls-42" transform="translate(105.6 427.99)">Advanced Computing AI Lab</text><text class="cls-42" transform="translate(421.63 262.97) rotate(90)">Business Processes</text><text class="cls-42" transform="translate(512.67 427.99)">Advanced Computing IIoT Lab</text><text class="cls-42" transform="translate(923.35 427.99)"><tspan xml:space="preserve">Advanced Computing Data  Lab</tspan></text><text class="cls-42" transform="translate(839.9 262.97) rotate(90)">Business Processes</text><text class="cls-43" transform="translate(80.18 25)">Our Training Program Connects Academy, Industry &amp; Technology Together</text><text class="cls-44" transform="translate(109.42 145.72)">Industry</text><text class="cls-44" transform="translate(515.78 145.72)">Academy</text><text class="cls-44" transform="translate(907.96 145.72)">Technology</text></svg>