<svg id="Layer_1" data-name="Layer 1" xmlns="http://www.w3.org/2000/svg" viewBox="0 0 1200 421.11"><defs><style>.cls-1{fill:#0070c0;}.cls-1,.cls-2{fill-rule:evenodd;}.cls-2,.cls-4{fill:#0c9;}.cls-3{font-size:60px;font-family:AquilineBookBoldSWFTE, Aquiline Book;}.cls-3,.cls-5{fill:#fff;}.cls-5{font-size:20px;font-family:AquilineBookRegularSWFTE, Aquiline Book;}</style></defs><title>Program-Key-Takeaways</title><polygon class="cls-1" points="280.21 114.43 280.21 301.38 140.11 421.11 0 301.38 0 114.43 280.21 114.43 280.21 114.43"/><polygon class="cls-2" points="0 0 280.21 0 280.21 107.1 0 107.1 0 0 0 0"/><text class="cls-3" transform="translate(121.81 78.42)">1</text><path class="cls-4" d="M33.2,166.55l.42.61a33.53,33.53,0,0,0-5.81,6.06,41.26,41.26,0,0,0-4.88,7.64l-.9.61a15.69,15.69,0,0,0-1.53,1.16,19.46,19.46,0,0,0-.69-1.88l-.35-.79a11.69,11.69,0,0,0-1.36-2.53,3,3,0,0,0-1.41-1.09A3.6,3.6,0,0,1,19.11,175c.63,0,1.32.85,2.09,2.55l.38.86a35.51,35.51,0,0,1,5.29-6.77A29.67,29.67,0,0,1,33.2,166.55Z" transform="translate(0)"/><polygon class="cls-1" points="588.3 114.43 588.3 301.38 448.2 421.11 308.09 301.38 308.09 114.43 588.3 114.43 588.3 114.43"/><polygon class="cls-2" points="308.09 0 588.3 0 588.3 107.1 308.09 107.1 308.09 0 308.09 0"/><text class="cls-3" transform="translate(429.9 78.42)">2</text><path class="cls-4" d="M341.23,166.55l.43.61a32.86,32.86,0,0,0-5.81,6.06,41.36,41.36,0,0,0-4.89,7.64l-.9.61a15.69,15.69,0,0,0-1.53,1.16,17,17,0,0,0-.69-1.88l-.34-.79a12.09,12.09,0,0,0-1.37-2.53,3,3,0,0,0-1.41-1.09,3.6,3.6,0,0,1,2.42-1.39c.63,0,1.32.85,2.09,2.55l.38.86a35.18,35.18,0,0,1,5.3-6.77A29.39,29.39,0,0,1,341.23,166.55Z" transform="translate(0)"/><polygon class="cls-1" points="896.39 114.43 896.39 301.38 756.29 421.11 616.18 301.38 616.18 114.43 896.39 114.43 896.39 114.43"/><polygon class="cls-2" points="616.18 0 896.39 0 896.39 107.1 616.18 107.1 616.18 0 616.18 0"/><text class="cls-3" transform="translate(737.99 78.42)">3</text><path class="cls-4" d="M649.26,166.55l.43.61a33.19,33.19,0,0,0-5.81,6.06,41.36,41.36,0,0,0-4.89,7.64l-.9.61a15.69,15.69,0,0,0-1.53,1.16,17,17,0,0,0-.69-1.88l-.34-.79a12.63,12.63,0,0,0-1.36-2.53,3,3,0,0,0-1.41-1.09,3.56,3.56,0,0,1,2.41-1.39c.63,0,1.33.85,2.09,2.55l.38.86a35.18,35.18,0,0,1,5.3-6.77A29.39,29.39,0,0,1,649.26,166.55Z" transform="translate(0)"/><polygon class="cls-1" points="1200 114.43 1200 301.38 1059.89 421.11 919.78 301.38 919.78 114.43 1200 114.43 1200 114.43"/><polygon class="cls-2" points="919.78 0 1200 0 1200 107.1 919.78 107.1 919.78 0 919.78 0"/><text class="cls-3" transform="translate(1041.59 78.42)">4</text><path class="cls-4" d="M956.22,166.55l.42.61a33.53,33.53,0,0,0-5.81,6.06,41.26,41.26,0,0,0-4.88,7.64l-.9.61a15.69,15.69,0,0,0-1.53,1.16,19.46,19.46,0,0,0-.69-1.88l-.35-.79a11.69,11.69,0,0,0-1.36-2.53,3,3,0,0,0-1.41-1.09,3.6,3.6,0,0,1,2.42-1.39c.63,0,1.32.85,2.09,2.55l.38.86a35.51,35.51,0,0,1,5.29-6.77A29.67,29.67,0,0,1,956.22,166.55Z" transform="translate(0)"/><text class="cls-5" transform="translate(48.19 179.52)">Deeply Understand <tspan x="0" y="24">how AI is applied in </tspan><tspan x="0" y="48">business processes</tspan></text><text class="cls-5" transform="translate(354.84 179.52)">Learn the framework to <tspan x="0" y="24">implement AI to solve </tspan><tspan x="0" y="48">real-world problems</tspan></text><text class="cls-5" transform="translate(660.4 179.52)">Gain practical skills and <tspan x="0" y="24">on-the-job learning</tspan><tspan x="0" y="48">experience</tspan></text><text class="cls-5" transform="translate(969.61 179.52)">In-Depth learning of <tspan x="0" y="24">data engineering and </tspan><tspan x="0" y="48">AI technologies</tspan></text></svg>