<svg id="Layer_1" data-name="Layer 1" xmlns="http://www.w3.org/2000/svg" viewBox="0 0 920 349.3"><defs><style>.cls-1{fill:#d9d9d9;}.cls-1,.cls-2,.cls-3{fill-rule:evenodd;}.cls-2{fill:#333f50;}.cls-3{fill:#0070c0;}.cls-16,.cls-4{font-size:18px;font-family:AquilineBookBoldSWFTE, Aquiline Book;}.cls-4{fill:#fff;}.cls-5{letter-spacing:-0.04em;}.cls-6{letter-spacing:-0.01em;}.cls-7{letter-spacing:0.04em;}.cls-8{letter-spacing:-0.02em;}.cls-9{letter-spacing:0.02em;}.cls-10{letter-spacing:0.03em;}.cls-11{letter-spacing:-0.07em;}.cls-12{letter-spacing:0.02em;}.cls-13{letter-spacing:0.02em;}.cls-14{letter-spacing:-0.03em;}.cls-15,.cls-16{fill:#0d0d0d;}.cls-17{letter-spacing:-0.01em;}.cls-18{letter-spacing:-0.03em;}.cls-19{letter-spacing:-0.02em;}.cls-20{letter-spacing:0.02em;}.cls-21{letter-spacing:0.03em;}.cls-22{letter-spacing:-0.07em;}.cls-23{letter-spacing:0.02em;}.cls-24{letter-spacing:0.02em;}.cls-25{letter-spacing:0.02em;}.cls-26{letter-spacing:-0.03em;}.cls-27{letter-spacing:-0.12em;}.cls-28{letter-spacing:0.01em;}.cls-29{letter-spacing:-0.02em;}</style></defs><title>Proposed-Start-Date</title><polygon class="cls-1" points="0 256.29 285.3 256.29 285.3 349.3 0 349.3 0 256.29 0 256.29"/><polygon class="cls-2" points="140.19 122.77 779.02 122.77 779.02 129.05 140.19 129.05 140.19 122.77 140.19 122.77"/><polygon class="cls-2" points="427.32 91.35 433.61 91.35 433.61 124.02 427.32 124.02 427.32 91.35 427.32 91.35"/><polygon class="cls-2" points="140.14 125.28 145.16 125.28 145.16 177 140.14 177 140.14 125.28 140.14 125.28"/><polygon class="cls-2" points="774.84 122.62 779.86 122.62 779.86 190.97 774.84 190.97 774.84 122.62 774.84 122.62"/><polygon class="cls-3" points="0 158.74 285.3 158.74 285.3 253.74 0 253.74 0 158.74 0 158.74"/><text class="cls-4" transform="translate(72.05 211.13)"><tspan class="cls-5">A</tspan><tspan class="cls-6" x="11.16" y="0">I</tspan><tspan class="cls-7" x="15.77" y="0"> </tspan><tspan class="cls-8" x="21.53" y="0">f</tspan><tspan class="cls-9" x="27.05" y="0">o</tspan><tspan class="cls-10" x="38.25" y="0">r</tspan><tspan class="cls-11" x="45.43" y="0"> </tspan><tspan class="cls-12" x="49.32" y="0">E</tspan><tspan class="cls-13" x="60.23" y="0">xec</tspan><tspan class="cls-9" x="89.24" y="0">u</tspan><tspan class="cls-8" x="100.62" y="0">t</tspan><tspan class="cls-6" x="106.52" y="0">i</tspan><tspan class="cls-14" x="110.75" y="0">v</tspan><tspan class="cls-13" x="119.54" y="0">e</tspan><tspan class="cls-14" x="129.74" y="0">s</tspan><tspan x="136.82" y="0"> </tspan></text><path class="cls-15" d="M48.29,294.15l.43.61a33.42,33.42,0,0,0-5.82,6.05A42.18,42.18,0,0,0,38,308.46l-.9.61a16.07,16.07,0,0,0-1.53,1.15,19.55,19.55,0,0,0-.69-1.87l-.34-.8A12,12,0,0,0,33.19,305a3,3,0,0,0-1.41-1.09,3.6,3.6,0,0,1,2.42-1.39c.63,0,1.32.85,2.09,2.55l.38.85A35.46,35.46,0,0,1,42,299.19,29.67,29.67,0,0,1,48.29,294.15Z" transform="translate(0 -1.66)"/><text class="cls-16" transform="translate(58.02 308.56)">Third Week of July 2019</text><polygon class="cls-3" points="316.72 158.74 602.02 158.74 602.02 253.74 316.72 253.74 316.72 158.74 316.72 158.74"/><text class="cls-4" transform="translate(376.74 211.13)"><tspan class="cls-5">A</tspan><tspan class="cls-6" x="11.16" y="0">I</tspan><tspan class="cls-7" x="15.77" y="0"> </tspan><tspan class="cls-8" x="21.53" y="0">f</tspan><tspan class="cls-9" x="27.05" y="0">o</tspan><tspan class="cls-10" x="38.25" y="0">r</tspan><tspan class="cls-11" x="45.43" y="0"> </tspan><tspan class="cls-12" x="49.32" y="0">P</tspan><tspan class="cls-10" x="59.72" y="0">r</tspan><tspan class="cls-9" x="66.9" y="0">o</tspan><tspan class="cls-8" x="78.1" y="0">f</tspan><tspan class="cls-13" x="83.63" y="0">es</tspan><tspan class="cls-14" x="101.82" y="0">s</tspan><tspan class="cls-17" x="108.9" y="0">i</tspan><tspan class="cls-9" x="113.13" y="0">o</tspan><tspan class="cls-18" x="124.32" y="0">n</tspan><tspan class="cls-14" x="134.98" y="0">a</tspan><tspan class="cls-17" x="144.32" y="0">l</tspan><tspan class="cls-13" x="148.55" y="0">s</tspan><tspan x="156.54" y="0"> </tspan></text><polygon class="cls-1" points="316.72 256.29 602.02 256.29 602.02 349.3 316.72 349.3 316.72 256.29 316.72 256.29"/><path class="cls-15" d="M364.92,294.15l.43.61a33.08,33.08,0,0,0-5.81,6.05,41.74,41.74,0,0,0-4.89,7.65l-.9.61a16.07,16.07,0,0,0-1.53,1.15,17.08,17.08,0,0,0-.69-1.87l-.34-.8a12.5,12.5,0,0,0-1.36-2.52,3,3,0,0,0-1.41-1.09,3.56,3.56,0,0,1,2.41-1.39c.63,0,1.32.85,2.09,2.55l.38.85a35.13,35.13,0,0,1,5.3-6.76A29.39,29.39,0,0,1,364.92,294.15Z" transform="translate(0 -1.66)"/><text class="cls-16" transform="translate(374.83 308.56)">Third Week of July 2019</text><polygon class="cls-3" points="634.7 158.74 920 158.74 920 253.74 634.7 253.74 634.7 158.74 634.7 158.74"/><text class="cls-4" transform="translate(668.44 211.13)"><tspan class="cls-5">A</tspan><tspan class="cls-17" x="11.16" y="0">I</tspan><tspan class="cls-7" x="15.77" y="0"> </tspan><tspan class="cls-19" x="21.53" y="0">f</tspan><tspan class="cls-20" x="27.05" y="0">o</tspan><tspan class="cls-21" x="38.25" y="0">r</tspan><tspan class="cls-22" x="45.43" y="0"> </tspan><tspan class="cls-23" x="49.32" y="0">S</tspan><tspan class="cls-19" x="58.64" y="0">t</tspan><tspan class="cls-24" x="64.55" y="0">ud</tspan><tspan class="cls-25" x="87.39" y="0">e</tspan><tspan class="cls-20" x="97.59" y="0">n</tspan><tspan class="cls-19" x="109.17" y="0">t</tspan><tspan class="cls-26" x="115.07" y="0">s</tspan><tspan class="cls-27" x="122.15" y="0"> </tspan><tspan class="cls-28" x="125.1" y="0">&amp;</tspan><tspan x="138.09" y="0"> </tspan><tspan class="cls-20" x="143.19" y="0">F</tspan><tspan class="cls-21" x="153.5" y="0">r</tspan><tspan class="cls-25" x="160.68" y="0">es</tspan><tspan class="cls-24" x="178.88" y="0">h</tspan><tspan class="cls-26" x="190.46" y="0">e</tspan><tspan class="cls-29" x="199.74" y="0">r</tspan><tspan class="cls-25" x="206.01" y="0">s</tspan><tspan x="214" y="0"> </tspan></text><polygon class="cls-1" points="634.7 257.89 920 257.89 920 349.3 634.7 349.3 634.7 257.89 634.7 257.89"/><path class="cls-15" d="M676.42,294.15l.43.61a33.42,33.42,0,0,0-5.81,6.05,41.64,41.64,0,0,0-4.88,7.65l-.91.61a15.56,15.56,0,0,0-1.52,1.15c-.11-.38-.34-1-.7-1.87l-.34-.8a12,12,0,0,0-1.36-2.52,3,3,0,0,0-1.41-1.09,3.58,3.58,0,0,1,2.41-1.39c.63,0,1.33.85,2.09,2.55l.38.85a35.53,35.53,0,0,1,5.3-6.76A29.39,29.39,0,0,1,676.42,294.15Z" transform="translate(0 -1.66)"/><text class="cls-16" transform="translate(689.14 308.56)">Fourth Week of July 2019</text><polygon class="cls-3" points="240.06 0 679.95 0 679.95 93 240.06 93 240.06 0 240.06 0"/><text class="cls-4" transform="translate(419.56 51.76)"><tspan class="cls-23">S</tspan><tspan class="cls-8" x="9.32" y="0">t</tspan><tspan class="cls-13" x="15.23" y="0">a</tspan><tspan class="cls-10" x="25.49" y="0">r</tspan><tspan class="cls-8" x="32.67" y="0">t</tspan><tspan class="cls-11" x="38.57" y="0"> </tspan><tspan class="cls-28" x="42.46" y="0">D</tspan><tspan class="cls-13" x="56.05" y="0">a</tspan><tspan class="cls-8" x="66.31" y="0">t</tspan><tspan x="72.21" y="0">e</tspan></text></svg>