<svg width="58" height="67" viewBox="0 0 58 67" fill="none" xmlns="http://www.w3.org/2000/svg">
<g clip-path="url(#clip0)">
<path fill-rule="evenodd" clip-rule="evenodd" d="M26.4219 50.6717C29.3793 48.7505 31.4247 53.3265 28.7505 54.7482C26.0936 56.163 23.6994 52.4392 26.4219 50.6717ZM26.3977 17.4378C25.9693 17.1443 26.4737 17.319 25.7965 17.2177C24.5078 17.0221 21.0252 18.5486 19.7227 19.2298C14.409 22.0033 8.6668 28.8814 8.73936 34.7673C10.5256 33.5797 13.1203 33.4993 13.0235 36.3637C12.9406 38.76 10.1559 39.5006 8.72208 37.7435C8.22802 38.1871 8.63916 37.5199 8.41805 38.3339C8.31094 38.7356 8.34895 38.6867 8.33513 39.0919C8.3144 39.5914 8.3835 40.1084 8.36622 40.7057C8.34895 44.7263 12.602 50.001 14.3986 51.4926C26.5151 61.5564 42.3493 55.4469 46.5747 42.7772C47.6388 39.5879 47.3555 38.5225 47.5939 35.2354C47.7286 33.3631 49.121 33.5308 49.3456 35.2354C50.04 40.5345 47.0722 47.3253 43.7969 50.9651C41.3991 53.6304 38.1687 56.163 33.3905 57.5113C27.5205 59.1636 23.8376 58.0248 18.7553 56.4424C21.1392 58.5802 26.3078 59.6806 30.4573 59.5304C34.7863 59.3732 38.535 57.8082 41.3162 55.887C46.6023 52.2332 51.4911 45.4075 50.4995 35.6476C50.4753 33.3736 50.0746 35.0119 49.2765 33.0732C48.1847 33.0941 47.9187 33.2408 47.0998 32.7378C46.5228 31.8401 46.8303 30.2751 46.7751 29.1468C45.1098 30.2926 42.8813 32.9125 41.6272 34.1945C40.7323 35.1097 37.267 38.7775 36.4344 39.1373C35.5602 38.6168 35.999 38.5993 35.0455 38.278C33.6911 38.2151 33.7049 37.74 32.6235 36.6571C31.784 35.8188 31.4903 35.431 30.63 34.8197C29.9528 34.7778 30.3432 34.439 29.0753 35.8048C27.4549 37.5479 21.2878 43.9753 20.3826 44.3456C19.5949 43.9648 19.7987 43.7448 18.9937 43.5072C17.5322 43.4234 14.1049 39.284 14.0876 39.1233C14.0013 38.2815 28.8645 23.7045 29.0856 23.68C30.9824 24.1761 32.8861 27.7566 34.89 28.7312C35.3011 28.0675 37.5365 25.8388 38.3242 25.0843C39.4022 24.0503 40.8498 22.6041 41.6203 21.5073C33.6877 21.6086 34.4512 22.192 34.4996 17.4133C33.4562 17.1863 32.5924 16.9906 31.5007 16.8789C31.1552 16.8439 30.1912 16.7531 29.8906 16.7671C28.291 16.8509 28.6192 17.0395 28.4983 17.2596C30.8339 18.1469 30.4158 21.7344 27.7209 21.8217C25.3163 21.8985 24.3523 19.0376 26.408 17.4343L26.3977 17.4378Z" fill="white"/>
<path fill-rule="evenodd" clip-rule="evenodd" d="M17.1557 39.8809C16.4854 39.3744 16.6374 39.6504 16.2505 38.7527L22.7078 32.4091C24.0483 30.9839 28.2806 26.4428 29.4208 25.8594C29.7766 26.3449 29.7835 26.1982 29.9563 26.7467C31.1137 27.4278 31.7183 28.2243 32.5199 29.0417C33.3283 29.8626 33.8673 30.9734 35.27 30.7778L43.7001 22.3034C44.5224 21.2379 45.0718 21.3567 44.7505 19.942C43.2026 19.2922 38.3208 19.9001 36.1821 19.652L36.3583 16.2602L52.1924 16.0681L52.0784 31.3297C49.9847 31.3681 48.8066 31.7593 48.5406 30.8721C48.5716 28.9753 48.9413 24.9582 48.3471 23.512C46.7647 23.3024 45.476 25.3983 44.6295 26.2436C42.8917 27.9762 35.4186 35.6787 34.4443 36.1048C33.5391 35.2106 30.1429 31.424 29.0753 31.0747C27.949 31.6231 19.8574 40.0556 18.8037 41.362C17.9503 40.9953 17.5979 40.5132 17.1522 39.8809H17.1557ZM17.781 2.14082L37.6401 2.19671L37.609 5.45234L17.6324 5.43837L17.7845 2.14082H17.781ZM7.15699 54.8317C9.50636 56.2744 12.1045 60.7177 20.7385 62.9847C37.4916 67.3826 55.7131 55.0343 54.8148 34.2046H53.0942C54.4244 62.2407 20.2617 71.8224 6.21724 50.4023C-0.260822 40.5202 0.851677 27.3929 9.30597 18.3142C11.0265 16.4663 12.6849 15.076 15.3107 13.6333C20.6486 10.6991 27.1474 9.77687 33.1176 11.0903C35.4566 11.6038 39.3538 12.9382 40.7289 14.3389C39.1292 14.4961 37.6989 14.3739 36.1303 14.4088C33.9191 14.4612 34.5203 15.2262 34.4892 17.4129C34.4443 22.1916 33.6807 21.6082 41.6099 21.5069C40.8394 22.6038 39.3918 24.0499 38.3139 25.0839C37.5261 25.8384 35.2908 28.0706 34.8796 28.7308C32.8757 27.7562 30.9686 24.1757 29.0753 23.6797C28.8507 23.7006 13.9875 38.2776 14.0773 39.1229C14.0946 39.2836 17.5219 43.423 18.9833 43.5069C22.2794 40.2582 25.6341 36.3878 29.0753 33.3278C29.559 33.5443 29.2031 33.2055 29.9252 33.8552C30.3813 34.2674 30.3294 34.2395 30.6162 34.8159C31.4765 35.4237 31.7702 35.8149 32.6097 36.6533C33.6946 37.7361 33.6773 38.2112 35.0316 38.2741C35.8021 37.5021 46.0426 26.9143 46.8994 26.5475L47.086 32.7339C47.9083 33.237 48.1743 33.0902 49.2626 33.0693L53.6021 32.9854C54.2896 29.8591 53.6332 21.1611 53.8197 17.2557L53.5744 14.4891L43.2234 14.3075C42.446 14.0246 43.0437 14.2621 42.5842 13.6298C41.4475 12.0719 38.9116 11.1148 37.0493 10.4266C34.351 9.43105 31.6389 8.86166 28.5225 8.77783L28.5294 7.21639L39.2467 7.0557C39.5058 5.58508 39.5542 1.95918 39.2018 0.565404C37.7991 0.251019 17.4355 0.195129 16.2885 0.540952C15.6597 1.00554 15.8048 5.66542 15.981 6.34659C16.5545 8.56475 23.0498 6.39549 26.7397 7.35611L26.7155 8.68002C23.3573 9.3018 21.5331 9.2005 18.3303 10.3882C5.95466 14.9887 -1.70845 27.8924 0.851677 41.4773C1.36992 44.2369 2.23366 46.6682 3.36344 48.8828C4.74197 51.5865 6.49709 53.5707 7.15699 54.8282V54.8317Z" fill="#178D6A"/>
<path fill-rule="evenodd" clip-rule="evenodd" d="M53.0976 34.2062L50.4822 34.1538L50.4926 35.6489C51.4842 45.4088 46.5954 52.2344 41.3093 55.8882C38.5281 57.8095 34.7794 59.3744 30.4503 59.5316C26.3009 59.6853 21.1289 58.5815 18.7484 56.4437C18.1438 55.9057 16.3299 55.0953 15.4903 54.5154C14.2293 53.6456 13.5901 53.1042 12.5018 52.0353C-1.08657 38.7159 7.68558 15.8287 25.8069 14.4104C27.2649 14.2952 35.6743 14.3126 33.5702 16.44C32.5406 17.4774 28.8783 14.9973 22.4486 16.7683C18.8175 17.7674 16.3161 19.465 14.0773 21.4701C12.1045 23.2377 10.0246 26.0392 8.82572 29.3751C7.81342 32.1941 7.46101 34.9782 7.70977 37.9928C7.74086 38.3561 7.79614 39.0757 7.85833 39.39L8.36621 40.7035C8.38349 40.1061 8.31784 39.5857 8.33512 39.0896C8.35239 38.6844 8.31093 38.7298 8.41804 38.3316C8.63916 37.5177 8.22801 38.1849 8.72207 37.7413C8.114 36.344 8.15201 36.1274 8.7428 34.7616C8.67025 28.8721 14.4089 21.9976 19.7261 19.224C21.0287 18.5428 24.5147 17.0163 25.8 17.2119C26.4771 17.3132 25.9727 17.1386 26.4011 17.432L28.4914 17.2574C28.6158 17.0373 28.2841 16.8487 29.8837 16.7648C30.1843 16.7474 31.1517 16.8417 31.4937 16.8766C32.5855 16.9884 33.4493 17.184 34.4927 17.4111C34.5237 15.2243 33.9191 14.4628 36.1338 14.4069C37.7023 14.3685 39.1327 14.4943 40.7323 14.3371C39.3572 12.9363 35.46 11.6054 33.121 11.0884C27.1509 9.775 20.6521 10.6972 15.3141 13.6315C12.6884 15.0741 11.03 16.4644 9.30942 18.3123C0.855121 27.391 -0.257378 40.5148 6.22068 50.4005C20.2651 71.8206 54.4278 62.2388 53.0976 34.2027V34.2062Z" fill="#3976BD" stroke="#3976BD" stroke-width="0.0762313" stroke-miterlimit="22.9256"/>
<path fill-rule="evenodd" clip-rule="evenodd" d="M18.745 56.4465C23.8307 58.0289 27.5137 59.1676 33.3802 57.5154C38.1584 56.1705 41.3888 53.6345 43.7865 50.9692C47.0618 47.3293 50.0262 40.5386 49.3352 35.2395C49.1141 33.5383 47.7217 33.3671 47.5835 35.2395C47.3451 38.5265 47.6285 39.592 46.5643 42.7812C42.3389 55.4474 26.5083 61.5605 14.3882 51.4967C12.5951 50.0051 8.34205 44.7304 8.35587 40.7098L7.84799 39.3963C7.7858 39.082 7.73052 38.3624 7.69943 37.9991C7.45067 34.988 7.80308 32.2004 8.81538 29.3814C10.0143 26.0455 12.0941 23.2475 14.0669 21.4764C16.3057 19.4679 18.8106 17.7737 22.4383 16.7746C28.868 15.0036 32.5303 17.4837 33.5598 16.4463C35.6639 14.3189 27.2545 14.3015 25.7965 14.4167C7.67524 15.835 -1.09691 38.7187 12.4915 52.0416C13.5798 53.107 14.2189 53.6519 15.48 54.5217C16.323 55.1016 18.1334 55.912 18.738 56.45L18.745 56.4465Z" fill="#178D6A"/>
<path fill-rule="evenodd" clip-rule="evenodd" d="M54.8148 34.2047C55.7131 55.0344 37.495 67.3827 20.7384 62.9848C12.1079 60.7178 9.50636 56.278 7.15698 54.8318C9.28179 58.9432 16.3748 63.8406 22.3485 65.4021C29.9045 67.3792 37.5607 65.9645 43.327 62.6076C53.0907 56.9242 61.5243 43.1437 55.1361 27.2148C55.0981 27.2812 55.0635 27.372 55.0462 27.4279C55.029 27.4838 54.9806 27.5781 54.9633 27.648C54.5004 29.3038 55.1568 26.2507 54.8459 28.1231L54.8182 34.2012L54.8148 34.2047Z" fill="#3976BD"/>
<path fill-rule="evenodd" clip-rule="evenodd" d="M17.6324 5.44208L37.6091 5.45605L37.6436 2.20042L17.7845 2.14453L17.6324 5.44208Z" fill="white"/>
<path fill-rule="evenodd" clip-rule="evenodd" d="M17.1557 39.8809C18.1438 39.8006 17.3111 40.1359 18.1783 39.3884L28.7643 28.6295C30.2016 27.2322 29.9874 27.5081 29.9563 26.7466C29.7801 26.1982 29.7766 26.3484 29.4208 25.8594C28.2806 26.4427 24.0449 30.9838 22.7078 32.4091L16.2505 38.7526C16.6374 39.6539 16.4854 39.3779 17.1557 39.8809Z" fill="white"/>
<path fill-rule="evenodd" clip-rule="evenodd" d="M35.277 30.7806C35.9887 31.2487 35.7399 31.2487 36.4275 31.6784C37.0355 31.4059 45.0061 23.5149 45.2929 22.8966C44.4119 22.5473 44.7159 23.0503 43.7036 22.3027L35.2735 30.7771L35.277 30.7806Z" fill="white"/>
<path fill-rule="evenodd" clip-rule="evenodd" d="M26.4219 50.6705C23.6994 52.438 26.0971 56.1618 28.7505 54.747C31.4247 53.3218 29.3793 48.7458 26.4219 50.6705Z" fill="#178D6A"/>
<path fill-rule="evenodd" clip-rule="evenodd" d="M8.7428 34.7668C8.15201 36.1291 8.114 36.3457 8.72207 37.7464C10.1559 39.5035 12.944 38.7629 13.0235 36.3666C13.1202 33.5022 10.529 33.5826 8.73935 34.7703L8.7428 34.7668Z" fill="#178D6A"/>
<path fill-rule="evenodd" clip-rule="evenodd" d="M26.3977 17.4364C24.342 19.0397 25.3059 21.9006 27.7106 21.8238C30.4054 21.74 30.8235 18.149 28.4879 17.2617L26.3977 17.4364Z" fill="#178D6A"/>
</g>
<defs>
<clipPath id="clip0">
<rect width="57" height="66" fill="white" transform="translate(0.364532 0.310547)"/>
</clipPath>
</defs>
</svg>
