<svg width="34" height="42" viewBox="0 0 34 42" fill="none" xmlns="http://www.w3.org/2000/svg">
<path fill-rule="evenodd" clip-rule="evenodd" d="M2.60719 2.80201L19.3648 2.8326C19.7894 8.38444 18.1773 9.2868 22.3435 9.24857C23.2259 9.24092 23.8959 9.21798 24.838 9.32504L24.9242 14.8004C26.2377 13.7069 27.3655 11.4892 27.1997 8.75915C27.067 6.58736 25.2758 5.2491 24.2077 4.00262C19.9022 -0.998626 21.8858 0.156095 13.2549 0.156095C-2.89909 0.156095 0.258731 -2.87218 0.258731 18.5093C0.258731 24.1299 0.272 29.7506 0.258731 35.3713C0.252097 37.9789 -0.159215 40.9078 2.22905 41.3284L23.6704 41.3743C26.8481 41.3819 27.193 40.9155 27.1864 37.2601C27.1798 34.5913 27.2594 31.7159 27.1267 29.07C24.2674 32.1442 25.1697 33.4901 24.8181 38.6978L2.54749 38.629L2.61383 2.80966L2.60719 2.80201Z" fill="#009E80"/>
<path fill-rule="evenodd" clip-rule="evenodd" d="M22.8411 25.8515C23.0136 25.4845 23.332 25.0103 23.5111 24.7121C24.5394 22.938 27.0736 18.7932 27.2727 17.3326L26.2444 16.7208C25.0436 17.3708 22.0251 23.4197 21.03 25.2321C19 28.941 17.6002 29.7057 17.912 35.6017C18.9535 35.5558 21.647 34.0034 22.3236 33.101C23.1396 32.0075 29.6211 20.5062 29.787 19.3209L28.898 18.5485C27.6972 19.0532 26.5429 21.8368 25.7535 23.198C23.7301 26.6927 23.8362 27.8321 22.5691 27.228L22.8278 25.8515H22.8411Z" fill="#009E80"/>
<path fill-rule="evenodd" clip-rule="evenodd" d="M26.596 15.4505C27.266 16.4139 29.4022 18.0577 30.4703 18.4476L33.0642 14.0743C32.2217 13.0116 30.331 11.5283 29.17 11.1078L26.596 15.4505Z" fill="#009E80"/>
<path fill-rule="evenodd" clip-rule="evenodd" d="M5.17458 12.1469C5.31389 14.2922 6.33554 13.6585 10.9728 13.6585C16.4326 13.6585 18.2437 14.4754 18.4095 12.1011C17.1557 11.3605 5.75174 11.3758 5.17458 12.1469Z" fill="#009E80"/>
<path fill-rule="evenodd" clip-rule="evenodd" d="M7.72205 32.4043C6.9525 30.921 7.23776 29.3537 8.37219 28.5356C8.7835 29.4148 8.21297 31.5327 7.72205 32.4043ZM8.39209 33.3294C8.68399 31.3874 9.39384 30.0953 9.02233 27.8704C7.50976 27.7251 6.88616 28.742 6.70704 30.5005C6.25592 34.8509 6.09007 31.6015 5.73846 34.4228L6.99894 34.5986L6.18958 36.3953C7.99405 36.0131 6.00383 35.5696 9.36067 33.4976C11.0325 32.4655 12.7175 33.6582 13.4672 31.7085C9.64593 31.9608 9.30759 32.8936 8.39209 33.3218V33.3294Z" fill="#009E80"/>
<path fill-rule="evenodd" clip-rule="evenodd" d="M5.13477 7.23607C5.4134 9.4272 6.41514 8.76299 11.2978 8.76299C13.0094 8.76299 13.2084 8.97675 13.2283 7.2666C11.875 6.2283 8.4518 6.75509 6.74684 6.75509C6.05027 6.75509 5.44657 6.85434 5.13477 7.2437V7.23607Z" fill="#009E80"/>
<path fill-rule="evenodd" clip-rule="evenodd" d="M5.18785 22.9735C6.34881 23.7446 11.8883 23.6606 13.2947 23.1338C13.2084 21.4237 13.2814 21.4924 11.6561 21.4313C7.7884 21.2786 5.29399 20.8205 5.18121 22.9735H5.18785Z" fill="#009E80"/>
<path fill-rule="evenodd" clip-rule="evenodd" d="M7.39699 18.5759H11.2978L13.3079 18.3468L13.3146 16.8885L11.6295 16.5067L8.04713 16.5678H7.07192C4.31215 16.5754 4.206 18.5683 7.39699 18.5683V18.5759Z" fill="#009E80"/>
</svg>
