<svg width="106" height="105" viewBox="0 0 106 105" fill="none" xmlns="http://www.w3.org/2000/svg">
<path fill-rule="evenodd" clip-rule="evenodd" d="M41.0994 34.2757C41.0994 35.8197 41.5395 37.0807 41.5395 38.8654C40.4409 38.8897 40.3333 39.1887 40.504 40.2956C41.0995 44.1573 42.876 43.7402 43.3995 45.7604C43.9764 47.987 44.7004 49.8906 45.7893 51.6921C46.0417 52.1094 46.8211 53.1659 46.8211 53.5086C46.8211 57.4537 40.7336 57.4561 35.9 59.0542C31.8909 60.3797 27.8954 62.8857 27.8954 67.4962C27.8954 73.3617 27.369 72.5902 31.9274 74.8569C33.6945 75.7356 35.6291 76.4041 37.7031 76.9888C49.7104 80.3739 64.8098 79.9202 75.9467 74.3477C78.2725 73.184 78.9508 72.1678 78.9508 68.8075C78.9508 60.2167 71.9628 59.2239 65.2151 57.5335C61.5109 56.6055 60.0251 56.0304 60.0251 53.2901C60.0251 52.6323 60.9536 52.4207 61.8212 50.2656C63.05 47.2132 62.7695 45.4737 63.5844 44.5858C64.0466 44.0823 64.5219 43.8355 64.8633 43.2333C65.3406 42.3911 65.7468 40.4347 65.7468 39.084C65.7468 38.6365 65.2934 38.6821 64.8666 38.6468C65.4247 37.4914 65.1379 33.5671 64.8563 32.3189C64.2779 29.7557 62.6597 27.481 60.2209 26.6504C59.7332 26.4843 59.293 26.4606 58.8271 26.2862C57.4621 25.7751 55.7277 24.2222 51.8827 24.2222C47.2224 24.2222 43.6905 26.1083 41.9779 29.9029C41.5743 30.7973 41.0994 33.0082 41.0994 34.2757Z" fill="#079E80"/>
<path fill-rule="evenodd" clip-rule="evenodd" d="M51.4425 3.67802V15.2615H54.9636V3.67802C66.9144 4.66567 75.3114 7.52734 84.4215 14.8551C85.6144 15.8145 86.4915 16.5198 87.5884 17.6109C89.6113 19.6233 91.2741 21.5403 93.004 23.8159L96.3347 29.0317C96.7073 29.7482 97.0949 30.2326 97.4351 30.9987C98.6375 33.7068 99.7139 36.2886 100.613 39.4264C101.675 43.1353 102.278 46.4358 102.278 50.6675H90.3942V54.1644H102.278C102.278 58.3583 101.704 61.5885 100.694 65.2674C99.5926 69.2758 97.6823 73.8996 95.5011 77.3764C92.91 81.5065 91.1989 83.6353 87.6984 87.1117C83.2015 91.5777 79.6407 93.7962 73.9642 96.6387C68.44 99.4051 61.1865 100.64 54.9636 101.154V89.3519H51.4425V101.154C49.4752 100.699 46.063 100.8 41.3189 99.6246C32.3477 97.4025 25.0994 93.241 18.7076 86.8932C17.6392 85.832 16.9099 85.1506 15.9425 83.9569C10.1352 76.7913 6.10955 68.9788 4.85095 59.5663C4.63237 57.9315 4.34835 55.7951 4.34835 54.1644H15.7918V50.6675H4.34835C4.34835 48.2521 5.28244 42.7932 5.84387 40.5693C7.78261 32.8899 10.8908 27.0971 15.7572 21.1281C18.1475 18.1962 21.8473 14.8884 24.9461 12.7695C25.6063 12.3181 25.9915 11.9902 26.6147 11.5854C27.2621 11.1648 27.8952 10.8286 28.543 10.4407L32.4417 8.41165C38.413 5.65017 43.4381 4.33949 51.4425 3.67802ZM51.4425 104.432C60.9455 104.432 67.1058 103.552 75.7976 99.5522C77.2619 98.8784 78.4977 98.1788 79.82 97.4276C82.3831 95.9715 86.8606 92.7778 88.9097 90.7189C93.7236 85.882 95.0469 84.6284 98.7993 78.4665L100.988 74.3022C102.667 70.1973 103.058 69.8762 104.259 65.0928C106.276 57.0589 106.388 48.1431 104.347 40.0883C103.147 35.3512 102.825 34.9316 101.05 30.6865C98.8732 25.4779 94.6634 19.8292 90.6693 15.8625C89.5523 14.7532 88.7296 13.8714 87.5025 12.8879C86.9239 12.4242 86.4275 11.988 85.8239 11.4953C85.178 10.9682 84.631 10.5806 83.9519 10.0761C76.7304 4.71152 65.3114 0.399658 55.4037 0.399658C45.6148 0.399658 38.7263 1.45614 30.7562 5.42639C24.924 8.33167 20.2992 11.5663 15.7336 16.0778C13.0451 18.7345 9.42273 23.7195 7.57881 26.9935C4.29083 32.8314 0.96992 42.3803 1.0459 49.3548C1.06031 50.681 0.825134 51.4899 0.825134 52.416C0.825134 53.3246 1.06274 53.9723 1.04883 55.2558C1.02332 57.6006 1.6898 61.6157 2.19134 63.7375C4.07961 71.7256 8.28596 81.1322 14.1996 86.9991C14.8509 87.6453 15.0601 88.0886 15.7336 88.7541C25.056 97.9661 37.9276 104.432 51.4425 104.432Z" fill="#4F84C3"/>
<path fill-rule="evenodd" clip-rule="evenodd" d="M25.6623 64.4366C25.6623 64.0586 25.5594 64.1395 25.9148 64.1395C26.3687 62.5375 27.154 61.836 28.1494 60.7549C30.2422 58.4819 33.5844 56.8519 36.698 56.1315C35.6615 55.2368 32.1956 54.9291 34.2722 52.1937C34.6828 51.6529 34.997 51.2163 35.129 50.4491C35.129 50.0857 35.0314 50.1659 35.3776 50.1659L36.0551 47.1879C36.3454 46.4042 35.9788 47.0702 36.6243 46.4418C37.4986 45.5907 37.8944 44.2797 38.0185 42.7996C37.3947 41.9542 37.2815 42.7431 37.3329 41.062C37.3933 39.0883 37.8339 37.2245 36.1425 35.0462C35.1036 33.7082 34.2716 33.5255 33.0046 33.1358C31.6891 32.7311 30.8683 31.9474 29.166 31.7027C25.926 31.237 22.6293 32.4764 21.3778 34.1412C19.6208 36.4784 19.3788 40.6771 20.1931 42.3625C17.3966 42.5936 21.2596 47.0329 21.3161 47.1483C21.5374 47.6007 21.9202 49.8305 22.921 51.4554C23.4886 52.3771 24.547 53.3472 23.5534 54.6575C21.966 56.7511 14.3066 56.1381 10.9747 60.5268C9.98757 61.8269 10.2188 61.945 9.93467 63.8753C9.43787 67.2515 10.6978 67.7882 11.9197 68.5007L16.9722 70.4767C18.8283 71.0824 22.4443 71.8857 24.7488 71.9775C25.7903 72.0191 25.3874 71.7825 25.3091 70.9894C24.9526 67.3773 25.6323 65.833 25.6623 64.4366Z" fill="#4F84C3"/>
<path fill-rule="evenodd" clip-rule="evenodd" d="M83.5721 55.2727C83.2506 55.2727 83.3287 55.3538 83.3287 55.0386C82.1354 54.1865 82.1354 53.3574 83.0641 52.1301C85.1686 49.3488 83.5764 48.4994 85.7117 46.0172C86.5142 45.0844 86.6531 44.0088 86.6531 42.3623C85.6292 42.2756 86.3085 42.4527 86.2208 39.0762C86.0887 33.987 82.6438 33.614 81.3402 32.9951C80.6928 32.6877 80.6693 32.487 79.831 32.3279L79.6243 32.0902C78.7339 32.0185 78.2988 31.7303 77.4035 31.6592C76.51 31.5882 75.4763 31.6246 74.6662 31.7691C67.0685 33.1245 68.8277 39.7628 68.8277 42.3623C68.1697 42.4338 68.268 42.4638 67.9474 42.7994C68.0788 44.3668 68.5404 45.4544 69.4361 46.3478C70.2006 47.1106 69.9594 46.7403 70.297 47.8969C70.6422 49.079 71.0892 50.5143 71.6949 51.5355C71.8964 51.8753 72.6025 52.7679 72.6756 53.1389C72.9653 54.6103 71.5233 55.5806 70.1481 55.6943V56.1313C71.9708 56.282 75.2173 57.9318 76.4891 58.7946C78.523 60.1743 79.5611 61.2718 80.6434 63.6297C81.9113 66.392 81.1158 70.9025 81.2491 71.6733C81.4111 72.6097 87.8948 70.9624 88.4407 70.8015C90.5872 70.1691 93.2165 69.3624 94.8928 68.2486C96.0191 67.5003 96.3059 67.0392 96.345 65.3195C96.5508 56.2643 89.6269 57.9111 83.5721 55.2727Z" fill="#4F84C3"/>
<path fill-rule="evenodd" clip-rule="evenodd" d="M25.9148 64.1394C25.5594 64.1394 25.6624 64.0584 25.6624 64.4365C26.0178 64.4365 25.9148 64.5174 25.9148 64.1394Z" fill="#537FA7"/>
<path fill-rule="evenodd" clip-rule="evenodd" d="M35.3776 50.1657C35.0314 50.1657 35.129 50.0855 35.129 50.4489C35.4752 50.4489 35.3776 50.5291 35.3776 50.1657Z" fill="#537FA7"/>
<path fill-rule="evenodd" clip-rule="evenodd" d="M83.5721 55.2728C83.5721 54.9576 83.6502 55.0386 83.3287 55.0386C83.3287 55.3539 83.2506 55.2728 83.5721 55.2728Z" fill="#537FA7"/>
<path fill-rule="evenodd" clip-rule="evenodd" d="M79.8311 32.328L79.6244 32.0903L79.8311 32.328Z" fill="#537FA7"/>
</svg>
