<svg width="106" height="83" viewBox="0 0 106 83" fill="none" xmlns="http://www.w3.org/2000/svg">
<path fill-rule="evenodd" clip-rule="evenodd" d="M3.88271 19.5433H44.7657V23.4501C44.7657 27.4846 48.6645 31.0579 53.1466 31.0579C57.0546 31.0579 61.1188 27.4879 61.1188 23.4501V19.5433H102.002V78.5559H3.88271V19.5433ZM48.0362 23.0389C47.7875 21.6564 48.0362 16.3931 48.0362 14.6084C48.0362 12.3387 47.6978 8.64053 48.465 6.60935C50.105 2.268 57.217 2.6174 57.8255 8.25708C58.0691 10.5145 57.8482 14.2431 57.8482 16.6646C57.8482 18.934 58.1867 22.633 57.4194 24.6637C55.8114 28.9194 49.0779 28.826 48.0362 23.0389ZM44.7657 16.0478C30.5929 16.0478 15.6026 16.0478 0.612152 16.0478V82.0514H105.272V16.0478H61.1188C61.1188 12.7483 61.7066 7.67358 60.3588 4.88637C59.003 2.08235 56.083 0.194251 52.9422 0.199964C49.9026 0.205356 46.995 1.95577 45.5766 4.73203C44.1578 7.50942 44.7657 12.7286 44.7657 16.0478Z" fill="#4F84C3"/>
<path fill-rule="evenodd" clip-rule="evenodd" d="M42.5171 64.3683H19.2138C20.4661 59.1465 25.5176 55.5187 30.8641 55.5226C36.8785 55.527 42.1593 60.2964 42.5171 64.3683ZM15.33 67.8638H46.4009C46.4009 58.6409 39.1118 51.9584 30.8632 52.0185C22.3243 52.0808 15.337 59.2521 15.33 67.8638Z" fill="#079E80"/>
<path fill-rule="evenodd" clip-rule="evenodd" d="M36.9979 37.8149L37.1873 38.0491C37.455 47.3931 26.1634 47.6593 24.6681 40.1651C24.0021 36.8277 26.3537 33.5693 29.6118 32.8807C32.6838 32.2315 36.9296 34.474 36.9979 37.8149ZM24.3242 46.3327L24.5021 46.4795C26.5254 47.7216 28.5342 49.1717 31.2144 48.9003C33.6546 48.6532 35.857 47.8777 37.6694 46.1269C39.4745 44.3832 40.2329 42.2293 40.6031 39.8153C40.7691 38.7335 40.4252 36.9468 40.094 35.9628C39.7017 34.7977 39.0959 33.9728 38.4288 32.8906L38.2481 32.703C36.8448 30.7926 33.8018 29.4086 31.4857 29.4055C28.2437 29.4013 26.3701 29.9236 24.17 32.1367C20.2036 36.1265 20.1561 42.5451 24.3242 46.3327Z" fill="#079E80"/>
<path fill-rule="evenodd" clip-rule="evenodd" d="M57.807 49.7692L57.8129 50.5917C58.8694 51.2043 71.6322 50.7973 73.997 50.7973C79.5161 50.7973 85.0353 50.7973 90.5545 50.7973V47.3018H57.8482L57.807 49.7692Z" fill="#4F84C3"/>
<path fill-rule="evenodd" clip-rule="evenodd" d="M57.807 62.1064L57.8158 62.5177C58.6418 63.0005 71.9477 62.7233 73.997 62.7233C79.5161 62.7233 85.0353 62.7233 90.5545 62.7233V59.2278H57.8482L57.807 62.1064Z" fill="#4F84C3"/>
<path fill-rule="evenodd" clip-rule="evenodd" d="M57.807 37.4321L57.7809 38.4602C57.9369 39.1105 58.7316 38.8948 59.4754 38.881C69.3 38.6984 80.6805 38.8715 90.5545 38.8715V35.5815H57.8482L57.807 37.4321Z" fill="#4F84C3"/>
<path fill-rule="evenodd" clip-rule="evenodd" d="M57.7809 38.4602L57.807 37.4321C57.5553 37.9298 57.548 37.913 57.7809 38.4602Z" fill="#1A1718"/>
<path fill-rule="evenodd" clip-rule="evenodd" d="M57.8129 50.5918L57.807 49.7693C57.4322 50.1275 57.6439 50.321 57.8129 50.5918Z" fill="#1A1718"/>
<path fill-rule="evenodd" clip-rule="evenodd" d="M38.4288 32.8905L38.2481 32.7029L38.4288 32.8905Z" fill="#1A1718"/>
<path fill-rule="evenodd" clip-rule="evenodd" d="M37.1873 38.0489L36.9979 37.8147L37.1873 38.0489Z" fill="#1A1718"/>
<path fill-rule="evenodd" clip-rule="evenodd" d="M24.5021 46.4793L24.3242 46.3325L24.5021 46.4793Z" fill="#1A1718"/>
<path fill-rule="evenodd" clip-rule="evenodd" d="M57.8158 62.5177L57.807 62.1064L57.8158 62.5177Z" fill="#1A1718"/>
</svg>
