<svg width="173" height="173" viewBox="0 0 173 173" fill="none" xmlns="http://www.w3.org/2000/svg">
<path d="M11.2226 138.616C11.2226 109.367 11.2226 80.1185 11.2226 50.8687C55.5682 50.8687 99.9139 50.8687 144.268 50.8687C144.268 66.2512 144.268 81.4336 144.268 96.7489C137.894 94.958 131.6 94.9068 125.29 96.5086C119.008 98.1041 113.584 101.265 108.761 105.772C108.561 102.23 106.789 100.241 104.149 100.35C101.778 100.448 99.6368 102.615 99.9492 104.912C100.095 105.99 100.704 107.142 101.432 107.97C102.517 109.202 104.092 109.392 105.882 108.928C98.3329 118.938 96.1239 129.843 99.1803 141.855C98.4034 141.855 97.8171 141.855 97.2308 141.855C70.4334 141.855 43.6361 141.83 16.8387 141.894C14.1716 141.9 12.3134 141.051 11.2226 138.616ZM73.3456 69.4037C73.3424 67.0554 71.2856 65.0082 68.9373 65.0162C66.6002 65.0242 64.5386 67.0938 64.5434 69.4261C64.5482 71.7728 66.6066 73.8216 68.9517 73.8152C71.292 73.8104 73.3472 71.744 73.3456 69.4037ZM86.5753 73.8264C88.9156 73.8584 90.9916 71.8241 91.0252 69.4678C91.0589 67.1291 89.0229 65.0482 86.6666 65.0162C84.3343 64.9842 82.2455 67.0313 82.2151 69.3748C82.1846 71.7135 84.2222 73.7944 86.5753 73.8264ZM108.697 69.3813C108.671 67.0393 106.586 64.997 104.25 65.0258C101.895 65.0547 99.8627 67.1275 99.8963 69.4629C99.9299 71.8113 102.012 73.8568 104.338 73.8248C106.683 73.7944 108.723 71.7168 108.697 69.3813ZM126.357 69.5382C126.445 67.2155 124.446 65.0995 122.082 65.0162C119.772 64.9361 117.642 66.9496 117.557 69.2948C117.472 71.6238 119.461 73.7287 121.83 73.8152C124.145 73.9017 126.268 71.8962 126.357 69.5382ZM38.012 87.1298C38.0424 84.7991 35.9968 82.7231 33.6453 82.6942C31.3018 82.6654 29.2354 84.695 29.2098 87.0513C29.1841 89.3836 31.2329 91.4708 33.5716 91.4948C35.9087 91.5172 37.9815 89.4813 38.012 87.1298ZM51.3073 91.4836C53.654 91.4596 55.6964 89.3852 55.674 87.0449C55.6531 84.6918 53.5836 82.6574 51.24 82.683C48.8981 82.7087 46.8494 84.7911 46.8718 87.1186C46.8942 89.4653 48.9718 91.5076 51.3073 91.4836ZM68.9373 82.683C66.5986 82.691 64.5338 84.7654 64.5434 87.0993C64.553 89.4364 66.629 91.5012 68.9613 91.4932C71.3016 91.4852 73.3616 89.414 73.3552 87.0753C73.3472 84.7302 71.2808 82.675 68.9373 82.683ZM91.0252 87.0481C90.9996 84.7062 88.914 82.6638 86.5785 82.6942C84.2238 82.7231 82.191 84.7959 82.2247 87.133C82.2583 89.4781 84.3439 91.5269 86.6682 91.4948C89.0165 91.4612 91.0509 89.3852 91.0252 87.0481ZM108.686 87.141C108.731 84.8039 106.706 82.7231 104.348 82.683C102.022 82.6446 99.9267 84.6805 99.8851 87.0241C99.8434 89.3531 101.875 91.442 104.225 91.4836C106.555 91.5252 108.641 89.4973 108.686 87.141ZM122.082 82.683C119.769 82.6029 117.637 84.6213 117.557 86.968C117.478 89.2795 119.497 91.4115 121.843 91.4932C124.163 91.5733 126.284 89.5662 126.368 87.2067C126.45 84.8872 124.44 82.7647 122.082 82.683ZM33.5588 109.149C35.8975 109.178 37.9703 107.142 38.0023 104.787C38.0344 102.45 35.9952 100.372 33.6421 100.348C31.2986 100.324 29.2306 102.354 29.2018 104.708C29.1713 107.041 31.2121 109.122 33.5588 109.149ZM51.2529 109.158C53.5916 109.176 55.6644 107.127 55.6836 104.779C55.7028 102.442 53.6508 100.366 51.3041 100.348C48.9638 100.331 46.8894 102.383 46.8734 104.728C46.8558 107.062 48.9126 109.142 51.2529 109.158ZM68.9133 109.158C71.252 109.182 73.3232 107.148 73.3536 104.795C73.384 102.469 71.3337 100.385 68.987 100.358C66.6306 100.329 64.5787 102.346 64.553 104.713C64.5274 107.049 66.5746 109.134 68.9133 109.158ZM86.6265 109.149C88.9685 109.139 91.0236 107.073 91.0172 104.733C91.0108 102.381 88.9556 100.337 86.6057 100.347C84.2638 100.356 82.2086 102.423 82.2151 104.761C82.2215 107.106 84.2846 109.158 86.6265 109.149ZM38.012 122.43C38.0184 120.086 35.9632 118.021 33.6165 118.015C31.2585 118.009 29.2082 120.049 29.2018 122.409C29.1954 124.744 31.2601 126.819 33.5956 126.827C35.9376 126.833 38.0055 124.775 38.012 122.43ZM51.3073 118.026C48.9574 118.004 46.899 120.037 46.883 122.395C46.867 124.73 48.919 126.811 51.2545 126.827C53.5916 126.843 55.6612 124.801 55.6836 122.454C55.706 120.126 53.6524 118.047 51.3073 118.026ZM73.3456 122.388C73.3312 120.033 71.2696 117.996 68.9213 118.015C66.5698 118.034 64.529 120.099 64.5434 122.439C64.5594 124.788 66.6274 126.833 68.9661 126.816C71.3145 126.798 73.36 124.73 73.3456 122.388ZM86.5705 126.827C88.9076 126.86 90.9884 124.825 91.0236 122.47C91.0589 120.133 89.0229 118.05 86.6682 118.017C84.3295 117.983 82.2471 120.019 82.2134 122.374C82.183 124.701 84.227 126.793 86.5705 126.827Z" fill="#009E80"/>
<path d="M11.2226 20.246C12.4304 17.7471 14.4391 16.8917 17.1638 16.9911C21.074 17.132 24.9937 17.0231 28.9086 17.0199L28.875 16.9846C28.8814 20.7538 28.883 24.5214 28.8958 28.2905C28.9054 31.2908 30.6434 33.2274 33.3137 33.2274C35.9952 33.229 37.7076 31.3164 37.7204 28.2905C37.7348 24.5214 37.7396 20.7538 37.7492 16.9846L37.7156 17.0199C64.4281 17.0199 91.1422 17.0199 117.855 17.0199L117.821 16.9846C117.831 20.7554 117.837 24.5246 117.848 28.2953C117.856 31.302 119.586 33.2386 122.255 33.2386C124.925 33.2386 126.662 31.3036 126.673 28.2969C126.686 24.5262 126.687 20.757 126.692 16.9862L126.662 17.0167C130.883 17.0199 135.102 17.0167 139.323 17.0295C142.539 17.0391 144.343 18.838 144.344 22.0225C144.349 28.204 144.346 34.3856 144.346 40.5671C144.346 40.9996 144.346 41.4337 144.346 42.06C143.628 42.06 143.01 42.06 142.393 42.06C104.952 42.06 67.5085 42.0616 30.0668 42.0584C23.7859 42.0584 17.505 42.0424 11.2242 42.0344C11.2226 34.7716 11.2226 27.5088 11.2226 20.246Z" fill="#009E80"/>
<path d="M131.387 159.523C128.898 158.847 126.32 158.399 123.937 157.459C112.703 153.029 105.708 141.619 106.685 129.58C107.736 116.64 117.763 106.124 130.676 104.421C145.474 102.469 159.025 112.39 161.661 127.107C164.408 142.448 153.568 157.237 138.104 159.257C137.822 159.294 137.553 159.432 137.279 159.522C135.313 159.523 133.351 159.523 131.387 159.523ZM138.749 127.427C138.749 125.566 138.767 123.861 138.744 122.155C138.711 119.445 136.827 117.438 134.343 117.43C131.871 117.422 129.952 119.445 129.928 122.147C129.901 125.287 129.894 128.427 129.92 131.566C129.944 134.369 131.831 136.232 134.658 136.255C137.798 136.279 140.939 136.277 144.079 136.253C146.755 136.234 148.799 134.264 148.756 131.8C148.713 129.383 146.712 127.477 144.128 127.433C142.414 127.405 140.699 127.427 138.749 127.427Z" fill="#009E80"/>
<path d="M28.9086 17.0197C28.9038 15.6965 28.8702 14.3718 28.9006 13.0487C28.9567 10.6683 30.8741 8.79256 33.2368 8.76212C35.6765 8.73009 37.6563 10.6043 37.722 13.0487C37.7573 14.3718 37.7204 15.6965 37.7156 17.0197L37.7492 16.9844C34.7922 16.9844 31.8336 16.9844 28.8766 16.9844L28.9086 17.0197Z" fill="#009E80"/>
<path d="M117.853 17.0196C117.848 15.6965 117.813 14.3718 117.845 13.0486C117.903 10.6619 119.814 8.79092 122.176 8.76209C124.616 8.73165 126.594 10.5978 126.665 13.047C126.703 14.3686 126.665 15.6933 126.66 17.0164L126.69 16.986C123.733 16.986 120.776 16.9844 117.819 16.9844L117.853 17.0196Z" fill="#009E80"/>
<path d="M28.875 16.9844C31.832 16.9844 34.7906 16.9844 37.7476 16.9844C37.738 20.7535 37.7332 24.5211 37.7188 28.2902C37.706 31.3161 35.9936 33.2288 33.3121 33.2272C30.6418 33.2256 28.9038 31.2905 28.8942 28.2902" fill="white"/>
</svg>
