<svg width="40" height="44" viewBox="0 0 40 44" fill="none" xmlns="http://www.w3.org/2000/svg">
<g clip-path="url(#clip0)">
<path fill-rule="evenodd" clip-rule="evenodd" d="M27.1987 29.506L27.6302 29.1043C28.5547 29.353 34.8866 37.0732 36.2203 38.5394C36.8478 39.2279 37.1224 39.196 37.1448 40.3691C36.0241 40.3436 35.7271 39.5276 34.3655 37.9848C33.0375 36.4739 27.9776 31.189 27.1987 29.4996V29.506ZM19.3987 30.6152C9.87284 30.6152 6.08491 15.7167 15.4315 10.572C20.7043 7.67138 27.0474 11.6175 28.2241 17.4698C28.6724 19.7075 28.5547 22.2384 27.7871 24.1828C26.3134 27.9122 23.0746 30.6152 19.3987 30.6152ZM7.6987 19.7457C7.6987 23.5517 8.90904 26.8603 11.128 29.3721C14.4509 33.1334 19.5836 34.402 23.8815 32.1644C24.4026 31.8902 24.6099 31.6671 25.2487 31.5014C26.4646 32.4257 29.3056 36.0085 30.5608 37.4365C31.6646 38.6924 34.9315 43.0402 36.3603 43.0402C38.6521 43.0402 39.4815 42.0967 39.4815 39.4893C39.4815 37.8637 35.744 34.2362 34.6569 32.9995L29.3448 26.8412C29.6138 25.5343 30.9026 23.5899 30.9026 20.1856C30.9026 6.37724 14.4116 1.58957 8.86422 14.4098C8.32068 15.6721 7.6987 17.8587 7.6987 19.7394V19.7457Z" fill="#009E80"/>
<path fill-rule="evenodd" clip-rule="evenodd" d="M10.0409 33.9436C10.0409 36.0853 9.40214 37.5512 13.3582 38.6029L13.5543 35.9387C13.5543 38.5583 13.7784 38.8324 14.731 39.0364C17.2302 39.5718 19.9871 39.6546 22.5142 39.2594C23.2707 39.1383 23.9487 38.8961 24.6659 38.826C24.8284 38.0357 25.0582 36.8884 25.0582 35.945L25.2543 38.6093L27.731 37.4365C29.0702 36.4868 28.0728 35.9387 26.8625 34.5619C26.2461 33.8608 25.753 33.1533 25.0582 32.6243C24.4474 32.7836 24.3858 32.9238 23.8086 33.1979C23.3491 33.4146 22.8672 33.5803 22.4918 33.6951C19.1297 34.7276 15.1177 33.95 12.3552 31.7765C11.694 31.2603 11.2065 30.6229 10.6349 30.1895C10.2483 31.1073 10.0521 32.5796 10.0521 33.9628L10.0409 33.9436Z" fill="#009E80"/>
<path fill-rule="evenodd" clip-rule="evenodd" d="M24.0832 20.632V19.523C24.0832 17.1455 21.8922 14.6406 19.7909 14.6406C17.4431 14.6406 15.8517 15.2589 14.7759 18.0315C13.2181 22.047 16.7259 26.9676 20.9453 25.2722C22.4021 24.6858 24.0832 22.8629 24.0832 20.632Z" fill="#009E80"/>
<path fill-rule="evenodd" clip-rule="evenodd" d="M0.683181 30.3935C1.25473 30.5656 1.6918 30.9991 2.24094 31.2796C2.73965 31.5346 3.41206 31.7896 3.99482 31.9426L4.19094 29.5009C4.19094 30.7951 4.38706 31.0501 4.38706 32.1657C6.15775 32.3315 6.38189 32.8287 9.06594 32.8287C9.06594 31.1712 9.35172 30.1257 9.84482 29.0547C9.07715 28.4682 8.06853 26.2114 7.6987 25.0639C7.16637 23.4255 6.91982 21.7871 6.91982 19.5112C0.593525 21.1879 0.677577 23.1004 0.677577 30.3807L0.683181 30.3935Z" fill="#009E80"/>
<path fill-rule="evenodd" clip-rule="evenodd" d="M30.3198 26.6257C30.8914 27.5947 31.844 28.4681 32.6116 29.3415C34.3039 31.2668 34.4159 31.8597 34.4159 29.2841H34.6121C34.6121 31.203 34.175 32.274 35.6319 31.5919C38.3776 30.3169 37.9237 30.438 37.9237 26.8425C37.9237 24.5347 37.3073 22.8581 36.2259 21.6787C34.9315 20.2698 33.6427 20.0403 31.6871 19.5239C31.6871 24.2415 30.656 25.0001 30.3198 26.6257Z" fill="#009E80"/>
<path fill-rule="evenodd" clip-rule="evenodd" d="M28.3698 5.54648C28.3698 8.35735 29.8267 5.8588 32.6453 8.89275L33.0487 9.3198C36.4052 8.29999 35.8224 1.77954 31.8776 1.77954C30.9082 1.77954 30.0341 2.30857 29.5017 2.85035C29.0366 3.32839 28.3642 4.64777 28.3642 5.55286L28.3698 5.54648Z" fill="#009E80"/>
<path fill-rule="evenodd" clip-rule="evenodd" d="M3.21595 5.54654C3.21595 6.24766 3.58578 7.42045 3.87155 7.90486C4.2806 8.59324 4.80172 8.89281 5.35647 9.31986C6.49957 8.45302 7.25604 7.39496 8.90345 7.14638C9.82802 7.00615 9.87845 7.32484 10.1138 6.28591C10.3323 5.3362 9.87285 3.9977 9.32931 3.23921C7.00948 0.00129473 3.20474 2.66556 3.20474 5.54654H3.21595Z" fill="#009E80"/>
<path fill-rule="evenodd" clip-rule="evenodd" d="M0.487061 17.7483C1.24353 17.9778 1.66939 18.5451 2.63318 18.6343L2.8293 18.8574C3.41766 18.9147 3.94439 19.1633 4.6168 19.1633C5.13232 19.1633 5.55818 18.8765 6.34266 18.8574C6.09051 17.7866 5.78232 18.2327 4.98103 16.6393C3.39525 13.4779 4.65603 11.553 4.98103 9.98499C3.24956 9.98499 1.74223 10.7817 1.08103 11.98C0.728009 12.6238 0.565509 13.3121 0.498267 14.0642V17.7483H0.487061Z" fill="#009E80"/>
<path fill-rule="evenodd" clip-rule="evenodd" d="M34.4159 13.3121C34.4159 14.3128 34.0461 15.7788 33.7043 16.4927C32.903 18.1754 32.522 17.7866 32.2698 18.8574C34.0685 18.902 35.7776 20.2023 35.7776 17.3022L35.9737 18.6343C36.9879 18.5387 37.1728 17.9969 38.1198 17.7483C38.1198 14.4339 38.781 9.98499 33.4409 9.98499C33.8612 10.6989 34.4159 12.184 34.4159 13.3121Z" fill="#009E80"/>
<path fill-rule="evenodd" clip-rule="evenodd" d="M4.96982 13.3121C4.96982 15.1733 5.84956 17.3659 7.11594 17.7483C7.24482 16.0019 8.11896 13.8284 8.80818 12.5728C9.23404 11.7952 9.63749 11.2152 10.1866 10.5905C10.747 9.95313 11.184 9.12453 11.9909 8.87595V8.42978C10.1362 7.93899 8.33749 7.35897 6.37628 9.58345C5.74309 10.3037 4.96982 11.9736 4.96982 13.3058V13.3121Z" fill="#009E80"/>
<path fill-rule="evenodd" clip-rule="evenodd" d="M26.6159 8.42979C26.8513 9.42411 27.9215 9.50059 29.625 12.3306C30.3422 13.5225 31.3677 16.021 31.4909 17.7483C34.3039 16.8943 35.0099 7.98999 28.3698 7.98999C27.5293 7.98999 27.3108 8.25132 26.6159 8.43616V8.42979Z" fill="#009E80"/>
<path fill-rule="evenodd" clip-rule="evenodd" d="M13.7448 26.8485C14.1595 28.6071 17.7625 29.6456 19.2194 29.6902C20.2336 29.7221 21.8306 29.2187 22.5535 28.8874C23.3267 28.5306 24.6379 27.7788 24.8565 26.8485C19.55 25.4405 23.1922 26.6255 18.6142 26.6255C16.4177 26.6255 18.7823 25.5105 13.7392 26.8485H13.7448Z" fill="#009E80"/>
<path fill-rule="evenodd" clip-rule="evenodd" d="M15.8909 5.09926V6.43101C17.006 6.40552 17.9474 5.98497 19.2082 5.98497C20.6146 5.98497 21.528 6.39915 22.7159 6.43101C22.7159 -0.482627 15.8909 1.46721 15.8909 5.09926Z" fill="#009E80"/>
<path fill-rule="evenodd" clip-rule="evenodd" d="M23.1082 2.8844L23.8927 4.64995C25.5737 6.6131 27.8599 5.00689 28.1009 3.031C28.325 1.2017 27.1651 0.143643 25.9043 0.00341797H25.3328C24.1784 0.130895 23.1082 1.0551 23.1082 2.8844Z" fill="#009E80"/>
<path fill-rule="evenodd" clip-rule="evenodd" d="M10.6293 2.44384C10.6293 6.71432 15.5043 6.17254 15.5043 2.89001C15.5043 1.06072 14.4901 0.155632 13.3806 0.0090332H12.7306C11.6323 0.155632 10.6293 1.02247 10.6293 2.45022V2.44384Z" fill="#009E80"/>
<path fill-rule="evenodd" clip-rule="evenodd" d="M10.8198 7.10195C11.9181 7.39472 12.5457 7.92298 12.9435 7.91025C13.375 7.89752 14.3724 7.07649 15.1121 6.87919V5.77175C14.972 5.76539 14.4508 5.70174 14.4396 5.70174C14.0866 5.70174 14.3052 5.68265 13.9241 5.79084C11.5763 6.45276 10.8142 4.53065 10.8142 7.10831L10.8198 7.10195Z" fill="#009E80"/>
<path fill-rule="evenodd" clip-rule="evenodd" d="M23.4948 5.77169V6.87913C24.2177 7.07007 25.0582 7.802 25.5065 7.87201C25.9211 7.93565 27.1427 7.26737 27.7815 7.10189L27.5573 5.77806C25.4 5.75896 27.294 6.22994 24.5707 5.72077C24.1 5.63167 24.2457 5.74623 23.4948 5.77169Z" fill="#009E80"/>
</g>
<defs>
<clipPath id="clip0">
<rect width="39" height="43.0393" fill="white" transform="translate(0.487061 0.00280762)"/>
</clipPath>
</defs>
</svg>
