<svg width="143" height="142" viewBox="0 0 143 142" fill="none" xmlns="http://www.w3.org/2000/svg">
<circle cx="71.0955" cy="71" r="71" fill="#009E80"/>
<g clip-path="url(#clip0)">
<path fill-rule="evenodd" clip-rule="evenodd" d="M34.4932 82.1109L27.8874 82.1221C27.4014 79.7467 28.7336 79.1401 30.9672 79.0667C33.2759 78.9912 34.9417 79.6289 34.4932 82.1109ZM50.1195 81.2643L50.1284 80.9688C50.1284 78.4312 57.9493 78.1357 56.8623 81.8176L55.36 82.1732C54.1913 82.2309 50.9613 82.222 50.2212 81.911L50.1195 81.2666V81.2643ZM45.6678 81.7621C44.7046 82.5309 39.5481 82.1176 39.0664 81.9487C38.017 77.5802 47.0111 78.4979 45.6678 81.7621ZM55.4152 77.1291C54.3503 79.8711 50.7558 78.1379 51.6926 75.5448C52.5498 73.1695 56.4624 74.4338 55.4152 77.1291ZM44.2119 77.1291C43.1956 79.6178 39.5459 78.329 40.5025 75.5159C41.3089 73.1406 45.3099 74.4427 44.2119 77.1291ZM33.0373 77.1291C32.1403 79.8733 28.4088 78.2779 29.319 75.4959C30.0525 73.2539 33.9718 74.2716 33.0373 77.1291ZM69.6165 69.0476L63.0837 69.1431C62.5203 66.7967 64.1309 66.1078 66.1988 66.0567C68.3374 66.0034 70.2175 66.7033 69.6165 69.0476ZM34.4579 69.0831L27.8874 69.132C27.3771 66.6389 29.0053 66.1145 31.0069 66.0456C33.1831 65.9701 35.0433 66.6189 34.4601 69.0854L34.4579 69.0831ZM50.1284 68.2699C50.1284 65.2012 56.0272 65.6679 56.8513 67.3611C58.0178 69.7564 55.0639 69.1542 51.5246 69.1542C50.4443 69.1542 50.1284 69.3898 50.1284 68.2699ZM44.477 69.1542C42.1374 69.1542 39.4862 69.5431 39.0046 68.7209C38.1849 67.3188 40.1203 66.0212 42.4224 66.0501C45.8954 66.0945 47.2452 69.1542 44.477 69.1542ZM79.4126 62.2348C79.9052 66.3589 76.5029 66.1078 75.7451 64.248C75.2414 63.0103 75.6325 61.8504 76.7283 61.4238C77.9942 60.9283 78.6526 61.6838 79.4148 62.237L79.4126 62.2348ZM64.4755 62.2881C65.2399 61.6993 65.9359 60.9394 67.1466 61.3971C68.2247 61.806 68.629 63.0281 68.1297 64.2658C67.3056 66.3056 63.9365 66.1212 64.4755 62.2881ZM53.0115 61.386C55.5853 60.5438 56.4933 64.4569 54.2067 65.379C52.0019 66.27 50.1306 62.3281 53.0115 61.386ZM41.6867 61.4927C44.3224 60.3772 45.3276 64.3169 43.2818 65.3101C42.0843 65.8923 40.951 65.1901 40.5621 64.208C39.8971 62.5303 40.73 61.8971 41.6867 61.4927ZM30.5297 61.4749C33.0417 60.4261 34.0558 64.2902 32.1072 65.2968C29.8758 66.45 27.6091 62.6948 30.5297 61.4749ZM85.318 54.0755C87.2003 52.5623 92.6926 51.7601 92.0519 55.9398L85.3202 55.7954L85.318 54.0755ZM74.1611 54.0377C75.1486 53.2178 76.5449 52.629 78.4957 52.9289C80.5327 53.2422 81.1336 53.6333 80.895 55.9376L74.1213 55.8309L74.1611 54.0399V54.0377ZM62.9909 55.8642C62.5159 51.6646 68.0104 52.5978 69.769 53.9844L69.7027 55.9265L62.9909 55.8642ZM78.9707 48.3738C80.2941 51.1957 78.3123 53.4067 76.3461 51.8823C74.8261 50.7024 75.0757 47.3116 78.9707 48.3738ZM65.3018 48.4115C68.0678 46.6428 69.3669 50.9247 67.3874 52.0646C65.1869 53.3311 63.0947 49.8247 65.3018 48.4115ZM87.6687 48.4649C90.1475 46.7872 91.8575 50.3425 89.8404 51.8979C87.7107 53.54 85.3357 50.0425 87.6687 48.4649ZM85.4086 42.7476C84.9689 40.3611 86.4933 39.7745 88.8043 39.8189C91.0003 39.8589 92.4628 40.49 92.032 42.9164L85.4086 42.7498V42.7476ZM74.1986 42.8009C73.8496 40.43 75.4888 39.7878 77.6495 39.8167C79.7528 39.8456 81.1866 40.5322 80.8751 42.9053L74.1986 42.8009ZM62.9887 42.8364C62.697 40.3478 64.2303 39.7678 66.4948 39.8211C68.7859 39.8745 70.0628 40.4344 69.6674 42.8964L62.9887 42.8364ZM77.1171 35.1237C79.9826 34.3283 80.2698 38.6501 78.0958 39.2101C75.5949 39.8522 74.2737 35.9126 77.1171 35.1237ZM68.0347 35.6393C69.0863 39.7434 65.6708 39.99 64.7296 38.4435C63.2516 36.0126 65.5006 34.1927 68.0347 35.6393ZM88.274 35.1237C90.9937 34.386 91.5106 38.3968 89.4869 39.1501C86.9308 40.1011 85.3511 35.917 88.274 35.1237ZM59.5576 53.6155L59.5024 56.1264L23.9969 56.1153L23.9991 87.4083L64.1751 87.5394L64.1883 75.4848L76.1516 75.2848C77.2231 72.4629 77.7865 71.5118 79.2601 69.2253L74.2516 69.1098C73.8164 67.1789 74.7885 66.4322 76.483 66.1412C78.4095 65.8123 79.7219 66.5434 81.0209 67.1833C81.7213 66.7633 81.5556 66.6922 82.225 66.0834C82.669 65.679 83.1507 65.3123 83.714 64.9146C84.7259 64.2013 85.7841 63.7325 86.7717 63.077C87.2865 61.026 88.5524 60.8905 90.1453 61.7971L95.6266 61.1793L95.684 31.9951L59.5024 32.0173L59.5554 53.6133L59.5576 53.6155Z" fill="white"/>
<path fill-rule="evenodd" clip-rule="evenodd" d="M91.9077 65.2963C101.759 62.9098 110.017 70.1937 111.612 78.1241C114.723 93.594 97.3912 103.64 85.6466 95.0627C74.9006 87.2145 76.8536 68.9427 91.9077 65.2963ZM90.1491 61.8033L86.7755 63.0832C85.788 63.7387 84.7297 64.2075 83.7179 64.9208C83.1545 65.3185 82.6729 65.6852 82.2288 66.0896C81.5594 66.6984 81.7251 66.7695 81.0247 67.1895C80.6028 67.8717 79.7014 68.7849 79.2639 69.2293C77.7903 71.5158 77.227 72.4668 76.1555 75.2888L76.0008 75.6443C74.9823 80.9683 74.9713 82.1682 76.0207 87.4945L78.2764 92.6296C75.464 95.1205 72.5499 98.3536 69.7993 101.12C68.5179 102.409 64.0242 106.302 63.7392 108.008C63.2863 110.715 66.333 114.197 70.281 110.166C72.435 107.968 81.8731 98.2247 82.9292 97.6203L85.3174 99.2402L85.8034 99.5579L90.1337 101.138L90.2552 101.207C95.489 102.378 100.69 101.791 104.885 99.4913C108.831 97.327 111.122 94.7516 113.369 90.9075L113.658 90.3942L114.089 89.4587L114.431 88.6455C114.842 86.6968 114.946 86.2679 114.944 84.0036V83.4081C114.942 79.704 115.359 76.8198 114.027 73.6201C110.85 65.9963 103.977 61.5722 95.637 61.1855L90.1558 61.8033H90.1491Z" fill="white"/>
<path fill-rule="evenodd" clip-rule="evenodd" d="M93.9115 82.9629C91.8105 83.2184 89.9481 83.7095 88.2801 84.5583C86.1658 85.636 85.3859 86.1915 85.4036 89.2468C85.4212 92.6421 86.7998 91.8622 89.9856 91.8555L104.28 91.7777C106.043 91.2978 105.543 87.0892 104.651 86.0026C102.996 83.9939 97.495 82.5252 93.916 82.9607L93.9115 82.9629Z" fill="white"/>
<path fill-rule="evenodd" clip-rule="evenodd" d="M93.5426 69.3781C85.8145 72.1757 90.6617 83.5303 97.188 81.126C99.5121 80.2683 101.878 76.8264 101.045 73.3844C100.365 70.5736 97.1416 68.076 93.5426 69.3781Z" fill="white"/>
<path fill-rule="evenodd" clip-rule="evenodd" d="M50.13 68.2713C50.13 69.3912 50.4437 69.1557 51.5263 69.1557C55.0656 69.1557 58.0194 69.7579 56.8529 67.3625C56.0288 65.6693 50.13 65.2027 50.13 68.2713Z" fill="white"/>
<path fill-rule="evenodd" clip-rule="evenodd" d="M44.4786 69.1584C47.2469 69.1584 45.897 66.0986 42.424 66.0542C40.1219 66.0253 38.1844 67.323 39.0062 68.7251C39.4878 69.5472 42.139 69.1584 44.4786 69.1584Z" fill="white"/>
<path fill-rule="evenodd" clip-rule="evenodd" d="M34.4926 82.1106C34.9411 79.6286 33.2753 78.9908 30.9666 79.0664C28.733 79.1397 27.4008 79.7463 27.8869 82.1217L34.4926 82.1106Z" fill="white"/>
<path fill-rule="evenodd" clip-rule="evenodd" d="M34.4595 69.0836C35.0428 66.6171 33.1825 65.9683 31.0064 66.0438C29.0048 66.1127 27.3765 66.6394 27.8869 69.1303L34.4573 69.0814L34.4595 69.0836Z" fill="white"/>
<path fill-rule="evenodd" clip-rule="evenodd" d="M45.6672 81.7628C47.0105 78.4986 38.0165 77.5809 39.0659 81.9494C39.5497 82.1205 44.7062 82.5338 45.6672 81.7628Z" fill="white"/>
<path fill-rule="evenodd" clip-rule="evenodd" d="M62.9925 42.8408L69.6712 42.9008C70.0667 40.4388 68.7897 39.8789 66.4986 39.8255C64.2341 39.7722 62.7009 40.3522 62.9925 42.8408Z" fill="white"/>
<path fill-rule="evenodd" clip-rule="evenodd" d="M74.1627 54.0391L74.1229 55.83L80.8966 55.9367C81.1352 53.6324 80.5343 53.2414 78.4973 52.9281C76.5465 52.6281 75.1502 53.2169 74.1627 54.0369V54.0391Z" fill="white"/>
<path fill-rule="evenodd" clip-rule="evenodd" d="M62.9947 55.8673L69.7066 55.9295L69.7728 53.9875C68.0142 52.6009 62.5197 51.6655 62.9947 55.8673Z" fill="white"/>
<path fill-rule="evenodd" clip-rule="evenodd" d="M50.2228 81.9094C50.9607 82.2205 54.1929 82.2293 55.3616 82.1716L56.8639 81.816C57.9531 78.1341 50.13 78.4296 50.13 80.9672L50.1212 81.2628L50.2228 81.9071V81.9094Z" fill="white"/>
<path fill-rule="evenodd" clip-rule="evenodd" d="M85.4124 42.7513L92.0359 42.918C92.4667 40.4937 91.0063 39.8627 88.8081 39.8204C86.4972 39.7782 84.9728 40.3648 85.4124 42.7491V42.7513Z" fill="white"/>
<path fill-rule="evenodd" clip-rule="evenodd" d="M69.6182 69.0493C70.2191 66.7029 68.339 66.0051 66.2004 66.0585C64.1325 66.1096 62.5197 66.7984 63.0853 69.1449L69.6182 69.0493Z" fill="white"/>
<path fill-rule="evenodd" clip-rule="evenodd" d="M74.2025 42.8035L80.879 42.9079C81.1905 40.5348 79.7589 39.8482 77.6534 39.8193C75.4905 39.7904 73.8534 40.4326 74.2025 42.8035Z" fill="white"/>
<path fill-rule="evenodd" clip-rule="evenodd" d="M85.3196 54.0762L85.3219 55.7961L92.0536 55.9405C92.6943 51.7608 87.202 52.563 85.3196 54.0762Z" fill="white"/>
<path fill-rule="evenodd" clip-rule="evenodd" d="M79.264 69.2289C79.7014 68.7845 80.6028 67.8712 81.0248 67.189C79.7279 66.5491 78.4134 65.8181 76.4869 66.1469C74.7924 66.4358 73.8181 67.1824 74.2555 69.1156L79.264 69.2311V69.2289Z" fill="white"/>
<path fill-rule="evenodd" clip-rule="evenodd" d="M68.0385 35.643C65.5045 34.1964 63.2554 36.0163 64.7334 38.4472C65.6746 39.9937 69.0902 39.7471 68.0385 35.643Z" fill="white"/>
<path fill-rule="evenodd" clip-rule="evenodd" d="M88.2779 35.1272C85.355 35.9205 86.9346 40.1046 89.4908 39.1536C91.5145 38.4003 90.9975 34.3895 88.2779 35.1272Z" fill="white"/>
<path fill-rule="evenodd" clip-rule="evenodd" d="M33.0367 77.1306C33.9712 74.273 30.0519 73.2553 29.3185 75.4974C28.4082 78.2793 32.1397 79.8748 33.0367 77.1306Z" fill="white"/>
<path fill-rule="evenodd" clip-rule="evenodd" d="M77.121 35.1282C74.2776 35.917 75.5988 39.8567 78.0997 39.2145C80.2736 38.6546 79.9864 34.3349 77.121 35.1282Z" fill="white"/>
<path fill-rule="evenodd" clip-rule="evenodd" d="M65.3056 48.4149C63.0986 49.8259 65.1908 53.3345 67.3912 52.0679C69.3707 50.928 68.0717 46.6462 65.3056 48.4149Z" fill="white"/>
<path fill-rule="evenodd" clip-rule="evenodd" d="M55.4146 77.131C56.4618 74.4357 52.547 73.1714 51.692 75.5467C50.7574 78.1399 54.3497 79.873 55.4146 77.131Z" fill="white"/>
<path fill-rule="evenodd" clip-rule="evenodd" d="M41.6883 61.4965C40.7295 61.9032 39.8988 62.5364 40.5638 64.2119C40.9526 65.194 42.086 65.8962 43.2834 65.314C45.3292 64.3207 44.324 60.3788 41.6883 61.4965Z" fill="white"/>
<path fill-rule="evenodd" clip-rule="evenodd" d="M87.6725 48.4679C85.3395 50.0456 87.7145 53.5431 89.8442 51.901C91.8613 50.3456 90.1535 46.7903 87.6725 48.4679Z" fill="white"/>
<path fill-rule="evenodd" clip-rule="evenodd" d="M44.2113 77.1303C45.3093 74.4439 41.3083 73.1418 40.5019 75.5171C39.5453 78.3325 43.1951 79.619 44.2113 77.1303Z" fill="white"/>
<path fill-rule="evenodd" clip-rule="evenodd" d="M64.4772 62.292C63.9381 66.125 67.3073 66.3072 68.1313 64.2696C68.6306 63.0341 68.2263 61.8098 67.1482 61.4009C65.9375 60.9432 65.2416 61.7031 64.4772 62.292Z" fill="white"/>
<path fill-rule="evenodd" clip-rule="evenodd" d="M78.9746 48.3768C75.0818 47.3124 74.8299 50.7033 76.3499 51.8854C78.3162 53.4119 80.2957 51.201 78.9746 48.3768Z" fill="white"/>
<path fill-rule="evenodd" clip-rule="evenodd" d="M79.4142 62.2378C78.6542 61.6867 77.9936 60.9312 76.7277 61.4245C75.6319 61.8534 75.2409 63.0111 75.7446 64.2487C76.5024 66.1086 79.9047 66.3597 79.412 62.2356L79.4142 62.2378Z" fill="white"/>
<path fill-rule="evenodd" clip-rule="evenodd" d="M53.0131 61.3894C50.1322 62.3316 52.0035 66.2734 54.2084 65.3824C56.495 64.4603 55.5848 60.5473 53.0131 61.3894Z" fill="white"/>
<path fill-rule="evenodd" clip-rule="evenodd" d="M30.5314 61.4776C27.6129 62.6975 29.8774 66.455 32.1088 65.2996C34.0574 64.293 33.0433 60.4288 30.5314 61.4776Z" fill="white"/>
<path fill-rule="evenodd" clip-rule="evenodd" d="M86.7756 63.0846L90.1492 61.8047C88.5563 60.8981 87.2903 61.0337 86.7756 63.0846Z" fill="white"/>
</g>
<defs>
<clipPath id="clip0">
<rect width="91" height="80" fill="white" transform="translate(24 32)"/>
</clipPath>
</defs>
</svg>
