<svg width="143" height="142" viewBox="0 0 143 142" fill="none" xmlns="http://www.w3.org/2000/svg">
<circle cx="71.3566" cy="71" r="71" fill="#009E80"/>
<g clip-path="url(#clip0)">
<path fill-rule="evenodd" clip-rule="evenodd" d="M92.4058 109.427L92.5325 109.555C92.5234 109.546 92.3629 109.471 92.4058 109.427ZM43.1223 39.1229H87.7321V104.711H43.1223V39.1229ZM97.0773 85.8495C96.9258 85.0373 97.6132 84.3255 97.3464 85.578C97.3396 85.6077 97.3577 87.3463 97.0773 85.8495ZM97.9275 81.5625L97.5024 84.1338C97.5024 83.8167 97.473 83.1527 97.5182 82.863L97.9275 81.5625ZM97.9275 81.5625C97.9275 73.8804 101.751 51.2403 101.751 44.6945C103.001 44.9888 103.047 45.1234 104.724 45.1234C104.724 46.506 99.3294 77.3028 98.2893 80.643L97.9252 81.5625H97.9275ZM89.8553 43.4099V41.2653C90.2533 41.2653 99.0264 42.1802 99.1372 42.219C100.684 42.7757 99.508 47.0422 99.1643 50.6585C98.4996 57.6607 92.8309 103.582 92.8309 107.285H89.0074C89.6088 106.71 89.5704 106.963 89.8033 105.946L90.0226 92.044C90.1832 89.6963 89.8576 92.1604 89.8576 90.1366C89.8576 88.1152 90.2261 90.4081 90.3233 88.7426L90.1605 87.7706C90.0475 85.286 90.3279 87.6086 90.398 86.4291C90.4726 85.1993 91.2436 85.9842 89.8576 85.4206V77.7043C91.5263 77.6678 90.8547 77.8207 91.9808 77.2754C91.0763 76.0296 92.0395 76.4677 89.8576 76.4175V74.7018C92.1571 74.8957 91.2866 75.8152 92.4058 74.2728C91.368 73.6842 91.619 73.8439 89.8576 73.8439V72.1281L92.4058 71.2703L89.8711 70.7775L89.8576 69.5568H92.8309C92.4443 68.0966 92.8015 68.27 89.8576 68.27V46.8346C90.6444 46.5152 90.9316 47.6788 90.6286 45.2945C90.4183 43.6335 89.8576 45.0504 89.8576 43.4054L89.8553 43.4099ZM55.4432 35.2647H53.7429V36.9782H42.2722C41.2931 36.9782 40.9969 37.2771 40.9969 38.265V106.856H65.2135C67.9789 106.856 70.3192 107.639 72.5532 108.024L94.529 112.001C98.0587 96.7167 101.468 73.634 104.758 57.161C107.632 42.7734 108.65 42.981 102.176 42.981V40.4097C97.3554 40.4097 92.8174 39.189 89.8553 39.1229V36.9782C78.8142 36.9782 74.4909 37.7539 64.0445 35.5864C57.9011 34.311 60.4041 35.5066 58.091 35.5522C57.7066 35.559 56.6914 35.2624 55.4432 35.2624V35.2647Z" fill="white"/>
<path fill-rule="evenodd" clip-rule="evenodd" d="M47.3719 53.6972H46.0966V42.1227H54.1688V53.6972H52.8935C52.8935 49.0519 52.1428 48.9812 49.4951 48.9812C47.2181 48.9812 47.3719 51.4339 47.3719 53.6972ZM44.8236 54.5551H55.019V40.8359H44.8236V54.5551Z" fill="white"/>
<path fill-rule="evenodd" clip-rule="evenodd" d="M61.8182 45.1233H77.5376C79.3578 45.1233 80.07 42.123 76.6874 42.123H61.8182C59.6521 42.123 59.6521 45.1233 61.8182 45.1233Z" fill="white"/>
<path fill-rule="evenodd" clip-rule="evenodd" d="M47.7969 102.998H83.4843V101.711L51.1705 101.686C49.3096 101.656 47.8444 101.252 47.7969 102.998Z" fill="white"/>
<path fill-rule="evenodd" clip-rule="evenodd" d="M47.7969 100.424H83.4843V99.1377H47.7969V100.424Z" fill="white"/>
<path fill-rule="evenodd" clip-rule="evenodd" d="M55.8692 69.988H83.4843V68.7012H55.8692V69.988Z" fill="white"/>
<path fill-rule="evenodd" clip-rule="evenodd" d="M55.8692 72.5599H83.4843V71.2754H55.8692V72.5599Z" fill="white"/>
<path fill-rule="evenodd" clip-rule="evenodd" d="M55.8692 75.1306H83.4843C83.2311 74.1746 83.3848 73.8438 82.2091 73.8438H57.1422C56.1383 73.8438 55.8941 74.1404 55.8669 75.1306H55.8692Z" fill="white"/>
<path fill-rule="evenodd" clip-rule="evenodd" d="M47.7969 63.5558H57.9924C59.1885 63.5558 58.7792 63.371 59.2676 62.6979C59.0144 61.742 59.1681 61.4111 57.9924 61.4111H46.5217C46.5511 62.7846 46.3837 63.5535 47.7969 63.5535V63.5558Z" fill="white"/>
<path fill-rule="evenodd" clip-rule="evenodd" d="M47.797 96.5656H57.9924C59.1885 96.5656 58.7793 96.3808 59.2677 95.7077C59.0144 94.7517 59.1682 94.4209 57.9924 94.4209H47.797C45.9813 94.4209 45.9813 96.5656 47.797 96.5656Z" fill="white"/>
<path fill-rule="evenodd" clip-rule="evenodd" d="M55.8692 66.9887H83.4843V66.1309H55.8692V66.9887Z" fill="white"/>
<path fill-rule="evenodd" clip-rule="evenodd" d="M46.5239 80.276H59.2676V78.5625H46.5239V80.276Z" fill="white"/>
<path fill-rule="evenodd" clip-rule="evenodd" d="M83.4843 89.7077V88.4209H67.765C68.319 90.5154 69.3681 89.7077 74.987 89.7077C77.8202 89.7077 80.6511 89.7077 83.4843 89.7077Z" fill="white"/>
<path fill-rule="evenodd" clip-rule="evenodd" d="M47.7969 92.2796H63.5163V90.9951H47.7969V92.2796Z" fill="white"/>
<path fill-rule="evenodd" clip-rule="evenodd" d="M67.765 92.2796H83.4843V90.9951H67.765V92.2796Z" fill="white"/>
<path fill-rule="evenodd" clip-rule="evenodd" d="M47.797 84.1335H63.5163C63.2631 83.1775 63.4168 82.8467 62.241 82.8467H49.07C48.066 82.8467 47.8218 83.1433 47.7947 84.1335H47.797Z" fill="white"/>
<path fill-rule="evenodd" clip-rule="evenodd" d="M67.765 84.1335H83.4843C83.2311 83.1775 83.3848 82.8467 82.2091 82.8467H69.038C68.0341 82.8467 67.7899 83.1433 67.7627 84.1335H67.765Z" fill="white"/>
<path fill-rule="evenodd" clip-rule="evenodd" d="M49.0723 89.7077H62.2433C63.4191 89.7077 63.2654 89.3769 63.5186 88.4209H47.7993C48.0525 89.3769 47.8987 89.7077 49.0745 89.7077H49.0723Z" fill="white"/>
<path fill-rule="evenodd" clip-rule="evenodd" d="M48.2221 48.1235C51.9778 49.0065 52.9207 48.0551 52.0456 44.2654C48.5974 42.5953 46.5669 44.6441 48.2221 48.1235Z" fill="white"/>
<path fill-rule="evenodd" clip-rule="evenodd" d="M62.6684 48.9811H77.5375V48.1233C76.5856 47.8997 76.5607 47.6943 75.4143 47.6943H63.9436C62.9397 47.6943 62.6955 47.9909 62.6684 48.9811Z" fill="white"/>
<path fill-rule="evenodd" clip-rule="evenodd" d="M63.9414 54.5544H74.987C76.1628 54.5544 76.009 54.2236 76.2623 53.2676H62.6661C62.9194 54.2236 62.7656 54.5544 63.9414 54.5544Z" fill="white"/>
<path fill-rule="evenodd" clip-rule="evenodd" d="M69.0403 57.1274H79.6608C79.2108 55.4276 79.5183 55.8086 74.9893 55.8406C73.0085 55.8543 71.021 55.8429 69.0403 55.8429V57.1297V57.1274Z" fill="white"/>
<path fill-rule="evenodd" clip-rule="evenodd" d="M47.7969 86.7075H63.5163V85.8496H47.7969V86.7075Z" fill="white"/>
<path fill-rule="evenodd" clip-rule="evenodd" d="M67.765 86.7075H83.4843V85.8496H67.765V86.7075Z" fill="white"/>
<path fill-rule="evenodd" clip-rule="evenodd" d="M62.6684 51.5529H73.714C72.7259 50.193 73.6009 50.6859 68.6151 50.695C66.6321 50.6995 64.6491 50.695 62.6661 50.695V51.5529H62.6684Z" fill="white"/>
<path fill-rule="evenodd" clip-rule="evenodd" d="M47.797 72.5593H54.1688C53.9156 71.6033 54.0693 71.2725 52.8935 71.2725H47.7947V72.5593H47.797Z" fill="white"/>
<path fill-rule="evenodd" clip-rule="evenodd" d="M47.797 75.1306H54.1688C53.9156 74.1746 54.0693 73.8438 52.8935 73.8438H49.07C48.066 73.8438 47.8218 74.1404 47.7947 75.1306H47.797Z" fill="white"/>
<path fill-rule="evenodd" clip-rule="evenodd" d="M49.0723 69.988H52.8958C54.0716 69.988 53.9179 69.6572 54.1711 68.7012H47.7993C48.0525 69.6572 47.8987 69.988 49.0745 69.988H49.0723Z" fill="white"/>
<path fill-rule="evenodd" clip-rule="evenodd" d="M62.6684 57.1267H68.1923C67.9391 56.1707 68.0928 55.8398 66.917 55.8398H63.9436C62.9397 55.8398 62.6955 56.1365 62.6684 57.1267Z" fill="white"/>
<path fill-rule="evenodd" clip-rule="evenodd" d="M47.7969 66.9887H54.171V66.1309H47.7969V66.9887Z" fill="white"/>
</g>
<defs>
<clipPath id="clip0">
<rect width="66" height="77" fill="white" transform="translate(41 35)"/>
</clipPath>
</defs>
</svg>
