<svg width="117" height="118" viewBox="0 0 117 118" fill="none" xmlns="http://www.w3.org/2000/svg">
<circle cx="58.5" cy="59.4033" r="58.5" fill="white"/>
<g clip-path="url(#clip0)">
<path fill-rule="evenodd" clip-rule="evenodd" d="M72.1652 95.0622L72.2592 95.1584C72.2525 95.1515 72.1333 95.0948 72.1652 95.0622ZM35.5759 42.1055H68.6953V91.5098H35.5759V42.1055ZM75.6334 77.3023C75.521 76.6904 76.0313 76.1542 75.8332 77.0977C75.8282 77.1201 75.8416 78.4296 75.6334 77.3023ZM76.2646 74.073L75.949 76.0099C75.949 75.771 75.9272 75.2709 75.9608 75.0526L76.2646 74.073ZM76.2646 74.073C76.2646 68.2865 79.1033 51.233 79.1033 46.3023C80.0317 46.524 80.0652 46.6254 81.3108 46.6254C81.3108 47.6669 77.3054 70.8644 76.5332 73.3804L76.263 74.073H76.2646ZM70.2716 45.3348V43.7193C70.5671 43.7193 77.0805 44.4084 77.1627 44.4377C78.311 44.857 77.4381 48.0708 77.1829 50.7947C76.6893 56.0691 72.4808 90.6591 72.4808 93.4484H69.6421C70.0886 93.0153 70.0601 93.2061 70.233 92.4396L70.3958 81.9682C70.515 80.1998 70.2733 82.0559 70.2733 80.5315C70.2733 79.0088 70.5469 80.736 70.6191 79.4814L70.4982 78.7493C70.4143 76.8778 70.6225 78.6273 70.6745 77.7388C70.7299 76.8125 71.3023 77.4037 70.2733 76.9792V71.1669C71.5122 71.1394 71.0136 71.2545 71.8496 70.8438C71.1781 69.9054 71.8933 70.2354 70.2733 70.1976V68.9052C71.9806 69.0513 71.3342 69.7439 72.1652 68.5821C71.3947 68.1387 71.581 68.259 70.2733 68.259V66.9667L72.1652 66.3205L70.2834 65.9492L70.2733 65.0298H72.4808C72.1937 63.9299 72.459 64.0605 70.2733 64.0605V47.9144C70.8575 47.6738 71.0707 48.5502 70.8457 46.7543C70.6896 45.5032 70.2733 46.5704 70.2733 45.3313L70.2716 45.3348ZM44.7233 39.1994H43.4609V40.4901H34.9448C34.2179 40.4901 33.998 40.7152 33.998 41.4593V93.1253H51.977C54.0301 93.1253 55.7675 93.7148 57.4261 94.0052L73.7415 97.0007C76.362 85.4879 78.8935 68.1009 81.336 55.6927C83.4697 44.8553 84.2251 45.0117 79.4189 45.0117V43.0748C75.8399 43.0748 72.4707 42.1554 70.2716 42.1055V40.4901C62.0745 40.4901 58.8648 41.0744 51.1091 39.4417C46.548 38.481 48.4064 39.3816 46.689 39.4159C46.4037 39.4211 45.6499 39.1977 44.7233 39.1977V39.1994Z" fill="#009E80"/>
<path fill-rule="evenodd" clip-rule="evenodd" d="M38.7306 53.0842H37.7838V44.3658H43.7768V53.0842H42.83C42.83 49.5851 42.2727 49.5319 40.3069 49.5319C38.6164 49.5319 38.7306 51.3793 38.7306 53.0842ZM36.8387 53.7304H44.408V43.3965H36.8387V53.7304Z" fill="#009E80"/>
<path fill-rule="evenodd" clip-rule="evenodd" d="M49.4559 46.6252H61.1264C62.4777 46.6252 63.0065 44.3652 60.4952 44.3652H49.4559C47.8477 44.3652 47.8477 46.6252 49.4559 46.6252Z" fill="#009E80"/>
<path fill-rule="evenodd" clip-rule="evenodd" d="M39.0462 90.2187H65.5414V89.2494L41.5508 89.2305C40.1693 89.2081 39.0815 88.9039 39.0462 90.2187Z" fill="#009E80"/>
<path fill-rule="evenodd" clip-rule="evenodd" d="M39.0462 88.2808H65.5414V87.3115H39.0462V88.2808Z" fill="#009E80"/>
<path fill-rule="evenodd" clip-rule="evenodd" d="M45.0392 65.3541H65.5414V64.3848H45.0392V65.3541Z" fill="#009E80"/>
<path fill-rule="evenodd" clip-rule="evenodd" d="M45.0392 67.2918H65.5414V66.3242H45.0392V67.2918Z" fill="#009E80"/>
<path fill-rule="evenodd" clip-rule="evenodd" d="M45.0392 69.2281H65.5414C65.3533 68.508 65.4675 68.2588 64.5946 68.2588H45.9843C45.239 68.2588 45.0577 68.4822 45.0375 69.2281H45.0392Z" fill="#009E80"/>
<path fill-rule="evenodd" clip-rule="evenodd" d="M39.0462 60.509H46.6155C47.5036 60.509 47.1997 60.3698 47.5623 59.8628C47.3743 59.1428 47.4885 58.8936 46.6155 58.8936H38.0994C38.1212 59.9281 37.997 60.5073 39.0462 60.5073V60.509Z" fill="#009E80"/>
<path fill-rule="evenodd" clip-rule="evenodd" d="M39.0462 85.3743H46.6155C47.5036 85.3743 47.1997 85.2351 47.5623 84.7281C47.3743 84.008 47.4885 83.7588 46.6155 83.7588H39.0462C37.6982 83.7588 37.6982 85.3743 39.0462 85.3743Z" fill="#009E80"/>
<path fill-rule="evenodd" clip-rule="evenodd" d="M45.0392 63.0954H65.5414V62.4492H45.0392V63.0954Z" fill="#009E80"/>
<path fill-rule="evenodd" clip-rule="evenodd" d="M38.1011 73.1032H47.5623V71.8125H38.1011V73.1032Z" fill="#009E80"/>
<path fill-rule="evenodd" clip-rule="evenodd" d="M65.5414 80.2085V79.2393H53.8709C54.2822 80.8169 55.0611 80.2085 59.2328 80.2085C61.3362 80.2085 63.4379 80.2085 65.5414 80.2085Z" fill="#009E80"/>
<path fill-rule="evenodd" clip-rule="evenodd" d="M39.0462 82.1453H50.7166V81.1777H39.0462V82.1453Z" fill="#009E80"/>
<path fill-rule="evenodd" clip-rule="evenodd" d="M53.8709 82.1453H65.5414V81.1777H53.8709V82.1453Z" fill="#009E80"/>
<path fill-rule="evenodd" clip-rule="evenodd" d="M39.0462 76.0093H50.7166C50.5286 75.2892 50.6428 75.04 49.7698 75.04H39.9913C39.246 75.04 39.0647 75.2635 39.0445 76.0093H39.0462Z" fill="#009E80"/>
<path fill-rule="evenodd" clip-rule="evenodd" d="M53.8709 76.0093H65.5414C65.3533 75.2892 65.4675 75.04 64.5946 75.04H54.8161C54.0707 75.04 53.8894 75.2635 53.8693 76.0093H53.8709Z" fill="#009E80"/>
<path fill-rule="evenodd" clip-rule="evenodd" d="M39.993 80.2085H49.7715C50.6445 80.2085 50.5303 79.9593 50.7183 79.2393H39.0479C39.2359 79.9593 39.1218 80.2085 39.9947 80.2085H39.993Z" fill="#009E80"/>
<path fill-rule="evenodd" clip-rule="evenodd" d="M39.3618 48.8849C42.1502 49.55 42.8502 48.8334 42.2005 45.9788C39.6405 44.7208 38.133 46.2641 39.3618 48.8849Z" fill="#009E80"/>
<path fill-rule="evenodd" clip-rule="evenodd" d="M50.0871 49.5318H61.1263V48.8856C60.4196 48.7172 60.4011 48.5625 59.55 48.5625H51.0339C50.2885 48.5625 50.1072 48.7859 50.0871 49.5318Z" fill="#009E80"/>
<path fill-rule="evenodd" clip-rule="evenodd" d="M51.0322 53.73H59.2327C60.1057 53.73 59.9915 53.4808 60.1795 52.7607H50.0854C50.2734 53.4808 50.1593 53.73 51.0322 53.73Z" fill="#009E80"/>
<path fill-rule="evenodd" clip-rule="evenodd" d="M54.8177 55.6675H62.7026C62.3686 54.3872 62.5969 54.6742 59.2344 54.6983C57.7639 54.7086 56.2883 54.7 54.8177 54.7V55.6693V55.6675Z" fill="#009E80"/>
<path fill-rule="evenodd" clip-rule="evenodd" d="M39.0462 77.9489H50.7166V77.3027H39.0462V77.9489Z" fill="#009E80"/>
<path fill-rule="evenodd" clip-rule="evenodd" d="M53.8709 77.9489H65.5414V77.3027H53.8709V77.9489Z" fill="#009E80"/>
<path fill-rule="evenodd" clip-rule="evenodd" d="M50.0871 51.4683H58.2876C57.554 50.444 58.2037 50.8152 54.5021 50.8221C53.0299 50.8255 51.5577 50.8221 50.0854 50.8221V51.4683H50.0871Z" fill="#009E80"/>
<path fill-rule="evenodd" clip-rule="evenodd" d="M39.0462 67.2915H43.7768C43.5888 66.5715 43.703 66.3223 42.83 66.3223H39.0445V67.2915H39.0462Z" fill="#009E80"/>
<path fill-rule="evenodd" clip-rule="evenodd" d="M39.0462 69.2281H43.7768C43.5888 68.508 43.703 68.2588 42.83 68.2588H39.9913C39.246 68.2588 39.0647 68.4822 39.0445 69.2281H39.0462Z" fill="#009E80"/>
<path fill-rule="evenodd" clip-rule="evenodd" d="M39.993 65.3541H42.8317C43.7047 65.3541 43.5905 65.1049 43.7785 64.3848H39.0479C39.2359 65.1049 39.1218 65.3541 39.9947 65.3541H39.993Z" fill="#009E80"/>
<path fill-rule="evenodd" clip-rule="evenodd" d="M50.0871 55.6666H54.1882C54.0002 54.9465 54.1143 54.6973 53.2414 54.6973H51.0339C50.2885 54.6973 50.1072 54.9207 50.0871 55.6666Z" fill="#009E80"/>
<path fill-rule="evenodd" clip-rule="evenodd" d="M39.0462 63.0954H43.7785V62.4492H39.0462V63.0954Z" fill="#009E80"/>
</g>
<defs>
<clipPath id="clip0">
<rect width="49" height="58" fill="white" transform="translate(34 39)"/>
</clipPath>
</defs>
</svg>
