<svg width="143" height="142" viewBox="0 0 143 142" fill="none" xmlns="http://www.w3.org/2000/svg">
<circle cx="71.0958" cy="71" r="71" fill="#009E80"/>
<g clip-path="url(#clip0)">
<path fill-rule="evenodd" clip-rule="evenodd" d="M65.6252 66.9404C65.6252 59.8589 74.493 59.0721 76.1005 64.9136C76.115 64.9697 76.1636 65.1207 76.1757 65.1767L76.2146 65.4471C77.317 74.0121 68.4006 76.4262 66.1035 69.4958C65.9481 69.0281 65.6276 67.5762 65.6276 66.9404H65.6252ZM65.6252 46.2148V51.4376L62.4879 52.6727C61.116 53.3255 59.8436 54.1465 58.6999 55.0892C57.3255 56.2195 56.1357 57.2792 55.0721 58.7116L51.8742 64.4337C49.9316 69.6712 50.1016 77.0377 52.894 81.7806L53.1927 82.2751C54.13 83.9584 55.2251 85.5832 56.5995 86.9498C64.6199 94.9204 77.13 95.6902 85.908 88.2969C87.2945 87.1276 88.5281 85.7001 89.5479 84.1971C91.1918 81.7757 91.3861 80.2264 92.5006 78.397C98.4279 78.397 97.3716 78.6138 97.3716 72.4994C96.665 72.0244 96.4635 71.3837 95.5504 71.1108C93.3141 70.4434 93.8458 74.3337 93.8458 75.5322H89.815C89.611 76.302 89.4216 75.9317 89.174 76.5724C89.1351 76.6723 89.0258 77.1497 88.9991 77.2399C88.108 80.1972 86.4131 83.0839 84.2325 85.2641C83.8222 85.6733 83.7056 85.6831 83.3098 86.0217C80.5927 88.3359 77.402 89.8706 73.8204 90.4966C73.6577 90.5259 73.5241 90.5356 73.3566 90.5405C73.0968 90.5478 72.7811 90.5064 72.5164 90.5259C71.8948 90.5673 71.0571 90.7816 70.297 90.6257C70.2752 90.6209 69.7458 90.5307 69.5006 90.5234C68.726 90.5015 68.6386 90.4796 67.9951 90.348C65.3095 89.7975 62.8691 88.7987 60.6255 87.2957C59.9674 86.8548 57.0657 84.6648 57.0657 83.9584C57.0657 81.1643 60.1568 80.3409 62.5049 79.6418L64.3941 79.1765C66.3512 78.7356 67.609 77.3714 68.488 75.7027C70.9672 76.2825 71.72 76.2825 74.1992 75.7027C74.6241 76.5091 75.0078 77.0547 75.661 77.6053C76.0883 77.9658 75.7702 77.8976 76.3821 78.0608C75.8067 78.9231 75.5735 79.2617 74.5925 79.805C72.667 80.8719 70.6103 80.5139 68.4904 80.3848C68.1869 80.8695 67.6988 81.2374 67.9004 82.0071C68.3787 83.8317 74.1822 84.3603 77.8536 80.716C78.5481 80.0267 78.451 80.0973 78.9026 79.2423L81.3527 80.0486C82.2657 80.3774 82.9893 80.5114 83.7736 80.928C83.9994 80.8086 84.235 80.7209 84.4462 80.5918C84.7595 80.4018 84.8032 80.2971 85.1188 80.0851C85.1188 78.2532 84.4341 78.1339 81.9913 77.3251L80.7529 76.9402C79.9249 76.6869 78.8249 76.4067 78.23 76.0438C77.4603 75.5736 77.0985 75.0328 76.7197 74.0194L78.0965 72.0317C78.2616 71.7661 78.3684 71.5761 78.5141 71.2692C79.9977 68.1316 79.8229 63.3716 77.266 60.8333C76.5448 60.1171 76.2583 59.7883 75.2676 59.2986C71.2392 57.3084 66.0549 58.7895 64.2362 63.3497C61.8663 69.2936 66.4726 73.8392 66.4726 74.0194C66.4726 76.5237 62.6239 76.7843 60.9508 77.4104C59.2122 78.0632 56.2061 79.4469 55.7229 81.2641H55.3878C55.128 80.1436 54.2951 78.9207 53.943 77.6589C52.7945 73.5615 52.9596 68.2924 54.771 64.4678C55.837 62.217 57.4688 59.5617 59.4769 58.0538L61.2009 56.7627C62.8813 55.6422 64.751 54.7116 66.7761 54.2683C67.7717 54.049 67.5119 53.8931 68.1553 53.4595V46.2148C67.4487 45.7398 67.4827 45.54 66.6426 45.54C66.2249 45.54 66.0112 45.9615 65.6349 46.2148H65.6252Z" fill="white"/>
<path fill-rule="evenodd" clip-rule="evenodd" d="M31.3169 72.0392L39.5486 63.6983C39.755 68.6556 38.8565 68.2902 43.4531 68.2902V75.5349C38.927 75.5349 39.4223 75.0477 39.4223 80.0854L31.3194 72.0392H31.3169ZM28 71.8297C28 73.0112 29.5856 74.178 30.8143 75.4106L38.791 83.4154C39.1989 83.8246 39.9468 84.8063 40.5976 84.8063C42.7295 84.8063 42.1103 81.0403 42.1103 78.0659C43.73 78.0659 45.9736 78.368 45.9736 76.5483C45.9736 74.3705 46.1922 67.7689 45.8061 66.1002C43.7324 65.6154 44.8494 65.764 42.2779 65.764C42.2779 64.2415 42.5037 60.6801 41.9501 59.6911C41.0711 58.1174 39.6967 59.8445 39.0459 60.4998L34.2575 65.3012C33.784 65.7762 28 71.284 28 71.8321V71.8297Z" fill="white"/>
<path fill-rule="evenodd" clip-rule="evenodd" d="M58.0661 42.5079C60.1083 43.6042 62.4321 43.1827 65.6252 43.1827C68.0631 43.1827 68.0704 40.5397 65.97 40.4788C64.9865 40.4495 63.9303 40.4861 62.9371 40.4861L70.9988 32.228L79.2717 40.4422C78.179 40.4836 75.9305 40.2522 75.2506 40.7053C74.3959 41.2729 74.6945 43.2095 74.6945 44.5298C74.6945 47.4506 74.6945 50.3714 74.6945 53.2922C75.525 53.5139 75.0442 53.7428 75.9669 54.0376C77.1713 54.42 77.6472 54.4395 78.9512 55.0875C80.6995 55.9547 81.5785 56.0765 81.5785 53.6308C79.8569 52.4737 80.4712 52.7806 78.2713 51.8939C77.8148 51.7088 77.4311 51.6284 77.0426 51.4408V43.1852C79.9079 43.1852 81.9913 43.5871 83.5939 42.5104C83.5939 40.9172 83.4798 41.1316 82.2924 39.9404L72.718 30.3352C70.3845 27.9942 70.4573 28.8127 67.0918 32.189C66.1448 33.1391 58.4814 40.6273 58.1657 41.2753C57.8719 41.8819 58.0103 41.8746 58.0613 42.5104L58.0661 42.5079Z" fill="white"/>
<path fill-rule="evenodd" clip-rule="evenodd" d="M64.6174 96.9357V100.811C62.1892 100.811 57.7577 100.219 57.9957 102.256C58.0977 103.126 59.0957 103.781 59.6202 104.307L68.6896 113.406C71.176 115.9 70.9138 115.471 74.3157 112.058L82.2948 104.054C82.9723 103.376 83.5963 103.072 83.5963 101.99C83.5963 101.033 82.8412 100.811 81.916 100.811H77.2126C77.2126 98.5678 77.7128 95.5715 76.1563 95.1647C75.4594 94.982 74.5245 95.4327 74.5245 96.4314C74.5245 104.473 73.7524 103.508 79.0604 103.508C78.4291 104.453 76.0398 106.631 75.0709 107.593C74.0025 108.655 72.14 110.996 70.9988 111.764L62.7259 103.549C68.0461 103.437 67.303 104.56 67.303 96.5995C67.303 94.6239 64.615 94.4412 64.615 96.9357H64.6174Z" fill="white"/>
<path fill-rule="evenodd" clip-rule="evenodd" d="M102.578 80.2546V63.909L110.851 72.1232C110.741 72.2816 103.435 79.6773 102.578 80.2522V80.2546ZM114 71.7968V72.2499C113.9 72.7347 113.48 73.2754 112.698 74.0598L107.912 78.8637C107.296 79.4824 102.223 84.9707 101.402 84.9707C101.031 84.9707 100.402 84.7466 100.164 84.1912C99.5813 82.8173 99.8897 64.1964 99.8897 61.2123C99.8897 60.6861 99.9285 60.4036 100.047 60.0235C100.232 59.434 100.249 59.6606 100.562 59.1904C102.15 59.1904 101.937 59.3049 103.124 60.4961L111.103 68.4984C112.803 70.2036 113.835 71.0075 114 71.7944V71.7968Z" fill="white"/>
<path fill-rule="evenodd" clip-rule="evenodd" d="M91.4929 65.7625C90.1112 62.8734 90.6406 62.6419 88.0667 59.0902C87.5058 58.3156 87.0614 57.5068 86.1193 57.5068C84.91 57.5068 84.5458 58.832 85.1504 59.6578L86.0731 60.754C87.0031 61.8673 88.4236 64.5737 88.8728 66.0329C89.0283 66.5347 89.0865 67.2752 89.2444 67.6796C89.6693 68.7636 91.1869 68.4591 92.5006 68.4591C93.6783 68.4591 95.4776 68.7101 96.2643 68.1693C97.4517 67.3508 96.1138 66.0548 95.4339 65.855C94.4844 65.5725 92.588 65.7625 91.4929 65.7625Z" fill="white"/>
</g>
<defs>
<clipPath id="clip0">
<rect width="86" height="86" fill="white" transform="translate(28 29)"/>
</clipPath>
</defs>
</svg>
