<svg width="142" height="142" viewBox="0 0 142 142" fill="none" xmlns="http://www.w3.org/2000/svg">
<circle cx="71" cy="71" r="71" fill="#009E80"/>
<g clip-path="url(#clip0)">
<path fill-rule="evenodd" clip-rule="evenodd" d="M100.819 79.8207C100.582 74.3771 102.583 75.3524 104.457 70.9672C114.045 48.5191 84.6429 39.8382 81.4834 60.1868C79.7598 71.2861 86.9891 73.6971 86.3752 79.5291C75.8395 85.464 66.6886 79.1593 69.2104 102.125L118.401 102.131C119.169 96.9952 119.985 88.1132 115.418 85.2146C111.719 82.8669 105.201 81.3506 100.819 79.8207Z" fill="white"/>
<path fill-rule="evenodd" clip-rule="evenodd" d="M55.6796 39.7041C65.5204 38.0203 58.2986 53.2467 58.1691 53.7505C57.0109 58.2275 58.2737 57.03 60.4556 58.1505C59.7108 68.7449 48.6907 70.8828 45.8861 58.8193L47.0393 57.7857C51.0344 53.305 42.5635 46.6653 46.0107 42.3236C47.2921 41.316 44.2535 41.0405 48.7803 41.9736C52.3458 42.7082 52.2686 43.32 58.1093 42.295L55.6796 39.7054V39.7041ZM73.3961 76.0596C73.5567 69.7636 74.9627 64.9156 70.8481 61.4958C66.0335 57.4929 62.7931 60.5962 64.4868 51.141C65.3772 46.1665 66.2851 40.5479 63.9276 36.3414C61.9475 32.8075 57.7469 29.9623 52.8041 30.1397C39.3667 30.6212 40.5535 43.6649 41.7553 51.7937C43.0891 60.8121 39.3605 57.7671 34.9245 61.8036C31.3852 65.0248 32.7152 70.5875 32.8236 76.2036C37.5746 76.8823 69.2988 76.9655 73.3973 76.0609L73.3961 76.0596Z" fill="white"/>
<path fill-rule="evenodd" clip-rule="evenodd" d="M65.9513 87.3597C68.6799 82.6519 67.8654 83.6681 72.6987 80.2285L23.0002 80.2868L23.2331 87.3832L28.6018 87.5036L30.6131 87.4986L32.6243 87.5023L65.9513 87.3584V87.3597Z" fill="white"/>
</g>
<defs>
<clipPath id="clip0">
<rect width="96" height="72" fill="white" transform="translate(23 30.1309)"/>
</clipPath>
</defs>
</svg>
