<svg width="22" height="22" viewBox="0 0 22 22" fill="none" xmlns="http://www.w3.org/2000/svg">
<g clip-path="url(#clip0)">
<path d="M19.345 6.40057C18.91 6.61099 18.728 7.13437 18.9384 7.56909C19.5133 8.75662 19.8047 10.0367 19.8047 11.375C19.8047 16.1997 15.8794 20.125 11.0547 20.125C6.23001 20.125 2.30469 16.1997 2.30469 11.375C2.30469 6.55032 6.23001 2.625 11.0547 2.625C13.054 2.625 14.9322 3.27783 16.4867 4.51279C16.8637 4.81378 17.4151 4.75076 17.7161 4.37244C18.0171 3.99432 17.9541 3.4436 17.5755 3.14304C15.7352 1.68036 13.4193 0.875 11.0547 0.875C5.26529 0.875 0.554688 5.5856 0.554688 11.375C0.554688 17.1644 5.26529 21.875 11.0547 21.875C16.8441 21.875 21.5547 17.1644 21.5547 11.375C21.5547 9.77069 21.2043 8.23325 20.5135 6.8071C20.3035 6.37131 19.7784 6.18973 19.345 6.40057Z" fill="white"/>
<path d="M11.0547 4.375C10.5717 4.375 10.1797 4.767 10.1797 5.25V11.375C10.1797 11.858 10.5717 12.25 11.0547 12.25H15.4297C15.9127 12.25 16.3047 11.858 16.3047 11.375C16.3047 10.892 15.9127 10.5 15.4297 10.5H11.9297V5.25C11.9297 4.767 11.5377 4.375 11.0547 4.375Z" fill="white"/>
</g>
<defs>
<clipPath id="clip0">
<rect width="21" height="21" fill="white" transform="translate(0.554688 0.875)"/>
</clipPath>
</defs>
</svg>
