<svg width="39" height="39" viewBox="0 0 39 39" fill="none" xmlns="http://www.w3.org/2000/svg">
<g clip-path="url(#clip0)">
<path fill-rule="evenodd" clip-rule="evenodd" d="M19.2425 7.25879H16.3471C16.3471 5.88858 16.4371 5.15347 17.5372 4.10831C18.1773 3.50322 19.0475 3.06315 20.2527 3.06315V7.11376C19.7976 7.15377 19.7376 7.25879 19.2375 7.25879H19.2425ZM9.40102 6.6787H9.256C9.256 6.25864 8.98596 5.63354 8.82594 5.3735C8.66591 5.11346 8.64091 5.13847 8.43088 4.89843L8.16084 4.58838C6.94065 3.3682 5.36541 3.02815 3.62515 3.65324C3.04006 3.86328 2.605 4.19833 2.16993 4.6584C0.739717 6.18362 0.604697 8.36895 1.69986 9.88418C3.98521 13.0597 8.06082 11.8545 9.15599 9.03905C9.40602 8.39896 9.28601 7.77386 9.54104 7.10876L10.3262 8.05891C10.6162 8.15892 11.5814 8.16392 12.0014 8.26394C11.7864 9.18908 10.0961 10.8693 11.5663 10.8693C11.8664 10.8693 12.6415 10.1742 12.9516 9.93919C13.4666 9.55913 13.7667 9.27409 14.3118 8.98405C14.2768 8.53898 14.1767 8.28894 14.0217 7.96889C13.3216 8.15392 13.8567 8.21393 13.1516 8.40396C13.9167 6.95874 13.3416 7.3338 10.5462 7.10376V1.45791C10.5462 1.12286 10.6462 1.02285 10.9813 1.02285H19.8076C20.3377 1.02285 20.2427 1.33289 20.2427 2.038C14.7318 2.038 13.3316 9.3491 18.2374 11.2794C20.6227 12.2195 21.4828 11.4444 22.558 11.4444C23.4631 11.4444 23.7832 11.5194 24.5783 11.5944C25.1384 11.6494 24.9784 11.7445 25.4584 11.7445C27.2537 11.7395 25.0184 9.76416 25.0184 9.56413C25.0184 9.01405 27.6588 5.09346 22.703 2.47307V3.63324C23.2081 3.90328 23.6132 4.20333 23.9532 4.6984C24.5833 5.62854 24.5883 6.24863 24.5883 7.24878C24.5883 8.20893 24.0632 8.77401 23.7182 9.41911C23.9532 9.86418 24.1732 10.1742 24.4433 10.5743C23.9132 10.5643 22.9781 10.3042 22.578 10.3242C22.363 10.3342 19.0425 11.6745 17.1772 9.30409C16.9122 8.96904 16.7321 8.709 16.6271 8.26394C17.6823 8.26394 18.8875 8.37395 19.8776 8.18393C20.8277 8.0039 21.4028 7.59884 21.4028 6.38365C21.4028 4.85342 21.6829 1.24288 21.0128 0.547776C20.7777 0.302739 20.2427 0.0126953 19.8076 0.0126953H11.1263C9.58605 0.0126953 9.38102 0.917832 9.39102 2.47307C9.39602 3.87328 9.39102 5.27349 9.39102 6.6687L9.40102 6.6787Z" fill="#009E80"/>
<path fill-rule="evenodd" clip-rule="evenodd" d="M9.69142 33.5985C10.6266 33.5985 11.1366 32.9484 11.1366 32.1533C11.1366 30.6531 11.3667 25.3773 10.8766 24.5971C10.3815 23.817 8.83129 23.867 7.5161 23.757L7.18605 17.7211C6.92601 15.8208 7.27106 13.4855 4.62066 13.4855C1.81524 13.4855 2.81039 18.7013 2.8854 20.1415C3.28546 27.6526 2.32531 25.9824 7.99117 26.9025C8.8713 27.0475 8.68127 26.5224 8.67627 30.8481C8.67627 31.2281 8.41623 33.5985 9.69142 33.5985Z" fill="#009E80"/>
<path fill-rule="evenodd" clip-rule="evenodd" d="M28.0692 23.757C23.6185 24.1271 24.4537 23.642 24.4537 32.1483C24.4537 33.6185 26.2689 34.2086 26.819 32.7784C27.1091 32.0233 26.719 28.2827 26.909 27.3726C27.0391 26.7675 27.3491 26.9475 28.1242 26.8525C30.3446 26.5824 31.9598 26.8225 32.3449 25.4273L32.8449 18.6963C32.8799 17.5311 33.05 16.2159 32.8199 15.3858C32.1498 12.9654 29.6695 12.8104 28.7893 14.9257C28.3493 15.9758 28.6293 16.5259 28.4393 17.7611C28.1742 19.5114 28.2992 21.1366 28.2042 22.3018C28.1592 22.8769 28.0692 23.0019 28.0692 23.757Z" fill="#009E80"/>
<path fill-rule="evenodd" clip-rule="evenodd" d="M12.7319 21.8768V23.6121H14.3221V33.5986H15.7674V26.5075H21.4132V33.1635C21.4132 33.8236 23.0034 33.8236 23.0034 33.1635V23.6121C24.8237 23.6121 24.5937 23.8321 24.5937 22.3119C24.5937 21.6118 23.3185 21.8768 21.9883 21.8768C20.388 21.8768 13.112 21.7368 12.7269 21.8768H12.7319Z" fill="#009E80"/>
<path fill-rule="evenodd" clip-rule="evenodd" d="M29.9495 11.7453H30.8196C32.7199 11.7453 34.5802 9.64994 34.5802 7.69464C34.5802 3.54402 29.5244 1.75875 27.0291 5.06425C26.914 5.21927 26.699 5.52932 26.624 5.67434C25.2638 8.27973 27.3141 11.7503 29.9495 11.7503V11.7453Z" fill="#009E80"/>
</g>
<defs>
<clipPath id="clip0">
<rect width="38" height="38" fill="white" transform="translate(0.97937 0.0234375)"/>
</clipPath>
</defs>
</svg>
