<svg width="37" height="43" viewBox="0 0 37 43" fill="none" xmlns="http://www.w3.org/2000/svg">
<g clip-path="url(#clip0)">
<path fill-rule="evenodd" clip-rule="evenodd" d="M20.1847 21.799L21.0366 23.5158L23.5478 23.5223C22.6387 24.9074 23.179 24.6668 21.0239 24.6668C20.5089 26.9233 18.9895 28.393 16.2558 28.393C16.5546 29.713 17.362 30.2333 18.6907 31.924C19.4472 32.8799 21.0175 34.4797 21.3036 35.5591C18.5064 35.5591 19.5871 35.6112 18.0041 33.7708C17.2921 32.945 14.0117 29.3229 14.0117 28.6791V27.5346C15.7155 27.5346 18.7988 27.8207 19.0594 24.6668H13.4522C14.5457 23.0021 14.2978 23.5223 18.7797 23.5223C18.2521 21.4934 15.9189 21.799 13.4522 21.799C14.2215 20.622 13.662 20.7326 15.1052 20.6285L23.5414 20.6545C22.6577 22.0071 23.2045 21.799 20.1783 21.799H20.1847ZM0 16.9219V38.1408C0 39.1877 0.775601 40.4363 1.68471 40.4363H35.3216C35.9955 40.4363 37.0064 39.4088 37.0064 38.713V17.208C37.0064 15.2441 35.2644 14.9125 33.3636 14.9125H12.3397C9.88574 14.9125 10.4452 17.0259 9.63144 18.7362C8.30911 21.5129 3.97337 22.781 3.19777 19.9652C2.74003 18.3135 3.85258 14.5418 1.64021 15.1206C0.883677 15.3157 0.00635739 16.122 0.00635739 16.9219H0Z" fill="#009E80"/>
<path fill-rule="evenodd" clip-rule="evenodd" d="M3.9225 11.479C3.9225 14.2167 3.61734 17.7933 4.20222 20.3684C9.93659 21.7731 9.27542 14.0801 9.58057 12.9681C10.1273 10.9978 14.6283 12.8056 15.1306 6.60182H15.9697C15.9697 8.87783 15.3849 9.95731 14.2342 11.1343C11.9328 13.4819 11.0936 12.0708 10.6486 13.7745C11.7866 14.4248 24.0754 14.0606 26.345 14.0606C28.3539 14.0606 27.1397 6.70587 23.7575 3.51295C23.2235 3.00573 22.8866 2.92119 22.4988 2.505C19.924 -0.252219 26.345 0.00789644 10.3689 0.00789644C8.90669 0.00789644 9.80308 1.21743 8.63968 2.54402C7.80686 3.49995 3.9225 5.86049 3.9225 11.479Z" fill="#009E80"/>
</g>
<defs>
<clipPath id="clip0">
<rect width="37" height="43" fill="white"/>
</clipPath>
</defs>
</svg>
