<svg width="91" height="105" viewBox="0 0 91 105" fill="none" xmlns="http://www.w3.org/2000/svg">
<g clip-path="url(#clip0)">
<path fill-rule="evenodd" clip-rule="evenodd" d="M46.4031 78.3664C50.8877 78.3422 66.3977 77.907 70.8703 77.4113C72.6257 77.2178 77.4711 77.3146 78.1324 76.3111C78.8417 74.7032 77.2787 69.5771 76.7256 68.1747C75.7999 65.8051 74.6336 63.7135 73.3351 61.9363C71.219 59.0348 66.9748 55.033 62.6104 53.4493C58.5225 51.9622 57.248 54.1867 55.3844 58.0071C54.4226 59.9778 47.0884 74.6548 46.355 75.2472C44.5515 75.8396 42.8442 71.3301 41.9425 69.5045L35.8106 57.6686C35.1373 56.3508 34.3438 54.0658 32.9731 53.4372C28.7049 51.4786 21.6713 57.6082 19.1464 60.5581C17.1506 62.9035 15.2269 66.3854 14.1207 69.8431C13.7961 70.8586 12.9184 74.5097 13.1709 75.7429C13.4354 77.0244 14.3131 76.9156 15.5635 77.0002C16.4893 77.0728 17.884 77.242 18.8098 77.3146C27.6108 78.0399 37.3135 78.3301 46.379 78.3543L46.4031 78.3664Z" fill="#009E80"/>
<path fill-rule="evenodd" clip-rule="evenodd" d="M10.8744 97.8067C10.658 98.254 10.5859 98.1089 9.87649 98.121C9.86447 98.121 9.22723 98.0968 9.22723 98.0968C8.39763 97.9396 8.93868 98.1452 8.66214 97.7946C4.30974 97.7704 1.78486 90.6858 4.11736 85.2333C7.00294 78.475 13.6157 81.8844 12.7741 87.7721C12.5336 89.4889 11.3433 90.855 9.47972 90.4319C7.90468 90.0692 7.56803 87.8446 7.35161 86.0795L5.99299 85.9103C5.19945 88.5821 4.59829 92.4267 6.29357 94.6149C8.02491 96.8516 12.0888 96.1383 15.1667 95.8723C21.6352 95.3041 28.248 94.5424 34.7886 93.9863C38.7923 93.6478 41.0768 94.349 40.5237 89.1262C39.3214 77.7013 37.073 80.4578 33.8508 79.7928L19.0262 78.7773C15.7679 78.4388 12.3052 78.1849 9.01082 78.1728C5.27159 78.1607 3.57632 79.551 2.21769 82.0536C-0.283136 86.6236 0.233863 95.6668 3.66048 98.7618C7.11115 101.869 12.3653 100.684 17.1626 100.14C18.9781 99.9345 20.6132 99.8861 22.3205 99.6685C26.9374 99.0882 35.3657 99.8982 37.3977 98.8101C38.4557 98.2419 41.209 95.0502 37.7103 95.4733C37.1091 95.5459 36.544 95.57 35.9549 95.6305L10.8624 97.7825L10.8744 97.8067Z" fill="#009E80"/>
<path fill-rule="evenodd" clip-rule="evenodd" d="M11.5598 7.49581L11.9445 7.77388C14.4574 8.13657 17.4632 9.18838 20.1323 9.85332C22.7053 10.4941 25.7953 11.4854 28.3682 11.9932L28.7891 12.1504C31.7347 12.7911 34.5121 13.6737 37.3255 14.3749C40.139 15.0761 43.277 16.1642 46.3911 16.2005C46.5474 16.1158 49.998 15.3784 50.5511 15.2333C51.9458 14.8827 53.5689 14.52 55.0117 14.1089L76.9781 8.35419C77.7717 8.14866 78.3608 8.02776 79.2145 7.81015C80.032 7.60462 80.6693 7.55626 81.2344 7.02431C79.6232 5.9604 66.1693 3.68752 64.1013 3.30065C61.1315 2.73242 58.258 2.12793 55.3604 1.58389C52.571 1.05194 49.0722 0.266103 46.379 -0.0119629C42.6037 0.000126921 32.4561 2.39391 27.9234 3.21602L10.3454 6.66161C10.6099 7.2661 10.8264 7.387 11.5478 7.48372L11.5598 7.49581Z" fill="#009E80"/>
<path fill-rule="evenodd" clip-rule="evenodd" d="M54.3864 80.0952C54.5307 81.1228 54.8914 82.0054 55.1439 83.2144C56.0697 87.6876 55.3723 91.6772 55.8172 93.66C57.3081 94.3128 74.1166 95.6185 77.3268 95.9933C79.0701 96.1988 81.0179 96.3439 82.8214 96.5373C89.5063 97.2748 89.6025 97.7342 90.3599 93.1522C90.6245 91.5563 90.7327 89.4285 90.5764 87.6392C89.5664 75.6341 82.112 78.4389 76.5332 78.5477L54.3744 80.0952H54.3864Z" fill="#009E80"/>
<path fill-rule="evenodd" clip-rule="evenodd" d="M46.4271 30.2488C34.3197 30.2851 30.7007 25.0018 28.8371 24.8809C27.7069 26.5614 27.9834 31.8205 28.5726 34.1175C29.306 36.9466 30.5203 39.2799 32.1194 41.2263C33.8267 43.3058 35.4739 44.7807 37.9747 46.026C40.6078 47.3196 43.5415 47.8999 47.1004 47.7669C50.3466 46.5217 51.0079 48.1659 57.4524 43.3662C59.8089 41.6011 62.1534 37.1037 62.935 33.6581C63.7766 29.9949 63.2836 28.0364 62.5863 24.7238C61.4922 25.0381 55.7932 30.3213 46.403 30.2488H46.4271Z" fill="#009E80"/>
<path fill-rule="evenodd" clip-rule="evenodd" d="M35.6663 27.1537L36.0751 27.3834C37.0249 27.6252 37.6381 27.9396 38.7082 28.2176C39.622 28.4594 40.4997 28.6045 41.5216 28.7375C43.7219 29.0518 46.0424 29.0881 48.3027 28.9551C49.2285 28.7012 50.6232 28.6408 51.573 28.4473C55.3363 27.6978 62.959 24.8929 63.6203 20.6736C63.9449 18.6062 64.0652 15.0881 64.0051 13.0087C60.2418 13.589 47.7136 17.5423 46.391 17.5423C43.253 17.5544 35.9068 15.1123 32.0594 14.0605C30.6045 13.6615 28.9453 13.1295 27.2861 12.7427C27.2741 14.4111 27.5025 16.3696 27.6829 18.0864C27.8873 20.0449 27.7911 21.2902 28.7289 22.7772C29.7509 24.3973 33.454 26.4525 35.6663 27.1295V27.1537Z" fill="#009E80"/>
<path fill-rule="evenodd" clip-rule="evenodd" d="M46.4271 98.7013C51.8977 98.6651 52.8956 99.4146 53.605 97.0813C55.2522 91.6892 55.0718 87.1072 53.4367 81.7031C52.6912 79.2488 50.8998 79.9621 46.4151 79.9258L39.7422 79.9379C39.7542 81.2678 42.76 85.9466 41.2451 94.2644C40.9205 96.0416 40.2592 97.1901 39.9466 98.6892L46.4392 98.7013H46.4271Z" fill="#009E80"/>
<path fill-rule="evenodd" clip-rule="evenodd" d="M46.4271 73.1193C47.1845 70.9189 49.998 66.7358 50.01 64.2574C50.034 61.2592 44.8641 55.6978 48.2306 53.7877C48.7355 53.4975 48.7716 53.5942 49.1563 53.2194C49.6854 52.7117 49.9739 51.9016 49.8296 51.0554C49.5291 49.3749 48.1223 49.0001 46.379 48.9275C44.9482 48.8429 42.3271 48.6132 41.6779 50.6443C40.9204 53.0018 42.9524 53.5821 44.1907 54.5251C44.1427 60.8239 41.2451 60.8602 41.3893 64.4629C41.4374 65.8533 44.852 73.1918 45.4291 73.3006L46.4151 73.1072L46.4271 73.1193Z" fill="#009E80"/>
<path fill-rule="evenodd" clip-rule="evenodd" d="M62.0573 96.1989C59.833 95.9692 54.639 94.9778 54.4466 97.698C54.3264 99.4027 56.202 99.2213 57.8011 99.2092C59.34 99.1971 60.5905 99.3906 62.2737 99.3906C69.3554 99.3785 80.1643 101.337 84.9135 100.503C85.7551 100.358 87.775 99.8742 87.9794 98.9674C87.2219 98.3146 80.9097 97.9398 79.5992 97.7947C76.7497 97.4804 73.8761 97.1902 70.8222 96.9605C67.9487 96.7429 65.0871 96.5132 62.0813 96.1989H62.0573Z" fill="#009E80"/>
<path fill-rule="evenodd" clip-rule="evenodd" d="M71.4354 25.28C71.4354 30.4061 69.7762 30.5028 70.197 33.9847C71.9524 34.4562 73.9242 34.1781 75.7277 34.0088C75.5714 32.014 74.4773 29.1125 74.0565 26.9363C73.6116 24.6271 74.6697 24.615 74.6937 23.128C74.7178 21.4475 73.5515 22.995 73.5515 18.2074C73.5515 17.5546 73.7319 16.2489 73.7319 15.2092C73.7319 13.9277 73.5876 13.0693 73.5635 11.9933C73.5395 11.0624 73.6838 9.18845 72.6738 10.1919C71.7961 11.0624 72.253 17.7359 72.1929 19.9242C72.1448 21.7377 71.6879 21.3992 71.2431 22.4872C70.7741 23.6116 71.4475 24.2161 71.4475 25.2679L71.4354 25.28Z" fill="#009E80"/>
<path fill-rule="evenodd" clip-rule="evenodd" d="M40.175 100.019L39.7182 100.491C44.287 102.51 42.3152 105.363 45.4412 104.964C46.0544 104.891 46.0183 104.855 46.367 104.577C47.5333 99.6685 50.7194 104.952 54.3865 104.964C54.3625 103.707 53.4006 100.962 52.571 100.358C51.2965 99.4267 48.3508 100.333 46.884 99.8015L40.175 100.019Z" fill="#009E80"/>
<path fill-rule="evenodd" clip-rule="evenodd" d="M8.66214 97.7946C8.93867 98.1452 8.39763 97.9397 9.22723 98.0969C9.22723 98.0969 9.86446 98.121 9.87649 98.121C10.5859 98.109 10.658 98.254 10.8744 97.8067L9.52781 97.9639L9.67209 96.7186C9.43163 97.0813 9.49174 96.634 9.44365 97.2385C9.44365 97.2506 9.50377 97.8309 9.50377 97.8792L8.65012 97.7946H8.66214Z" fill="#009E80"/>
<path fill-rule="evenodd" clip-rule="evenodd" d="M39.7302 100.491L40.1871 100.019L39.4537 100.043C39.4416 100.926 39.4056 100.128 39.7302 100.491Z" fill="#009E80"/>
<path fill-rule="evenodd" clip-rule="evenodd" d="M28.801 12.1505L28.3802 11.9933C28.4163 12.0296 28.4283 12.8275 28.801 12.1505Z" fill="#009E80"/>
<path fill-rule="evenodd" clip-rule="evenodd" d="M36.0871 27.3836L35.6663 27.1539L35.8707 27.6254L36.0871 27.3836Z" fill="#009E80"/>
<path fill-rule="evenodd" clip-rule="evenodd" d="M11.9445 7.77391L11.5598 7.49585L11.6319 7.9069L11.9445 7.77391Z" fill="#009E80"/>
</g>
<defs>
<clipPath id="clip0">
<rect width="90" height="105" fill="white" transform="translate(0.651611)"/>
</clipPath>
</defs>
</svg>
