<svg width="66" height="87" viewBox="0 0 66 87" fill="none" xmlns="http://www.w3.org/2000/svg">
<g clip-path="url(#clip0)">
<path fill-rule="evenodd" clip-rule="evenodd" d="M32.5164 29.4124C38.5346 28.5082 43.4304 32.9437 44.2544 38.1002C45.2694 44.4785 40.7915 49.5984 35.6569 50.3926C29.4356 51.3579 24.504 46.8002 23.7279 41.4482C22.8203 35.1554 27.346 30.1822 32.5045 29.4124H32.5164ZM34.7971 56.5021L34.8449 52.2377C35.8599 51.7123 37.9376 51.5167 39.4302 50.7592C50.3084 45.2361 46.6784 27.5551 33.8418 27.7262C20.062 27.9094 16.6946 49.4639 33.2448 52.091L33.2567 56.5632C33.2926 60.901 33.2567 65.251 33.2567 69.5888C33.2567 74.061 33.615 78.0689 28.8744 78.2888C12.0974 79.083 11.9541 78.802 12.1571 68.7579C13.8049 68.6968 16.0856 69.0023 17.3991 68.5135L17.4827 67.3894C16.1453 66.9006 13.8288 67.1939 12.1809 67.1572C12.0735 64.9333 12.563 60.7544 11.7511 59.0926C10.3779 56.2822 8.20459 57.5041 5.57758 56.5999C5.15965 54.9992 5.93581 54.0705 6.58062 52.6409C8.74194 47.8632 9.90021 44.894 10.1987 39.4076C11.369 17.8409 33.7702 9.7152 48.3143 20.0526C57.1506 26.3332 61.4971 38.8822 55.8729 52.0788C52.5056 59.9846 47.5262 66.534 46.6306 76.2482C46.4634 78.13 46.4873 79.975 46.4873 81.8568C46.4873 83.2742 45.95 86.219 47.1321 86.9888C48.5889 86.5489 47.9919 82.7976 48.0038 79.7184C48.0038 77.1402 48.2307 74.6964 48.7681 72.3137C51.7414 59.1903 62.6196 50.6981 59.3597 34.8988C53.2817 5.34076 9.74498 7.45466 8.63447 40.4707C8.324 49.525 0.216088 57.0276 5.93581 58.3717C8.93299 59.0804 10.6047 57.5896 10.6167 61.8174C10.6286 70.1631 8.43147 79.7551 17.1245 79.8284C19.8112 79.8528 22.5218 79.8162 25.2205 79.8162C28.0147 79.8162 30.2118 80.1705 32.3134 78.692C33.8777 77.6045 34.7613 75.845 34.7732 73.0346C34.7971 67.536 34.6658 61.9641 34.7852 56.4655L34.7971 56.5021Z" fill="#009E80"/>
<path fill-rule="evenodd" clip-rule="evenodd" d="M38.2242 33.0535C38.5824 36.4016 37.042 35.7906 40.9348 35.9128C42.1647 39.6274 40.3855 37.0736 40.0392 39.6763C40.5407 40.7638 40.8393 40.3728 41.7468 41.3014L41.2811 43.0243C37.6868 43.7453 38.8571 42.8044 39.0004 46.0913C36.6122 48.2297 37.5436 45.8347 35.0837 45.8714L34.0807 47.9486C30.3909 47.7531 32.9582 46.2502 31.2984 45.4437C30.3073 45.1138 30.0088 45.7614 28.8625 46.0425L27.7997 44.7472C28.3012 42.5111 29.9133 42.3767 26.2235 41.3381L26.1758 39.3097C29.2565 38.4299 28.349 38.0878 27.2743 35.9373C27.5728 35.1552 27.7042 34.9353 28.361 34.4221C31.4537 35.0819 30.7014 35.534 31.3462 32.2837L33.0538 31.966C33.818 32.7359 33.615 33.2979 34.618 33.7623C35.8957 33.6401 35.5852 33.078 36.7316 32.3448L38.2242 33.0413V33.0535ZM32.5164 29.4123C27.3579 30.1821 22.8323 35.1552 23.7398 41.4481C24.516 46.8 29.4476 51.3578 35.6688 50.3925C40.8034 49.5982 45.2694 44.4906 44.2663 38.1C43.4424 32.9314 38.5466 28.508 32.5283 29.4123H32.5164Z" fill="#FEFEFE"/>
<path fill-rule="evenodd" clip-rule="evenodd" d="M33.3165 37.709C36.1942 36.7926 37.4719 41.2892 34.6897 42.1446C31.7164 43.061 30.3073 38.6621 33.3165 37.709ZM31.3343 32.2837C30.6894 35.534 31.4417 35.0819 28.349 34.4221C27.7042 34.9353 27.5609 35.143 27.2624 35.9373C28.3371 38.0878 29.2446 38.43 26.1638 39.3097L26.2116 41.3381C29.8894 42.3767 28.2774 42.5111 27.7878 44.7472L28.8505 46.0425C29.9969 45.7614 30.3073 45.1138 31.2865 45.4437C32.9463 46.2502 30.3909 47.7531 34.0687 47.9486L35.0718 45.8714C37.5316 45.8347 36.6002 48.2297 38.9884 46.0913C38.8451 42.8044 37.6749 43.7453 41.2691 43.0243L41.7348 41.3014C40.8273 40.3728 40.5288 40.7638 40.0273 39.6763C40.3736 37.0736 42.1647 39.6274 40.9229 35.9128C37.0301 35.7784 38.5705 36.3894 38.2123 33.0536L36.7196 32.3571C35.5733 33.0902 35.8838 33.6523 34.6061 33.7745C33.603 33.2979 33.806 32.7481 33.0418 31.9783L31.3343 32.296V32.2837Z" fill="#009E80"/>
<path d="M7.42843 25.0867C7.82412 25.0867 8.14489 24.753 8.14489 24.3413C8.14489 23.9297 7.82412 23.5959 7.42843 23.5959C7.03274 23.5959 6.71198 23.9297 6.71198 24.3413C6.71198 24.753 7.03274 25.0867 7.42843 25.0867Z" fill="#009E80"/>
<path d="M5.19548 23.6205C5.59117 23.6205 5.91194 23.2868 5.91194 22.8751C5.91194 22.4635 5.59117 22.1298 5.19548 22.1298C4.79979 22.1298 4.47902 22.4635 4.47902 22.8751C4.47902 23.2868 4.79979 23.6205 5.19548 23.6205Z" fill="#009E80"/>
<path d="M2.95057 22.1541C3.34626 22.1541 3.66703 21.8203 3.66703 21.4087C3.66703 20.997 3.34626 20.6633 2.95057 20.6633C2.55488 20.6633 2.23412 20.997 2.23412 21.4087C2.23412 21.8203 2.55488 22.1541 2.95057 22.1541Z" fill="#009E80"/>
<path d="M0.71761 20.6879C1.1133 20.6879 1.43407 20.3542 1.43407 19.9425C1.43407 19.5309 1.1133 19.1971 0.71761 19.1971C0.321921 19.1971 0.00115204 19.5309 0.00115204 19.9425C0.00115204 20.3542 0.321921 20.6879 0.71761 20.6879Z" fill="#009E80"/>
<path d="M12.1399 18.5978C12.5261 18.6857 12.91 18.4312 12.9973 18.0293C13.0846 17.6275 12.8423 17.2305 12.456 17.1426C12.0698 17.0548 11.6859 17.3093 11.5986 17.7111C11.5113 18.113 11.7536 18.51 12.1399 18.5978Z" fill="#009E80"/>
<path d="M10.2701 16.6727C10.6564 16.7605 11.0403 16.506 11.1276 16.1042C11.2149 15.7023 10.9725 15.3053 10.5863 15.2175C10.2 15.1296 9.81613 15.3841 9.72882 15.7859C9.64152 16.1878 9.88387 16.5848 10.2701 16.6727Z" fill="#009E80"/>
<path d="M8.40034 14.7474C8.7866 14.8352 9.1705 14.5807 9.2578 14.1789C9.3451 13.777 9.10275 13.38 8.7165 13.2922C8.33024 13.2043 7.94634 13.4588 7.85903 13.8607C7.77173 14.2625 8.01408 14.6595 8.40034 14.7474Z" fill="#009E80"/>
<path d="M6.53053 12.8222C6.91679 12.9101 7.30069 12.6555 7.38799 12.2537C7.4753 11.8519 7.23295 11.4549 6.84669 11.367C6.46043 11.2791 6.07653 11.5336 5.98923 11.9355C5.90193 12.3373 6.14428 12.7343 6.53053 12.8222Z" fill="#009E80"/>
<path d="M18.2209 13.421C18.577 13.5974 19.0079 13.4401 19.1832 13.0696C19.3585 12.6991 19.2119 12.2557 18.8557 12.0792C18.4996 11.9028 18.0688 12.0601 17.8935 12.4306C17.7182 12.8011 17.8647 13.2445 18.2209 13.421Z" fill="#009E80"/>
<path d="M16.8341 11.1073C17.1902 11.2837 17.621 11.1264 17.7963 10.7559C17.9716 10.3854 17.825 9.94197 17.4689 9.76553C17.1128 9.58908 16.6819 9.7464 16.5066 10.1169C16.3313 10.4874 16.4779 10.9308 16.8341 11.1073Z" fill="#009E80"/>
<path d="M15.4472 8.79343C15.8034 8.96987 16.2342 8.81255 16.4095 8.44204C16.5848 8.07153 16.4382 7.62813 16.0821 7.45169C15.7259 7.27524 15.2951 7.43256 15.1198 7.80307C14.9445 8.17359 15.0911 8.61698 15.4472 8.79343Z" fill="#009E80"/>
<path d="M14.0604 6.47971C14.4166 6.65615 14.8474 6.49883 15.0227 6.12832C15.198 5.75781 15.0514 5.31441 14.6952 5.13797C14.3391 4.96152 13.9083 5.11884 13.733 5.48935C13.5577 5.85986 13.7043 6.30326 14.0604 6.47971Z" fill="#009E80"/>
<path d="M25.3027 10.4902C25.6005 10.7568 26.0566 10.7218 26.3215 10.412C26.5864 10.1021 26.5597 9.63485 26.2619 9.36824C25.9641 9.10163 25.508 9.13666 25.2431 9.44648C24.9782 9.7563 25.0049 10.2236 25.3027 10.4902Z" fill="#009E80"/>
<path d="M24.5638 7.88339C24.8616 8.15 25.3177 8.11497 25.5826 7.80515C25.8475 7.49533 25.8208 7.02804 25.523 6.76143C25.2252 6.49482 24.769 6.52985 24.5042 6.83967C24.2393 7.14949 24.266 7.61678 24.5638 7.88339Z" fill="#009E80"/>
<path d="M23.8249 5.27658C24.1227 5.54319 24.5788 5.50816 24.8437 5.19834C25.1086 4.88851 25.0819 4.42123 24.7841 4.15462C24.4863 3.88801 24.0301 3.92303 23.7653 4.23286C23.5004 4.54268 23.5271 5.00997 23.8249 5.27658Z" fill="#009E80"/>
<path d="M23.0858 2.66976C23.3837 2.93637 23.8398 2.90135 24.1047 2.59152C24.3696 2.2817 24.3429 1.81441 24.0451 1.5478C23.7473 1.28119 23.2911 1.31622 23.0262 1.62604C22.7614 1.93586 22.788 2.40315 23.0858 2.66976Z" fill="#009E80"/>
<path d="M32.8677 9.28741C33.0815 9.62808 33.5293 9.72389 33.8677 9.5014C34.2062 9.27891 34.3072 8.82238 34.0934 8.48171C33.8795 8.14104 33.4318 8.04523 33.0933 8.26772C32.7548 8.4902 32.6538 8.94673 32.8677 9.28741Z" fill="#009E80"/>
<path d="M32.8642 6.57317C33.0781 6.91384 33.5258 7.00965 33.8643 6.78717C34.2027 6.56468 34.3038 6.10815 34.0899 5.76748C33.876 5.4268 33.4283 5.331 33.0898 5.55348C32.7514 5.77597 32.6503 6.2325 32.8642 6.57317Z" fill="#009E80"/>
<path d="M32.8609 3.85882C33.0747 4.19949 33.5225 4.2953 33.8609 4.07281C34.1994 3.85032 34.3004 3.39379 34.0866 3.05312C33.8727 2.71245 33.4249 2.61664 33.0865 2.83913C32.748 3.06161 32.647 3.51814 32.8609 3.85882Z" fill="#009E80"/>
<path d="M32.8575 1.14458C33.0714 1.48526 33.5191 1.58106 33.8576 1.35858C34.196 1.13609 34.2971 0.67956 34.0832 0.338888C33.8693 -0.00178451 33.4216 -0.0975931 33.0831 0.124893C32.7447 0.34738 32.6437 0.803911 32.8575 1.14458Z" fill="#009E80"/>
<path d="M40.3146 11.107C40.4429 11.49 40.8555 11.6923 41.236 11.5588C41.6166 11.4253 41.821 11.0066 41.6927 10.6236C41.5644 10.2406 41.1519 10.0383 40.7714 10.1717C40.3908 10.3052 40.1863 10.7239 40.3146 11.107Z" fill="#009E80"/>
<path d="M40.9438 8.47037C41.0721 8.85339 41.4846 9.05569 41.8652 8.92221C42.2457 8.78873 42.4502 8.37002 42.3219 7.98699C42.1936 7.60396 41.7811 7.40166 41.4005 7.53514C41.02 7.66862 40.8155 8.08734 40.9438 8.47037Z" fill="#009E80"/>
<path d="M41.5731 5.83352C41.7014 6.21655 42.1139 6.41885 42.4945 6.28537C42.875 6.15189 43.0795 5.73318 42.9512 5.35015C42.8229 4.96712 42.4104 4.76482 42.0298 4.8983C41.6493 5.03178 41.4448 5.4505 41.5731 5.83352Z" fill="#009E80"/>
<path d="M42.2024 3.19668C42.3307 3.57971 42.7432 3.78201 43.1238 3.64853C43.5043 3.51505 43.7088 3.09634 43.5805 2.71331C43.4522 2.33028 43.0397 2.12798 42.6591 2.26146C42.2786 2.39494 42.0741 2.81365 42.2024 3.19668Z" fill="#009E80"/>
<path d="M47.299 13.7425C47.3154 14.147 47.6545 14.4612 48.0564 14.4441C48.4584 14.4271 48.7709 14.0853 48.7545 13.6808C48.7382 13.2762 48.399 12.9621 47.9971 12.9791C47.5952 12.9961 47.2826 13.3379 47.299 13.7425Z" fill="#009E80"/>
<path d="M48.6361 11.3982C48.6525 11.8028 48.9916 12.1169 49.3936 12.0999C49.7955 12.0829 50.1081 11.7411 50.0917 11.3365C50.0753 10.932 49.7362 10.6178 49.3343 10.6349C48.9323 10.6519 48.6198 10.9937 48.6361 11.3982Z" fill="#009E80"/>
<path d="M49.9733 9.0541C49.9897 9.45866 50.3288 9.77281 50.7307 9.75577C51.1327 9.73874 51.4452 9.39697 51.4288 8.99241C51.4125 8.58785 51.0734 8.2737 50.6714 8.29074C50.2695 8.30777 49.9569 8.64954 49.9733 9.0541Z" fill="#009E80"/>
<path d="M51.3104 6.70986C51.3268 7.11442 51.6659 7.42857 52.0679 7.41153C52.4698 7.3945 52.7824 7.05273 52.766 6.64817C52.7496 6.24361 52.4105 5.92946 52.0086 5.9465C51.6066 5.96354 51.2941 6.30531 51.3104 6.70986Z" fill="#009E80"/>
<path d="M53.3401 18.3528C53.2602 18.7494 53.5149 19.1382 53.9089 19.2213C54.3029 19.3043 54.6871 19.0502 54.7669 18.6536C54.8467 18.257 54.5921 17.8682 54.1981 17.7851C53.804 17.7021 53.4199 17.9562 53.3401 18.3528Z" fill="#009E80"/>
<path d="M55.1921 16.4098C55.1123 16.8064 55.3669 17.1952 55.761 17.2783C56.155 17.3613 56.5391 17.1072 56.619 16.7106C56.6988 16.314 56.4441 15.9252 56.0501 15.8421C55.6561 15.7591 55.272 16.0132 55.1921 16.4098Z" fill="#009E80"/>
<path d="M57.0442 14.4666C56.9643 14.8631 57.219 15.252 57.613 15.335C58.007 15.4181 58.3912 15.164 58.471 14.7674C58.5508 14.3708 58.2962 13.982 57.9022 13.8989C57.5081 13.8158 57.124 14.07 57.0442 14.4666Z" fill="#009E80"/>
<path d="M58.8962 12.5235C58.8164 12.92 59.071 13.3089 59.4651 13.3919C59.8591 13.475 60.2432 13.2208 60.323 12.8243C60.4029 12.4277 60.1482 12.0389 59.7542 11.9558C59.3602 11.8727 58.9761 12.1269 58.8962 12.5235Z" fill="#009E80"/>
<path d="M57.8277 24.5282C57.6548 24.8924 57.808 25.3335 58.1699 25.5133C58.5317 25.6932 58.9652 25.5437 59.1381 25.1795C59.3109 24.8153 59.1577 24.3742 58.7959 24.1944C58.434 24.0145 58.0005 24.164 57.8277 24.5282Z" fill="#009E80"/>
<path d="M60.0905 23.1121C59.9176 23.4763 60.0708 23.9173 60.4327 24.0972C60.7945 24.277 61.228 24.1276 61.4009 23.7634C61.5738 23.3991 61.4206 22.9581 61.0587 22.7782C60.6968 22.5984 60.2634 22.7478 60.0905 23.1121Z" fill="#009E80"/>
<path d="M62.3533 21.6958C62.1804 22.06 62.3336 22.5011 62.6955 22.6809C63.0573 22.8608 63.4908 22.7113 63.6637 22.3471C63.8366 21.9829 63.6834 21.5418 63.3215 21.362C62.9597 21.1821 62.5262 21.3316 62.3533 21.6958Z" fill="#009E80"/>
<path d="M64.6161 20.2795C64.4432 20.6438 64.5964 21.0848 64.9583 21.2647C65.3202 21.4445 65.7536 21.2951 65.9265 20.9308C66.0994 20.5666 65.9462 20.1256 65.5843 19.9457C65.2225 19.7659 64.789 19.9153 64.6161 20.2795Z" fill="#009E80"/>
</g>
<defs>
<clipPath id="clip0">
<rect width="66" height="87" fill="white" transform="translate(0 0.000976562)"/>
</clipPath>
</defs>
</svg>
