<svg width="119" height="109" viewBox="0 0 119 109" fill="none" xmlns="http://www.w3.org/2000/svg">
<path fill-rule="evenodd" clip-rule="evenodd" d="M40.7174 32.8979C41.131 32.8979 41.0317 32.7887 41.0317 33.2087C41.0941 34.1067 41.45 34.7166 41.6581 35.6404C39.8813 36.1309 39.5203 38.3237 39.5315 40.7538C39.5433 43.3102 40.2723 44.8952 41.4229 46.2506C41.7936 46.2506 41.6822 46.1647 41.6822 46.5827C44.5004 48.6726 43.9474 46.4198 44.3922 49.1055C45.2244 54.13 47.1639 55.3031 50.6538 58.9233C53.5776 61.9561 57.203 64.0481 61.66 62.8864C62.6521 62.6278 64.6252 61.7166 65.2742 61.1725C65.2742 60.6818 65.1594 60.8119 65.647 60.8119C66.3947 60.5362 70.5222 56.0049 71.1161 55.3984C73.125 53.3473 74.1028 50.6124 74.3488 47.5554C78.3073 47.4642 79.6663 41.4707 78.7296 38.1627C78.135 36.0629 77.5892 36.0119 76.4655 35.3972C77.6231 30.2599 76.6758 22.701 74.584 19.4303C74.1584 19.4303 74.2628 19.5415 74.2628 19.1053C73.7326 17.8379 72.509 17.0408 71.1841 16.2982C68.9647 15.0543 68.9485 15.7411 66.5877 15.9442C65.9472 13.4638 61.1523 9.81971 55.0914 12.0823C50.5361 13.7828 44.7931 18.5793 41.8234 22.6805C37.7234 28.3428 40.4504 29.9685 40.7174 32.8979Z" fill="#079E80"/>
<path fill-rule="evenodd" clip-rule="evenodd" d="M73.6696 68.9546C73.6696 69.41 73.7957 69.3247 73.4081 69.3247L71.6284 72.4641C69.2245 76.5941 67.6296 81.5104 64.2359 79.6537C62.9201 82.2248 63.7655 80.8976 63.7655 84.4957C64.1586 84.4957 64.0763 84.3845 64.0763 84.7602C63.8667 86.4945 64.471 88.5703 64.471 90.5748C64.8641 90.5748 64.7819 90.4636 64.7819 90.8393C64.6306 92.0913 64.9986 94.1426 65.1331 95.2611L66.126 104.206C66.0411 105.827 64.9718 106.4 64.0454 107.131C64.0454 107.54 64.1483 107.445 63.7655 107.445C63.3113 107.671 62.6955 108.109 62.3543 108.59H86.8136C92.1841 108.59 95.5411 108.271 95.5157 100.809C95.5059 97.9331 95.7506 95.6154 95.7507 92.5414C95.7507 90.2699 95.5619 82.7118 95.1866 80.48C94.9279 78.9417 94.3685 78.3806 94.1043 77.2328L93.8589 76.979C93.6641 76.5787 93.6644 76.491 93.3988 76.1344C92.9425 76.1344 93.0638 76.2483 93.0638 75.7632C92.6605 74.7064 90.6598 72.7263 89.8759 72.1107C83.5313 67.1286 78.7779 67.524 75.2895 65.7935C75.0077 66.3442 74.8271 66.8015 74.5062 67.4158C74.1443 68.1085 73.9657 68.2927 73.6696 68.9546Z" fill="#079E80"/>
<path fill-rule="evenodd" clip-rule="evenodd" d="M33.056 68.9545C33.056 69.3733 33.1501 69.2547 32.721 69.2547C32.0233 69.3418 29.6081 70.9251 28.8229 71.4896L27.1457 72.9167C26.5651 73.4169 26.0086 73.9564 25.7343 74.5473C25.7343 74.9598 25.8329 74.8545 25.4303 74.8545C22.2822 78.8854 22.37 82.9573 22.3729 88.1645C22.3743 90.604 22.1547 91.347 22.4555 93.2709L22.4142 94.0003C21.9993 100.293 21.4009 106.253 26.2194 108.261C27.6948 108.875 30.1313 108.59 32.0155 108.59C39.9334 108.59 47.8513 108.59 55.7692 108.59C51.2075 104.491 51.3787 106.359 52.198 99.5482L54.2762 81.3091C54.2611 80.2979 53.9063 80.6365 53.6525 79.6537C52.0031 80.556 51.6698 80.1132 50.3599 79.4888C49.9454 79.4888 50.049 79.596 50.049 79.1674C49.6469 78.2655 48.781 77.0359 48.2433 76.0063L42.5988 66.1362H42.3636C41.2443 66.0332 34.5905 68.4907 33.056 68.9545Z" fill="#079E80"/>
<path fill-rule="evenodd" clip-rule="evenodd" d="M46.1266 68.797C46.6073 68.797 46.4753 68.6792 46.4753 69.1979L50.4615 76.3878C51.188 77.6505 51.0033 77.7607 52.2414 78.438C54.7063 76.7315 57.1931 73.2468 58.8266 72.1158C59.6989 72.3566 60.0565 73.019 60.6494 73.6355C62.0189 75.0594 64.565 78.1208 65.8821 78.438C66.901 77.5224 67.4483 76.2577 68.1896 74.9879C68.9675 73.6555 69.662 72.5044 70.3472 71.1432L70.5859 70.8965C74.1081 64.0738 74.6943 65.6807 71.7053 62.934C69.8541 61.2331 69.7347 60.315 67.4033 62.6325C67.4033 63.1085 67.5185 62.9894 67.0581 62.9894L60.0575 68.4684C60.0575 68.8919 60.164 68.7934 59.7673 68.7934C59.4121 68.9654 59.5549 68.7962 59.1719 69.1979C59.1229 69.2611 59.2313 70.1305 58.8889 69.3655C58.8613 69.3037 58.7923 69.2557 58.7474 69.1979C57.3932 68.272 48.9177 61.0831 48.2433 61.1735C48.0614 61.1979 44.3251 64.1367 44.2451 65.0641C44.1925 65.6732 45.8517 68.4667 46.1266 68.797Z" fill="#079E80"/>
<path fill-rule="evenodd" clip-rule="evenodd" d="M57.4155 107.523C57.8644 107.523 57.7562 107.404 57.7562 107.861C58.1782 108.273 58.2823 108.731 59.218 108.545C59.7693 108.436 63.1026 105.699 63.7444 105.163C64.8246 104.259 64.4535 103.809 64.1023 101.19L61.8975 82.3017C61.7728 81.2569 61.6087 80.9349 61.9402 80.2142C62.3449 79.3346 62.5789 79.5287 62.8247 78.438C61.9474 77.0834 60.1558 75.4676 58.8266 74.5474L55.0066 78.379C55.8242 81.6097 56.4457 78.0527 55.4658 86.1487L53.5011 102.618C53.1781 104.796 53.9113 104.651 56.0761 106.573C56.3227 106.792 56.5014 106.93 56.7419 107.102C57.1868 107.419 56.9495 107.322 57.4155 107.523Z" fill="#079E80"/>
<path fill-rule="evenodd" clip-rule="evenodd" d="M12.7303 14.1504C13.1183 14.1504 13.0068 14.058 13.0068 14.4861C13.5675 15.5292 15.4197 16.6396 16.818 17.0684C19.2684 17.8196 20.3117 17.2774 22.2651 16.6746C22.2651 16.2459 22.1687 16.3674 22.6081 16.3674C27.9913 14.2925 29.0648 3.96535 21.1811 1.37172C13.7058 -1.08742 8.0736 8.73338 12.7303 14.1504Z" fill="#4F84C3"/>
<path fill-rule="evenodd" clip-rule="evenodd" d="M94.3395 66.6121C94.806 66.6121 94.6745 66.4997 94.6745 67.0095C94.4393 69.5633 98.8335 74.3795 103.808 73.1523C113.927 70.6564 110.924 55.357 100.743 57.0947C98.7983 57.4265 97.0309 58.7576 95.945 60.1587C94.4731 62.0579 94.3395 63.3405 94.3395 66.6121Z" fill="#4F84C3"/>
<path fill-rule="evenodd" clip-rule="evenodd" d="M92.7656 6.46073C92.7656 6.97576 92.9055 6.87471 92.4581 6.87471C92.1563 9.51686 91.9927 11.4267 93.2606 13.4123C99.3182 22.8985 111.773 13.7745 106.996 5.2895C106.547 4.49069 106.005 3.71181 105.327 3.12481C104.553 2.45394 103.871 1.91705 102.842 1.5607C100.605 0.786219 98.313 0.929037 96.3746 1.99942C95.025 2.74467 92.904 4.7937 92.7656 6.46073Z" fill="#4F84C3" stroke="#4F84C3" stroke-width="0.0762" stroke-miterlimit="22.9256"/>
<path fill-rule="evenodd" clip-rule="evenodd" d="M8.96735 65.3072C8.96735 72.0447 16.9955 75.9931 22.2005 71.2081C25.4102 68.2574 25.7184 62.7942 22.4387 59.4032C19.2274 56.083 13.9359 56.2378 11.0239 59.6523C9.85335 61.0248 8.96735 62.8038 8.96735 65.3072Z" fill="#4F84C3"/>
<path fill-rule="evenodd" clip-rule="evenodd" d="M117.152 32.3294C116.729 32.3294 116.838 32.4371 116.838 31.9938L116.212 31.3212C115.799 31.3212 115.894 31.4326 115.894 31.0211C112.605 28.0726 108.01 28.8822 105.209 31.8033C100.502 36.7118 104.076 44.9588 110.367 45.5942C112.494 45.809 114.542 44.8314 116.119 43.5692C119.086 41.1931 119.936 35.5673 117.152 32.3294Z" fill="#4F84C3"/>
<path fill-rule="evenodd" clip-rule="evenodd" d="M4.12135 30.2916C4.12135 30.7273 4.22395 30.613 3.79328 30.613C3.43308 30.7911 3.57015 30.6363 3.18748 31.0211C3.18748 31.4762 3.29641 31.3603 2.85255 31.3603C2.13495 31.6672 2.52101 31.2579 2.25368 31.9937C2.25368 32.4717 2.37035 32.3543 1.91181 32.3543C0.0537461 34.3253 -0.410654 38.759 1.24548 41.4365C2.79161 43.9364 4.89008 45.6108 8.78721 45.6108L9.20255 45.2693C11.2633 45.5641 13.869 43.1903 14.696 41.8073C17.5107 37.1006 15.3941 31.674 11.0871 29.802C8.99028 28.8906 5.85915 29.0496 4.12135 30.2916Z" fill="#4F84C3"/>
<path fill-rule="evenodd" clip-rule="evenodd" d="M77.0322 9.62215V9.86533C77.0852 10.7014 77.3 10.6745 78.0022 11.1924L81.9336 14.6678C84.9829 17.8256 84.3186 17.5049 86.3433 20.1897C86.8042 20.1897 86.6817 20.0746 86.6817 20.5645C87.0822 22.1066 93.0087 30.6024 91.3245 42.493C91.1754 43.546 90.8021 45.2317 90.8806 46.0966C90.8806 46.4628 90.9606 46.354 90.5766 46.354C90.5581 47.1943 90.1146 48.6254 89.9011 49.2888C89.6108 50.1907 89.0682 51.0506 89.0129 51.9326C89.0129 52.4187 89.1387 52.3121 88.6951 52.3121C88.1834 53.9736 86.4679 56.66 85.4986 58.111C84.8031 59.1523 84.1918 59.7872 83.5216 60.6869C82.8592 61.5761 82.0704 62.4068 81.238 63.118C81.238 63.5616 81.3648 63.4858 81.0028 63.4858L80.6988 63.6008C78.6435 65.044 80.1782 68.1428 84.0264 63.1542C85.5568 61.1704 87.2179 59.4659 88.46 57.039L89.871 57.8942C90.2944 57.8942 90.175 57.7922 90.175 58.2548C91.3285 59.0185 92.4442 60.0355 93.634 60.6865C93.9234 60.1211 94.4221 59.3321 94.5748 58.7411C93.7056 58.5012 89.9973 55.6517 89.6359 55.0937C90.1418 52.8482 93.634 47.6732 93.634 38.3154H101.395V36.3701H93.3988C93.3988 32.2699 92.5464 31.2007 92.2229 28.5414C91.7402 28.5414 91.8879 28.652 91.8879 28.1025C91.8247 25.9145 89.1604 21.177 88.2248 19.3487L92.9284 15.9445C92.5631 15.3803 92.1408 14.8418 91.7525 14.2423C90.169 15.3387 88.6324 16.5502 87.0488 17.6466C86.5558 16.8854 85.7337 15.9686 85.1694 15.2128C84.3423 14.1051 79.456 9.18005 78.1118 8.93894L77.6414 8.96031C76.967 8.85464 77.054 9.08548 77.0322 9.62215Z" fill="#4F84C3"/>
<path fill-rule="evenodd" clip-rule="evenodd" d="M37.6978 11.3243C37.6978 11.7241 37.7985 11.6315 37.4248 11.6315C36.3537 12.184 32.5467 16.5002 32.2507 17.6465C31.5501 17.4531 28.057 14.832 27.391 14.2422C27.391 14.7056 27.5082 14.5993 27.0766 14.5993C26.7746 15.0253 26.4068 15.5261 26.1359 15.9444C26.9202 16.3735 27.6052 16.9206 28.388 17.5064C29.1478 18.075 29.9358 18.856 30.8396 19.1055C30.4853 20.6777 28.0172 23.9714 27.578 26.6436C27.578 27.0506 27.6833 26.9615 27.3118 26.9615C27.2316 27.8296 27.1916 27.3475 27.1902 28.1025C27.1902 28.5766 27.3037 28.456 26.8414 28.456C26.5965 30.9189 25.6655 32.2117 25.6655 36.3701H17.6692V38.3154H25.4303V39.9357L25.7446 40.5038C25.4523 42.8175 26.419 46.7655 26.9376 48.672C27.5588 50.9558 28.7047 53.463 29.6636 55.3368C28.9851 55.5241 28.5578 55.8951 28.1068 56.3095C28.1068 56.7503 28.2123 56.638 27.7822 56.638C26.8 57.0869 25.4782 58.2998 24.4896 58.9842C24.902 59.621 25.075 59.9922 25.4303 60.6864L30.6044 57.0389C31.7246 59.2277 33.3898 61.168 34.9071 63.0463C35.4474 63.7152 36.0694 64.4237 36.7192 64.7525C37.1136 64.7525 37.0129 64.6518 37.0129 65.0633C37.3336 65.328 37.5412 65.6313 37.8927 65.7997C39.1594 66.4064 38.0126 65.7928 39.071 65.7928C39.3821 64.4495 39.5066 64.2647 38.3655 63.6649C37.961 63.6649 38.058 63.7718 38.058 63.3612C33.1607 59.1273 29.1277 51.1531 28.0121 44.3999C27.3207 40.2143 27.3956 35.0635 28.3094 31.0793C29.1549 27.3925 29.6412 26.227 31.1527 23.0767C31.6202 22.1024 32.0856 21.4002 32.4595 20.5644C32.4595 20.1159 32.3362 20.2015 32.721 20.2015C33.1831 19.5627 33.5017 18.9873 34.0287 18.2691C34.5122 17.6101 34.9833 16.9602 35.4862 16.3717C36.316 15.4006 37.8546 13.8122 38.7636 13.0264C38.7636 12.6423 38.6773 12.7512 39.071 12.7512C39.5587 12.4566 40.0615 11.9437 40.6504 11.4983C41.4009 10.9306 41.9276 10.8146 42.0803 9.86528V9.6221C42.1531 8.94777 41.9488 9.03456 41.4229 8.90332H41.1877C39.9216 9.18082 38.635 10.5998 37.6978 11.3243Z" fill="#4F84C3"/>
<path fill-rule="evenodd" clip-rule="evenodd" d="M92.2229 28.5427C92.2229 27.9927 92.3706 28.1033 91.8879 28.1033C91.8879 28.6534 91.7401 28.5427 92.2229 28.5427Z" fill="#444444"/>
<path fill-rule="evenodd" clip-rule="evenodd" d="M46.4753 69.1965C46.4753 68.6794 46.6073 68.7969 46.1266 68.7969C46.1266 69.3138 45.9947 69.1965 46.4753 69.1965Z" fill="#444444"/>
<path fill-rule="evenodd" clip-rule="evenodd" d="M65.647 60.8127C65.1594 60.8127 65.2742 60.6829 65.2742 61.1724C65.7618 61.1724 65.647 61.3023 65.647 60.8127Z" fill="#444444"/>
<path fill-rule="evenodd" clip-rule="evenodd" d="M94.6745 67.009C94.6745 66.4995 94.806 66.6118 94.3395 66.6118C94.3395 67.1213 94.2081 67.009 94.6745 67.009Z" fill="#444444"/>
<path fill-rule="evenodd" clip-rule="evenodd" d="M78.1118 8.93924C78.1118 7.96277 77.6886 8.878 77.6414 8.96061L78.1118 8.93924Z" fill="#444444"/>
<path fill-rule="evenodd" clip-rule="evenodd" d="M22.4142 94L22.4555 93.2709C21.9133 93.2709 22.2251 93.1825 22.2407 93.5622C22.2645 94.1461 22.0913 93.6249 22.4142 94Z" fill="#444444"/>
<path fill-rule="evenodd" clip-rule="evenodd" d="M92.7655 6.46111C92.3181 6.46111 92.4581 6.36045 92.4581 6.8738C92.9055 6.8738 92.7655 6.97453 92.7655 6.46111Z" fill="#444444"/>
<path fill-rule="evenodd" clip-rule="evenodd" d="M86.6817 20.5643C86.6817 20.0756 86.8041 20.1905 86.3433 20.1905C86.3433 20.6792 86.2208 20.5643 86.6817 20.5643Z" fill="#444444"/>
<path fill-rule="evenodd" clip-rule="evenodd" d="M93.3988 76.1334C93.3988 75.6494 93.5201 75.7631 93.0638 75.7631C93.0638 76.247 92.9425 76.1334 93.3988 76.1334Z" fill="#444444"/>
<path fill-rule="evenodd" clip-rule="evenodd" d="M2.25368 31.9939C1.79508 31.9939 1.91181 31.8768 1.91181 32.3536C2.37035 32.3536 2.25368 32.4707 2.25368 31.9939Z" fill="#444444"/>
<path fill-rule="evenodd" clip-rule="evenodd" d="M27.1902 28.1033C26.7279 28.1033 26.8414 27.983 26.8414 28.4557C27.3037 28.4557 27.1902 28.576 27.1902 28.1033Z" fill="#444444"/>
<path fill-rule="evenodd" clip-rule="evenodd" d="M67.4033 62.6323C66.943 62.6323 67.0581 62.5136 67.0581 62.9882C67.5185 62.9882 67.4033 63.1069 67.4033 62.6323Z" fill="#444444"/>
<path fill-rule="evenodd" clip-rule="evenodd" d="M89.0129 51.9332C88.5693 51.9332 88.6951 51.827 88.6951 52.3115C89.1387 52.3115 89.0129 52.4177 89.0129 51.9332Z" fill="#444444"/>
<path fill-rule="evenodd" clip-rule="evenodd" d="M57.7562 107.86C57.7562 107.405 57.8644 107.523 57.4155 107.523C57.4155 107.978 57.3073 107.86 57.7562 107.86Z" fill="#444444"/>
<path fill-rule="evenodd" clip-rule="evenodd" d="M3.18747 31.0212C2.7436 31.0212 2.85254 30.9056 2.85254 31.3594C3.2964 31.3594 3.18747 31.475 3.18747 31.0212Z" fill="#444444"/>
<path fill-rule="evenodd" clip-rule="evenodd" d="M27.391 14.2429C26.9594 14.2429 27.0766 14.1369 27.0766 14.5989C27.5082 14.5989 27.391 14.705 27.391 14.2429Z" fill="#444444"/>
<path fill-rule="evenodd" clip-rule="evenodd" d="M90.175 58.2543C90.175 57.793 90.2943 57.8948 89.871 57.8948C89.871 58.3561 89.7517 58.2543 90.175 58.2543Z" fill="#444444"/>
<path fill-rule="evenodd" clip-rule="evenodd" d="M28.1068 56.3101C27.6767 56.3101 27.7821 56.1981 27.7821 56.6378C28.2123 56.6378 28.1068 56.7499 28.1068 56.3101Z" fill="#444444"/>
<path fill-rule="evenodd" clip-rule="evenodd" d="M22.6081 16.3674C22.1687 16.3674 22.2651 16.2462 22.2651 16.674C22.7045 16.674 22.6081 16.7953 22.6081 16.3674Z" fill="#444444"/>
<path fill-rule="evenodd" clip-rule="evenodd" d="M117.152 32.3287C117.152 31.8865 117.261 31.9939 116.838 31.9939C116.838 32.436 116.729 32.3287 117.152 32.3287Z" fill="#444444"/>
<path fill-rule="evenodd" clip-rule="evenodd" d="M4.12135 30.2918C3.69068 30.2918 3.79328 30.1779 3.79328 30.6125C4.22395 30.6125 4.12135 30.7265 4.12135 30.2918Z" fill="#444444"/>
<path fill-rule="evenodd" clip-rule="evenodd" d="M74.584 19.4303C74.584 18.9952 74.6883 19.1062 74.2627 19.1062C74.2627 19.5412 74.1584 19.4303 74.584 19.4303Z" fill="#444444"/>
<path fill-rule="evenodd" clip-rule="evenodd" d="M59.1719 69.1978H58.7474C58.7923 69.2556 58.8613 69.3036 58.8889 69.3654C59.2313 70.1305 59.1229 69.261 59.1719 69.1978Z" fill="#444444"/>
<path fill-rule="evenodd" clip-rule="evenodd" d="M33.056 68.9546C32.6269 68.9546 32.721 68.8366 32.721 69.2533C33.1502 69.2533 33.056 69.3713 33.056 68.9546Z" fill="#444444"/>
<path fill-rule="evenodd" clip-rule="evenodd" d="M81.238 63.1188C80.8065 63.1188 80.9157 63.0217 81.0028 63.4854C81.3647 63.4854 81.238 63.561 81.238 63.1188Z" fill="#444444"/>
<path fill-rule="evenodd" clip-rule="evenodd" d="M50.3599 79.4881C50.3599 79.0604 50.4635 79.1674 50.049 79.1674C50.049 79.5951 49.9454 79.4881 50.3599 79.4881Z" fill="#444444"/>
<path fill-rule="evenodd" clip-rule="evenodd" d="M73.6696 68.9546C73.282 68.9546 73.4081 68.8694 73.4081 69.3239C73.7957 69.3239 73.6696 69.4091 73.6696 68.9546Z" fill="#444444"/>
<path fill-rule="evenodd" clip-rule="evenodd" d="M41.0317 33.209C41.0317 32.7897 41.131 32.8988 40.7174 32.8988C40.7174 33.3181 40.618 33.209 41.0317 33.209Z" fill="#444444"/>
<path fill-rule="evenodd" clip-rule="evenodd" d="M32.721 20.2023C32.3362 20.2023 32.4595 20.117 32.4595 20.5641C32.8443 20.5641 32.721 20.6495 32.721 20.2023Z" fill="#444444"/>
<path fill-rule="evenodd" clip-rule="evenodd" d="M116.212 31.3199C116.212 30.9104 116.307 31.0213 115.894 31.0213C115.894 31.4307 115.799 31.3199 116.212 31.3199Z" fill="#444444"/>
<path fill-rule="evenodd" clip-rule="evenodd" d="M60.0575 68.4684C59.6609 68.4684 59.7673 68.3701 59.7673 68.7927C60.164 68.7927 60.0575 68.891 60.0575 68.4684Z" fill="#444444"/>
<path fill-rule="evenodd" clip-rule="evenodd" d="M38.3655 63.664C38.3655 63.2555 38.4625 63.3618 38.058 63.3618C38.058 63.7704 37.961 63.664 38.3655 63.664Z" fill="#444444"/>
<path fill-rule="evenodd" clip-rule="evenodd" d="M25.7343 74.5474C25.3317 74.5474 25.4303 74.4426 25.4303 74.853C25.8329 74.853 25.7343 74.9577 25.7343 74.5474Z" fill="#444444"/>
<path fill-rule="evenodd" clip-rule="evenodd" d="M13.0068 14.4853C13.0068 14.0583 13.1184 14.1505 12.7303 14.1505C12.7303 14.5775 12.6187 14.4853 13.0068 14.4853Z" fill="#444444"/>
<path fill-rule="evenodd" clip-rule="evenodd" d="M37.0129 65.0625C37.0129 64.653 37.1135 64.7533 36.7192 64.7533C36.7192 65.1627 36.6185 65.0625 37.0129 65.0625Z" fill="#444444"/>
<path fill-rule="evenodd" clip-rule="evenodd" d="M64.0454 107.131C63.6625 107.131 63.7655 107.037 63.7655 107.445C64.1483 107.445 64.0454 107.54 64.0454 107.131Z" fill="#444444"/>
<path fill-rule="evenodd" clip-rule="evenodd" d="M41.6821 46.5827C41.6821 46.1657 41.7935 46.2514 41.4229 46.2514C41.4229 46.6684 41.3115 46.5827 41.6821 46.5827Z" fill="#444444"/>
<path fill-rule="evenodd" clip-rule="evenodd" d="M27.5779 26.6442C27.2064 26.6442 27.3118 26.5554 27.3118 26.9605C27.6833 26.9605 27.5779 27.0493 27.5779 26.6442Z" fill="#444444"/>
<path fill-rule="evenodd" clip-rule="evenodd" d="M39.071 12.7518C38.6773 12.7518 38.7636 12.6431 38.7636 13.0265C39.1573 13.0265 39.071 13.1353 39.071 12.7518Z" fill="#444444"/>
<path fill-rule="evenodd" clip-rule="evenodd" d="M37.6978 11.3239C37.3241 11.3239 37.4248 11.2318 37.4248 11.6297C37.7985 11.6297 37.6978 11.7218 37.6978 11.3239Z" fill="#444444"/>
<path fill-rule="evenodd" clip-rule="evenodd" d="M64.0763 84.7603C64.0763 84.3847 64.1586 84.4958 63.7655 84.4958C63.7655 84.8714 63.6833 84.7603 64.0763 84.7603Z" fill="#444444"/>
<path fill-rule="evenodd" clip-rule="evenodd" d="M64.7819 90.8384C64.7819 90.4641 64.8641 90.5749 64.471 90.5749C64.471 90.9491 64.3888 90.8384 64.7819 90.8384Z" fill="#444444"/>
<path fill-rule="evenodd" clip-rule="evenodd" d="M90.8806 46.0973C90.4966 46.0973 90.5766 45.989 90.5766 46.3538C90.9606 46.3538 90.8806 46.4621 90.8806 46.0973Z" fill="#444444"/>
<path fill-rule="evenodd" clip-rule="evenodd" d="M25.7446 40.504L25.4303 39.9363C25.4303 40.8856 25.3381 40.3134 25.7446 40.504Z" fill="#444444"/>
<path fill-rule="evenodd" clip-rule="evenodd" d="M9.20253 45.2693L8.7872 45.61C9.52033 45.61 9.02073 45.7036 9.20253 45.2693Z" fill="#444444"/>
<path fill-rule="evenodd" clip-rule="evenodd" d="M81.0028 63.4863L80.6988 63.6004L81.0028 63.4863Z" fill="#444444"/>
<path fill-rule="evenodd" clip-rule="evenodd" d="M70.5859 70.8965L70.3472 71.1424L70.5859 70.8965Z" fill="#444444"/>
<path fill-rule="evenodd" clip-rule="evenodd" d="M94.1044 77.2326L93.8589 76.979L94.1044 77.2326Z" fill="#444444"/>
</svg>
