<svg width="92" height="75" viewBox="0 0 92 75" fill="none" xmlns="http://www.w3.org/2000/svg">
<path fill-rule="evenodd" clip-rule="evenodd" d="M73.5083 20.5301C73.5083 16.4908 80.3228 15.2414 80.3228 21.0007C80.3228 25.0058 73.5083 24.8945 73.5083 20.5301ZM62.2385 20.5301C62.2385 18.6816 63.9612 17.107 65.5567 17.0385C70.2581 16.8331 70.0544 24.0815 65.5652 23.9446C63.7236 23.8933 62.2385 22.3443 62.2385 20.5301ZM50.7311 20.5301C50.7311 19.5802 51.7155 17.0471 54.2529 17.0727C59.1071 17.107 58.4452 24.7833 53.7268 23.936C52.9545 23.7991 52.3944 23.5424 51.8259 22.969C51.2573 22.4042 50.7226 20.7868 50.7226 20.5301H50.7311ZM39.4613 19.8198C39.4613 22.8492 40.1912 25.408 41.5659 27.8726C41.7781 28.2577 41.8714 28.523 42.1345 28.9594C43.9506 31.9974 47.2857 34.2652 47.9137 35.2066C47.1499 38.4928 48.0749 39.8877 45.7072 45.7668C44.8247 47.9576 44.3919 47.3757 44.3919 49.8831C46.7765 49.8831 50.1965 47.4014 52.3265 46.0407L57.1213 42.823C57.4692 42.5919 57.6135 42.4978 57.953 42.241C58.3348 41.9501 58.5555 41.8217 58.8949 41.5308L60.6007 39.939C67.7631 41.6249 77.4714 39.1859 83.4797 35.0611L86.5178 32.6393C86.5602 32.6136 86.6281 32.5879 86.6621 32.5622L87.2052 31.7321C87.4174 31.4241 87.655 31.2786 87.9095 31.0047C88.2999 30.5768 88.2066 30.6111 88.5121 30.1917C90.5233 27.4875 91.8472 24.3126 92.0084 20.2477C92.1357 16.9957 90.7864 14.0947 89.3607 11.4845L86.7384 8.14702C85.0412 6.45259 84.0228 5.73374 82.1898 4.50143L81.9267 4.31316C75.248 -0.11975 65.2172 -1.0611 57.0704 1.10401C56.5782 1.23237 56.366 1.25805 55.772 1.42064L49.9164 4.01364L45.8091 7.00884C44.7398 7.81327 44.4428 8.33529 43.6451 9.31088C43.3226 9.70453 43.2971 9.66174 43.0001 10.0811C42.9831 10.1067 42.7964 10.4063 42.737 10.5004C42.6946 10.5603 42.5758 10.7229 42.5419 10.7828C40.887 13.2389 39.4868 16.6192 39.4868 19.7941L39.4613 19.8198Z" fill="#009E80"/>
<path fill-rule="evenodd" clip-rule="evenodd" d="M32.6468 70.4987C32.6468 68.7443 32.4771 69.0524 33.0627 68.3079C33.1051 68.2566 33.2069 68.1025 33.2494 68.0512C33.7925 67.5035 32.9354 68.2052 33.504 67.8287C34.6241 67.0756 43.1614 67.4179 45.3254 67.4179C48.4992 67.4179 49.2375 71.4657 45.3338 71.4486L36.4063 71.44C35.6849 71.44 34.3271 71.5941 33.7755 71.3373L32.6468 70.4901V70.4987ZM9.15527e-05 64.3457L0.424406 67.7944C0.823261 69.1551 1.42579 70.3789 2.30836 71.4999C5.23613 75.2568 9.44533 75.0086 14.8002 75.0086C31.7049 75.0086 48.618 75.0086 65.5227 75.0086C70.0374 75.0086 73.7205 75.0771 76.3682 73.1601C78.8292 71.3716 80.5519 68.539 80.5519 64.3542C79.4996 64.3799 79.245 64.0975 78.1164 64.2943C77.2338 64.4484 79.0753 64.243 77.7175 64.3628L70.0714 64.2943C69.5367 64.2002 70.4787 64.2002 69.4943 64.1574C68.7899 64.1232 69.2142 64.1916 68.9087 64.243C68.8409 64.2515 68.7899 64.2858 68.7136 64.2943H64.0206C63.9528 64.3029 63.8933 64.3286 63.8255 64.3371L61.7548 64.3542C61.636 64.3542 61.1608 64.3713 61.0759 64.3628C60.9995 64.3542 60.9486 64.3457 60.8722 64.3371L59.3277 64.2943C58.4452 64.4484 60.2867 64.243 58.9289 64.3628L54.6263 64.2943C54.5584 64.3029 54.499 64.3286 54.4311 64.3371L51.6731 64.3628C51.0875 64.3114 51.2148 64.1232 50.502 64.1574L49.5261 64.3628C49.1781 64.397 48.5162 64.3457 48.1343 64.3457C47.7609 64.3457 47.1244 64.3885 46.7765 64.3371C46.7086 64.3286 46.6492 64.3029 46.5813 64.2943H40.5306C38.8079 64.5938 37.2379 64.0633 36.2196 64.1916L32.2989 64.243C31.9934 64.1916 32.4262 64.1232 31.7133 64.1574C30.7289 64.2002 29.2523 64.5168 27.9879 64.3371L26.4434 64.2943C26.3755 64.3029 26.3161 64.3286 26.2482 64.3371C26.1039 64.3542 25.756 64.3628 25.6032 64.3628L23.295 64.3371C23.2271 64.3286 23.1677 64.3029 23.0998 64.2943C23.0319 64.2858 22.9725 64.2515 22.9046 64.243C21.5977 64.0205 20.0532 64.5511 18.5935 64.3457C18.5257 64.3371 18.4663 64.3114 18.3984 64.3029H17.049C16.9812 64.3114 16.9217 64.3371 16.8539 64.3457C15.3688 64.5511 13.5018 64.0975 12.3561 64.3029C10.7947 64.5767 9.19074 64.0205 7.84991 64.2515C7.78202 64.2601 7.7311 64.2943 7.65472 64.3029L3.34369 64.2002C3.2758 64.2087 3.21639 64.243 3.15699 64.2515C3.0891 64.2601 3.03818 64.2943 2.96181 64.3029C2.89392 64.3114 2.83451 64.3371 2.76662 64.3457C2.10469 64.4398 0.729912 64.3542 9.15527e-05 64.3542L9.15527e-05 64.3457Z" fill="#009E80"/>
<path fill-rule="evenodd" clip-rule="evenodd" d="M24.4236 36.8668L24.7037 39.6994C23.7872 39.939 24.3558 39.9476 23.4817 40.1786C23.4817 41.8987 23.7278 42.7545 23.9484 44.2008C24.8819 44.312 23.9824 44.3377 25.1195 44.4404C25.1195 48.7535 26.7659 47.0505 26.7659 50.3623V50.833C23.2016 52.5617 18.2626 52.1338 16.4296 60.0668H46.488C46.3522 58.4665 45.3169 56.3185 44.3749 55.0862C43.1274 53.4517 41.9818 52.8783 40.0045 52.1766L36.3893 50.833C36.3893 46.6397 36.7288 49.3268 37.4246 47.1446C37.6707 46.383 37.6792 45.3304 37.8829 44.7656C38.2478 43.7215 38.7315 44.5944 38.9607 43.0198C39.3425 40.384 39.4613 40.1957 38.5024 39.939C38.5024 36.4303 38.7824 35.6259 37.484 33.1442C35.3625 29.0792 30.4404 28.3518 26.8338 31.27L25.6202 32.8703C25.0262 33.7689 24.3303 36.1051 24.4152 36.8497L24.4236 36.8668Z" fill="#009E80"/>
<path fill-rule="evenodd" clip-rule="evenodd" d="M6.33939 25.7333V59.3652H11.9743V26.2126C11.9743 25.6649 12.1355 25.5023 12.6786 25.5023H36.6354C36.5081 23.9191 35.9311 22.9949 35.9311 19.8199H11.9743C10.3958 19.8199 8.35912 21.0779 7.52747 22.4215L6.98434 23.3372C6.67884 23.9191 6.33939 24.9032 6.33939 25.7419V25.7333Z" fill="#009E80"/>
<path fill-rule="evenodd" clip-rule="evenodd" d="M68.5778 43.7385V59.3649H74.2126V43.0282L68.5778 43.7385Z" fill="#009E80"/>
</svg>
