<svg width="43" height="34" viewBox="0 0 43 34" fill="none" xmlns="http://www.w3.org/2000/svg">
<g clip-path="url(#clip0)">
<path fill-rule="evenodd" clip-rule="evenodd" d="M0.868527 13.9207V20.4679C0.868527 21.5089 2.60579 21.4038 2.60579 20.4679V14.2145H3.081V29.8082C3.081 31.2917 5.44929 31.2917 5.44929 29.8082V20.7617H5.9245V29.8082C5.9245 31.3715 8.29279 31.1466 8.29279 29.9569V13.1118H15.717C16.7259 13.1118 16.7921 11.494 15.6391 11.494H3.31472C1.98645 11.494 0.864632 12.6874 0.864632 13.9207H0.868527Z" fill="#009E80"/>
<path fill-rule="evenodd" clip-rule="evenodd" d="M7.66177 4.7254V5.16793C7.66177 5.92965 8.42523 6.6406 9.24322 6.6406H37.2069C38.0755 6.6406 38.7884 5.81358 38.7884 5.31664V4.65285C38.7884 3.92739 38.0677 3.25635 37.2887 3.25635H9.16532C8.38627 3.25635 7.66566 4.00719 7.66566 4.72902L7.66177 4.7254Z" fill="#009E80"/>
<path fill-rule="evenodd" clip-rule="evenodd" d="M17.0609 14.3848L17.17 14.5843C17.0882 15.1175 17.2596 15.1828 17.2985 15.6108C17.4154 15.6108 17.392 15.5818 17.392 15.687C17.4465 16.0098 17.6841 16.4487 17.8516 16.6954C17.9841 16.6954 17.949 16.6664 17.949 16.7933C18.21 17.4027 19.2266 18.1681 19.881 18.509C21.0262 19.1039 21.9221 19.0713 23.1764 19.0713L23.3049 18.9733C24.5709 19.1112 26.7794 17.5115 27.3637 15.9373C27.6091 15.2844 27.726 14.8491 27.726 13.9967L27.4728 13.7936L22.8297 13.7791C22.9154 13.6122 23.2153 11.9654 23.2387 11.6462L23.3049 11.5773C23.3049 10.8446 23.6204 10.2533 23.6204 9.43721C22.9816 9.03821 21.6378 9.20144 20.9483 9.37555C18.728 9.93777 17.0648 11.8711 17.0648 14.3885L17.0609 14.3848Z" fill="#009E80"/>
<path fill-rule="evenodd" clip-rule="evenodd" d="M33.4948 20.6891H31.7575C31.4225 20.6891 31.3174 20.6347 31.1187 20.6311L30.18 20.6891C29.845 20.6891 29.7398 20.6347 29.5411 20.6311L28.6024 20.6891C28.2674 20.6891 28.1622 20.6347 27.9636 20.6311L27.0248 20.6891C26.6899 20.6891 26.5847 20.6347 26.386 20.6311L25.4434 20.6891C25.1084 20.6891 25.0032 20.6347 24.8046 20.6311L23.8658 20.6891C23.5308 20.6891 23.4257 20.6347 23.227 20.6311L22.2883 20.6891C21.9533 20.6891 21.8481 20.6347 21.6495 20.6311L20.7107 20.6891C20.3757 20.6891 20.2706 20.6347 20.0719 20.6311L19.1332 20.6891C18.7982 20.6891 18.693 20.6347 18.4943 20.6311L17.5556 20.6891C17.2206 20.6891 17.1154 20.6347 16.9168 20.6311L15.978 20.6891C15.6431 20.6891 15.5379 20.6347 15.3392 20.6311L14.4005 20.6891C14.0655 20.6891 13.9603 20.6347 13.7617 20.6311C13.08 20.6129 11.3973 21.1461 11.3973 19.5139V13.9968H9.97552V19.8077C9.97552 21.1171 11.1324 22.0131 12.5035 22.0131H34.1492C35.4034 22.0131 36.5175 21.0409 36.5175 19.8802V7.22826C34.9048 7.22826 35.0801 7.1013 35.0918 7.88842C35.1502 11.2291 35.0957 14.9616 35.0957 18.3386C35.0957 20.0144 35.4112 20.6927 33.5143 20.6927L33.4948 20.6891Z" fill="#009E80"/>
<path fill-rule="evenodd" clip-rule="evenodd" d="M19.3552 24.5884C19.1916 24.8749 19.0319 25.1107 18.88 25.3973C18.7125 25.7165 18.5528 25.9341 18.3775 26.2533L17.392 27.9835C17.205 28.2701 17.1076 28.5022 16.9285 28.8033L15.9196 30.5226C15.83 30.6967 15.7209 30.8527 15.9585 30.889C16.0988 30.9107 16.8077 30.2723 17.0804 30.0474C17.3336 29.8407 17.5478 29.6122 17.7932 29.3873C18.0503 29.1479 18.245 28.9593 18.5021 28.7235C19.1604 28.1177 21.8208 25.8833 22.1169 25.4698C22.8063 25.5242 23.5308 25.6439 24.3293 25.4698C24.641 25.9015 25.3421 26.3766 25.8485 26.8482C26.1172 27.0985 26.3315 27.2943 26.6003 27.5482L27.4299 28.2447C27.9363 28.7199 28.4076 29.195 28.9296 29.6448C29.101 29.7899 29.1555 29.8008 29.323 29.9386C29.9657 30.4646 30.1137 30.9035 30.6474 30.9144C30.6396 30.6097 30.6435 30.6677 30.5071 30.4537C30.4137 30.3086 30.3669 30.2506 30.2773 30.0801L27.9869 26.1082C27.6636 25.5496 27.3988 25.0563 27.091 24.5122C28.0337 23.9246 28.505 22.7457 27.9597 22.7457H18.4787C17.9996 22.7457 18.471 23.5619 18.58 23.7541C18.8059 24.1386 19.1098 24.2547 19.3474 24.5848L19.3552 24.5884Z" fill="#009E80"/>
<path fill-rule="evenodd" clip-rule="evenodd" d="M24.0138 13.1842C25.0694 13.1842 28.5245 13.2821 29.3074 13.1116C29.3581 12.9158 29.3853 12.9738 29.3853 12.8178C29.3853 10.5181 27.7493 8.88949 25.9575 8.21119C24.3605 7.60906 24.5825 8.19668 24.3878 9.11801L23.749 12.5023C23.7022 12.7417 23.6009 13.1842 24.0138 13.1842Z" fill="#009E80"/>
<path fill-rule="evenodd" clip-rule="evenodd" d="M3.63412 8.99122V9.35757C3.63412 10.8411 5.88166 11.7842 7.20992 10.5546C8.45249 9.4011 7.65787 7.22473 5.69079 7.22473C4.65077 7.22473 3.63802 8.05901 3.63802 8.99122H3.63412Z" fill="#009E80"/>
<path fill-rule="evenodd" clip-rule="evenodd" d="M9.95215 10.4638C9.95215 10.6343 10.0067 10.685 10.1898 10.685H11.3739V7.30078H9.95215V10.4638Z" fill="#009E80"/>
<path fill-rule="evenodd" clip-rule="evenodd" d="M21.9611 1.93244V2.59623H24.489C24.489 1.68216 24.5708 0.757202 23.0673 0.757202C22.4869 0.757202 21.9611 1.35933 21.9611 1.93607V1.93244Z" fill="#009E80"/>
<path fill-rule="evenodd" clip-rule="evenodd" d="M17.949 16.7898C17.949 16.6628 17.9841 16.6918 17.8516 16.6918C17.8516 16.8188 17.8166 16.7898 17.949 16.7898Z" fill="#009E80"/>
<path fill-rule="evenodd" clip-rule="evenodd" d="M17.17 14.5844L17.0609 14.3849C17.0609 14.744 17.0375 14.4865 17.17 14.5844Z" fill="#009E80"/>
<path fill-rule="evenodd" clip-rule="evenodd" d="M17.392 15.687C17.392 15.5818 17.4193 15.6108 17.2985 15.6108C17.2985 15.716 17.2712 15.687 17.392 15.687Z" fill="#009E80"/>
<path fill-rule="evenodd" clip-rule="evenodd" d="M23.3049 18.9734L23.1764 19.0713C23.4062 19.0713 23.2426 19.0967 23.3049 18.9734Z" fill="#009E80"/>
<path fill-rule="evenodd" clip-rule="evenodd" d="M23.3049 11.5737L23.2387 11.6426L23.3049 11.5737Z" fill="#009E80"/>
</g>
<defs>
<clipPath id="clip0">
<rect width="42" height="33" fill="white" transform="translate(0.86853 0.752197)"/>
</clipPath>
</defs>
</svg>
