<svg width="22" height="22" viewBox="0 0 22 22" fill="none" xmlns="http://www.w3.org/2000/svg">
<g clip-path="url(#clip0)">
<path d="M13.6189 2.70508H14.8108C14.9887 2.70508 15.133 2.84937 15.133 3.02734C15.133 3.20532 14.9887 3.34961 14.8108 3.34961H13.6189C13.4409 3.34961 13.2966 3.20532 13.2966 3.02734C13.2966 2.84937 13.4409 2.70508 13.6189 2.70508Z" fill="white"/>
<path d="M11.8186 3.34961H7.18924C7.01122 3.34961 6.86697 3.20532 6.86697 3.02734C6.86697 2.84937 7.01122 2.70508 7.18924 2.70508H11.8186C11.9966 2.70508 12.1409 2.84937 12.1409 3.02734C12.1409 3.20532 11.9966 3.34961 11.8186 3.34961Z" fill="white"/>
<path d="M13.6189 4.55469H14.8108C14.9887 4.55469 15.133 4.69898 15.133 4.87695C15.133 5.05493 14.9887 5.19922 14.8108 5.19922H13.6189C13.4409 5.19922 13.2966 5.05493 13.2966 4.87695C13.2966 4.69898 13.4409 4.55469 13.6189 4.55469Z" fill="white"/>
<path d="M11.8186 5.19922H7.18924C7.01122 5.19922 6.86697 5.05493 6.86697 4.87695C6.86697 4.69898 7.01122 4.55469 7.18924 4.55469H11.8186C11.9966 4.55469 12.1409 4.69898 12.1409 4.87695C12.1409 5.05493 11.9966 5.19922 11.8186 5.19922Z" fill="white"/>
<path d="M13.6189 6.4043H14.8108C14.9887 6.4043 15.133 6.54859 15.133 6.72656C15.133 6.90454 14.9887 7.04883 14.8108 7.04883H13.6189C13.4409 7.04883 13.2966 6.90454 13.2966 6.72656C13.2966 6.54859 13.4409 6.4043 13.6189 6.4043Z" fill="white"/>
<path d="M11.8186 7.04883H7.18924C7.01122 7.04883 6.86697 6.90454 6.86697 6.72656C6.86697 6.54859 7.01122 6.4043 7.18924 6.4043H11.8186C11.9966 6.4043 12.1409 6.54859 12.1409 6.72656C12.1409 6.90454 11.9966 7.04883 11.8186 7.04883Z" fill="white"/>
<path d="M6.76705 17.8179V16.2428C6.76705 15.9355 7.017 15.6855 7.32427 15.6855H14.6758C14.983 15.6855 15.233 15.9355 15.233 16.2428V17.8179C15.233 18.1251 14.983 18.3751 14.6758 18.3751H7.32427C7.017 18.3751 6.76705 18.1251 6.76705 17.8179ZM7.41158 17.7306H14.5884V16.3301H7.41158V17.7306Z" fill="white"/>
<path d="M13.6189 8.25391H14.8108C14.9887 8.25391 15.133 8.3982 15.133 8.57617C15.133 8.75415 14.9887 8.89844 14.8108 8.89844H13.6189C13.4409 8.89844 13.2966 8.75415 13.2966 8.57617C13.2966 8.3982 13.4409 8.25391 13.6189 8.25391Z" fill="white"/>
<path d="M11.8186 8.89844H7.18924C7.01122 8.89844 6.86697 8.75415 6.86697 8.57617C6.86697 8.3982 7.01122 8.25391 7.18924 8.25391H11.8186C11.9966 8.25391 12.1409 8.3982 12.1409 8.57617C12.1409 8.75415 11.9966 8.89844 11.8186 8.89844Z" fill="white"/>
<path d="M13.6189 10.1045H14.8108C14.9887 10.1045 15.133 10.2488 15.133 10.4268C15.133 10.6047 14.9887 10.749 14.8108 10.749H13.6189C13.4409 10.749 13.2966 10.6047 13.2966 10.4268C13.2966 10.2488 13.4409 10.1045 13.6189 10.1045Z" fill="white"/>
<path d="M11.8186 10.749H7.18924C7.01122 10.749 6.86697 10.6047 6.86697 10.4268C6.86697 10.2488 7.01122 10.1045 7.18924 10.1045H11.8186C11.9966 10.1045 12.1409 10.2488 12.1409 10.4268C12.1409 10.6047 11.9966 10.749 11.8186 10.749Z" fill="white"/>
<path d="M13.4437 19.4141C13.6216 19.4141 13.7659 19.5583 13.7659 19.7363C13.7659 19.9143 13.6216 20.0586 13.4437 20.0586H8.55636C8.37834 20.0586 8.23409 19.9143 8.23409 19.7363C8.23409 19.5583 8.37834 19.4141 8.55636 19.4141H13.4437Z" fill="white"/>
<path d="M0.322266 12.389H1.69748L0.870117 6.78688C0.844164 6.6108 0.965809 6.447 1.14185 6.421C1.31794 6.39484 1.48169 6.51665 1.50777 6.69274L2.34906 12.389H5.06301V2.35079L1.04633 2.99751C1.01776 3.00211 1.00061 3.01852 0.991245 3.0315C0.981878 3.04448 0.971695 3.06592 0.976936 3.09862L1.31592 5.39345C1.34187 5.56954 1.22023 5.73333 1.04418 5.75933C1.02824 5.76169 1.01239 5.76285 0.996704 5.76285C0.839609 5.76285 0.701981 5.64774 0.678305 5.48764L0.340012 3.19693C0.309031 3.00464 0.354836 2.81184 0.468918 2.65398C0.582956 2.49611 0.751696 2.39212 0.943981 2.36119L5.06301 1.69792V1.03968C5.06301 0.637668 5.39009 0.310547 5.79214 0.310547H11.4172C11.5952 0.310547 11.7395 0.454836 11.7395 0.632812C11.7395 0.810789 11.5952 0.955078 11.4172 0.955078H5.7921C5.74544 0.955078 5.7075 0.99302 5.7075 1.03968V12.389H7.41615C7.82298 12.389 8.19199 12.645 8.33435 13.0262L8.65404 13.882C8.70281 14.0125 8.82918 14.1002 8.96848 14.1002H13.0314C13.1707 14.1002 13.2971 14.0125 13.3459 13.882L13.6656 13.0261C13.808 12.645 14.177 12.389 14.5838 12.389H16.2925V1.03968C16.2925 0.993062 16.2545 0.955078 16.2079 0.955078H12.7057C12.5278 0.955078 12.3835 0.810789 12.3835 0.632812C12.3835 0.454836 12.5278 0.310547 12.7057 0.310547H16.2079C16.6099 0.310547 16.937 0.637625 16.937 1.03968V1.69792L21.0561 2.36114C21.2483 2.39208 21.417 2.49607 21.5312 2.65393C21.6452 2.8118 21.691 3.0046 21.6607 3.19276L20.3025 12.389H21.6777C21.8557 12.389 22 12.5332 22 12.7112V18.6635C22 20.3322 20.6424 21.6899 18.9736 21.6899H17.5774C17.3994 21.6899 17.2551 21.5456 17.2551 21.3676C17.2551 21.1896 17.3994 21.0453 17.5774 21.0453H18.9736C20.287 21.0453 21.3555 19.9769 21.3555 18.6635V13.0335H14.5839C14.4445 13.0335 14.3182 13.1212 14.2694 13.2517L13.9497 14.1076C13.8073 14.4887 13.4383 14.7447 13.0315 14.7447H8.96852C8.5617 14.7447 8.19268 14.4887 8.05032 14.1076L7.73064 13.2517C7.68187 13.1212 7.5555 13.0335 7.41619 13.0335H0.644575V18.6635C0.644575 19.9768 1.71304 21.0453 3.02642 21.0453H16.2889C16.4669 21.0453 16.6112 21.1896 16.6112 21.3676C16.6112 21.5456 16.4669 21.6899 16.2889 21.6899H3.02637C1.35764 21.6899 0 20.3322 0 18.6635V12.7112C0 12.5333 0.144289 12.389 0.322266 12.389ZM21.0237 3.09449C21.0283 3.06588 21.0181 3.04443 21.0088 3.0315C20.9994 3.01852 20.9822 3.00211 20.9536 2.99751L16.937 2.35079V12.389H19.651L21.0237 3.09449Z" fill="white"/>
</g>
<defs>
<clipPath id="clip0">
<rect width="22" height="22" fill="white" transform="matrix(-1 0 0 1 22 0)"/>
</clipPath>
</defs>
</svg>
