<svg width="73" height="66" viewBox="0 0 73 66" fill="none" xmlns="http://www.w3.org/2000/svg">
<g clip-path="url(#clip0)">
<path fill-rule="evenodd" clip-rule="evenodd" d="M45.3734 25.9934C46.5274 25.7003 47.9653 25.5111 49.1572 25.2842C50.2829 25.0762 51.8815 24.9533 52.941 24.575C53.7261 24.2914 54.9464 23.3931 55.7127 22.8636L61.0478 19.2043C61.8614 18.6369 63.0533 17.9656 63.6492 17.3037C65.4655 15.3086 65.1533 12.7461 63.3465 11.1103C61.0478 9.0206 58.7303 10.4673 56.9046 11.7249C55.1356 12.9352 53.3383 14.0888 51.5505 15.3653C50.3586 16.2163 50.2261 16.4905 48.4761 16.7836L40.7949 18.0791L32.0543 18.0696L24.3732 16.7742C21.1001 16.2258 15.6514 10.5524 12.9933 10.1458C8.39596 9.45556 6.82568 15.0533 9.3703 17.4455C10.146 18.1736 19.2082 24.3103 20.0407 24.6034C21.4502 25.1046 25.8488 25.7003 27.5232 25.9272C27.7218 37.1699 26.3691 49.7458 23.8907 59.9862C22.5758 65.4232 27.7691 67.4467 30.6448 64.9126C31.7421 63.9481 31.8178 63.5226 32.2057 61.8111C32.8111 59.1541 33.3313 56.5822 33.8705 53.9819C34.126 52.7432 34.4287 51.4289 34.6935 50.1429C34.9584 48.8475 35.1476 47.3441 36.7841 47.6467C38.0706 47.8831 38.0611 49.5472 38.3544 50.9089L40.8328 62.4352C41.5328 65.2813 43.9639 66.5578 46.3382 65.8014C47.5112 65.4232 48.372 64.6005 48.845 63.6361C49.5734 62.1515 49.2707 61.3005 48.9775 59.8066C47.8801 54.3696 46.9531 49.4054 46.2531 43.7132C45.5247 37.775 45.4585 32.026 45.3639 26.0028L45.3734 25.9934Z" fill="#009E80"/>
<path fill-rule="evenodd" clip-rule="evenodd" d="M35.7625 0.037837C32.7543 0.359327 30.6165 2.22208 29.7273 4.69944C29.7178 4.73726 29.6989 4.78454 29.6894 4.82236L29.3489 6.1556C28.7529 10.855 32.4895 14.8453 37.3233 14.3158C40.9463 13.9186 44.0396 10.543 43.5855 6.35417C43.2071 2.81778 39.8868 -0.416031 35.753 0.037837H35.7625Z" fill="#009E80"/>
<path fill-rule="evenodd" clip-rule="evenodd" d="M8.06487 22.3248L10.6379 27.724L16.1244 30.1635L10.5717 32.6692L8.06487 38.0022L5.49187 32.6031L0.00533295 30.1635L5.55809 27.6578L8.06487 22.3248Z" fill="#009E80"/>
<path fill-rule="evenodd" clip-rule="evenodd" d="M8.15947 46.6823L10.7325 52.0814L16.219 54.5209L10.6568 57.0267L8.15947 62.3596L5.58647 56.9605L0.0999298 54.5209L5.65269 52.0152L8.15947 46.6823Z" fill="#009E80"/>
<path fill-rule="evenodd" clip-rule="evenodd" d="M63.9425 22.5044L66.5155 27.9035L72.002 30.3431L66.4492 32.8488L63.9425 38.1912L61.3695 32.7826L55.8829 30.3431L61.4357 27.8468L63.9425 22.5044Z" fill="#009E80"/>
<path fill-rule="evenodd" clip-rule="evenodd" d="M63.9425 46.5878L66.5155 51.9869L72.002 54.4265L66.4492 56.9322L63.9425 62.2651L61.3695 56.866L55.8829 54.4265L61.4357 51.9207L63.9425 46.5878Z" fill="#009E80"/>
</g>
<defs>
<clipPath id="clip0">
<rect width="72" height="66" fill="white" transform="translate(0.00366211)"/>
</clipPath>
</defs>
</svg>
