<svg id="Layer_1" data-name="Layer 1" xmlns="http://www.w3.org/2000/svg" viewBox="0 0 260 100"><defs><style>.cls-1{fill:#c80000;}.cls-2{fill:#fff;}.cls-3,.cls-5{fill:none;}.cls-3{stroke:#c80000;stroke-miterlimit:10;}.cls-4{fill:#30282a;}</style></defs><title>iem_logo</title><path class="cls-1" d="M79.54,85c39.62,0,71.74-15.5,71.74-34.61s-32.1-34.61-71.74-34.61S7.8,31.3,7.8,50.39,39.9,85,79.54,85"/><path class="cls-2" d="M23.59,65.54C31.7,75.89,51.45,79,77.92,79c35.57,0,56.86-13,59-29.42,2.17-18.09-28.35-29.65-57-30.15a135.49,135.49,0,0,0-23.63,1.44,59.87,59.87,0,0,0-16.06,4.5,29.35,29.35,0,0,0-3.56,2c-1,.62-0.75,1.74-0.5,2.83,0.09,0.36-6.68-1.85-9.45,2.3-2.5-2.14-8.07.48-10.72,4.43-0.68,1-1.61,7-1.47,8,8-4.85,10.85-3.47,14-1.91a1.39,1.39,0,0,0,1.15-.32c2.13-3.39,6.17-3.84,10.21-3.7C18.75,46.62,16.84,56.91,23.59,65.54Z"/><line class="cls-3" x1="27.13" y1="33.34" x2="28.91" y2="41.46"/><line class="cls-3" x1="37.12" y1="31.29" x2="40.67" y2="38.35"/><path class="cls-4" d="M37.29,65.67a6.94,6.94,0,0,0,2.79-.53,4,4,0,0,0,2-2.92l5.41-23.46q0.49-2.14-.59-2.87a5.58,5.58,0,0,0-2.6-.55l0.29-1.23H59.78l-0.29,1.23a8,8,0,0,0-2.92.51,4,4,0,0,0-1.94,2.89L49.21,62.27q-0.46,2,.41,2.72a4.72,4.72,0,0,0,2.9.69l-0.29,1.2H37l0.29-1.23"/><path class="cls-5" d="M37.29,65.67a6.94,6.94,0,0,0,2.79-.53,4,4,0,0,0,2-2.92l5.41-23.46q0.49-2.14-.59-2.87a5.58,5.58,0,0,0-2.6-.55l0.29-1.23H59.78l-0.29,1.23a8,8,0,0,0-2.92.51,4,4,0,0,0-1.94,2.89L49.21,62.27q-0.46,2,.41,2.72a4.72,4.72,0,0,0,2.9.69l-0.29,1.2H37Z"/><path class="cls-4" d="M54.93,66.88l0.29-1.23a6.57,6.57,0,0,0,2.79-.5,4.05,4.05,0,0,0,1.87-2.85l5.43-23.5q0.49-2.12-.6-2.85a5.28,5.28,0,0,0-2.49-.56l0.29-1.23H87.67l-2.3,9.77h-1q0.25-4.69-1.34-6.42t-6.85-1.74a5.08,5.08,0,0,0-2.65.46,3,3,0,0,0-1,1.84L69.91,49.3q3.71,0,5.39-1.51a16.17,16.17,0,0,0,3.33-5.67h1.11L76,58.51h-1.1q0.49-4.15-.56-5.84t-4.77-1.74L66.8,62.73A2.18,2.18,0,0,0,67,64.82q0.58,0.56,2.8.56a14,14,0,0,0,7.23-1.8q3.05-1.8,6.25-6.75h1.21l-4.1,10.1-25.49-.05"/><path class="cls-5" d="M54.93,66.88l0.29-1.23a6.57,6.57,0,0,0,2.79-.5,4.05,4.05,0,0,0,1.87-2.85l5.43-23.5q0.49-2.12-.6-2.85a5.28,5.28,0,0,0-2.49-.56l0.29-1.23H87.67l-2.3,9.77h-1q0.25-4.69-1.34-6.42t-6.85-1.74a5.08,5.08,0,0,0-2.65.46,3,3,0,0,0-1,1.84L69.91,49.3q3.71,0,5.39-1.51a16.17,16.17,0,0,0,3.33-5.67h1.11L76,58.51h-1.1q0.49-4.15-.56-5.84t-4.77-1.74L66.8,62.73A2.18,2.18,0,0,0,67,64.82q0.58,0.56,2.8.56a14,14,0,0,0,7.23-1.8q3.05-1.8,6.25-6.75h1.21l-4.1,10.1Z"/><path class="cls-4" d="M84.39,65.7a3.93,3.93,0,0,0,3-1,6.17,6.17,0,0,0,1.27-2.88l4.63-23q0.4-2-.22-2.6a4.16,4.16,0,0,0-2.46-.82l0.24-1.23h9.54l2.94,22.46h0.31l11.9-22.44h9.54l-0.25,1.23a5.13,5.13,0,0,0-2.81.87q-0.87.72-1.41,3.52l-4.34,21.46q-0.54,2.68,0,3.47a3.15,3.15,0,0,0,2.45.93l-0.24,1.23H105.95l0.25-1.23a5.21,5.21,0,0,0,2.68-.72,4.35,4.35,0,0,0,1.42-2.85l4.77-23.71H114.8l-15,28.58h-1L95,39H94.81L90.4,60.91a6.44,6.44,0,0,0,0,3.55q0.48,1.12,2.86,1.24L93,66.94H84.13l0.24-1.23"/><path class="cls-5" d="M84.39,65.7a3.93,3.93,0,0,0,3-1,6.17,6.17,0,0,0,1.27-2.88l4.63-23q0.4-2-.22-2.6a4.16,4.16,0,0,0-2.46-.82l0.24-1.23h9.54l2.94,22.46h0.31l11.9-22.44h9.54l-0.25,1.23a5.13,5.13,0,0,0-2.81.87q-0.87.72-1.41,3.52l-4.34,21.46q-0.54,2.68,0,3.47a3.15,3.15,0,0,0,2.45.93l-0.24,1.23H105.95l0.25-1.23a5.21,5.21,0,0,0,2.68-.72,4.35,4.35,0,0,0,1.42-2.85l4.77-23.71H114.8l-15,28.58h-1L95,39H94.81L90.4,60.91a6.44,6.44,0,0,0,0,3.55q0.48,1.12,2.86,1.24L93,66.94H84.13Z"/><path d="M165.37,38.43h-5.12V37.57a2.27,2.27,0,0,0,1-.16,0.79,0.79,0,0,0,.43-0.49,3.22,3.22,0,0,0,.1-0.91V27.68a2,2,0,0,0-.27-1.21,1.54,1.54,0,0,0-1.22-.35v-0.9h5.12V26.1a2.21,2.21,0,0,0-1,.16,0.81,0.81,0,0,0-.43.49,3.17,3.17,0,0,0-.1.87v8.29a3.2,3.2,0,0,0,.1.87,0.87,0.87,0,0,0,.42.49,2.12,2.12,0,0,0,1,.17v1Z"/><path d="M174.45,38.43h-3.85V37.57a1,1,0,0,0,.62-0.15,0.67,0.67,0,0,0,.23-0.44,7.21,7.21,0,0,0,0-1V33.22a3.73,3.73,0,0,0-.18-1.31,0.74,0.74,0,0,0-.75-0.49,1.23,1.23,0,0,0-1.16.78A4.06,4.06,0,0,0,169,34v2.18a2.23,2.23,0,0,0,.17,1,0.8,0.8,0,0,0,.74.29v0.87H166V37.52a1.74,1.74,0,0,0,.71-0.11A0.57,0.57,0,0,0,167,37a4,4,0,0,0,.08-0.87V33a1.36,1.36,0,0,0-.2-0.87,1.3,1.3,0,0,0-.87-0.21V31l2.89-.87a9,9,0,0,1,.07,1v0.43a5.55,5.55,0,0,1,1-1.07,1.93,1.93,0,0,1,1.27-.42,2.21,2.21,0,0,1,1.15.3,2,2,0,0,1,.8.91,3.47,3.47,0,0,1,.29,1.48v3.28a2.6,2.6,0,0,0,.16,1.12,0.92,0.92,0,0,0,.87.3v0.87Z"/><path d="M183.49,38.43h-3.85V37.57a1,1,0,0,0,.62-0.15A0.67,0.67,0,0,0,180.5,37a7.21,7.21,0,0,0,0-1V33.22a3.73,3.73,0,0,0-.18-1.31,0.74,0.74,0,0,0-.75-0.49,1.23,1.23,0,0,0-1.16.78,4.06,4.06,0,0,0-.38,1.8v2.18a2.23,2.23,0,0,0,.17,1,0.8,0.8,0,0,0,.74.29v0.87h-3.92V37.52a1.74,1.74,0,0,0,.71-0.11,0.57,0.57,0,0,0,.3-0.4,4,4,0,0,0,.08-0.87V33a1.36,1.36,0,0,0-.2-0.87,1.3,1.3,0,0,0-.87-0.21V31l2.89-.87a9,9,0,0,1,.07,1v0.43a5.55,5.55,0,0,1,1-1.07,1.93,1.93,0,0,1,1.27-.42,2.21,2.21,0,0,1,1.15.3,2,2,0,0,1,.8.91,3.47,3.47,0,0,1,.29,1.48v3.28a2.6,2.6,0,0,0,.16,1.12,0.92,0.92,0,0,0,.87.3v0.87Z"/><path d="M191.72,34.42a5.1,5.1,0,0,1-.49,2.31,3.63,3.63,0,0,1-1.32,1.52,3.4,3.4,0,0,1-1.83.52,3.52,3.52,0,0,1-1.74-.48A3.6,3.6,0,0,1,185,36.82a4.92,4.92,0,0,1-.53-2.39,4.34,4.34,0,0,1,1.1-3.21,3.58,3.58,0,0,1,2.6-1.09,3.26,3.26,0,0,1,2,.58,3.64,3.64,0,0,1,1.24,1.57A5.37,5.37,0,0,1,191.72,34.42Zm-2.06-.06a7.06,7.06,0,0,0-.34-2.49,1.44,1.44,0,0,0-2.26-.47,2.18,2.18,0,0,0-.49,1.13,11.57,11.57,0,0,0-.14,2,7.93,7.93,0,0,0,.3,2.42,1.27,1.27,0,0,0,1.33.93,1.17,1.17,0,0,0,1-.51,2.85,2.85,0,0,0,.45-1.27,13.14,13.14,0,0,0,.12-1.71h0Z"/><path d="M200,31.35a0.57,0.57,0,0,0-.52.29,7.81,7.81,0,0,0-.49,1.11l-2.24,5.91h-1l-2.56-6.49a2.6,2.6,0,0,0-.34-0.7,1,1,0,0,0-.52-0.16V30.43h3.64V31.3a1.93,1.93,0,0,0-.57.1,0.3,0.3,0,0,0-.18.3,1.84,1.84,0,0,0,.15.56l1.55,3.95,1.48-3.9a2.1,2.1,0,0,0,.15-0.59,0.33,0.33,0,0,0-.17-0.35,1.6,1.6,0,0,0-.57-0.07V30.43H200v0.92Z"/><path d="M208.12,36.38a3.11,3.11,0,0,1-.23,1.26,1.68,1.68,0,0,1-.62.77,1.61,1.61,0,0,1-.87.25,1.47,1.47,0,0,1-1-.38,1.54,1.54,0,0,1-.49-0.92,3.52,3.52,0,0,1-2.5,1.3,1.79,1.79,0,0,1-1.32-.51,1.82,1.82,0,0,1-.51-1.34,2.79,2.79,0,0,1,.28-1.25,3,3,0,0,1,.81-1,5.72,5.72,0,0,1,1.27-.77,19.49,19.49,0,0,1,1.84-.7V32.51a2,2,0,0,0-.25-1.08,1.26,1.26,0,0,0-1.74-.09,1.87,1.87,0,0,0-.34.95,2.07,2.07,0,0,1-.22.74,0.69,0.69,0,0,1-.67.29,0.76,0.76,0,0,1-.55-0.23,0.93,0.93,0,0,1-.23-0.69,2.06,2.06,0,0,1,.75-1.58,3.38,3.38,0,0,1,2.31-.67,2.39,2.39,0,0,1,2.86,2.65v3.94a0.87,0.87,0,0,0,.12.42,0.36,0.36,0,0,0,.31.14,0.41,0.41,0,0,0,.34-0.26,1.29,1.29,0,0,0,.15-0.63h0.55Zm-3.41.08V34a4.15,4.15,0,0,0-1.8,1.15,1.94,1.94,0,0,0-.38,1.09,1.15,1.15,0,0,0,.21.72,0.69,0.69,0,0,0,.59.27A1.21,1.21,0,0,0,204,37a4.69,4.69,0,0,0,.65-0.59h0Z"/><path d="M213.54,36.7a3.88,3.88,0,0,1-.94,1.54,1.83,1.83,0,0,1-1.26.48,1.65,1.65,0,0,1-1.29-.47,2.06,2.06,0,0,1-.51-1,7.93,7.93,0,0,1-.1-1.3V31.35h-1.12V30.43a2.14,2.14,0,0,0,1.22-.35,2.45,2.45,0,0,0,.82-0.95,3.79,3.79,0,0,0,.38-1.28h0.61v2.6h2.11v0.87h-2.11V36a6.13,6.13,0,0,0,.09,1.22,0.41,0.41,0,0,0,.42.37,0.68,0.68,0,0,0,.59-0.36,5.52,5.52,0,0,0,.44-0.87Z"/><path d="M218.08,38.43h-4V37.57h0.22a1,1,0,0,0,.62-0.16,0.67,0.67,0,0,0,.24-0.43,5.71,5.71,0,0,0,0-.87V33.22a4.52,4.52,0,0,0-.05-0.87,0.52,0.52,0,0,0-.29-0.37,2,2,0,0,0-.78-0.13V31l3-.87v6a2.72,2.72,0,0,0,.16,1.12,0.87,0.87,0,0,0,.87.3v0.87Zm-0.87-12.09a1.6,1.6,0,0,1-.31,1,0.87,0.87,0,0,1-1.53,0,1.58,1.58,0,0,1-.32-1,1.61,1.61,0,0,1,.32-1,0.92,0.92,0,0,1,1.54,0,1.62,1.62,0,0,1,.33,1h0Z"/><path d="M226.35,31.35a0.57,0.57,0,0,0-.52.29,7.81,7.81,0,0,0-.49,1.11l-2.24,5.91h-1l-2.56-6.49a2.6,2.6,0,0,0-.34-0.7,1,1,0,0,0-.52-0.16V30.43h3.64V31.3a1.93,1.93,0,0,0-.57.1,0.3,0.3,0,0,0-.18.3,1.84,1.84,0,0,0,.15.56l1.55,3.95,1.48-3.9a2.1,2.1,0,0,0,.15-0.59,0.33,0.33,0,0,0-.17-0.35,1.6,1.6,0,0,0-.57-0.07V30.43h2.26V31.3Z"/><path d="M233.49,34.15h-4.57v0.79a5.86,5.86,0,0,0,.21,1.23,2.39,2.39,0,0,0,.6,1.07,1.54,1.54,0,0,0,1.15.43,2.32,2.32,0,0,0,1-.26,2.25,2.25,0,0,0,1-1l0.58,0.51a2.92,2.92,0,0,1-2.79,1.84,3.7,3.7,0,0,1-1.56-.32,3.42,3.42,0,0,1-1.2-.87,4,4,0,0,1-.75-1.35,5.21,5.21,0,0,1-.26-1.67,5.41,5.41,0,0,1,.43-2.18,3.81,3.81,0,0,1,1.25-1.6,3.05,3.05,0,0,1,1.85-.59,2.6,2.6,0,0,1,1.74.57,3.38,3.38,0,0,1,1,1.49A5.62,5.62,0,0,1,233.49,34.15Zm-1.85-.87q0-2.22-1.34-2.22a1.08,1.08,0,0,0-1,.62,3.53,3.53,0,0,0-.38,1.61h2.71Z"/><path class="cls-1" d="M169.35,50.82l-0.08,4.34h-8.95V54.29a1.49,1.49,0,0,0,1.2-.35,2,2,0,0,0,.27-1.21V44.41a3.54,3.54,0,0,0-.09-0.87,0.8,0.8,0,0,0-.4-0.49,2,2,0,0,0-1-.18V42h8.36l0.13,3.43h-0.69a5.36,5.36,0,0,0-.53-1.63,1.27,1.27,0,0,0-.68-0.61,4.23,4.23,0,0,0-1.13-.11h-1.89V47.7h1a1.94,1.94,0,0,0,.79-0.12,0.7,0.7,0,0,0,.36-0.46,4.83,4.83,0,0,0,.14-1.07h0.71v4.34h-0.69a4.08,4.08,0,0,0-.15-1.08,0.74,0.74,0,0,0-.37-0.46,2,2,0,0,0-.78-0.11h-1V53a1.5,1.5,0,0,0,.16.6,0.75,0.75,0,0,0,.43.35,2.55,2.55,0,0,0,.87.1h0.81a2.81,2.81,0,0,0,1-.17A2,2,0,0,0,168,53a5.49,5.49,0,0,0,.62-2.21h0.71v0Z"/><path class="cls-1" d="M178.95,55a14.08,14.08,0,0,0-2.88.43,3.91,3.91,0,0,1-.13-1,2.82,2.82,0,0,1-2.09,1,2.6,2.6,0,0,1-1.62-.59A4.08,4.08,0,0,1,171,53.26a5.59,5.59,0,0,1-.44-2.23,5.87,5.87,0,0,1,.19-1.49,4.46,4.46,0,0,1,.61-1.35,3,3,0,0,1,1-1,2.74,2.74,0,0,1,1.39-.35,2.37,2.37,0,0,1,1,.18,2.27,2.27,0,0,1,.65.43,5.21,5.21,0,0,1,.49.57v-3.2a3.74,3.74,0,0,0-.08-0.94,0.49,0.49,0,0,0-.31-0.36,2.85,2.85,0,0,0-.74-0.1V42.58l3-.87V52.62a6.52,6.52,0,0,0,.05,1,0.53,0.53,0,0,0,.27.39,2,2,0,0,0,.77.15V55Zm-3-1.84V49.25a4.67,4.67,0,0,0-.75-0.87,1.44,1.44,0,0,0-1-.41,1.06,1.06,0,0,0-.69.26,1.91,1.91,0,0,0-.51.67,5.61,5.61,0,0,0-.33,2.26,5,5,0,0,0,.47,2.43,1.34,1.34,0,0,0,1.15.82,1.53,1.53,0,0,0,.93-0.32A2.75,2.75,0,0,0,175.94,53.2Z"/><path class="cls-1" d="M187.89,55.09l-0.75.06-1.2.13a8.25,8.25,0,0,0-1.07.19V54.05a2.75,2.75,0,0,1-2.3,1.44,1.8,1.8,0,0,1-1.44-.55,2.46,2.46,0,0,1-.58-1.21,8.41,8.41,0,0,1-.11-1.41V49.47a4.87,4.87,0,0,0-.05-0.87,0.6,0.6,0,0,0-.28-0.41,1.44,1.44,0,0,0-.74-0.14V47.19h3v5.36q0,1.66,1,1.66a1.15,1.15,0,0,0,.95-0.52,5.14,5.14,0,0,0,.6-1V49.48a4.68,4.68,0,0,0-.05-0.87,0.57,0.57,0,0,0-.29-0.39,1.64,1.64,0,0,0-.76-0.13V47.22h3v5.86a2.6,2.6,0,0,0,.07.69,0.56,0.56,0,0,0,.3.35,1.74,1.74,0,0,0,.73.13v0.87Z"/><path class="cls-1" d="M195.29,53.18a3,3,0,0,1-2.89,2.3,3.37,3.37,0,0,1-1.74-.49,3.6,3.6,0,0,1-1.35-1.44,4.64,4.64,0,0,1-.5-2.21,5.21,5.21,0,0,1,.27-1.67,4.73,4.73,0,0,1,.78-1.44,3.66,3.66,0,0,1,1.21-1,3.29,3.29,0,0,1,1.51-.36,3.14,3.14,0,0,1,1.8.53,1.67,1.67,0,0,1,.78,1.47,1.12,1.12,0,0,1-.24.73,0.72,0.72,0,0,1-.56.3,0.59,0.59,0,0,1-.47-0.18,1,1,0,0,1-.22-0.38q-0.05-.19-0.15-0.69A1.21,1.21,0,0,0,193.2,48a0.87,0.87,0,0,0-.62-0.2,1.52,1.52,0,0,0-1.2.66,4.14,4.14,0,0,0-.52,2.46,6.94,6.94,0,0,0,.21,1.74,2.83,2.83,0,0,0,.67,1.28,1.5,1.5,0,0,0,1.12.47,1.36,1.36,0,0,0,1.12-.48,5.31,5.31,0,0,0,.69-1.12Z"/><path class="cls-1" d="M203.92,53.1a3.11,3.11,0,0,1-.23,1.26,1.68,1.68,0,0,1-.62.77,1.61,1.61,0,0,1-.87.25,1.47,1.47,0,0,1-1-.38,1.54,1.54,0,0,1-.49-0.92,3.52,3.52,0,0,1-2.5,1.3,1.79,1.79,0,0,1-1.32-.51,1.82,1.82,0,0,1-.51-1.34,2.79,2.79,0,0,1,.28-1.25,3,3,0,0,1,.81-1,5.72,5.72,0,0,1,1.27-.77,19.49,19.49,0,0,1,1.84-.7V49.24a2,2,0,0,0-.25-1.08,1.26,1.26,0,0,0-1.74-.09,1.87,1.87,0,0,0-.34.95,2.07,2.07,0,0,1-.22.74,0.69,0.69,0,0,1-.67.29,0.76,0.76,0,0,1-.55-0.23,0.93,0.93,0,0,1-.23-0.69,2.06,2.06,0,0,1,.75-1.58,3.38,3.38,0,0,1,2.31-.67,2.39,2.39,0,0,1,2.86,2.65v3.94a0.87,0.87,0,0,0,.12.42,0.36,0.36,0,0,0,.31.14,0.41,0.41,0,0,0,.34-0.26,1.29,1.29,0,0,0,.15-0.63h0.55Zm-3.41.08V50.76a4.15,4.15,0,0,0-1.8,1.15,1.94,1.94,0,0,0-.38,1.09,1.15,1.15,0,0,0,.21.72,0.69,0.69,0,0,0,.59.27,1.21,1.21,0,0,0,.72-0.23,4.69,4.69,0,0,0,.65-0.59h0Z"/><path class="cls-1" d="M209.33,53.42A3.88,3.88,0,0,1,208.4,55a1.83,1.83,0,0,1-1.26.48,1.65,1.65,0,0,1-1.29-.47,2.06,2.06,0,0,1-.51-1,7.93,7.93,0,0,1-.1-1.3V48.08h-1.12V47.21a2.14,2.14,0,0,0,1.22-.35,2.45,2.45,0,0,0,.82-0.95,3.79,3.79,0,0,0,.38-1.28h0.61v2.6h2.11v0.87h-2.11v4.64a6.13,6.13,0,0,0,.09,1.22,0.41,0.41,0,0,0,.42.37,0.68,0.68,0,0,0,.59-0.36,5.52,5.52,0,0,0,.44-0.87Z"/><path class="cls-1" d="M213.88,55.15h-4V54.29h0.22a1,1,0,0,0,.62-0.16,0.67,0.67,0,0,0,.24-0.43,5.71,5.71,0,0,0,0-.87V49.95a4.52,4.52,0,0,0-.05-0.87,0.52,0.52,0,0,0-.29-0.37,2,2,0,0,0-.78-0.13V47.71l3-.87v6a2.72,2.72,0,0,0,.16,1.12,0.87,0.87,0,0,0,.87.3v0.87ZM213,43.06a1.6,1.6,0,0,1-.28,1,0.87,0.87,0,0,1-1.53,0,1.58,1.58,0,0,1-.32-1,1.61,1.61,0,0,1,.32-1,0.92,0.92,0,0,1,1.54,0,1.62,1.62,0,0,1,.29,1h0Z"/><path class="cls-1" d="M222.19,51.15a5.1,5.1,0,0,1-.49,2.31,3.63,3.63,0,0,1-1.33,1.5,3.4,3.4,0,0,1-1.83.52A3.52,3.52,0,0,1,216.8,55a3.6,3.6,0,0,1-1.37-1.45,4.92,4.92,0,0,1-.53-2.39A4.34,4.34,0,0,1,216,48a3.58,3.58,0,0,1,2.6-1.09,3.26,3.26,0,0,1,2,.58A3.64,3.64,0,0,1,221.8,49,5.37,5.37,0,0,1,222.19,51.15Zm-2.06-.06a7.06,7.06,0,0,0-.34-2.49,1.44,1.44,0,0,0-2.26-.47,2.18,2.18,0,0,0-.49,1.13,11.57,11.57,0,0,0-.14,2,7.93,7.93,0,0,0,.3,2.42,1.27,1.27,0,0,0,1.33.93,1.17,1.17,0,0,0,1-.51A2.85,2.85,0,0,0,220,52.8,13.14,13.14,0,0,0,220.13,51.08Z"/><path class="cls-1" d="M231.59,55.15h-3.85V54.29a1,1,0,0,0,.62-0.15,0.67,0.67,0,0,0,.23-0.44,7.21,7.21,0,0,0,0-1V49.95a3.73,3.73,0,0,0-.18-1.31,0.74,0.74,0,0,0-.75-0.49,1.23,1.23,0,0,0-1.16.78,4.06,4.06,0,0,0-.38,1.8v2.18a2.23,2.23,0,0,0,.17,1,0.8,0.8,0,0,0,.74.29v0.87h-3.92V54.25a1.74,1.74,0,0,0,.71-0.11,0.57,0.57,0,0,0,.3-0.4,4,4,0,0,0,.08-0.87V49.7a1.36,1.36,0,0,0-.2-0.87,1.3,1.3,0,0,0-.87-0.21V47.75l2.89-.87a9,9,0,0,1,.07,1v0.43a5.55,5.55,0,0,1,1-1.07,1.93,1.93,0,0,1,1.27-.42,2.21,2.21,0,0,1,1.15.3,2,2,0,0,1,.8.91,3.47,3.47,0,0,1,.29,1.48v3.28a2.6,2.6,0,0,0,.16,1.12,0.92,0.92,0,0,0,.87.3v0.87h0Z"/><path d="M174.35,71.79h-5.06V70.92a2,2,0,0,0,1-.17,0.8,0.8,0,0,0,.4-0.49,3.38,3.38,0,0,0,.1-0.87V61.06l-3.81,10.72h-0.45l-3.86-10.72v8.81a1.37,1.37,0,0,0,.17.56,0.82,0.82,0,0,0,.43.35,2.42,2.42,0,0,0,.87.11v0.87h-3.73V70.89a2.33,2.33,0,0,0,.87-0.11,0.87,0.87,0,0,0,.43-0.35,1.36,1.36,0,0,0,.16-0.56V61.44a7.61,7.61,0,0,0-.07-1.21,0.8,0.8,0,0,0-.36-0.56,2,2,0,0,0-1-.19V58.61h3.69l3.35,9.32,3.36-9.32h3.61v0.87a1.49,1.49,0,0,0-1.2.36,2,2,0,0,0-.27,1.21v8.29a3.47,3.47,0,0,0,.09.87,0.82,0.82,0,0,0,.42.51,2,2,0,0,0,1,.18v0.87Z"/><path d="M183,69.73a3.11,3.11,0,0,1-.23,1.26,1.68,1.68,0,0,1-.62.77,1.61,1.61,0,0,1-.87.25,1.47,1.47,0,0,1-1-.38,1.54,1.54,0,0,1-.49-0.92,3.52,3.52,0,0,1-2.5,1.3,1.79,1.79,0,0,1-1.32-.51,1.82,1.82,0,0,1-.51-1.34,2.79,2.79,0,0,1,.28-1.25,3,3,0,0,1,.81-1,5.72,5.72,0,0,1,1.27-.77,19.49,19.49,0,0,1,1.84-.7V65.87a2,2,0,0,0-.25-1.08,1.26,1.26,0,0,0-1.74-.09,1.87,1.87,0,0,0-.34.95,2.07,2.07,0,0,1-.22.74,0.69,0.69,0,0,1-.67.29,0.76,0.76,0,0,1-.55-0.23,0.93,0.93,0,0,1-.23-0.69,2.06,2.06,0,0,1,.75-1.58,3.38,3.38,0,0,1,2.31-.67,2.39,2.39,0,0,1,2.86,2.65v3.08q0,0.58,0,.87a0.87,0.87,0,0,0,.12.42,0.36,0.36,0,0,0,.31.14,0.41,0.41,0,0,0,.34-0.26,1.29,1.29,0,0,0,.15-0.63H183v0Zm-3.41.08V67.4a4.15,4.15,0,0,0-1.8,1.15,1.94,1.94,0,0,0-.38,1.09,1.15,1.15,0,0,0,.21.72,0.69,0.69,0,0,0,.59.27,1.21,1.21,0,0,0,.72-0.23A4.69,4.69,0,0,0,179.56,69.81Z"/><path d="M191.75,71.79h-3.85V70.92a1,1,0,0,0,.62-0.15,0.67,0.67,0,0,0,.23-0.44,7.21,7.21,0,0,0,0-1V66.58a3.73,3.73,0,0,0-.18-1.31,0.74,0.74,0,0,0-.75-0.49,1.23,1.23,0,0,0-1.16.78,4.06,4.06,0,0,0-.38,1.8v2.18a2.23,2.23,0,0,0,.17,1,0.8,0.8,0,0,0,.74.29v0.87H183.3V70.88a1.74,1.74,0,0,0,.71-0.11,0.57,0.57,0,0,0,.3-0.4,4,4,0,0,0,.08-0.87V66.33a1.36,1.36,0,0,0-.2-0.87,1.3,1.3,0,0,0-.87-0.21V64.39l2.89-.87a9,9,0,0,1,.07,1V65a5.55,5.55,0,0,1,1-1.07,1.93,1.93,0,0,1,1.27-.42,2.21,2.21,0,0,1,1.15.3,2,2,0,0,1,.8.91,3.47,3.47,0,0,1,.29,1.48v3.27a2.6,2.6,0,0,0,.16,1.12,0.92,0.92,0,0,0,.87.3v0.87Z"/><path d="M200.27,69.73A3.11,3.11,0,0,1,200,71a1.68,1.68,0,0,1-.62.77,1.61,1.61,0,0,1-.87.25,1.47,1.47,0,0,1-1-.38,1.54,1.54,0,0,1-.49-0.92,3.52,3.52,0,0,1-2.5,1.3,1.79,1.79,0,0,1-1.32-.51,1.82,1.82,0,0,1-.51-1.34,2.79,2.79,0,0,1,.28-1.25,3,3,0,0,1,.81-1,5.72,5.72,0,0,1,1.27-.77,19.49,19.49,0,0,1,1.84-.7V65.87a2,2,0,0,0-.25-1.08,1.26,1.26,0,0,0-1.74-.09,1.87,1.87,0,0,0-.34.95,2.07,2.07,0,0,1-.22.74,0.69,0.69,0,0,1-.67.29,0.76,0.76,0,0,1-.55-0.23,0.93,0.93,0,0,1-.23-0.69,2.06,2.06,0,0,1,.75-1.58,3.38,3.38,0,0,1,2.31-.67,2.39,2.39,0,0,1,2.86,2.65v3.08q0,0.58,0,.87a0.87,0.87,0,0,0,.12.42,0.36,0.36,0,0,0,.31.14,0.41,0.41,0,0,0,.34-0.26,1.29,1.29,0,0,0,.15-0.63h0.55v0Zm-3.41.08V67.4a4.15,4.15,0,0,0-1.8,1.15,1.94,1.94,0,0,0-.38,1.09,1.15,1.15,0,0,0,.21.72,0.69,0.69,0,0,0,.59.27,1.21,1.21,0,0,0,.72-0.23A4.69,4.69,0,0,0,196.86,69.81Z"/><path d="M208.52,64.35a1,1,0,0,1-.15.56,0.41,0.41,0,0,1-.33.22,0.66,0.66,0,0,1-.47-0.26l-0.12-.12-0.15-.14a0.2,0.2,0,0,0-.12-0.05,0.44,0.44,0,0,0-.36.19,4.66,4.66,0,0,1,.39.79,3.34,3.34,0,0,1-.13,2.26,2,2,0,0,1-.71.81,3.31,3.31,0,0,1-.87.41,11.59,11.59,0,0,1-1.17.25q-1.74.29-1.74,0.94a0.39,0.39,0,0,0,.26.39,2.2,2.2,0,0,0,.78.1h1.13a7.18,7.18,0,0,1,1,.07,3.3,3.3,0,0,1,1,.34,2.26,2.26,0,0,1,.87.87,2.87,2.87,0,0,1,.36,1.54,3.41,3.41,0,0,1-.33,1.43,2.8,2.8,0,0,1-1.18,1.22,4.48,4.48,0,0,1-2.28.5,6.65,6.65,0,0,1-2.23-.39,1.65,1.65,0,0,1-1.1-1.74,1.74,1.74,0,0,1,.21-0.87,0.69,0.69,0,0,1,.64-0.38,0.87,0.87,0,0,1,.56.17,1.64,1.64,0,0,0-.16.72,1.41,1.41,0,0,0,.57,1.1,2.6,2.6,0,0,0,1.74.47,3.31,3.31,0,0,0,1.82-.43,1.31,1.31,0,0,0,.67-1.15,1,1,0,0,0-.29-0.75,1.52,1.52,0,0,0-.82-0.33,15.37,15.37,0,0,0-1.66-.1,5.28,5.28,0,0,1-2.14-.39,1.55,1.55,0,0,1-.78-1.57,1.74,1.74,0,0,1,.58-1.47,4.11,4.11,0,0,1,1.33-.7,2.33,2.33,0,0,1-2-2.46,3.56,3.56,0,0,1,.26-1.3A2.53,2.53,0,0,1,202.4,64a3.12,3.12,0,0,1,1.82-.48,2.85,2.85,0,0,1,2.26.87,1.37,1.37,0,0,1,1.2-.87,0.72,0.72,0,0,1,.59.25A0.87,0.87,0,0,1,208.52,64.35Zm-3,2a3.41,3.41,0,0,0-.29-1.44,1,1,0,0,0-1.79,0,3.19,3.19,0,0,0-.27,1.37,4.16,4.16,0,0,0,.23,1.47,0.93,0.93,0,0,0,.94.67,1,1,0,0,0,.87-0.52A2.85,2.85,0,0,0,205.47,66.38Z"/><path d="M215.49,67.5h-4.57v0.79a5.86,5.86,0,0,0,.21,1.23,2.39,2.39,0,0,0,.6,1.07,1.54,1.54,0,0,0,1.15.43,2.32,2.32,0,0,0,1-.26,2.25,2.25,0,0,0,1-1l0.58,0.51a2.92,2.92,0,0,1-2.79,1.84,3.7,3.7,0,0,1-1.56-.32,3.42,3.42,0,0,1-1.2-.87,4,4,0,0,1-.75-1.35,5.21,5.21,0,0,1-.26-1.67,5.41,5.41,0,0,1,.43-2.18,3.81,3.81,0,0,1,1.25-1.6,3.05,3.05,0,0,1,1.85-.59,2.6,2.6,0,0,1,1.74.57,3.38,3.38,0,0,1,1,1.49A5.62,5.62,0,0,1,215.49,67.5Zm-1.85-.87q0-2.22-1.34-2.22a1.08,1.08,0,0,0-1,.62,3.53,3.53,0,0,0-.38,1.61h2.71Z"/><path d="M230.38,71.79h-4.13V70.92a1.32,1.32,0,0,0,.73-0.15,0.62,0.62,0,0,0,.26-0.42,5.32,5.32,0,0,0,.05-0.87V66.54a3.15,3.15,0,0,0-.22-1.19,1,1,0,0,0-1-.55,1.41,1.41,0,0,0-1,.36,2.33,2.33,0,0,0-.62,1,4.34,4.34,0,0,0-.22,1.42v1.88a4.77,4.77,0,0,0,.05.87,0.61,0.61,0,0,0,.29.41,1.5,1.5,0,0,0,.75.14v0.87h-4V70.89a1.34,1.34,0,0,0,.72-0.15,0.61,0.61,0,0,0,.23-0.4,5.42,5.42,0,0,0,.05-0.87V66.41a1.59,1.59,0,0,0-.41-1.32,1.33,1.33,0,0,0-.76-0.29,1.62,1.62,0,0,0-.92.3,2,2,0,0,0-.68.78,2.45,2.45,0,0,0-.21.69,6.27,6.27,0,0,0-.05.87v2a4.77,4.77,0,0,0,.05.87,0.6,0.6,0,0,0,.29.41,1.53,1.53,0,0,0,.75.14v0.87h-4.07V70.89a1.4,1.4,0,0,0,.73-0.14,0.61,0.61,0,0,0,.27-0.42,5.12,5.12,0,0,0,.05-0.87V66.14a0.8,0.8,0,0,0-.67-0.91h-0.58V64.36l3.14-.87a13.88,13.88,0,0,1,.06,1.48,4.75,4.75,0,0,1,1.12-1.08,2.4,2.4,0,0,1,1.36-.39,2.79,2.79,0,0,1,1.38.37,2.32,2.32,0,0,1,1,1.36,4,4,0,0,1,1.3-1.39,2.65,2.65,0,0,1,1.28-.34,2.28,2.28,0,0,1,1.81.73,3.33,3.33,0,0,1,.64,2.24v3a6.07,6.07,0,0,0,0,.82,0.67,0.67,0,0,0,.23.43,1,1,0,0,0,.62.16h0.26v0.87Z"/><path d="M237.7,67.5h-4.57v0.79a5.86,5.86,0,0,0,.21,1.23,2.39,2.39,0,0,0,.6,1.07,1.54,1.54,0,0,0,1.15.43,2.32,2.32,0,0,0,1-.26,2.25,2.25,0,0,0,1-1l0.58,0.51a2.92,2.92,0,0,1-2.79,1.84,3.7,3.7,0,0,1-1.56-.32,3.42,3.42,0,0,1-1.2-.87,4,4,0,0,1-.75-1.35,5.21,5.21,0,0,1-.26-1.67,5.41,5.41,0,0,1,.43-2.18,3.81,3.81,0,0,1,1.25-1.6,3.05,3.05,0,0,1,1.85-.59,2.6,2.6,0,0,1,1.74.57,3.38,3.38,0,0,1,1,1.49A5.62,5.62,0,0,1,237.7,67.5Zm-1.85-.87q0-2.22-1.34-2.22a1.08,1.08,0,0,0-1,.62,3.53,3.53,0,0,0-.38,1.61h2.71Z"/><path d="M247,71.79h-3.85V70.92a1,1,0,0,0,.62-0.15,0.67,0.67,0,0,0,.23-0.44,7.21,7.21,0,0,0,0-1V66.58a3.73,3.73,0,0,0-.18-1.31,0.74,0.74,0,0,0-.75-0.49,1.23,1.23,0,0,0-1.16.78,4.06,4.06,0,0,0-.38,1.8v2.18a2.23,2.23,0,0,0,.17,1,0.8,0.8,0,0,0,.74.29v0.87h-3.92V70.88a1.74,1.74,0,0,0,.71-0.11,0.57,0.57,0,0,0,.3-0.4,4,4,0,0,0,.08-0.87V66.33a1.36,1.36,0,0,0-.2-0.87,1.3,1.3,0,0,0-.87-0.21V64.39l2.89-.87a9,9,0,0,1,.07,1V65a5.55,5.55,0,0,1,1-1.07,1.93,1.93,0,0,1,1.27-.42,2.21,2.21,0,0,1,1.15.3,2,2,0,0,1,.78.89,3.47,3.47,0,0,1,.29,1.48v3.29a2.6,2.6,0,0,0,.16,1.12,0.92,0.92,0,0,0,.87.3v0.87Z"/><path d="M252.69,70.05a3.88,3.88,0,0,1-.94,1.58,1.83,1.83,0,0,1-1.26.48,1.65,1.65,0,0,1-1.29-.47,2.06,2.06,0,0,1-.51-1,7.93,7.93,0,0,1-.1-1.3V64.71h-1.15V63.84a2.14,2.14,0,0,0,1.22-.35,2.45,2.45,0,0,0,.86-1,3.79,3.79,0,0,0,.38-1.28h0.61v2.6h2.13v0.87h-2.11v4.64a6.13,6.13,0,0,0,.09,1.22A0.41,0.41,0,0,0,251,71a0.68,0.68,0,0,0,.59-0.36,5.52,5.52,0,0,0,.44-0.87Z"/></svg>