<?xml version="1.0" encoding="utf-8"?>
<!-- Generator: Adobe Illustrator 22.1.0, SVG Export Plug-In . SVG Version: 6.00 Build 0)  -->
<svg version="1.1" id="Layer_1" xmlns="http://www.w3.org/2000/svg" xmlns:xlink="http://www.w3.org/1999/xlink" x="0px" y="0px"
	 viewBox="0 0 432 104.3" style="enable-background:new 0 0 432 104.3;" xml:space="preserve">
<style type="text/css">
	.st0{fill:#4B721D;}
</style>
<path class="st0" d="M26.2,84.8c-1.5,0-1.5,0-1.5,0c0,15.8,0,15.8,0,15.8c0,0.8-0.5,2.3-1.5,3c-1,0.7-3,0.8-5.2,0.8s-2.2,0-2.2,0
	c-1.5,0-3.2,0-4.5-0.8c-1.3-0.8-2.2-1.9-2.2-3c0-15.8,0-15.8,0-15.8c-1.5,0-1.5,0-1.5,0c0-0.8,0-0.8,0-0.8c8.2,0,8.2,0,8.2,0
	c0,0.8,0,0.8,0,0.8c-0.8,0-0.8,0-0.8,0c0,18,0,17.5,0,17.5s0,0.9,1.9,0.9c1.9,0,1.9-0.9,1.9-0.9c0-18,0-17.5,0-17.5
	c-0.8,0-0.8,0-0.8,0c0-0.8,0-0.8,0-0.8c8.2,0,8.2,0,8.2,0V84.8z"/>
<polygon class="st0" points="165,87.3 163.5,87.3 163.5,104.3 159,104.3 152.3,89.3 152.3,103.1 153.8,103.1 153.8,104.3 
	153.8,104.3 149.3,104.3 149.3,104.3 149.3,103.1 150.8,103.1 150.8,87.3 149.3,87.3 149.3,86.3 149.3,86.3 155.3,86.3 162,101.3 
	162,87.3 160.5,87.3 160.5,86.3 160.5,86.3 165,86.3 "/>
<polygon class="st0" points="86.9,87.3 85.4,87.3 85.5,104.3 81,104.3 74.2,89.3 74.2,103.1 75.7,103.1 75.7,104.3 75.7,104.3 
	71.2,104.3 71.2,104.3 71.2,103.1 72.7,103.1 72.7,87.3 71.2,87.3 71.2,86.3 71.2,86.3 77.2,86.3 84,101.3 83.9,87.3 82.4,87.3 
	82.5,86.3 82.5,86.3 86.9,86.3 "/>
<polygon class="st0" points="43.2,87.3 41.8,87.3 41.8,104.3 37.3,104.3 30.5,89.3 30.6,103.1 32,103.1 32,104.3 32,104.3 
	27.5,104.3 27.5,104.3 27.5,103.1 29.1,103.1 29,87.3 27.6,87.3 27.5,86.3 27.5,86.3 33.5,86.3 40.3,101.3 40.3,87.3 38.8,87.3 
	38.8,86.3 38.8,86.3 43.3,86.3 "/>
<polygon class="st0" points="52.5,103.1 52.5,104.2 52.5,104.2 45,104.2 45,104.2 45,103.1 46.5,103.1 46.5,87.3 45,87.3 45,86.2 
	45,86.2 52.5,86.2 52.5,86.2 52.5,87.2 51,87.2 51,103.1 "/>
<path class="st0" d="M69,100.5c0,1.5,0,2.2-1.5,3s-3,0.8-4.5,0.8c-2.2,0-2.2,0-2.2,0c-1.5,0-3.6-0.1-4.5-0.8c-0.9-0.7-1.5-1.5-1.5-3
	c0-10.5,0-10.5,0-10.5c0-1.5,0.5-2.2,1.5-3c1.3-1,3-0.8,4.5-0.8c2.2,0,2.2,0,2.2,0c1.5,0,3,0,4.5,0.8s1.5,1.5,1.5,3V100.5z
	 M63.8,87.8c0-0.8-1.2-0.9-1.8-0.9c-0.6,0-1.9,0.1-1.9,0.9c0,15,0,14.2,0,14.2c0,0.8,1.2,1.1,2,1.1c0.8,0,1.8-0.4,1.8-1.1V87.8z"/>
<path class="st0" d="M129.2,100.5c0,1.5,0,2.2-1.5,3c-1.5,0.8-3,0.8-4.5,0.8c-2.2,0-2.2,0-2.2,0c-1.5,0-3.6-0.1-4.5-0.8
	c-0.9-0.7-1.5-1.5-1.5-3c0-10.5,0-10.5,0-10.5c0-1.5,0.4-2.3,1.5-3c1.1-0.8,3-0.8,4.5-0.8c2.2,0,2.2,0,2.2,0c1.5,0,3,0,4.5,0.8
	c1.5,0.8,1.5,1.5,1.5,3V100.5z M124,87.8c0-0.8-1.2-0.9-1.8-0.9c-0.6,0-1.9,0.1-1.9,0.9c0,15,0,14.3,0,14.3c0,0.8,1.2,1.1,2,1.1
	c0.8,0,1.8-0.4,1.8-1.1V87.8z"/>
<path class="st0" d="M113.2,99c0,1.5,0,1.5,0,1.5c0,0.8-0.8,2.2-2.2,3s-3,0.8-5.2,0.8c-1.5,0-1.5,0-1.5,0c-2.2,0-3.8,0-5.2-0.8
	s-2.2-2.2-2.2-3c0-12,0-12,0-12c0-1.5,0.7-3,2.2-3.7s3.8-0.8,6-0.8c2.3,0,4.5,0,6,0.8s2.3,2.2,2.3,3.7s0,1.5,0,1.5c-6,0-6,0-6,0
	c0-4.5,0-4.2,0-4.5c0-0.3-0.9-0.8-2.2-0.8s-2.2,0.5-2.2,0.8c0,0.3,0,16.3,0,16.5c0,0.2,0.6,1.2,2.2,1.2c1.6,0,2.2-0.8,2.3-1.1
	c0-0.3,0-3,0-3H113.2z"/>
<path class="st0" d="M147.8,86.2v1l-0.8,0v13.2c0,1.5-0.8,2.2-2.2,3c-1.5,0.8-2.2,0.8-4.5,0.8c-1.5,0-1.5,0-1.5,0
	c-2.2,0-3.1,0-4.5-0.8c-1.4-0.7-2.2-1.5-2.2-3c0-10.7,0-12.6,0-13.2h-0.8v-1l8.2,0l0,0l0,1H138V102c0,0.8,1.2,1.1,1.9,1.1
	s1.8-0.3,1.8-1.1c0-12.6,0-14.7,0-14.7h-1.2v-1C148,86.3,147.8,86.2,147.8,86.2L147.8,86.2z"/>
<path class="st0" d="M247.4,86.2v1l-0.8,0v13.2c0,1.5-0.8,2.2-2.2,3c-1.5,0.8-2.2,0.8-4.5,0.8c-1.5,0-1.5,0-1.5,0
	c-2.2,0-3.1,0-4.5-0.8c-1.4-0.7-2.2-1.5-2.2-3c0-10.7,0-12.6,0-13.2h-0.8v-1l8.2,0l0,0l0,1h-1.4V102c0,0.8,1.2,1.1,1.9,1.1
	s1.8-0.3,1.8-1.1c0-12.6,0-14.8,0-14.8h-1.2v-1C247.7,86.3,247.4,86.2,247.4,86.2L247.4,86.2z"/>
<polygon class="st0" points="183,86.2 183,90 182,90 182,87.3 177,87.3 177,103.1 178.5,103.1 178.5,104.2 178.5,104.2 171,104.2 
	171,104.2 171,103.1 172.5,103.1 172.5,87.3 167.7,87.3 167.7,90 166.6,90 166.6,86.2 183,86.2 "/>
<polygon class="st0" points="203.2,86.2 203.2,86.2 203.2,87.3 202,87.3 196.5,97.5 196.5,103.1 197.8,103.1 197.8,104.2 
	197.8,104.2 189.8,104.2 189.8,104.2 189.8,103.1 191.2,103.1 191.2,97.5 186.5,87.3 184.5,87.3 184.5,86.2 184.5,86.2 192,86.2 
	192,86.2 192,87.2 191,87.3 195,95.2 199.7,87.3 198.5,87.2 198.5,86.2 198.5,86.2 203.2,86.2 "/>
<path class="st0" d="M229.5,87c0,4.5,0,4.5,0,4.5c0,0.8-0.3,3-5.2,3c-5.2,0-5.2,0-5.2,0c0,4.9,0,8.6,0,8.6h1.5l0,1.2h-8.2l0-1.1
	l1.5,0V85c-1.5,0-1.5,0-1.5,0c0-0.8,0-1,0-1c12,0,12,0,12,0C228.9,84,229.5,86.2,229.5,87z M223.5,87c0-1.5-0.8-2-1.5-2
	c-3,0-3,0-3,0c0,9,0,8.4,0,8.4c3,0,3,0,3,0c0.8,0,1.5,0,1.5-0.8c0,0,0-0.4,0-1.9V87z"/>
<path class="st0" d="M264.8,95.2c0.9,0.9,0.7,3.1,0.7,3.1v3c0,2.8-3.7,3-3.7,3l-12.8,0v-1.1l1.5,0V87.3H249l0-1l0,0
	c11.2,0,12.8,0,12.8,0c1.7,0,2.9,1,2.9,2.3c0,1.2,0,3.1,0,3.1c0,2.1-3,2.3-3.7,2.3C262.5,93.9,264,94.4,264.8,95.2z M255,87.3v6.1
	h2.1c0.8,0,1.4,0,1.4,0c0.8,0,1-0.4,1-1.1c0-3.8,0-3.8,0-3.8c0-0.9-0.4-1.2-1.1-1.2H255z M260.2,98.2c0-1.5,0.4-3.7-1.1-3.7
	c-1.7,0-4.1,0-4.1,0l0,8.6h3.8c1.5,0,1.5-1.3,1.5-1.9V98.2z"/>
<polygon class="st0" points="280.5,100.5 280.5,104.2 267.8,104.2 267.8,104.2 267.7,103.1 269.2,103.1 269.2,87.3 267.8,87.3 
	267.8,86.2 267.8,86.2 275.2,86.2 275.2,86.2 275.3,87.3 273.8,87.3 273.8,103.1 275.2,103.1 279,103.1 279,100.5 280.5,100.5 "/>
<path class="st0" d="M306,99c0,1.5,0,1.5,0,1.5c0,2.6-2.2,3.8-6,3.8c-2.2,0-2.2,0-2.2,0c-3.1,0-6-1.2-6-3.8c0-10.5,0-10.5,0-10.5
	c0-2.7,2.3-3.7,6-3.8c2.2,0,2.2,0,2.2,0c3.5,0,6,1,6,3.8c0,1.5,0,1.5,0,1.5c-5.2,0-5.2,0-5.2,0c0-3.8,0-3.3,0-3.3c0-0.8-0.7-1-1.9-1
	c-1.1,0-1.9,0.2-1.9,1c0,15,0,14,0,14c0,0.8,1,0.9,1.9,0.9c1,0,1.8-0.1,1.8-0.9c0-3.8,0-3.2,0-3.2H306z"/>
<path class="st0" d="M348.7,99c0,1.5,0,1.5,0,1.5c0,2.6-2.2,3.8-6,3.8c-2.2,0-2.2,0-2.2,0c-3.1,0-6-1.2-6-3.8c0-10.5,0-10.5,0-10.5
	c0-2.7,2.3-3.7,6-3.8c2.2,0,2.2,0,2.2,0c3.5,0,6,1,6,3.8c0,1.5,0,1.5,0,1.5c-5.2,0-5.2,0-5.2,0c0-3.8,0-3.3,0-3.3c0-0.8-0.7-1-1.9-1
	c-1.1,0-1.9,0.2-1.9,1c0,15,0,14,0,14c0,0.8,1,0.9,1.9,0.9c1,0,1.8-0.1,1.8-0.9c0-3.8,0-3.2,0-3.2H348.7z"/>
<path class="st0" d="M321,94.5c-2.9,0-4.5-1.2-4.5-3.8c0-2.2,0-2.2,0-2.2c0-3.5,3-4.5,6.8-4.5c2.2,0,2.2,0,2.2,0
	c4.2,0,6.7,1,6.8,4.5c0,1.5,0,1.5,0,1.5c-6,0-6,0-6,0c0-0.7,0-4.2,0-4.2s0.1-0.8-1.8-0.8c-2.2,0-2,0.8-2,0.8c0,5.2,0,5,0,5
	c0,1.5,0,2.6,0.7,2.6c3.8,0,3.8,0,3.8,0c3.2,0,5.2,1.2,5.3,3.4c0.1,3.7,0,3.8,0,3.8c0,2.6-2.6,3.7-6.8,3.8c-2.2,0-2.2,0-2.2,0
	c-4.2,0-6.8-1.1-6.8-3.8c0-1.5,0-1.5,0-1.5h6c0-0.2,0,2.5,0,3.1c0,0.6,0.4,1,2,1c1.5,0,1.8-0.5,1.8-1s0-4.6,0-4.6c0-2.2,0-3-0.8-3
	H321z"/>
<polygon class="st0" points="366.4,87.2 365.2,87.2 365.2,103.1 366.4,103 366.4,104.2 359.1,104.2 359.1,104.2 359.1,103.1 
	360.6,103.1 360.6,94.5 356.2,94.5 356.2,103.1 357.8,103.1 357.8,104.2 357.8,104.2 350.2,104.2 350.2,103.1 351.8,103.1 
	351.8,87.3 350.2,87.3 350.2,86.2 350.2,86.2 357.8,86.2 357.8,86.2 357.8,87.2 356.2,87.2 356.2,93.4 360.6,93.4 360.6,87.3 
	359.2,87.2 359.2,86.2 366.4,86.2 "/>
<path class="st0" d="M225,54c0,6,0,6,0,6c0,3.8-4.5,7.5-12.8,10.5c-9,3-18.8,4.5-30.8,4.5C168,75,168,75,168,75
	c-11.2,0-21.8-1.5-30-4.5s-12.8-6.8-12.8-10.5c0-44.2,0-44.2,0-44.2c0-4.5,4.5-7.5,12.8-10.5c8.2-3.8,18.8-5.2,30-5.2
	c13.5,0,13.5,0,13.5,0c12,0,21.8,1.5,30.8,5.2c8.2,3,12.8,6,12.8,10.5c0,6,0,6,0,6c-36.8,0-36.8,0-36.8,0c0-11.2,0-11.2,0-11.2
	c0-1.5-1.5-3-3.8-3.8c-3-0.8-6-1.5-9.8-1.5c-3,0-6.8,0.8-9,1.5S162,9,162,9.8c0,55.5,0,55.5,0,55.5c0,1.5,1.5,3,3.8,3.8s6,1.5,9,1.5
	c3.8,0,6.8-0.8,9.8-1.5c2.2-0.8,3.8-2.2,3.8-3.8c0-11.2,0-11.2,0-11.2H225z"/>
<path class="st0" d="M318.8,5.2c6,2.2,9,5.2,9,8.2c0,14.2,0,14.2,0,14.2c0,3-3,6-9,7.5c-6,2.2-12.8,3.8-21,3.8C267,39,267,39,267,39
	c0,28.5,0,28.5,0,28.5c7.5,0,7.5,0,7.5,0c0,6,0,6,0,6c-47.2,0-47.2,0-47.2,0c0-6,0-6,0-6c9,0,9,0,9,0c0-60,0-60,0-60c-9,0-9,0-9,0
	c0-5.2,0-5.2,0-5.2c70.5,0,70.5,0,70.5,0C306,2.2,312.8,3,318.8,5.2L318.8,5.2z M294,16.5c0-6-3.8-9-10.5-9c-16.5,0-16.5,0-16.5,0
	c0,25.5,0,25.5,0,25.5c15.8,0,15.8,0,15.8,0c5.2,0,11.2-3,11.2-7.5V16.5z"/>
<path class="st0" d="M363.8,41.2c-5.2,0-11.2-0.8-16.5-1.5c-9.8-2.2-14.2-5.2-14.2-9.8c0-14.2,0-14.2,0-14.2
	c0-4.5,4.5-7.5,12.8-10.5c8.2-3.8,18.8-5.2,30-5.2c13.5,0,13.5,0,13.5,0c12,0,21.8,1.5,30.8,5.2c8.2,3,12,6,12,10.5c0,6,0,6,0,6
	c-36.8,0-36.8,0-36.8,0c0-11.2,0-11.2,0-11.2c0-1.5-0.8-3-3.8-3.8c-2.2-0.8-5.2-1.5-9-1.5s-6.8,0.8-9,1.5c-3,0.8-3.8,2.2-3.8,3
	c0,11.2,0,11.2,0,11.2c0,8.2,2.2,12,8.2,12c23.2,0,23.2,0,23.2,0c6,0,11.2,0.8,17.2,1.5c9,2.2,13.5,5.2,13.5,9.8
	c0,15.8,0,15.8,0,15.8c0,3.8-3.8,7.5-12,10.5c-9,3-18.8,4.5-30.8,4.5c-13.5,0-13.5,0-13.5,0c-11.2,0-21.8-1.5-30-4.5
	S333,63.8,333,60c0-6,0-6,0-6c36.8,0,36.8,0,36.8,0c0,11.2,0,11.2,0,11.2c0,1.5,0.8,3,3.8,3.8c2.2,0.8,5.2,1.5,9,1.5s6.8-0.8,9-1.5
	c3-0.8,3.8-2.2,3.8-3.8c0-12,0-12,0-12c0-8.2-2.2-12-7.5-12H363.8z"/>
<path class="st0" d="M66,2.2c0,4.5,0,4.5,0,4.5c12,0,23.2,1.5,27.8,3c6,2.2,8.2,6.8,8.2,12c0,10.5-9.8,12-9.8,12s-0.8,5.2-0.8,12.8
	C91.5,65.2,69,65.2,66,66.8c-1.5,0.8-3.8,3-3.8,3s-1.5-2.2-3.8-3C56.2,65.2,33,65.2,33,46.5c0-7.5,0-12.8,0-12.8s-10.5-1.5-10.5-12
	c0-5.2,3-9.8,9-12c4.5-1.5,15.8-3,27.8-3c0-4.5,0-4.5,0-4.5C0,2.2,0,2.2,0,2.2c0,6,0,6,0,6c9.8,0,9.8,0,9.8,0c0,49.5,0,49.5,0,49.5
	c0,5.2,5.2,9.8,15.8,13.5c5.2,1.5,11.2,3,17.2,3.8c6,1.5,12.8,1.5,19.5,1.5c7.5,0,14.2,0,20.2-1.5c6-0.8,12-2.2,17.2-3.8
	c10.5-3.8,15.8-8.2,15.8-13.5c0-49.5,0-49.5,0-49.5c9.8,0,9.8,0,9.8,0c0-6,0-6,0-6H66z"/>
<polygon class="st0" points="289.4,103.1 289.4,104.3 289.4,104.3 281.9,104.3 281.9,104.3 281.9,103.1 283.4,103.1 283.4,87.3 
	281.9,87.3 281.9,86.3 281.9,86.3 289.4,86.3 289.4,86.3 289.4,87.3 287.9,87.3 287.9,103.1 "/>
<path class="st0" d="M382.5,100.5c0,1.5,0,2.2-1.5,3s-3,0.8-4.5,0.8c-2.2,0-2.2,0-2.2,0c-1.5,0-3.6-0.1-4.5-0.8
	c-0.9-0.7-1.5-1.5-1.5-3c0-10.5,0-10.5,0-10.5c0-1.5,0.4-2.3,1.5-3c1.1-0.8,3-0.8,4.5-0.8c2.2,0,2.2,0,2.2,0c1.5,0,3,0,4.5,0.8
	s1.5,1.5,1.5,3V100.5z M377.3,87.8c0-0.8-1.2-0.9-1.8-0.9c-0.6,0-1.9,0.1-1.9,0.9c0,15,0,14.3,0,14.3c0,0.8,1.2,1.1,2,1.1
	c0.8,0,1.8-0.4,1.8-1.1V87.8z"/>
<path class="st0" d="M399.7,100.5c0,1.5,0,2.2-1.5,3s-3,0.8-4.5,0.8c-2.2,0-2.2,0-2.2,0c-1.5,0-3.6-0.1-4.5-0.8
	c-0.9-0.7-1.5-1.5-1.5-3c0-10.5,0-10.5,0-10.5c0-1.5,0.4-2.3,1.5-3c1.1-0.8,3-0.8,4.5-0.8c2.2,0,2.2,0,2.2,0c1.5,0,3,0,4.5,0.8
	s1.5,1.5,1.5,3V100.5z M394.4,87.7c0-0.8-1.2-0.9-1.8-0.9c-0.6,0-1.9,0.1-1.9,0.9c0,15,0,14.3,0,14.3c0,0.8,1.2,1.1,2,1.1
	c0.8,0,1.8-0.4,1.8-1.1V87.7z"/>
<polygon class="st0" points="414.8,100.5 414.8,104.2 402,104.2 402,104.2 402,103.1 403.5,103.1 403.5,87.3 402,87.3 402,86.2 
	402,86.2 409.5,86.2 409.5,86.2 409.5,87.3 408,87.3 408,103.1 409.4,103.1 413.3,103.1 413.3,100.5 414.8,100.5 "/>
<path class="st0" d="M421,95.6c-2.6,0-4-1-4-3.3c0-2,0-2,0-2c0-3.1,2.6-4,6-4c2,0,2,0,2,0c3.8,0,6,0.9,6,4c0,1.3,0,1.3,0,1.3
	c-5.3,0-5.3,0-5.3,0c0-0.6,0-3.6,0-3.6s0.1-0.7-1.6-0.7c-1.9,0-1.8,0.7-1.8,0.7c0,4.7,0,4.3,0,4.3c0,1.3,0,2.3,0.6,2.3
	c3.3,0,3.3,0,3.3,0c2.8,0,4.7,1.1,4.7,3c0.1,3.3,0,3.3,0,3.3c0,2.3-2.3,3.3-6,3.3c-2,0-2,0-2,0c-3.8,0-6-1-6-3.3c0-1.3,0-1.3,0-1.3
	h5.3c0-0.2,0,2.1,0,2.6c0,0.5,0.4,0.9,1.7,0.9c1.4,0,1.6-0.5,1.6-0.9c0-0.4,0-3.9,0-3.9c0-2,0-2.7-0.7-2.7H421z"/>
</svg>
