<svg width="104" height="104" viewBox="0 0 104 104" fill="none" xmlns="http://www.w3.org/2000/svg">
<circle cx="52.41" cy="52.2231" r="51.5" fill="#009E80"/>
<path d="M48.5663 46.3823C50.7064 46.3823 52.4413 44.6474 52.4413 42.5073C52.4413 40.3672 50.7064 38.6323 48.5663 38.6323C46.4262 38.6323 44.6913 40.3672 44.6913 42.5073C44.6913 44.6474 46.4262 46.3823 48.5663 46.3823Z" fill="white"/>
<path d="M35.9725 77.3823V77.3823V79.3198H60.1913V74.4761H56.3163V72.5386H60.1913H72.785V59.9448H79.5663L76.66 46.3823C76.66 31.5216 63.7904 19.6669 48.5886 21.3554C36.9214 22.6511 27.5803 32.1141 26.4144 43.7949C25.7746 50.2062 27.5437 56.1847 30.9226 60.9408C34.3178 65.72 35.9725 71.5199 35.9725 77.3823ZM38.5968 54.3769C37.5401 53.4885 36.6073 52.4644 35.8221 51.3325L37.4152 50.2285C38.1011 51.2194 38.9185 52.1158 39.8437 52.8935L38.5968 54.3769ZM44.0054 57.3252C42.6875 56.9198 41.4283 56.3385 40.2628 55.5973L41.3035 53.9625C42.3224 54.6106 43.4226 55.119 44.5749 55.4729L44.0054 57.3252ZM46.6288 74.4761H44.6913V72.5386H46.6288V74.4761ZM46.0186 57.7982L46.3345 55.8872C47.0706 56.0093 47.8265 56.04 48.5786 56.0698C49.0317 56.0698 49.4887 56.0466 49.939 56.0012L50.1339 57.9293C49.6183 57.9808 49.0961 58.0073 48.5795 58.0073C48.5748 58.0073 48.57 58.0073 48.5653 58.0073C47.712 58.0073 46.8549 57.9368 46.0186 57.7982ZM50.5038 74.4761H48.5663V72.5386H50.5038V74.4761ZM54.3788 74.4761H52.4413V72.5386H54.3788V74.4761ZM52.1688 57.5859L51.7204 55.7013C52.8925 55.4222 54.024 54.9861 55.0826 54.4048L56.0154 56.1029C54.8035 56.768 53.5103 57.267 52.1688 57.5859ZM56.018 44.6166C55.8519 45.2045 55.6216 45.7645 55.3291 46.2867L56.2234 48.4264C55.7196 49.0772 55.1361 49.6606 54.4853 50.1645L52.3456 49.2702C51.8234 49.5627 51.2634 49.793 50.6756 49.9591L49.7938 52.1086C49.3909 52.1597 48.9831 52.1948 48.5663 52.1948C48.1495 52.1948 47.7417 52.1597 47.3387 52.1086L46.4569 49.9591C45.869 49.7929 45.309 49.5626 44.7869 49.2701L42.6471 50.1644C41.9963 49.6605 41.4129 49.0771 40.9091 48.4263L41.8034 46.2866C41.511 45.7644 41.2806 45.2044 41.1144 44.6166L38.965 43.7349C38.9139 43.332 38.8788 42.9241 38.8788 42.5073C38.8788 42.0905 38.9139 41.6827 38.965 41.2798L41.1145 40.398C41.2807 39.8101 41.511 39.2501 41.8035 38.728L40.9091 36.5882C41.413 35.9373 41.9964 35.354 42.6473 34.8501L44.7869 35.7445C45.3091 35.452 45.8691 35.2217 46.4569 35.0556L47.3387 32.906C47.7417 32.8549 48.1495 32.8198 48.5663 32.8198C48.9831 32.8198 49.3909 32.8549 49.7938 32.906L50.6756 35.0556C51.2634 35.2217 51.8235 35.452 52.3457 35.7445L54.4854 34.8503C55.1362 35.3541 55.7196 35.9374 56.2234 36.5883L55.3291 38.728C55.6216 39.2501 55.8519 39.8101 56.018 40.398L58.1676 41.2798C58.2186 41.6827 58.2538 42.0905 58.2538 42.5073C58.2538 42.9241 58.2186 43.3319 58.1676 43.7349L56.018 44.6166ZM57.7561 54.9913L56.6057 53.4322C57.5764 52.7166 58.4496 51.8736 59.2008 50.9266L60.7182 52.1309C59.8611 53.2118 58.8649 54.1739 57.7561 54.9913ZM61.6415 46.1245L63.509 46.6401C63.142 47.9703 62.597 49.246 61.8894 50.4314L60.2263 49.439C60.844 48.4021 61.3208 47.2872 61.6415 46.1245ZM48.5663 27.0073H55.9151L54.6626 25.7548L56.0324 24.3849L59.6236 27.9761L56.0324 31.5673L54.6626 30.1974L55.9151 28.9448H48.5663C41.0878 28.9448 35.0038 35.0288 35.0038 42.5073C35.0038 43.7362 35.1674 44.9533 35.491 46.1245C35.7341 47.0043 36.069 47.8634 36.4862 48.6788L34.7625 49.5625C34.2848 48.6297 33.9016 47.6467 33.6235 46.6401C33.2536 45.301 33.0663 43.9103 33.0663 42.5073C33.0663 33.9607 40.0197 27.0073 48.5663 27.0073Z" fill="white"/>
</svg>
