<svg width="63" height="64" viewBox="0 0 63 64" fill="none" xmlns="http://www.w3.org/2000/svg">
<path d="M15.225 16.2666C13.1249 14.1333 4.19996 13.6 1.31242 13.3333C1.04996 13.3333 0.787377 13.3333 0.524918 13.5999C0.262459 13.8666 0 14.4 0 14.6666V38.6666C0 39.4666 0.525041 40 1.31254 40H9.18754C9.71258 40 10.2375 39.7334 10.5001 39.2C10.5001 38.4 15.2251 24.2666 15.7501 17.3334C15.75 17.0666 15.75 16.5334 15.225 16.2666Z" fill="white"/>
<path d="M43.3125 22.6667C40.6875 21.8667 38.325 20.8 36.225 20C31.5 17.8667 29.4 18.9334 25.2 23.2C23.3625 25.0667 22.05 27.7334 22.3125 28.8C22.3125 29.0667 22.3125 29.0667 22.8375 29.3334C24.15 29.8668 25.9875 30.1334 27.825 27.2C28.0874 26.9334 28.35 26.6667 28.8749 26.6667C29.6624 26.6667 29.9249 26.4 30.7124 26.1333C31.2374 25.8667 31.7623 25.5999 32.5498 25.3333C32.8123 25.3333 32.8123 25.3333 33.0749 25.3333C33.3373 25.3333 33.8624 25.5999 34.1248 25.5999C35.4375 26.9334 37.8 28.8 40.1625 30.9334C43.8375 33.8668 47.5125 37.0668 49.35 39.4668H49.6125C47.775 34.1334 44.625 25.0667 43.3125 22.6667Z" fill="white"/>
<path d="M61.6874 16C51.4499 16 45.675 18.6666 45.4124 18.6666C45.15 18.9332 44.8874 19.2 44.6249 19.4666C44.6249 19.7333 44.6249 20.2666 44.8874 20.5333C46.4624 23.1999 51.7124 37.8666 52.4999 41.5999C52.7624 42.1333 53.2874 42.6665 53.8124 42.6665H61.6874C62.4749 42.6665 63 42.1331 63 41.3331V17.3331C63 16.5334 62.4749 16 61.6874 16Z" fill="white"/>
<path d="M47.5125 42.1333C46.4625 39.7333 42 36.2666 38.0625 33.0666C35.9626 31.1999 33.8625 29.5999 32.2875 28.2665C32.0251 28.5331 31.5 28.5331 31.5 28.7999C30.7125 29.0665 30.4501 29.3333 29.4 29.3333C27.3001 31.9999 24.675 33.0665 21.7875 31.9999C20.475 31.7333 19.6875 30.6665 19.425 29.5999C18.9 26.9333 21.2625 23.1999 23.1001 21.3333H17.85C16.8001 26.6666 14.9625 33.5999 13.6501 37.3333C14.7 38.3999 15.7501 39.7333 16.5376 40.2666C21.5251 44.5333 27.3002 48.8 28.3501 49.6C29.1376 50.1334 30.7126 50.6666 31.5001 50.6666C31.7626 50.6666 32.0252 50.6666 32.2876 50.6666L28.0876 46.3999C27.5625 45.8665 27.5625 45.0665 28.0876 44.5333C28.6126 44 29.4001 43.9999 29.925 44.5333L35.1751 49.8666C35.7001 50.4 36.225 50.1333 36.7501 50.1333C37.5376 49.8666 37.8 49.3333 38.0626 48.5333L32.0251 42.3999C31.5 41.8665 31.5 41.0665 32.0251 40.5333C32.5501 40 33.3376 39.9999 33.8625 40.5333L40.425 47.1999C40.6874 47.4665 41.7375 47.4665 42.525 47.1999C42.7875 46.9333 43.3125 46.6665 43.575 46.1333L36.225 38.6665C35.7 38.1331 35.7 37.3331 36.225 36.7999C36.7501 36.2666 37.5376 36.2665 38.0625 36.7999L45.675 44.5333C46.2001 44.7999 46.725 44.5333 47.25 44.2666C47.5125 43.9999 48.0375 43.1999 47.5125 42.1333Z" fill="white"/>
</svg>
