<svg width="51" height="50" viewBox="0 0 51 50" fill="none" xmlns="http://www.w3.org/2000/svg">
<path d="M9.47858 19.3169C10.3572 19.3169 11.0695 18.5899 11.0695 17.693C11.0695 16.7961 10.3572 16.0691 9.47858 16.0691C8.59996 16.0691 7.8877 16.7961 7.8877 17.693C7.8877 18.5899 8.59996 19.3169 9.47858 19.3169Z" fill="white"/>
<path d="M11.7861 24.1885H7.17107C6.68906 24.1885 6.29691 24.5587 6.29691 25.0134V28.4398C7.28479 28.8353 8.35545 29.0601 9.47859 29.0601C10.6017 29.0601 11.6724 28.8352 12.6603 28.4398V25.0134C12.6603 24.5588 12.2681 24.1885 11.7861 24.1885Z" fill="white"/>
<path d="M28.5689 8.76174C29.4475 8.76174 30.1598 8.03469 30.1598 7.13783C30.1598 6.24096 29.4475 5.51392 28.5689 5.51392C27.6903 5.51392 26.978 6.24096 26.978 7.13783C26.978 8.03469 27.6903 8.76174 28.5689 8.76174Z" fill="white"/>
<path d="M30.8764 13.6333H26.2614C25.7794 13.6333 25.3872 14.0035 25.3872 14.4582V17.8847C26.3751 18.2801 27.4457 18.5049 28.5689 18.5049C29.692 18.5049 30.7627 18.28 31.7506 17.8847V14.4582C31.7506 14.0035 31.3584 13.6333 30.8764 13.6333Z" fill="white"/>
<path d="M38.9094 29.8721C39.788 29.8721 40.5003 29.145 40.5003 28.2482C40.5003 27.3513 39.788 26.6243 38.9094 26.6243C38.0308 26.6243 37.3185 27.3513 37.3185 28.2482C37.3185 29.145 38.0308 29.8721 38.9094 29.8721Z" fill="white"/>
<path d="M41.2169 34.7437H36.6019C36.1199 34.7437 35.7277 35.1139 35.7277 35.5686V38.995C36.7156 39.3904 37.7863 39.6153 38.9094 39.6153C40.0325 39.6153 41.1032 39.3904 42.0911 38.995V35.5686C42.0911 35.1147 41.6989 34.7437 41.2169 34.7437Z" fill="white"/>
<path d="M38.9094 21.7528C38.8029 21.7528 38.6994 21.765 38.5944 21.7691L35.221 15.3564C36.4317 13.9096 37.1913 12.0656 37.2946 10.0439L42.2987 12.5097C42.1706 12.8613 42.0911 13.2372 42.0911 13.6334C42.0911 15.4246 43.5181 16.8812 45.2728 16.8812C47.0275 16.8812 48.4544 15.4245 48.4544 13.6334C48.4544 11.8423 47.0274 10.3857 45.2728 10.3857C44.4909 10.3857 43.7838 10.6861 43.2293 11.1652L37.2015 8.19425C36.4665 3.38998 31.9796 -0.162218 26.9023 0.79993C23.4294 1.4576 20.6359 4.30018 19.9796 7.84267C19.8953 8.29739 19.8476 8.74716 19.8293 9.19046L15.1148 13.3078C13.7816 12.1582 12.1097 11.4079 10.2738 11.2383V7.02182C11.6419 6.65892 12.6601 5.39877 12.6601 3.88932C12.6601 2.09814 11.2331 0.641602 9.4784 0.641602C7.72365 0.641602 6.29672 2.09824 6.29672 3.88932C6.29672 5.39867 7.3149 6.65883 8.68301 7.02182V11.2383C4.23016 11.6507 0.728756 15.4774 0.728756 20.1282C0.728756 23.2558 2.31489 26.0082 4.70593 27.6046V25.0129C4.70593 23.6626 5.81238 22.564 7.17098 22.564H11.786C13.1454 22.564 14.2511 23.6626 14.2511 25.0129V27.6046C16.238 26.2787 17.6531 24.1482 18.0802 21.6734L21.67 24.5297C21.5037 24.9235 21.4091 25.3563 21.4091 25.8118C21.4091 27.6029 22.8361 29.0595 24.5908 29.0595C26.3454 29.0595 27.7724 27.6028 27.7724 25.8118C27.7724 24.0206 26.3454 22.564 24.5908 22.564C23.8589 22.564 23.1924 22.8279 22.6539 23.2534L18.2066 19.715C18.1175 17.7282 17.3993 15.9062 16.2371 14.4642L19.9676 11.2051C20.4122 13.6441 21.8305 15.7373 23.7952 17.0485V14.4569C23.7952 13.1066 24.9016 12.008 26.2602 12.008H30.8753C32.2346 12.008 33.3403 13.1066 33.3403 14.4569V15.3078C33.3403 15.6479 33.5328 15.9103 33.7865 16.0459L36.9157 21.995C33.0499 22.9197 30.1594 26.4598 30.1594 30.6835C30.1594 31.6927 30.3399 32.6556 30.6438 33.5602L27.4232 36.0261C25.9166 33.3248 23.0754 31.4955 19.8181 31.4955C15.2619 31.4955 11.5122 35.0697 11.109 39.6148H6.97774C6.62223 38.2183 5.38686 37.179 3.90895 37.179C2.15428 37.1788 0.727264 38.6355 0.727264 40.4267C0.727264 42.2178 2.15428 43.6744 3.90895 43.6744C5.38686 43.6744 6.62213 42.6351 6.97774 41.2386H11.1195C11.3685 44.0251 12.8647 46.4471 15.0458 47.903V45.3113C15.0458 43.9611 16.1523 42.8625 17.5109 42.8625H22.1259C23.4852 42.8625 24.5909 43.9611 24.5909 45.3113V47.903C26.4578 46.6575 27.8212 44.7015 28.335 42.4176L33.5482 44.9873C33.4201 45.3389 33.3406 45.7149 33.3406 46.1111C33.3406 47.9022 34.7676 49.3588 36.5223 49.3588C38.277 49.3588 39.704 47.9021 39.704 46.1111C39.704 44.32 38.2769 42.8633 36.5223 42.8633C35.7404 42.8633 35.0333 43.1637 34.4788 43.6428L28.5498 40.7207C28.5529 40.6216 28.568 40.5267 28.568 40.4275C28.568 39.4175 28.3954 38.4504 28.0916 37.5443L31.3059 35.0833C31.9987 36.3223 32.9691 37.3803 34.1368 38.1597V35.5681C34.1368 34.2178 35.2433 33.1192 36.6019 33.1192H41.2169C42.5763 33.1192 43.682 34.2178 43.682 35.5681V38.1597C46.073 36.5634 47.6591 33.8109 47.6591 30.6834C47.6591 25.7597 43.7337 21.7528 38.9094 21.7528ZM9.47859 20.9409C7.72383 20.9409 6.29691 19.4843 6.29691 17.6932C6.29691 15.9021 7.72392 14.4454 9.47859 14.4454C11.2333 14.4454 12.6603 15.9021 12.6603 17.6932C12.6603 19.4843 11.2325 20.9409 9.47859 20.9409ZM28.5689 10.3857C26.8141 10.3857 25.3872 8.92908 25.3872 7.138C25.3872 5.34691 26.8142 3.89028 28.5689 3.89028C30.3235 3.89028 31.7505 5.34691 31.7505 7.138C31.7505 8.92908 30.3228 10.3857 28.5689 10.3857ZM19.8191 41.2393C18.0644 41.2393 16.6374 39.7827 16.6374 37.9916C16.6374 36.2004 18.0645 34.7439 19.8191 34.7439C21.5738 34.7439 23.0008 36.2005 23.0008 37.9916C23.0008 39.7828 21.573 41.2393 19.8191 41.2393ZM38.9094 31.4961C37.1546 31.4961 35.7277 30.0394 35.7277 28.2483C35.7277 26.4572 37.1547 25.0006 38.9094 25.0006C40.6641 25.0006 42.0911 26.4573 42.0911 28.2483C42.0911 30.0403 40.6633 31.4961 38.9094 31.4961Z" fill="white"/>
<path d="M19.8191 39.6155C20.6978 39.6155 21.41 38.8884 21.41 37.9916C21.41 37.0947 20.6978 36.3677 19.8191 36.3677C18.9405 36.3677 18.2282 37.0947 18.2282 37.9916C18.2282 38.8884 18.9405 39.6155 19.8191 39.6155Z" fill="white"/>
<path d="M22.1266 44.4871H17.5116C17.0296 44.4871 16.6375 44.8573 16.6375 45.312V48.7384C17.6253 49.1339 18.696 49.3587 19.8191 49.3587C20.9423 49.3587 22.0129 49.1338 23.0008 48.7384V45.312C23.0008 44.8581 22.6087 44.4871 22.1266 44.4871Z" fill="white"/>
</svg>
