<svg width="59" height="42" viewBox="0 0 59 42" fill="none" xmlns="http://www.w3.org/2000/svg">
<g clip-path="url(#clip0)">
<path fill-rule="evenodd" clip-rule="evenodd" d="M17.0207 12.7638H24.1602V10.4248H26.54V12.7638H28.9199V8.08593H31.2997V12.7638H33.6795V5.74701H36.0593V12.7638H43.1988V0.991211H17.0207V12.7638Z" fill="white"/>
<path fill-rule="evenodd" clip-rule="evenodd" d="M20.5904 40.9085H39.6291C39.5197 40.4471 39.2452 39.8877 39.0624 39.4383C38.8713 38.9682 38.6808 38.5009 38.4731 37.9905C38.188 37.2898 34.9788 29.4908 34.9488 29.136H25.2708C25.2349 29.5599 23.1453 34.5143 22.9363 35.0278L20.5904 40.9085Z" fill="white"/>
<path fill-rule="evenodd" clip-rule="evenodd" d="M50.4176 40.9088C50.4176 38.2584 48.6121 36.7022 46.2133 36.153C46.3252 36.0831 46.7453 36.0524 47.401 35.6831C50.4701 33.9543 49.3015 29.1326 45.5786 29.1326C41.913 29.1325 40.6695 33.861 43.7061 35.6543C44.2369 35.9678 44.3271 35.9119 44.7794 36.0808L44.944 36.153C43.5625 36.4693 42.921 36.8215 42.0668 37.6912C41.3647 38.4058 40.819 39.5233 40.819 40.9088H50.4176Z" fill="white"/>
<path fill-rule="evenodd" clip-rule="evenodd" d="M9.80191 40.9088H19.4006C19.4006 39.5265 18.8777 38.4552 18.1918 37.7307C17.5001 37 16.762 36.5152 15.7797 36.2812C15.4062 36.1922 15.5284 36.3079 15.3548 36.075C16.8731 36.0418 19.1986 33.6166 17.8155 31.0059C16.4993 28.5215 12.7921 28.5025 11.4662 31.0059C10.5358 32.7626 11.254 34.76 12.7684 35.6544C13.2991 35.9678 13.3893 35.912 13.8417 36.0809L13.9525 36.1279C13.9644 36.1329 13.9895 36.1426 14.0063 36.153C13.1931 36.3392 12.3081 36.642 11.6868 37.1479C10.5114 38.1048 9.80191 39.3164 9.80191 40.9088Z" fill="white"/>
<path fill-rule="evenodd" clip-rule="evenodd" d="M34.8694 18.455C34.8694 19.8666 35.4814 21.0054 36.6165 21.6497C36.8914 21.8057 37.39 22.0322 37.8045 22.0413C37.5989 22.3171 37.8669 22.1123 37.4993 22.2091C36.4676 22.4808 35.7463 22.7074 34.9668 23.5404C34.2072 24.3522 33.6795 25.401 33.6795 26.7971H43.1988C43.1988 24.8467 42.2215 23.5203 40.7374 22.6672C39.7048 22.0736 39.3436 22.4033 39.0738 22.0413C40.4003 22.0413 42.0089 20.3735 42.0089 18.8448V18.455C42.0089 16.6418 40.4603 15.1025 38.2805 15.1025C36.5056 15.1025 34.8694 16.7033 34.8694 18.455Z" fill="white"/>
<path fill-rule="evenodd" clip-rule="evenodd" d="M15.8308 18.455C15.8308 19.5125 16.0626 20.2812 16.7216 20.9319C17.2517 21.4554 17.9212 22.0228 18.7659 22.0413C18.5603 22.3171 18.8283 22.1123 18.4607 22.2091C17.9846 22.3345 17.7763 22.3097 17.2041 22.6114C16.9789 22.7301 16.7206 22.8982 16.5329 23.0431C15.3798 23.9338 14.6409 25.0895 14.6409 26.7971H24.1602C24.1602 25.2236 23.6474 24.5346 22.9379 23.6324C22.4119 22.9637 21.3913 22.4247 20.4736 22.2341C20.0719 22.1506 20.2219 22.2918 20.0352 22.0413C20.9155 22.0413 21.5731 21.4255 22.0394 20.9705C23.9114 19.1435 22.9743 15.1025 19.2419 15.1025C17.467 15.1025 15.8308 16.7033 15.8308 18.455Z" fill="white"/>
</g>
<defs>
<clipPath id="clip0">
<rect width="59" height="41" fill="white" transform="translate(0 0.248291)"/>
</clipPath>
</defs>
</svg>
